<?xml version="1.0" standalone="no"?> <!DOCTYPE svg PUBLIC "-//W3C//DTD SVG 1.1//EN" "http://www.w3.org/Graphics/SVG/1.1/DTD/svg11.dtd">
<svg width="1600" height="1600" version="1.1" xmlns="http://www.w3.org/2000/svg">
<line x1="25" y1="25" x2="45.4467045630991" y2="101.308140276836" style="stroke:rgb(99,99,99);stroke-width:1"/> 
<line x1="25" y1="25" x2="101.308140276836" y2="4.55329543690087" style="stroke:rgb(99,99,99);stroke-width:1"/> 
<line x1="45.4467045630991" y1="101.308140276836" x2="4.55329543690085" y2="142.201549403035" style="stroke:rgb(99,99,99);stroke-width:1"/> 
<line x1="101.308140276836" y1="4.55329543690087" x2="142.201549403035" y2="45.4467045630991" style="stroke:rgb(99,99,99);stroke-width:1"/> 
<line x1="4.55329543690085" y1="142.201549403035" x2="25" y2="218.509689679871" style="stroke:rgb(99,99,99);stroke-width:1"/> 
<line x1="45.4467045630991" y1="101.308140276836" x2="121.754844839936" y2="121.754844839936" style="stroke:rgb(99,99,99);stroke-width:1"/> 
<line x1="142.201549403035" y1="45.4467045630991" x2="121.754844839936" y2="121.754844839936" style="stroke:rgb(99,99,99);stroke-width:1"/> 
<line x1="142.201549403035" y1="45.4467045630991" x2="218.509689679871" y2="25" style="stroke:rgb(99,99,99);stroke-width:1"/> 
<line x1="121.754844839936" y1="121.754844839936" x2="101.308140276836" y2="198.062985116772" style="stroke:rgb(99,99,99);stroke-width:1"/> 
<line x1="121.754844839936" y1="121.754844839936" x2="198.062985116772" y2="142.201549403035" style="stroke:rgb(99,99,99);stroke-width:1"/> 
<line x1="218.509689679871" y1="25" x2="238.95639424297" y2="101.308140276836" style="stroke:rgb(99,99,99);stroke-width:1"/> 
<line x1="218.509689679871" y1="25" x2="294.817829956707" y2="4.55329543690087" style="stroke:rgb(99,99,99);stroke-width:1"/> 
<line x1="238.95639424297" y1="101.308140276836" x2="198.062985116772" y2="142.201549403035" style="stroke:rgb(99,99,99);stroke-width:1"/> 
<line x1="294.817829956707" y1="4.55329543690087" x2="335.711239082906" y2="45.4467045630991" style="stroke:rgb(99,99,99);stroke-width:1"/> 
<line x1="198.062985116772" y1="142.201549403035" x2="218.509689679871" y2="218.509689679871" style="stroke:rgb(99,99,99);stroke-width:1"/> 
<line x1="238.95639424297" y1="101.308140276836" x2="315.264534519807" y2="121.754844839936" style="stroke:rgb(99,99,99);stroke-width:1"/> 
<line x1="335.711239082906" y1="45.4467045630991" x2="315.264534519807" y2="121.754844839936" style="stroke:rgb(99,99,99);stroke-width:1"/> 
<line x1="335.711239082906" y1="45.4467045630991" x2="412.019379359742" y2="25.0000000000001" style="stroke:rgb(99,99,99);stroke-width:1"/> 
<line x1="315.264534519807" y1="121.754844839936" x2="294.817829956707" y2="198.062985116772" style="stroke:rgb(99,99,99);stroke-width:1"/> 
<line x1="315.264534519807" y1="121.754844839936" x2="391.572674796643" y2="142.201549403035" style="stroke:rgb(99,99,99);stroke-width:1"/> 
<line x1="412.019379359742" y1="25.0000000000001" x2="432.466083922841" y2="101.308140276836" style="stroke:rgb(99,99,99);stroke-width:1"/> 
<line x1="412.019379359742" y1="25.0000000000001" x2="488.327519636578" y2="4.55329543690092" style="stroke:rgb(99,99,99);stroke-width:1"/> 
<line x1="432.466083922841" y1="101.308140276836" x2="391.572674796643" y2="142.201549403035" style="stroke:rgb(99,99,99);stroke-width:1"/> 
<line x1="488.327519636578" y1="4.55329543690092" x2="529.220928762777" y2="45.4467045630992" style="stroke:rgb(99,99,99);stroke-width:1"/> 
<line x1="391.572674796643" y1="142.201549403035" x2="412.019379359742" y2="218.509689679871" style="stroke:rgb(99,99,99);stroke-width:1"/> 
<line x1="432.466083922841" y1="101.308140276836" x2="508.774224199678" y2="121.754844839936" style="stroke:rgb(99,99,99);stroke-width:1"/> 
<line x1="529.220928762777" y1="45.4467045630992" x2="508.774224199678" y2="121.754844839936" style="stroke:rgb(99,99,99);stroke-width:1"/> 
<line x1="529.220928762777" y1="45.4467045630992" x2="605.529069039613" y2="25.0000000000001" style="stroke:rgb(99,99,99);stroke-width:1"/> 
<line x1="508.774224199678" y1="121.754844839936" x2="488.327519636579" y2="198.062985116772" style="stroke:rgb(99,99,99);stroke-width:1"/> 
<line x1="508.774224199678" y1="121.754844839936" x2="585.082364476514" y2="142.201549403035" style="stroke:rgb(99,99,99);stroke-width:1"/> 
<line x1="605.529069039613" y1="25.0000000000001" x2="625.975773602712" y2="101.308140276836" style="stroke:rgb(99,99,99);stroke-width:1"/> 
<line x1="605.529069039613" y1="25.0000000000001" x2="681.83720931645" y2="4.55329543690095" style="stroke:rgb(99,99,99);stroke-width:1"/> 
<line x1="625.975773602712" y1="101.308140276836" x2="585.082364476514" y2="142.201549403035" style="stroke:rgb(99,99,99);stroke-width:1"/> 
<line x1="681.83720931645" y1="4.55329543690095" x2="722.730618442648" y2="45.4467045630992" style="stroke:rgb(99,99,99);stroke-width:1"/> 
<line x1="585.082364476514" y1="142.201549403035" x2="605.529069039613" y2="218.509689679871" style="stroke:rgb(99,99,99);stroke-width:1"/> 
<line x1="625.975773602712" y1="101.308140276836" x2="702.283913879549" y2="121.754844839936" style="stroke:rgb(99,99,99);stroke-width:1"/> 
<line x1="722.730618442648" y1="45.4467045630992" x2="702.283913879549" y2="121.754844839936" style="stroke:rgb(99,99,99);stroke-width:1"/> 
<line x1="722.730618442648" y1="45.4467045630992" x2="799.038758719484" y2="25.0000000000001" style="stroke:rgb(99,99,99);stroke-width:1"/> 
<line x1="702.283913879549" y1="121.754844839936" x2="681.83720931645" y2="198.062985116772" style="stroke:rgb(99,99,99);stroke-width:1"/> 
<line x1="702.283913879549" y1="121.754844839936" x2="778.592054156385" y2="142.201549403035" style="stroke:rgb(99,99,99);stroke-width:1"/> 
<line x1="799.038758719484" y1="25.0000000000001" x2="819.485463282583" y2="101.308140276836" style="stroke:rgb(99,99,99);stroke-width:1"/> 
<line x1="799.038758719484" y1="25.0000000000001" x2="875.346898996321" y2="4.55329543690095" style="stroke:rgb(99,99,99);stroke-width:1"/> 
<line x1="819.485463282583" y1="101.308140276836" x2="778.592054156385" y2="142.201549403035" style="stroke:rgb(99,99,99);stroke-width:1"/> 
<line x1="875.346898996321" y1="4.55329543690095" x2="916.240308122519" y2="45.4467045630992" style="stroke:rgb(99,99,99);stroke-width:1"/> 
<line x1="778.592054156385" y1="142.201549403035" x2="799.038758719484" y2="218.509689679871" style="stroke:rgb(99,99,99);stroke-width:1"/> 
<line x1="819.485463282583" y1="101.308140276836" x2="895.79360355942" y2="121.754844839936" style="stroke:rgb(99,99,99);stroke-width:1"/> 
<line x1="916.240308122519" y1="45.4467045630992" x2="895.79360355942" y2="121.754844839936" style="stroke:rgb(99,99,99);stroke-width:1"/> 
<line x1="916.240308122519" y1="45.4467045630992" x2="992.548448399355" y2="25.0000000000001" style="stroke:rgb(99,99,99);stroke-width:1"/> 
<line x1="895.79360355942" y1="121.754844839936" x2="875.346898996321" y2="198.062985116772" style="stroke:rgb(99,99,99);stroke-width:1"/> 
<line x1="895.79360355942" y1="121.754844839936" x2="972.101743836256" y2="142.201549403035" style="stroke:rgb(99,99,99);stroke-width:1"/> 
<line x1="992.548448399355" y1="25.0000000000001" x2="1012.99515296245" y2="101.308140276837" style="stroke:rgb(99,99,99);stroke-width:1"/> 
<line x1="992.548448399355" y1="25.0000000000001" x2="1068.85658867619" y2="4.55329543690095" style="stroke:rgb(99,99,99);stroke-width:1"/> 
<line x1="1012.99515296245" y1="101.308140276837" x2="972.101743836256" y2="142.201549403035" style="stroke:rgb(99,99,99);stroke-width:1"/> 
<line x1="1068.85658867619" y1="4.55329543690095" x2="1109.74999780239" y2="45.4467045630992" style="stroke:rgb(99,99,99);stroke-width:1"/> 
<line x1="972.101743836256" y1="142.201549403035" x2="992.548448399355" y2="218.509689679871" style="stroke:rgb(99,99,99);stroke-width:1"/> 
<line x1="1012.99515296245" y1="101.308140276837" x2="1089.30329323929" y2="121.754844839936" style="stroke:rgb(99,99,99);stroke-width:1"/> 
<line x1="1109.74999780239" y1="45.4467045630992" x2="1089.30329323929" y2="121.754844839936" style="stroke:rgb(99,99,99);stroke-width:1"/> 
<line x1="1109.74999780239" y1="45.4467045630992" x2="1186.05813807923" y2="25.0000000000001" style="stroke:rgb(99,99,99);stroke-width:1"/> 
<line x1="1089.30329323929" y1="121.754844839936" x2="1068.85658867619" y2="198.062985116772" style="stroke:rgb(99,99,99);stroke-width:1"/> 
<line x1="1089.30329323929" y1="121.754844839936" x2="1165.61143351613" y2="142.201549403035" style="stroke:rgb(99,99,99);stroke-width:1"/> 
<line x1="1186.05813807923" y1="25.0000000000001" x2="1206.50484264233" y2="101.308140276837" style="stroke:rgb(99,99,99);stroke-width:1"/> 
<line x1="1186.05813807923" y1="25.0000000000001" x2="1262.36627835606" y2="4.55329543690095" style="stroke:rgb(99,99,99);stroke-width:1"/> 
<line x1="1206.50484264233" y1="101.308140276837" x2="1165.61143351613" y2="142.201549403035" style="stroke:rgb(99,99,99);stroke-width:1"/> 
<line x1="1262.36627835606" y1="4.55329543690095" x2="1303.25968748226" y2="45.4467045630993" style="stroke:rgb(99,99,99);stroke-width:1"/> 
<line x1="1165.61143351613" y1="142.201549403035" x2="1186.05813807923" y2="218.509689679871" style="stroke:rgb(99,99,99);stroke-width:1"/> 
<line x1="1206.50484264233" y1="101.308140276837" x2="1282.81298291916" y2="121.754844839936" style="stroke:rgb(99,99,99);stroke-width:1"/> 
<line x1="1303.25968748226" y1="45.4467045630993" x2="1282.81298291916" y2="121.754844839936" style="stroke:rgb(99,99,99);stroke-width:1"/> 
<line x1="1303.25968748226" y1="45.4467045630993" x2="1379.5678277591" y2="25.0000000000001" style="stroke:rgb(99,99,99);stroke-width:1"/> 
<line x1="1282.81298291916" y1="121.754844839936" x2="1262.36627835606" y2="198.062985116772" style="stroke:rgb(99,99,99);stroke-width:1"/> 
<line x1="1282.81298291916" y1="121.754844839936" x2="1359.121123196" y2="142.201549403035" style="stroke:rgb(99,99,99);stroke-width:1"/> 
<line x1="1379.5678277591" y1="25.0000000000001" x2="1400.0145323222" y2="101.308140276836" style="stroke:rgb(99,99,99);stroke-width:1"/> 
<line x1="1379.5678277591" y1="25.0000000000001" x2="1455.87596803593" y2="4.55329543690107" style="stroke:rgb(99,99,99);stroke-width:1"/> 
<line x1="1400.0145323222" y1="101.308140276836" x2="1359.121123196" y2="142.201549403035" style="stroke:rgb(99,99,99);stroke-width:1"/> 
<line x1="1455.87596803593" y1="4.55329543690107" x2="1496.76937716213" y2="45.4467045630993" style="stroke:rgb(99,99,99);stroke-width:1"/> 
<line x1="1359.121123196" y1="142.201549403035" x2="1379.5678277591" y2="218.509689679871" style="stroke:rgb(99,99,99);stroke-width:1"/> 
<line x1="1400.0145323222" y1="101.308140276836" x2="1476.32267259903" y2="121.754844839936" style="stroke:rgb(99,99,99);stroke-width:1"/> 
<line x1="1496.76937716213" y1="45.4467045630993" x2="1476.32267259903" y2="121.754844839936" style="stroke:rgb(99,99,99);stroke-width:1"/> 
<line x1="1496.76937716213" y1="45.4467045630993" x2="1573.07751743897" y2="25.0000000000002" style="stroke:rgb(99,99,99);stroke-width:1"/> 
<line x1="1476.32267259903" y1="121.754844839936" x2="1455.87596803593" y2="198.062985116772" style="stroke:rgb(99,99,99);stroke-width:1"/> 
<line x1="1476.32267259903" y1="121.754844839936" x2="1552.63081287587" y2="142.201549403035" style="stroke:rgb(99,99,99);stroke-width:1"/> 
<line x1="1573.07751743897" y1="25.0000000000002" x2="1593.52422200207" y2="101.308140276837" style="stroke:rgb(99,99,99);stroke-width:1"/> 
<line x1="1593.52422200207" y1="101.308140276837" x2="1552.63081287587" y2="142.201549403035" style="stroke:rgb(99,99,99);stroke-width:1"/> 
<line x1="1552.63081287587" y1="142.201549403035" x2="1573.07751743897" y2="218.509689679871" style="stroke:rgb(99,99,99);stroke-width:1"/> 
<line x1="25" y1="218.509689679871" x2="45.4467045630991" y2="294.817829956707" style="stroke:rgb(99,99,99);stroke-width:1"/> 
<line x1="25" y1="218.509689679871" x2="101.308140276836" y2="198.062985116772" style="stroke:rgb(99,99,99);stroke-width:1"/> 
<line x1="45.4467045630991" y1="294.817829956707" x2="4.55329543690087" y2="335.711239082906" style="stroke:rgb(99,99,99);stroke-width:1"/> 
<line x1="101.308140276836" y1="198.062985116772" x2="142.201549403035" y2="238.95639424297" style="stroke:rgb(99,99,99);stroke-width:1"/> 
<line x1="4.55329543690087" y1="335.711239082906" x2="24.9999999999999" y2="412.019379359742" style="stroke:rgb(99,99,99);stroke-width:1"/> 
<line x1="45.4467045630991" y1="294.817829956707" x2="121.754844839935" y2="315.264534519807" style="stroke:rgb(99,99,99);stroke-width:1"/> 
<line x1="142.201549403035" y1="238.95639424297" x2="121.754844839935" y2="315.264534519807" style="stroke:rgb(99,99,99);stroke-width:1"/> 
<line x1="142.201549403035" y1="238.95639424297" x2="218.509689679871" y2="218.509689679871" style="stroke:rgb(99,99,99);stroke-width:1"/> 
<line x1="121.754844839935" y1="315.264534519807" x2="101.308140276836" y2="391.572674796643" style="stroke:rgb(99,99,99);stroke-width:1"/> 
<line x1="121.754844839935" y1="315.264534519807" x2="198.062985116772" y2="335.711239082906" style="stroke:rgb(99,99,99);stroke-width:1"/> 
<line x1="218.509689679871" y1="218.509689679871" x2="238.95639424297" y2="294.817829956707" style="stroke:rgb(99,99,99);stroke-width:1"/> 
<line x1="218.509689679871" y1="218.509689679871" x2="294.817829956707" y2="198.062985116772" style="stroke:rgb(99,99,99);stroke-width:1"/> 
<line x1="238.95639424297" y1="294.817829956707" x2="198.062985116772" y2="335.711239082906" style="stroke:rgb(99,99,99);stroke-width:1"/> 
<line x1="294.817829956707" y1="198.062985116772" x2="335.711239082906" y2="238.95639424297" style="stroke:rgb(99,99,99);stroke-width:1"/> 
<line x1="198.062985116772" y1="335.711239082906" x2="218.509689679871" y2="412.019379359742" style="stroke:rgb(99,99,99);stroke-width:1"/> 
<line x1="238.95639424297" y1="294.817829956707" x2="315.264534519807" y2="315.264534519807" style="stroke:rgb(99,99,99);stroke-width:1"/> 
<line x1="335.711239082906" y1="238.95639424297" x2="315.264534519807" y2="315.264534519807" style="stroke:rgb(99,99,99);stroke-width:1"/> 
<line x1="335.711239082906" y1="238.95639424297" x2="412.019379359742" y2="218.509689679871" style="stroke:rgb(99,99,99);stroke-width:1"/> 
<line x1="315.264534519807" y1="315.264534519807" x2="294.817829956707" y2="391.572674796643" style="stroke:rgb(99,99,99);stroke-width:1"/> 
<line x1="315.264534519807" y1="315.264534519807" x2="391.572674796643" y2="335.711239082906" style="stroke:rgb(99,99,99);stroke-width:1"/> 
<line x1="412.019379359742" y1="218.509689679871" x2="432.466083922841" y2="294.817829956707" style="stroke:rgb(99,99,99);stroke-width:1"/> 
<line x1="412.019379359742" y1="218.509689679871" x2="488.327519636579" y2="198.062985116772" style="stroke:rgb(99,99,99);stroke-width:1"/> 
<line x1="432.466083922841" y1="294.817829956707" x2="391.572674796643" y2="335.711239082906" style="stroke:rgb(99,99,99);stroke-width:1"/> 
<line x1="488.327519636579" y1="198.062985116772" x2="529.220928762777" y2="238.95639424297" style="stroke:rgb(99,99,99);stroke-width:1"/> 
<line x1="391.572674796643" y1="335.711239082906" x2="412.019379359742" y2="412.019379359742" style="stroke:rgb(99,99,99);stroke-width:1"/> 
<line x1="432.466083922841" y1="294.817829956707" x2="508.774224199678" y2="315.264534519807" style="stroke:rgb(99,99,99);stroke-width:1"/> 
<line x1="529.220928762777" y1="238.95639424297" x2="508.774224199678" y2="315.264534519807" style="stroke:rgb(99,99,99);stroke-width:1"/> 
<line x1="529.220928762777" y1="238.95639424297" x2="605.529069039613" y2="218.509689679871" style="stroke:rgb(99,99,99);stroke-width:1"/> 
<line x1="508.774224199678" y1="315.264534519807" x2="488.327519636578" y2="391.572674796643" style="stroke:rgb(99,99,99);stroke-width:1"/> 
<line x1="508.774224199678" y1="315.264534519807" x2="585.082364476514" y2="335.711239082906" style="stroke:rgb(99,99,99);stroke-width:1"/> 
<line x1="605.529069039613" y1="218.509689679871" x2="625.975773602712" y2="294.817829956708" style="stroke:rgb(99,99,99);stroke-width:1"/> 
<line x1="605.529069039613" y1="218.509689679871" x2="681.83720931645" y2="198.062985116772" style="stroke:rgb(99,99,99);stroke-width:1"/> 
<line x1="625.975773602712" y1="294.817829956708" x2="585.082364476514" y2="335.711239082906" style="stroke:rgb(99,99,99);stroke-width:1"/> 
<line x1="681.83720931645" y1="198.062985116772" x2="722.730618442648" y2="238.95639424297" style="stroke:rgb(99,99,99);stroke-width:1"/> 
<line x1="585.082364476514" y1="335.711239082906" x2="605.529069039613" y2="412.019379359742" style="stroke:rgb(99,99,99);stroke-width:1"/> 
<line x1="625.975773602712" y1="294.817829956708" x2="702.283913879549" y2="315.264534519807" style="stroke:rgb(99,99,99);stroke-width:1"/> 
<line x1="722.730618442648" y1="238.95639424297" x2="702.283913879549" y2="315.264534519807" style="stroke:rgb(99,99,99);stroke-width:1"/> 
<line x1="722.730618442648" y1="238.95639424297" x2="799.038758719484" y2="218.509689679871" style="stroke:rgb(99,99,99);stroke-width:1"/> 
<line x1="702.283913879549" y1="315.264534519807" x2="681.83720931645" y2="391.572674796643" style="stroke:rgb(99,99,99);stroke-width:1"/> 
<line x1="702.283913879549" y1="315.264534519807" x2="778.592054156385" y2="335.711239082906" style="stroke:rgb(99,99,99);stroke-width:1"/> 
<line x1="799.038758719484" y1="218.509689679871" x2="819.485463282583" y2="294.817829956707" style="stroke:rgb(99,99,99);stroke-width:1"/> 
<line x1="799.038758719484" y1="218.509689679871" x2="875.346898996321" y2="198.062985116772" style="stroke:rgb(99,99,99);stroke-width:1"/> 
<line x1="819.485463282583" y1="294.817829956707" x2="778.592054156385" y2="335.711239082906" style="stroke:rgb(99,99,99);stroke-width:1"/> 
<line x1="875.346898996321" y1="198.062985116772" x2="916.240308122519" y2="238.95639424297" style="stroke:rgb(99,99,99);stroke-width:1"/> 
<line x1="778.592054156385" y1="335.711239082906" x2="799.038758719484" y2="412.019379359742" style="stroke:rgb(99,99,99);stroke-width:1"/> 
<line x1="819.485463282583" y1="294.817829956707" x2="895.79360355942" y2="315.264534519807" style="stroke:rgb(99,99,99);stroke-width:1"/> 
<line x1="916.240308122519" y1="238.95639424297" x2="895.79360355942" y2="315.264534519807" style="stroke:rgb(99,99,99);stroke-width:1"/> 
<line x1="916.240308122519" y1="238.95639424297" x2="992.548448399355" y2="218.509689679871" style="stroke:rgb(99,99,99);stroke-width:1"/> 
<line x1="895.79360355942" y1="315.264534519807" x2="875.346898996321" y2="391.572674796643" style="stroke:rgb(99,99,99);stroke-width:1"/> 
<line x1="895.79360355942" y1="315.264534519807" x2="972.101743836256" y2="335.711239082906" style="stroke:rgb(99,99,99);stroke-width:1"/> 
<line x1="992.548448399355" y1="218.509689679871" x2="1012.99515296245" y2="294.817829956708" style="stroke:rgb(99,99,99);stroke-width:1"/> 
<line x1="992.548448399355" y1="218.509689679871" x2="1068.85658867619" y2="198.062985116772" style="stroke:rgb(99,99,99);stroke-width:1"/> 
<line x1="1012.99515296245" y1="294.817829956708" x2="972.101743836256" y2="335.711239082906" style="stroke:rgb(99,99,99);stroke-width:1"/> 
<line x1="1068.85658867619" y1="198.062985116772" x2="1109.74999780239" y2="238.95639424297" style="stroke:rgb(99,99,99);stroke-width:1"/> 
<line x1="972.101743836256" y1="335.711239082906" x2="992.548448399355" y2="412.019379359742" style="stroke:rgb(99,99,99);stroke-width:1"/> 
<line x1="1012.99515296245" y1="294.817829956708" x2="1089.30329323929" y2="315.264534519807" style="stroke:rgb(99,99,99);stroke-width:1"/> 
<line x1="1109.74999780239" y1="238.95639424297" x2="1089.30329323929" y2="315.264534519807" style="stroke:rgb(99,99,99);stroke-width:1"/> 
<line x1="1109.74999780239" y1="238.95639424297" x2="1186.05813807923" y2="218.509689679871" style="stroke:rgb(99,99,99);stroke-width:1"/> 
<line x1="1089.30329323929" y1="315.264534519807" x2="1068.85658867619" y2="391.572674796643" style="stroke:rgb(99,99,99);stroke-width:1"/> 
<line x1="1089.30329323929" y1="315.264534519807" x2="1165.61143351613" y2="335.711239082906" style="stroke:rgb(99,99,99);stroke-width:1"/> 
<line x1="1186.05813807923" y1="218.509689679871" x2="1206.50484264233" y2="294.817829956707" style="stroke:rgb(99,99,99);stroke-width:1"/> 
<line x1="1186.05813807923" y1="218.509689679871" x2="1262.36627835606" y2="198.062985116772" style="stroke:rgb(99,99,99);stroke-width:1"/> 
<line x1="1206.50484264233" y1="294.817829956707" x2="1165.61143351613" y2="335.711239082906" style="stroke:rgb(99,99,99);stroke-width:1"/> 
<line x1="1262.36627835606" y1="198.062985116772" x2="1303.25968748226" y2="238.95639424297" style="stroke:rgb(99,99,99);stroke-width:1"/> 
<line x1="1165.61143351613" y1="335.711239082906" x2="1186.05813807923" y2="412.019379359742" style="stroke:rgb(99,99,99);stroke-width:1"/> 
<line x1="1206.50484264233" y1="294.817829956707" x2="1282.81298291916" y2="315.264534519807" style="stroke:rgb(99,99,99);stroke-width:1"/> 
<line x1="1303.25968748226" y1="238.95639424297" x2="1282.81298291916" y2="315.264534519807" style="stroke:rgb(99,99,99);stroke-width:1"/> 
<line x1="1303.25968748226" y1="238.95639424297" x2="1379.5678277591" y2="218.509689679871" style="stroke:rgb(99,99,99);stroke-width:1"/> 
<line x1="1282.81298291916" y1="315.264534519807" x2="1262.36627835606" y2="391.572674796643" style="stroke:rgb(99,99,99);stroke-width:1"/> 
<line x1="1282.81298291916" y1="315.264534519807" x2="1359.121123196" y2="335.711239082906" style="stroke:rgb(99,99,99);stroke-width:1"/> 
<line x1="1379.5678277591" y1="218.509689679871" x2="1400.0145323222" y2="294.817829956708" style="stroke:rgb(99,99,99);stroke-width:1"/> 
<line x1="1379.5678277591" y1="218.509689679871" x2="1455.87596803593" y2="198.062985116772" style="stroke:rgb(99,99,99);stroke-width:1"/> 
<line x1="1400.0145323222" y1="294.817829956708" x2="1359.121123196" y2="335.711239082906" style="stroke:rgb(99,99,99);stroke-width:1"/> 
<line x1="1455.87596803593" y1="198.062985116772" x2="1496.76937716213" y2="238.95639424297" style="stroke:rgb(99,99,99);stroke-width:1"/> 
<line x1="1359.121123196" y1="335.711239082906" x2="1379.5678277591" y2="412.019379359742" style="stroke:rgb(99,99,99);stroke-width:1"/> 
<line x1="1400.0145323222" y1="294.817829956708" x2="1476.32267259903" y2="315.264534519807" style="stroke:rgb(99,99,99);stroke-width:1"/> 
<line x1="1496.76937716213" y1="238.95639424297" x2="1476.32267259903" y2="315.264534519807" style="stroke:rgb(99,99,99);stroke-width:1"/> 
<line x1="1496.76937716213" y1="238.95639424297" x2="1573.07751743897" y2="218.509689679871" style="stroke:rgb(99,99,99);stroke-width:1"/> 
<line x1="1476.32267259903" y1="315.264534519807" x2="1455.87596803593" y2="391.572674796643" style="stroke:rgb(99,99,99);stroke-width:1"/> 
<line x1="1476.32267259903" y1="315.264534519807" x2="1552.63081287587" y2="335.711239082906" style="stroke:rgb(99,99,99);stroke-width:1"/> 
<line x1="1573.07751743897" y1="218.509689679871" x2="1593.52422200207" y2="294.817829956707" style="stroke:rgb(99,99,99);stroke-width:1"/> 
<line x1="1593.52422200207" y1="294.817829956707" x2="1552.63081287587" y2="335.711239082906" style="stroke:rgb(99,99,99);stroke-width:1"/> 
<line x1="1552.63081287587" y1="335.711239082906" x2="1573.07751743897" y2="412.019379359742" style="stroke:rgb(99,99,99);stroke-width:1"/> 
<line x1="24.9999999999999" y1="412.019379359742" x2="45.4467045630991" y2="488.327519636578" style="stroke:rgb(99,99,99);stroke-width:1"/> 
<line x1="24.9999999999999" y1="412.019379359742" x2="101.308140276836" y2="391.572674796643" style="stroke:rgb(99,99,99);stroke-width:1"/> 
<line x1="45.4467045630991" y1="488.327519636578" x2="4.55329543690081" y2="529.220928762777" style="stroke:rgb(99,99,99);stroke-width:1"/> 
<line x1="101.308140276836" y1="391.572674796643" x2="142.201549403035" y2="432.466083922841" style="stroke:rgb(99,99,99);stroke-width:1"/> 
<line x1="4.55329543690081" y1="529.220928762777" x2="24.9999999999999" y2="605.529069039613" style="stroke:rgb(99,99,99);stroke-width:1"/> 
<line x1="45.4467045630991" y1="488.327519636578" x2="121.754844839936" y2="508.774224199678" style="stroke:rgb(99,99,99);stroke-width:1"/> 
<line x1="142.201549403035" y1="432.466083922841" x2="121.754844839936" y2="508.774224199678" style="stroke:rgb(99,99,99);stroke-width:1"/> 
<line x1="142.201549403035" y1="432.466083922841" x2="218.509689679871" y2="412.019379359742" style="stroke:rgb(99,99,99);stroke-width:1"/> 
<line x1="121.754844839936" y1="508.774224199678" x2="101.308140276836" y2="585.082364476514" style="stroke:rgb(99,99,99);stroke-width:1"/> 
<line x1="121.754844839936" y1="508.774224199678" x2="198.062985116772" y2="529.220928762777" style="stroke:rgb(99,99,99);stroke-width:1"/> 
<line x1="218.509689679871" y1="412.019379359742" x2="238.95639424297" y2="488.327519636579" style="stroke:rgb(99,99,99);stroke-width:1"/> 
<line x1="218.509689679871" y1="412.019379359742" x2="294.817829956707" y2="391.572674796643" style="stroke:rgb(99,99,99);stroke-width:1"/> 
<line x1="238.95639424297" y1="488.327519636579" x2="198.062985116772" y2="529.220928762777" style="stroke:rgb(99,99,99);stroke-width:1"/> 
<line x1="294.817829956707" y1="391.572674796643" x2="335.711239082906" y2="432.466083922841" style="stroke:rgb(99,99,99);stroke-width:1"/> 
<line x1="198.062985116772" y1="529.220928762777" x2="218.509689679871" y2="605.529069039613" style="stroke:rgb(99,99,99);stroke-width:1"/> 
<line x1="238.95639424297" y1="488.327519636579" x2="315.264534519806" y2="508.774224199678" style="stroke:rgb(99,99,99);stroke-width:1"/> 
<line x1="335.711239082906" y1="432.466083922841" x2="315.264534519806" y2="508.774224199678" style="stroke:rgb(99,99,99);stroke-width:1"/> 
<line x1="335.711239082906" y1="432.466083922841" x2="412.019379359742" y2="412.019379359742" style="stroke:rgb(99,99,99);stroke-width:1"/> 
<line x1="315.264534519806" y1="508.774224199678" x2="294.817829956707" y2="585.082364476514" style="stroke:rgb(99,99,99);stroke-width:1"/> 
<line x1="315.264534519806" y1="508.774224199678" x2="391.572674796643" y2="529.220928762777" style="stroke:rgb(99,99,99);stroke-width:1"/> 
<line x1="412.019379359742" y1="412.019379359742" x2="432.466083922841" y2="488.327519636579" style="stroke:rgb(99,99,99);stroke-width:1"/> 
<line x1="412.019379359742" y1="412.019379359742" x2="488.327519636578" y2="391.572674796643" style="stroke:rgb(99,99,99);stroke-width:1"/> 
<line x1="432.466083922841" y1="488.327519636579" x2="391.572674796643" y2="529.220928762777" style="stroke:rgb(99,99,99);stroke-width:1"/> 
<line x1="488.327519636578" y1="391.572674796643" x2="529.220928762777" y2="432.466083922841" style="stroke:rgb(99,99,99);stroke-width:1"/> 
<line x1="391.572674796643" y1="529.220928762777" x2="412.019379359742" y2="605.529069039613" style="stroke:rgb(99,99,99);stroke-width:1"/> 
<line x1="432.466083922841" y1="488.327519636579" x2="508.774224199678" y2="508.774224199678" style="stroke:rgb(99,99,99);stroke-width:1"/> 
<line x1="529.220928762777" y1="432.466083922841" x2="508.774224199678" y2="508.774224199678" style="stroke:rgb(99,99,99);stroke-width:1"/> 
<line x1="529.220928762777" y1="432.466083922841" x2="605.529069039613" y2="412.019379359742" style="stroke:rgb(99,99,99);stroke-width:1"/> 
<line x1="508.774224199678" y1="508.774224199678" x2="488.327519636579" y2="585.082364476514" style="stroke:rgb(99,99,99);stroke-width:1"/> 
<line x1="508.774224199678" y1="508.774224199678" x2="585.082364476514" y2="529.220928762777" style="stroke:rgb(99,99,99);stroke-width:1"/> 
<line x1="605.529069039613" y1="412.019379359742" x2="625.975773602712" y2="488.327519636579" style="stroke:rgb(99,99,99);stroke-width:1"/> 
<line x1="605.529069039613" y1="412.019379359742" x2="681.83720931645" y2="391.572674796643" style="stroke:rgb(99,99,99);stroke-width:1"/> 
<line x1="625.975773602712" y1="488.327519636579" x2="585.082364476514" y2="529.220928762777" style="stroke:rgb(99,99,99);stroke-width:1"/> 
<line x1="681.83720931645" y1="391.572674796643" x2="722.730618442648" y2="432.466083922841" style="stroke:rgb(99,99,99);stroke-width:1"/> 
<line x1="585.082364476514" y1="529.220928762777" x2="605.529069039613" y2="605.529069039613" style="stroke:rgb(99,99,99);stroke-width:1"/> 
<line x1="625.975773602712" y1="488.327519636579" x2="702.283913879549" y2="508.774224199678" style="stroke:rgb(99,99,99);stroke-width:1"/> 
<line x1="722.730618442648" y1="432.466083922841" x2="702.283913879549" y2="508.774224199678" style="stroke:rgb(99,99,99);stroke-width:1"/> 
<line x1="722.730618442648" y1="432.466083922841" x2="799.038758719484" y2="412.019379359742" style="stroke:rgb(99,99,99);stroke-width:1"/> 
<line x1="702.283913879549" y1="508.774224199678" x2="681.83720931645" y2="585.082364476514" style="stroke:rgb(99,99,99);stroke-width:1"/> 
<line x1="702.283913879549" y1="508.774224199678" x2="778.592054156385" y2="529.220928762777" style="stroke:rgb(99,99,99);stroke-width:1"/> 
<line x1="799.038758719484" y1="412.019379359742" x2="819.485463282583" y2="488.327519636579" style="stroke:rgb(99,99,99);stroke-width:1"/> 
<line x1="799.038758719484" y1="412.019379359742" x2="875.346898996321" y2="391.572674796643" style="stroke:rgb(99,99,99);stroke-width:1"/> 
<line x1="819.485463282583" y1="488.327519636579" x2="778.592054156385" y2="529.220928762777" style="stroke:rgb(99,99,99);stroke-width:1"/> 
<line x1="875.346898996321" y1="391.572674796643" x2="916.240308122519" y2="432.466083922841" style="stroke:rgb(99,99,99);stroke-width:1"/> 
<line x1="778.592054156385" y1="529.220928762777" x2="799.038758719484" y2="605.529069039613" style="stroke:rgb(99,99,99);stroke-width:1"/> 
<line x1="819.485463282583" y1="488.327519636579" x2="895.79360355942" y2="508.774224199678" style="stroke:rgb(99,99,99);stroke-width:1"/> 
<line x1="916.240308122519" y1="432.466083922841" x2="895.79360355942" y2="508.774224199678" style="stroke:rgb(99,99,99);stroke-width:1"/> 
<line x1="916.240308122519" y1="432.466083922841" x2="992.548448399355" y2="412.019379359742" style="stroke:rgb(99,99,99);stroke-width:1"/> 
<line x1="895.79360355942" y1="508.774224199678" x2="875.346898996321" y2="585.082364476514" style="stroke:rgb(99,99,99);stroke-width:1"/> 
<line x1="895.79360355942" y1="508.774224199678" x2="972.101743836256" y2="529.220928762777" style="stroke:rgb(99,99,99);stroke-width:1"/> 
<line x1="992.548448399355" y1="412.019379359742" x2="1012.99515296245" y2="488.327519636579" style="stroke:rgb(99,99,99);stroke-width:1"/> 
<line x1="992.548448399355" y1="412.019379359742" x2="1068.85658867619" y2="391.572674796643" style="stroke:rgb(99,99,99);stroke-width:1"/> 
<line x1="1012.99515296245" y1="488.327519636579" x2="972.101743836256" y2="529.220928762777" style="stroke:rgb(99,99,99);stroke-width:1"/> 
<line x1="1068.85658867619" y1="391.572674796643" x2="1109.74999780239" y2="432.466083922841" style="stroke:rgb(99,99,99);stroke-width:1"/> 
<line x1="972.101743836256" y1="529.220928762777" x2="992.548448399355" y2="605.529069039613" style="stroke:rgb(99,99,99);stroke-width:1"/> 
<line x1="1012.99515296245" y1="488.327519636579" x2="1089.30329323929" y2="508.774224199678" style="stroke:rgb(99,99,99);stroke-width:1"/> 
<line x1="1109.74999780239" y1="432.466083922841" x2="1089.30329323929" y2="508.774224199678" style="stroke:rgb(99,99,99);stroke-width:1"/> 
<line x1="1109.74999780239" y1="432.466083922841" x2="1186.05813807923" y2="412.019379359742" style="stroke:rgb(99,99,99);stroke-width:1"/> 
<line x1="1089.30329323929" y1="508.774224199678" x2="1068.85658867619" y2="585.082364476514" style="stroke:rgb(99,99,99);stroke-width:1"/> 
<line x1="1089.30329323929" y1="508.774224199678" x2="1165.61143351613" y2="529.220928762777" style="stroke:rgb(99,99,99);stroke-width:1"/> 
<line x1="1186.05813807923" y1="412.019379359742" x2="1206.50484264233" y2="488.327519636579" style="stroke:rgb(99,99,99);stroke-width:1"/> 
<line x1="1186.05813807923" y1="412.019379359742" x2="1262.36627835606" y2="391.572674796643" style="stroke:rgb(99,99,99);stroke-width:1"/> 
<line x1="1206.50484264233" y1="488.327519636579" x2="1165.61143351613" y2="529.220928762777" style="stroke:rgb(99,99,99);stroke-width:1"/> 
<line x1="1262.36627835606" y1="391.572674796643" x2="1303.25968748226" y2="432.466083922841" style="stroke:rgb(99,99,99);stroke-width:1"/> 
<line x1="1165.61143351613" y1="529.220928762777" x2="1186.05813807923" y2="605.529069039613" style="stroke:rgb(99,99,99);stroke-width:1"/> 
<line x1="1206.50484264233" y1="488.327519636579" x2="1282.81298291916" y2="508.774224199678" style="stroke:rgb(99,99,99);stroke-width:1"/> 
<line x1="1303.25968748226" y1="432.466083922841" x2="1282.81298291916" y2="508.774224199678" style="stroke:rgb(99,99,99);stroke-width:1"/> 
<line x1="1303.25968748226" y1="432.466083922841" x2="1379.5678277591" y2="412.019379359742" style="stroke:rgb(99,99,99);stroke-width:1"/> 
<line x1="1282.81298291916" y1="508.774224199678" x2="1262.36627835606" y2="585.082364476514" style="stroke:rgb(99,99,99);stroke-width:1"/> 
<line x1="1282.81298291916" y1="508.774224199678" x2="1359.121123196" y2="529.220928762777" style="stroke:rgb(99,99,99);stroke-width:1"/> 
<line x1="1379.5678277591" y1="412.019379359742" x2="1400.0145323222" y2="488.327519636578" style="stroke:rgb(99,99,99);stroke-width:1"/> 
<line x1="1379.5678277591" y1="412.019379359742" x2="1455.87596803593" y2="391.572674796643" style="stroke:rgb(99,99,99);stroke-width:1"/> 
<line x1="1400.0145323222" y1="488.327519636578" x2="1359.121123196" y2="529.220928762777" style="stroke:rgb(99,99,99);stroke-width:1"/> 
<line x1="1455.87596803593" y1="391.572674796643" x2="1496.76937716213" y2="432.466083922841" style="stroke:rgb(99,99,99);stroke-width:1"/> 
<line x1="1359.121123196" y1="529.220928762777" x2="1379.5678277591" y2="605.529069039613" style="stroke:rgb(99,99,99);stroke-width:1"/> 
<line x1="1400.0145323222" y1="488.327519636578" x2="1476.32267259903" y2="508.774224199678" style="stroke:rgb(99,99,99);stroke-width:1"/> 
<line x1="1496.76937716213" y1="432.466083922841" x2="1476.32267259903" y2="508.774224199678" style="stroke:rgb(99,99,99);stroke-width:1"/> 
<line x1="1496.76937716213" y1="432.466083922841" x2="1573.07751743897" y2="412.019379359742" style="stroke:rgb(99,99,99);stroke-width:1"/> 
<line x1="1476.32267259903" y1="508.774224199678" x2="1455.87596803593" y2="585.082364476514" style="stroke:rgb(99,99,99);stroke-width:1"/> 
<line x1="1476.32267259903" y1="508.774224199678" x2="1552.63081287587" y2="529.220928762777" style="stroke:rgb(99,99,99);stroke-width:1"/> 
<line x1="1573.07751743897" y1="412.019379359742" x2="1593.52422200207" y2="488.327519636579" style="stroke:rgb(99,99,99);stroke-width:1"/> 
<line x1="1593.52422200207" y1="488.327519636579" x2="1552.63081287587" y2="529.220928762777" style="stroke:rgb(99,99,99);stroke-width:1"/> 
<line x1="1552.63081287587" y1="529.220928762777" x2="1573.07751743897" y2="605.529069039613" style="stroke:rgb(99,99,99);stroke-width:1"/> 
<line x1="24.9999999999999" y1="605.529069039613" x2="45.446704563099" y2="681.83720931645" style="stroke:rgb(99,99,99);stroke-width:1"/> 
<line x1="24.9999999999999" y1="605.529069039613" x2="101.308140276836" y2="585.082364476514" style="stroke:rgb(99,99,99);stroke-width:1"/> 
<line x1="45.446704563099" y1="681.83720931645" x2="4.55329543690084" y2="722.730618442648" style="stroke:rgb(99,99,99);stroke-width:1"/> 
<line x1="101.308140276836" y1="585.082364476514" x2="142.201549403035" y2="625.975773602712" style="stroke:rgb(99,99,99);stroke-width:1"/> 
<line x1="4.55329543690084" y1="722.730618442648" x2="24.9999999999999" y2="799.038758719484" style="stroke:rgb(99,99,99);stroke-width:1"/> 
<line x1="45.446704563099" y1="681.83720931645" x2="121.754844839935" y2="702.283913879549" style="stroke:rgb(99,99,99);stroke-width:1"/> 
<line x1="142.201549403035" y1="625.975773602712" x2="121.754844839935" y2="702.283913879549" style="stroke:rgb(99,99,99);stroke-width:1"/> 
<line x1="142.201549403035" y1="625.975773602712" x2="218.509689679871" y2="605.529069039613" style="stroke:rgb(99,99,99);stroke-width:1"/> 
<line x1="121.754844839935" y1="702.283913879549" x2="101.308140276836" y2="778.592054156385" style="stroke:rgb(99,99,99);stroke-width:1"/> 
<line x1="121.754844839935" y1="702.283913879549" x2="198.062985116772" y2="722.730618442648" style="stroke:rgb(99,99,99);stroke-width:1"/> 
<line x1="218.509689679871" y1="605.529069039613" x2="238.95639424297" y2="681.83720931645" style="stroke:rgb(99,99,99);stroke-width:1"/> 
<line x1="218.509689679871" y1="605.529069039613" x2="294.817829956707" y2="585.082364476514" style="stroke:rgb(99,99,99);stroke-width:1"/> 
<line x1="238.95639424297" y1="681.83720931645" x2="198.062985116772" y2="722.730618442648" style="stroke:rgb(99,99,99);stroke-width:1"/> 
<line x1="294.817829956707" y1="585.082364476514" x2="335.711239082906" y2="625.975773602712" style="stroke:rgb(99,99,99);stroke-width:1"/> 
<line x1="198.062985116772" y1="722.730618442648" x2="218.509689679871" y2="799.038758719484" style="stroke:rgb(99,99,99);stroke-width:1"/> 
<line x1="238.95639424297" y1="681.83720931645" x2="315.264534519806" y2="702.283913879549" style="stroke:rgb(99,99,99);stroke-width:1"/> 
<line x1="335.711239082906" y1="625.975773602712" x2="315.264534519806" y2="702.283913879549" style="stroke:rgb(99,99,99);stroke-width:1"/> 
<line x1="335.711239082906" y1="625.975773602712" x2="412.019379359742" y2="605.529069039613" style="stroke:rgb(99,99,99);stroke-width:1"/> 
<line x1="315.264534519806" y1="702.283913879549" x2="294.817829956707" y2="778.592054156385" style="stroke:rgb(99,99,99);stroke-width:1"/> 
<line x1="315.264534519806" y1="702.283913879549" x2="391.572674796643" y2="722.730618442648" style="stroke:rgb(99,99,99);stroke-width:1"/> 
<line x1="412.019379359742" y1="605.529069039613" x2="432.466083922841" y2="681.83720931645" style="stroke:rgb(99,99,99);stroke-width:1"/> 
<line x1="412.019379359742" y1="605.529069039613" x2="488.327519636579" y2="585.082364476514" style="stroke:rgb(99,99,99);stroke-width:1"/> 
<line x1="432.466083922841" y1="681.83720931645" x2="391.572674796643" y2="722.730618442648" style="stroke:rgb(99,99,99);stroke-width:1"/> 
<line x1="488.327519636579" y1="585.082364476514" x2="529.220928762777" y2="625.975773602712" style="stroke:rgb(99,99,99);stroke-width:1"/> 
<line x1="391.572674796643" y1="722.730618442648" x2="412.019379359742" y2="799.038758719484" style="stroke:rgb(99,99,99);stroke-width:1"/> 
<line x1="432.466083922841" y1="681.83720931645" x2="508.774224199678" y2="702.283913879549" style="stroke:rgb(99,99,99);stroke-width:1"/> 
<line x1="529.220928762777" y1="625.975773602712" x2="508.774224199678" y2="702.283913879549" style="stroke:rgb(99,99,99);stroke-width:1"/> 
<line x1="529.220928762777" y1="625.975773602712" x2="605.529069039613" y2="605.529069039613" style="stroke:rgb(99,99,99);stroke-width:1"/> 
<line x1="508.774224199678" y1="702.283913879549" x2="488.327519636578" y2="778.592054156385" style="stroke:rgb(99,99,99);stroke-width:1"/> 
<line x1="508.774224199678" y1="702.283913879549" x2="585.082364476514" y2="722.730618442648" style="stroke:rgb(99,99,99);stroke-width:1"/> 
<line x1="605.529069039613" y1="605.529069039613" x2="625.975773602712" y2="681.83720931645" style="stroke:rgb(99,99,99);stroke-width:1"/> 
<line x1="605.529069039613" y1="605.529069039613" x2="681.83720931645" y2="585.082364476514" style="stroke:rgb(99,99,99);stroke-width:1"/> 
<line x1="625.975773602712" y1="681.83720931645" x2="585.082364476514" y2="722.730618442648" style="stroke:rgb(99,99,99);stroke-width:1"/> 
<line x1="681.83720931645" y1="585.082364476514" x2="722.730618442648" y2="625.975773602712" style="stroke:rgb(99,99,99);stroke-width:1"/> 
<line x1="585.082364476514" y1="722.730618442648" x2="605.529069039613" y2="799.038758719484" style="stroke:rgb(99,99,99);stroke-width:1"/> 
<line x1="625.975773602712" y1="681.83720931645" x2="702.283913879549" y2="702.283913879549" style="stroke:rgb(99,99,99);stroke-width:1"/> 
<line x1="722.730618442648" y1="625.975773602712" x2="702.283913879549" y2="702.283913879549" style="stroke:rgb(99,99,99);stroke-width:1"/> 
<line x1="722.730618442648" y1="625.975773602712" x2="799.038758719484" y2="605.529069039613" style="stroke:rgb(99,99,99);stroke-width:1"/> 
<line x1="702.283913879549" y1="702.283913879549" x2="681.83720931645" y2="778.592054156385" style="stroke:rgb(99,99,99);stroke-width:1"/> 
<line x1="702.283913879549" y1="702.283913879549" x2="778.592054156385" y2="722.730618442648" style="stroke:rgb(99,99,99);stroke-width:1"/> 
<line x1="799.038758719484" y1="605.529069039613" x2="819.485463282583" y2="681.83720931645" style="stroke:rgb(99,99,99);stroke-width:1"/> 
<line x1="799.038758719484" y1="605.529069039613" x2="875.346898996321" y2="585.082364476514" style="stroke:rgb(99,99,99);stroke-width:1"/> 
<line x1="819.485463282583" y1="681.83720931645" x2="778.592054156385" y2="722.730618442648" style="stroke:rgb(99,99,99);stroke-width:1"/> 
<line x1="875.346898996321" y1="585.082364476514" x2="916.240308122519" y2="625.975773602712" style="stroke:rgb(99,99,99);stroke-width:1"/> 
<line x1="778.592054156385" y1="722.730618442648" x2="799.038758719484" y2="799.038758719484" style="stroke:rgb(99,99,99);stroke-width:1"/> 
<line x1="819.485463282583" y1="681.83720931645" x2="895.79360355942" y2="702.283913879549" style="stroke:rgb(99,99,99);stroke-width:1"/> 
<line x1="916.240308122519" y1="625.975773602712" x2="895.79360355942" y2="702.283913879549" style="stroke:rgb(99,99,99);stroke-width:1"/> 
<line x1="916.240308122519" y1="625.975773602712" x2="992.548448399355" y2="605.529069039613" style="stroke:rgb(99,99,99);stroke-width:1"/> 
<line x1="895.79360355942" y1="702.283913879549" x2="875.346898996321" y2="778.592054156385" style="stroke:rgb(99,99,99);stroke-width:1"/> 
<line x1="895.79360355942" y1="702.283913879549" x2="972.101743836256" y2="722.730618442648" style="stroke:rgb(99,99,99);stroke-width:1"/> 
<line x1="992.548448399355" y1="605.529069039613" x2="1012.99515296245" y2="681.83720931645" style="stroke:rgb(99,99,99);stroke-width:1"/> 
<line x1="992.548448399355" y1="605.529069039613" x2="1068.85658867619" y2="585.082364476514" style="stroke:rgb(99,99,99);stroke-width:1"/> 
<line x1="1012.99515296245" y1="681.83720931645" x2="972.101743836256" y2="722.730618442648" style="stroke:rgb(99,99,99);stroke-width:1"/> 
<line x1="1068.85658867619" y1="585.082364476514" x2="1109.74999780239" y2="625.975773602712" style="stroke:rgb(99,99,99);stroke-width:1"/> 
<line x1="972.101743836256" y1="722.730618442648" x2="992.548448399355" y2="799.038758719484" style="stroke:rgb(99,99,99);stroke-width:1"/> 
<line x1="1012.99515296245" y1="681.83720931645" x2="1089.30329323929" y2="702.283913879549" style="stroke:rgb(99,99,99);stroke-width:1"/> 
<line x1="1109.74999780239" y1="625.975773602712" x2="1089.30329323929" y2="702.283913879549" style="stroke:rgb(99,99,99);stroke-width:1"/> 
<line x1="1109.74999780239" y1="625.975773602712" x2="1186.05813807923" y2="605.529069039613" style="stroke:rgb(99,99,99);stroke-width:1"/> 
<line x1="1089.30329323929" y1="702.283913879549" x2="1068.85658867619" y2="778.592054156385" style="stroke:rgb(99,99,99);stroke-width:1"/> 
<line x1="1089.30329323929" y1="702.283913879549" x2="1165.61143351613" y2="722.730618442648" style="stroke:rgb(99,99,99);stroke-width:1"/> 
<line x1="1186.05813807923" y1="605.529069039613" x2="1206.50484264233" y2="681.83720931645" style="stroke:rgb(99,99,99);stroke-width:1"/> 
<line x1="1186.05813807923" y1="605.529069039613" x2="1262.36627835606" y2="585.082364476514" style="stroke:rgb(99,99,99);stroke-width:1"/> 
<line x1="1206.50484264233" y1="681.83720931645" x2="1165.61143351613" y2="722.730618442648" style="stroke:rgb(99,99,99);stroke-width:1"/> 
<line x1="1262.36627835606" y1="585.082364476514" x2="1303.25968748226" y2="625.975773602712" style="stroke:rgb(99,99,99);stroke-width:1"/> 
<line x1="1165.61143351613" y1="722.730618442648" x2="1186.05813807923" y2="799.038758719484" style="stroke:rgb(99,99,99);stroke-width:1"/> 
<line x1="1206.50484264233" y1="681.83720931645" x2="1282.81298291916" y2="702.283913879549" style="stroke:rgb(99,99,99);stroke-width:1"/> 
<line x1="1303.25968748226" y1="625.975773602712" x2="1282.81298291916" y2="702.283913879549" style="stroke:rgb(99,99,99);stroke-width:1"/> 
<line x1="1303.25968748226" y1="625.975773602712" x2="1379.5678277591" y2="605.529069039613" style="stroke:rgb(99,99,99);stroke-width:1"/> 
<line x1="1282.81298291916" y1="702.283913879549" x2="1262.36627835606" y2="778.592054156385" style="stroke:rgb(99,99,99);stroke-width:1"/> 
<line x1="1282.81298291916" y1="702.283913879549" x2="1359.121123196" y2="722.730618442648" style="stroke:rgb(99,99,99);stroke-width:1"/> 
<line x1="1379.5678277591" y1="605.529069039613" x2="1400.0145323222" y2="681.83720931645" style="stroke:rgb(99,99,99);stroke-width:1"/> 
<line x1="1379.5678277591" y1="605.529069039613" x2="1455.87596803593" y2="585.082364476514" style="stroke:rgb(99,99,99);stroke-width:1"/> 
<line x1="1400.0145323222" y1="681.83720931645" x2="1359.121123196" y2="722.730618442648" style="stroke:rgb(99,99,99);stroke-width:1"/> 
<line x1="1455.87596803593" y1="585.082364476514" x2="1496.76937716213" y2="625.975773602712" style="stroke:rgb(99,99,99);stroke-width:1"/> 
<line x1="1359.121123196" y1="722.730618442648" x2="1379.5678277591" y2="799.038758719484" style="stroke:rgb(99,99,99);stroke-width:1"/> 
<line x1="1400.0145323222" y1="681.83720931645" x2="1476.32267259903" y2="702.283913879549" style="stroke:rgb(99,99,99);stroke-width:1"/> 
<line x1="1496.76937716213" y1="625.975773602712" x2="1476.32267259903" y2="702.283913879549" style="stroke:rgb(99,99,99);stroke-width:1"/> 
<line x1="1496.76937716213" y1="625.975773602712" x2="1573.07751743897" y2="605.529069039613" style="stroke:rgb(99,99,99);stroke-width:1"/> 
<line x1="1476.32267259903" y1="702.283913879549" x2="1455.87596803593" y2="778.592054156385" style="stroke:rgb(99,99,99);stroke-width:1"/> 
<line x1="1476.32267259903" y1="702.283913879549" x2="1552.63081287587" y2="722.730618442648" style="stroke:rgb(99,99,99);stroke-width:1"/> 
<line x1="1573.07751743897" y1="605.529069039613" x2="1593.52422200207" y2="681.83720931645" style="stroke:rgb(99,99,99);stroke-width:1"/> 
<line x1="1593.52422200207" y1="681.83720931645" x2="1552.63081287587" y2="722.730618442648" style="stroke:rgb(99,99,99);stroke-width:1"/> 
<line x1="1552.63081287587" y1="722.730618442648" x2="1573.07751743897" y2="799.038758719485" style="stroke:rgb(99,99,99);stroke-width:1"/> 
<line x1="24.9999999999999" y1="799.038758719484" x2="45.446704563099" y2="875.346898996321" style="stroke:rgb(99,99,99);stroke-width:1"/> 
<line x1="24.9999999999999" y1="799.038758719484" x2="101.308140276836" y2="778.592054156385" style="stroke:rgb(99,99,99);stroke-width:1"/> 
<line x1="45.446704563099" y1="875.346898996321" x2="4.55329543690078" y2="916.240308122519" style="stroke:rgb(99,99,99);stroke-width:1"/> 
<line x1="101.308140276836" y1="778.592054156385" x2="142.201549403035" y2="819.485463282583" style="stroke:rgb(99,99,99);stroke-width:1"/> 
<line x1="4.55329543690078" y1="916.240308122519" x2="24.9999999999999" y2="992.548448399355" style="stroke:rgb(99,99,99);stroke-width:1"/> 
<line x1="45.446704563099" y1="875.346898996321" x2="121.754844839935" y2="895.79360355942" style="stroke:rgb(99,99,99);stroke-width:1"/> 
<line x1="142.201549403035" y1="819.485463282583" x2="121.754844839935" y2="895.79360355942" style="stroke:rgb(99,99,99);stroke-width:1"/> 
<line x1="142.201549403035" y1="819.485463282583" x2="218.509689679871" y2="799.038758719484" style="stroke:rgb(99,99,99);stroke-width:1"/> 
<line x1="121.754844839935" y1="895.79360355942" x2="101.308140276836" y2="972.101743836256" style="stroke:rgb(99,99,99);stroke-width:1"/> 
<line x1="121.754844839935" y1="895.79360355942" x2="198.062985116772" y2="916.240308122519" style="stroke:rgb(99,99,99);stroke-width:1"/> 
<line x1="218.509689679871" y1="799.038758719484" x2="238.95639424297" y2="875.346898996321" style="stroke:rgb(99,99,99);stroke-width:1"/> 
<line x1="218.509689679871" y1="799.038758719484" x2="294.817829956707" y2="778.592054156385" style="stroke:rgb(99,99,99);stroke-width:1"/> 
<line x1="238.95639424297" y1="875.346898996321" x2="198.062985116772" y2="916.240308122519" style="stroke:rgb(99,99,99);stroke-width:1"/> 
<line x1="294.817829956707" y1="778.592054156385" x2="335.711239082906" y2="819.485463282583" style="stroke:rgb(99,99,99);stroke-width:1"/> 
<line x1="198.062985116772" y1="916.240308122519" x2="218.509689679871" y2="992.548448399355" style="stroke:rgb(99,99,99);stroke-width:1"/> 
<line x1="238.95639424297" y1="875.346898996321" x2="315.264534519806" y2="895.79360355942" style="stroke:rgb(99,99,99);stroke-width:1"/> 
<line x1="335.711239082906" y1="819.485463282583" x2="315.264534519806" y2="895.79360355942" style="stroke:rgb(99,99,99);stroke-width:1"/> 
<line x1="335.711239082906" y1="819.485463282583" x2="412.019379359742" y2="799.038758719484" style="stroke:rgb(99,99,99);stroke-width:1"/> 
<line x1="315.264534519806" y1="895.79360355942" x2="294.817829956707" y2="972.101743836256" style="stroke:rgb(99,99,99);stroke-width:1"/> 
<line x1="315.264534519806" y1="895.79360355942" x2="391.572674796643" y2="916.240308122519" style="stroke:rgb(99,99,99);stroke-width:1"/> 
<line x1="412.019379359742" y1="799.038758719484" x2="432.466083922841" y2="875.346898996321" style="stroke:rgb(99,99,99);stroke-width:1"/> 
<line x1="412.019379359742" y1="799.038758719484" x2="488.327519636578" y2="778.592054156385" style="stroke:rgb(99,99,99);stroke-width:1"/> 
<line x1="432.466083922841" y1="875.346898996321" x2="391.572674796643" y2="916.240308122519" style="stroke:rgb(99,99,99);stroke-width:1"/> 
<line x1="488.327519636578" y1="778.592054156385" x2="529.220928762777" y2="819.485463282584" style="stroke:rgb(99,99,99);stroke-width:1"/> 
<line x1="391.572674796643" y1="916.240308122519" x2="412.019379359742" y2="992.548448399355" style="stroke:rgb(99,99,99);stroke-width:1"/> 
<line x1="432.466083922841" y1="875.346898996321" x2="508.774224199678" y2="895.79360355942" style="stroke:rgb(99,99,99);stroke-width:1"/> 
<line x1="529.220928762777" y1="819.485463282584" x2="508.774224199678" y2="895.79360355942" style="stroke:rgb(99,99,99);stroke-width:1"/> 
<line x1="529.220928762777" y1="819.485463282584" x2="605.529069039613" y2="799.038758719484" style="stroke:rgb(99,99,99);stroke-width:1"/> 
<line x1="508.774224199678" y1="895.79360355942" x2="488.327519636578" y2="972.101743836256" style="stroke:rgb(99,99,99);stroke-width:1"/> 
<line x1="508.774224199678" y1="895.79360355942" x2="585.082364476514" y2="916.240308122519" style="stroke:rgb(99,99,99);stroke-width:1"/> 
<line x1="605.529069039613" y1="799.038758719484" x2="625.975773602712" y2="875.346898996321" style="stroke:rgb(99,99,99);stroke-width:1"/> 
<line x1="605.529069039613" y1="799.038758719484" x2="681.83720931645" y2="778.592054156385" style="stroke:rgb(99,99,99);stroke-width:1"/> 
<line x1="625.975773602712" y1="875.346898996321" x2="585.082364476514" y2="916.240308122519" style="stroke:rgb(99,99,99);stroke-width:1"/> 
<line x1="681.83720931645" y1="778.592054156385" x2="722.730618442648" y2="819.485463282583" style="stroke:rgb(99,99,99);stroke-width:1"/> 
<line x1="585.082364476514" y1="916.240308122519" x2="605.529069039613" y2="992.548448399355" style="stroke:rgb(99,99,99);stroke-width:1"/> 
<line x1="625.975773602712" y1="875.346898996321" x2="702.283913879549" y2="895.79360355942" style="stroke:rgb(99,99,99);stroke-width:1"/> 
<line x1="722.730618442648" y1="819.485463282583" x2="702.283913879549" y2="895.79360355942" style="stroke:rgb(99,99,99);stroke-width:1"/> 
<line x1="722.730618442648" y1="819.485463282583" x2="799.038758719484" y2="799.038758719484" style="stroke:rgb(99,99,99);stroke-width:1"/> 
<line x1="702.283913879549" y1="895.79360355942" x2="681.83720931645" y2="972.101743836256" style="stroke:rgb(99,99,99);stroke-width:1"/> 
<line x1="702.283913879549" y1="895.79360355942" x2="778.592054156385" y2="916.240308122519" style="stroke:rgb(99,99,99);stroke-width:1"/> 
<line x1="799.038758719484" y1="799.038758719484" x2="819.485463282583" y2="875.346898996321" style="stroke:rgb(99,99,99);stroke-width:1"/> 
<line x1="799.038758719484" y1="799.038758719484" x2="875.346898996321" y2="778.592054156385" style="stroke:rgb(99,99,99);stroke-width:1"/> 
<line x1="819.485463282583" y1="875.346898996321" x2="778.592054156385" y2="916.240308122519" style="stroke:rgb(99,99,99);stroke-width:1"/> 
<line x1="875.346898996321" y1="778.592054156385" x2="916.240308122519" y2="819.485463282584" style="stroke:rgb(99,99,99);stroke-width:1"/> 
<line x1="778.592054156385" y1="916.240308122519" x2="799.038758719484" y2="992.548448399355" style="stroke:rgb(99,99,99);stroke-width:1"/> 
<line x1="819.485463282583" y1="875.346898996321" x2="895.79360355942" y2="895.79360355942" style="stroke:rgb(99,99,99);stroke-width:1"/> 
<line x1="916.240308122519" y1="819.485463282584" x2="895.79360355942" y2="895.79360355942" style="stroke:rgb(99,99,99);stroke-width:1"/> 
<line x1="916.240308122519" y1="819.485463282584" x2="992.548448399355" y2="799.038758719484" style="stroke:rgb(99,99,99);stroke-width:1"/> 
<line x1="895.79360355942" y1="895.79360355942" x2="875.346898996321" y2="972.101743836256" style="stroke:rgb(99,99,99);stroke-width:1"/> 
<line x1="895.79360355942" y1="895.79360355942" x2="972.101743836256" y2="916.240308122519" style="stroke:rgb(99,99,99);stroke-width:1"/> 
<line x1="992.548448399355" y1="799.038758719484" x2="1012.99515296245" y2="875.346898996321" style="stroke:rgb(99,99,99);stroke-width:1"/> 
<line x1="992.548448399355" y1="799.038758719484" x2="1068.85658867619" y2="778.592054156385" style="stroke:rgb(99,99,99);stroke-width:1"/> 
<line x1="1012.99515296245" y1="875.346898996321" x2="972.101743836256" y2="916.240308122519" style="stroke:rgb(99,99,99);stroke-width:1"/> 
<line x1="1068.85658867619" y1="778.592054156385" x2="1109.74999780239" y2="819.485463282583" style="stroke:rgb(99,99,99);stroke-width:1"/> 
<line x1="972.101743836256" y1="916.240308122519" x2="992.548448399355" y2="992.548448399355" style="stroke:rgb(99,99,99);stroke-width:1"/> 
<line x1="1012.99515296245" y1="875.346898996321" x2="1089.30329323929" y2="895.79360355942" style="stroke:rgb(99,99,99);stroke-width:1"/> 
<line x1="1109.74999780239" y1="819.485463282583" x2="1089.30329323929" y2="895.79360355942" style="stroke:rgb(99,99,99);stroke-width:1"/> 
<line x1="1109.74999780239" y1="819.485463282583" x2="1186.05813807923" y2="799.038758719484" style="stroke:rgb(99,99,99);stroke-width:1"/> 
<line x1="1089.30329323929" y1="895.79360355942" x2="1068.85658867619" y2="972.101743836256" style="stroke:rgb(99,99,99);stroke-width:1"/> 
<line x1="1089.30329323929" y1="895.79360355942" x2="1165.61143351613" y2="916.240308122519" style="stroke:rgb(99,99,99);stroke-width:1"/> 
<line x1="1186.05813807923" y1="799.038758719484" x2="1206.50484264233" y2="875.346898996321" style="stroke:rgb(99,99,99);stroke-width:1"/> 
<line x1="1186.05813807923" y1="799.038758719484" x2="1262.36627835606" y2="778.592054156385" style="stroke:rgb(99,99,99);stroke-width:1"/> 
<line x1="1206.50484264233" y1="875.346898996321" x2="1165.61143351613" y2="916.240308122519" style="stroke:rgb(99,99,99);stroke-width:1"/> 
<line x1="1262.36627835606" y1="778.592054156385" x2="1303.25968748226" y2="819.485463282584" style="stroke:rgb(99,99,99);stroke-width:1"/> 
<line x1="1165.61143351613" y1="916.240308122519" x2="1186.05813807923" y2="992.548448399355" style="stroke:rgb(99,99,99);stroke-width:1"/> 
<line x1="1206.50484264233" y1="875.346898996321" x2="1282.81298291916" y2="895.79360355942" style="stroke:rgb(99,99,99);stroke-width:1"/> 
<line x1="1303.25968748226" y1="819.485463282584" x2="1282.81298291916" y2="895.79360355942" style="stroke:rgb(99,99,99);stroke-width:1"/> 
<line x1="1303.25968748226" y1="819.485463282584" x2="1379.5678277591" y2="799.038758719484" style="stroke:rgb(99,99,99);stroke-width:1"/> 
<line x1="1282.81298291916" y1="895.79360355942" x2="1262.36627835606" y2="972.101743836256" style="stroke:rgb(99,99,99);stroke-width:1"/> 
<line x1="1282.81298291916" y1="895.79360355942" x2="1359.121123196" y2="916.240308122519" style="stroke:rgb(99,99,99);stroke-width:1"/> 
<line x1="1379.5678277591" y1="799.038758719484" x2="1400.0145323222" y2="875.346898996321" style="stroke:rgb(99,99,99);stroke-width:1"/> 
<line x1="1379.5678277591" y1="799.038758719484" x2="1455.87596803593" y2="778.592054156385" style="stroke:rgb(99,99,99);stroke-width:1"/> 
<line x1="1400.0145323222" y1="875.346898996321" x2="1359.121123196" y2="916.240308122519" style="stroke:rgb(99,99,99);stroke-width:1"/> 
<line x1="1455.87596803593" y1="778.592054156385" x2="1496.76937716213" y2="819.485463282584" style="stroke:rgb(99,99,99);stroke-width:1"/> 
<line x1="1359.121123196" y1="916.240308122519" x2="1379.5678277591" y2="992.548448399355" style="stroke:rgb(99,99,99);stroke-width:1"/> 
<line x1="1400.0145323222" y1="875.346898996321" x2="1476.32267259903" y2="895.79360355942" style="stroke:rgb(99,99,99);stroke-width:1"/> 
<line x1="1496.76937716213" y1="819.485463282584" x2="1476.32267259903" y2="895.79360355942" style="stroke:rgb(99,99,99);stroke-width:1"/> 
<line x1="1496.76937716213" y1="819.485463282584" x2="1573.07751743897" y2="799.038758719485" style="stroke:rgb(99,99,99);stroke-width:1"/> 
<line x1="1476.32267259903" y1="895.79360355942" x2="1455.87596803593" y2="972.101743836256" style="stroke:rgb(99,99,99);stroke-width:1"/> 
<line x1="1476.32267259903" y1="895.79360355942" x2="1552.63081287587" y2="916.240308122519" style="stroke:rgb(99,99,99);stroke-width:1"/> 
<line x1="1573.07751743897" y1="799.038758719485" x2="1593.52422200207" y2="875.346898996321" style="stroke:rgb(99,99,99);stroke-width:1"/> 
<line x1="1593.52422200207" y1="875.346898996321" x2="1552.63081287587" y2="916.240308122519" style="stroke:rgb(99,99,99);stroke-width:1"/> 
<line x1="1552.63081287587" y1="916.240308122519" x2="1573.07751743897" y2="992.548448399355" style="stroke:rgb(99,99,99);stroke-width:1"/> 
<line x1="24.9999999999999" y1="992.548448399355" x2="45.446704563099" y2="1068.85658867619" style="stroke:rgb(99,99,99);stroke-width:1"/> 
<line x1="24.9999999999999" y1="992.548448399355" x2="101.308140276836" y2="972.101743836256" style="stroke:rgb(99,99,99);stroke-width:1"/> 
<line x1="45.446704563099" y1="1068.85658867619" x2="4.55329543690084" y2="1109.74999780239" style="stroke:rgb(99,99,99);stroke-width:1"/> 
<line x1="101.308140276836" y1="972.101743836256" x2="142.201549403035" y2="1012.99515296245" style="stroke:rgb(99,99,99);stroke-width:1"/> 
<line x1="4.55329543690084" y1="1109.74999780239" x2="24.9999999999999" y2="1186.05813807923" style="stroke:rgb(99,99,99);stroke-width:1"/> 
<line x1="45.446704563099" y1="1068.85658867619" x2="121.754844839935" y2="1089.30329323929" style="stroke:rgb(99,99,99);stroke-width:1"/> 
<line x1="142.201549403035" y1="1012.99515296245" x2="121.754844839935" y2="1089.30329323929" style="stroke:rgb(99,99,99);stroke-width:1"/> 
<line x1="142.201549403035" y1="1012.99515296245" x2="218.509689679871" y2="992.548448399355" style="stroke:rgb(99,99,99);stroke-width:1"/> 
<line x1="121.754844839935" y1="1089.30329323929" x2="101.308140276836" y2="1165.61143351613" style="stroke:rgb(99,99,99);stroke-width:1"/> 
<line x1="121.754844839935" y1="1089.30329323929" x2="198.062985116772" y2="1109.74999780239" style="stroke:rgb(99,99,99);stroke-width:1"/> 
<line x1="218.509689679871" y1="992.548448399355" x2="238.95639424297" y2="1068.85658867619" style="stroke:rgb(99,99,99);stroke-width:1"/> 
<line x1="218.509689679871" y1="992.548448399355" x2="294.817829956707" y2="972.101743836256" style="stroke:rgb(99,99,99);stroke-width:1"/> 
<line x1="238.95639424297" y1="1068.85658867619" x2="198.062985116772" y2="1109.74999780239" style="stroke:rgb(99,99,99);stroke-width:1"/> 
<line x1="294.817829956707" y1="972.101743836256" x2="335.711239082906" y2="1012.99515296245" style="stroke:rgb(99,99,99);stroke-width:1"/> 
<line x1="198.062985116772" y1="1109.74999780239" x2="218.509689679871" y2="1186.05813807923" style="stroke:rgb(99,99,99);stroke-width:1"/> 
<line x1="238.95639424297" y1="1068.85658867619" x2="315.264534519806" y2="1089.30329323929" style="stroke:rgb(99,99,99);stroke-width:1"/> 
<line x1="335.711239082906" y1="1012.99515296245" x2="315.264534519806" y2="1089.30329323929" style="stroke:rgb(99,99,99);stroke-width:1"/> 
<line x1="335.711239082906" y1="1012.99515296245" x2="412.019379359742" y2="992.548448399355" style="stroke:rgb(99,99,99);stroke-width:1"/> 
<line x1="315.264534519806" y1="1089.30329323929" x2="294.817829956707" y2="1165.61143351613" style="stroke:rgb(99,99,99);stroke-width:1"/> 
<line x1="315.264534519806" y1="1089.30329323929" x2="391.572674796643" y2="1109.74999780239" style="stroke:rgb(99,99,99);stroke-width:1"/> 
<line x1="412.019379359742" y1="992.548448399355" x2="432.466083922841" y2="1068.85658867619" style="stroke:rgb(99,99,99);stroke-width:1"/> 
<line x1="412.019379359742" y1="992.548448399355" x2="488.327519636578" y2="972.101743836256" style="stroke:rgb(99,99,99);stroke-width:1"/> 
<line x1="432.466083922841" y1="1068.85658867619" x2="391.572674796643" y2="1109.74999780239" style="stroke:rgb(99,99,99);stroke-width:1"/> 
<line x1="488.327519636578" y1="972.101743836256" x2="529.220928762777" y2="1012.99515296245" style="stroke:rgb(99,99,99);stroke-width:1"/> 
<line x1="391.572674796643" y1="1109.74999780239" x2="412.019379359742" y2="1186.05813807923" style="stroke:rgb(99,99,99);stroke-width:1"/> 
<line x1="432.466083922841" y1="1068.85658867619" x2="508.774224199678" y2="1089.30329323929" style="stroke:rgb(99,99,99);stroke-width:1"/> 
<line x1="529.220928762777" y1="1012.99515296245" x2="508.774224199678" y2="1089.30329323929" style="stroke:rgb(99,99,99);stroke-width:1"/> 
<line x1="529.220928762777" y1="1012.99515296245" x2="605.529069039613" y2="992.548448399355" style="stroke:rgb(99,99,99);stroke-width:1"/> 
<line x1="508.774224199678" y1="1089.30329323929" x2="488.327519636578" y2="1165.61143351613" style="stroke:rgb(99,99,99);stroke-width:1"/> 
<line x1="508.774224199678" y1="1089.30329323929" x2="585.082364476514" y2="1109.74999780239" style="stroke:rgb(99,99,99);stroke-width:1"/> 
<line x1="605.529069039613" y1="992.548448399355" x2="625.975773602712" y2="1068.85658867619" style="stroke:rgb(99,99,99);stroke-width:1"/> 
<line x1="605.529069039613" y1="992.548448399355" x2="681.83720931645" y2="972.101743836256" style="stroke:rgb(99,99,99);stroke-width:1"/> 
<line x1="625.975773602712" y1="1068.85658867619" x2="585.082364476514" y2="1109.74999780239" style="stroke:rgb(99,99,99);stroke-width:1"/> 
<line x1="681.83720931645" y1="972.101743836256" x2="722.730618442648" y2="1012.99515296245" style="stroke:rgb(99,99,99);stroke-width:1"/> 
<line x1="585.082364476514" y1="1109.74999780239" x2="605.529069039613" y2="1186.05813807923" style="stroke:rgb(99,99,99);stroke-width:1"/> 
<line x1="625.975773602712" y1="1068.85658867619" x2="702.283913879549" y2="1089.30329323929" style="stroke:rgb(99,99,99);stroke-width:1"/> 
<line x1="722.730618442648" y1="1012.99515296245" x2="702.283913879549" y2="1089.30329323929" style="stroke:rgb(99,99,99);stroke-width:1"/> 
<line x1="722.730618442648" y1="1012.99515296245" x2="799.038758719484" y2="992.548448399355" style="stroke:rgb(99,99,99);stroke-width:1"/> 
<line x1="702.283913879549" y1="1089.30329323929" x2="681.83720931645" y2="1165.61143351613" style="stroke:rgb(99,99,99);stroke-width:1"/> 
<line x1="702.283913879549" y1="1089.30329323929" x2="778.592054156385" y2="1109.74999780239" style="stroke:rgb(99,99,99);stroke-width:1"/> 
<line x1="799.038758719484" y1="992.548448399355" x2="819.485463282583" y2="1068.85658867619" style="stroke:rgb(99,99,99);stroke-width:1"/> 
<line x1="799.038758719484" y1="992.548448399355" x2="875.346898996321" y2="972.101743836256" style="stroke:rgb(99,99,99);stroke-width:1"/> 
<line x1="819.485463282583" y1="1068.85658867619" x2="778.592054156385" y2="1109.74999780239" style="stroke:rgb(99,99,99);stroke-width:1"/> 
<line x1="875.346898996321" y1="972.101743836256" x2="916.240308122519" y2="1012.99515296245" style="stroke:rgb(99,99,99);stroke-width:1"/> 
<line x1="778.592054156385" y1="1109.74999780239" x2="799.038758719484" y2="1186.05813807923" style="stroke:rgb(99,99,99);stroke-width:1"/> 
<line x1="819.485463282583" y1="1068.85658867619" x2="895.79360355942" y2="1089.30329323929" style="stroke:rgb(99,99,99);stroke-width:1"/> 
<line x1="916.240308122519" y1="1012.99515296245" x2="895.79360355942" y2="1089.30329323929" style="stroke:rgb(99,99,99);stroke-width:1"/> 
<line x1="916.240308122519" y1="1012.99515296245" x2="992.548448399355" y2="992.548448399355" style="stroke:rgb(99,99,99);stroke-width:1"/> 
<line x1="895.79360355942" y1="1089.30329323929" x2="875.346898996321" y2="1165.61143351613" style="stroke:rgb(99,99,99);stroke-width:1"/> 
<line x1="895.79360355942" y1="1089.30329323929" x2="972.101743836256" y2="1109.74999780239" style="stroke:rgb(99,99,99);stroke-width:1"/> 
<line x1="992.548448399355" y1="992.548448399355" x2="1012.99515296245" y2="1068.85658867619" style="stroke:rgb(99,99,99);stroke-width:1"/> 
<line x1="992.548448399355" y1="992.548448399355" x2="1068.85658867619" y2="972.101743836256" style="stroke:rgb(99,99,99);stroke-width:1"/> 
<line x1="1012.99515296245" y1="1068.85658867619" x2="972.101743836256" y2="1109.74999780239" style="stroke:rgb(99,99,99);stroke-width:1"/> 
<line x1="1068.85658867619" y1="972.101743836256" x2="1109.74999780239" y2="1012.99515296245" style="stroke:rgb(99,99,99);stroke-width:1"/> 
<line x1="972.101743836256" y1="1109.74999780239" x2="992.548448399355" y2="1186.05813807923" style="stroke:rgb(99,99,99);stroke-width:1"/> 
<line x1="1012.99515296245" y1="1068.85658867619" x2="1089.30329323929" y2="1089.30329323929" style="stroke:rgb(99,99,99);stroke-width:1"/> 
<line x1="1109.74999780239" y1="1012.99515296245" x2="1089.30329323929" y2="1089.30329323929" style="stroke:rgb(99,99,99);stroke-width:1"/> 
<line x1="1109.74999780239" y1="1012.99515296245" x2="1186.05813807923" y2="992.548448399355" style="stroke:rgb(99,99,99);stroke-width:1"/> 
<line x1="1089.30329323929" y1="1089.30329323929" x2="1068.85658867619" y2="1165.61143351613" style="stroke:rgb(99,99,99);stroke-width:1"/> 
<line x1="1089.30329323929" y1="1089.30329323929" x2="1165.61143351613" y2="1109.74999780239" style="stroke:rgb(99,99,99);stroke-width:1"/> 
<line x1="1186.05813807923" y1="992.548448399355" x2="1206.50484264233" y2="1068.85658867619" style="stroke:rgb(99,99,99);stroke-width:1"/> 
<line x1="1186.05813807923" y1="992.548448399355" x2="1262.36627835606" y2="972.101743836256" style="stroke:rgb(99,99,99);stroke-width:1"/> 
<line x1="1206.50484264233" y1="1068.85658867619" x2="1165.61143351613" y2="1109.74999780239" style="stroke:rgb(99,99,99);stroke-width:1"/> 
<line x1="1262.36627835606" y1="972.101743836256" x2="1303.25968748226" y2="1012.99515296245" style="stroke:rgb(99,99,99);stroke-width:1"/> 
<line x1="1165.61143351613" y1="1109.74999780239" x2="1186.05813807923" y2="1186.05813807923" style="stroke:rgb(99,99,99);stroke-width:1"/> 
<line x1="1206.50484264233" y1="1068.85658867619" x2="1282.81298291916" y2="1089.30329323929" style="stroke:rgb(99,99,99);stroke-width:1"/> 
<line x1="1303.25968748226" y1="1012.99515296245" x2="1282.81298291916" y2="1089.30329323929" style="stroke:rgb(99,99,99);stroke-width:1"/> 
<line x1="1303.25968748226" y1="1012.99515296245" x2="1379.5678277591" y2="992.548448399355" style="stroke:rgb(99,99,99);stroke-width:1"/> 
<line x1="1282.81298291916" y1="1089.30329323929" x2="1262.36627835606" y2="1165.61143351613" style="stroke:rgb(99,99,99);stroke-width:1"/> 
<line x1="1282.81298291916" y1="1089.30329323929" x2="1359.121123196" y2="1109.74999780239" style="stroke:rgb(99,99,99);stroke-width:1"/> 
<line x1="1379.5678277591" y1="992.548448399355" x2="1400.0145323222" y2="1068.85658867619" style="stroke:rgb(99,99,99);stroke-width:1"/> 
<line x1="1379.5678277591" y1="992.548448399355" x2="1455.87596803593" y2="972.101743836256" style="stroke:rgb(99,99,99);stroke-width:1"/> 
<line x1="1400.0145323222" y1="1068.85658867619" x2="1359.121123196" y2="1109.74999780239" style="stroke:rgb(99,99,99);stroke-width:1"/> 
<line x1="1455.87596803593" y1="972.101743836256" x2="1496.76937716213" y2="1012.99515296245" style="stroke:rgb(99,99,99);stroke-width:1"/> 
<line x1="1359.121123196" y1="1109.74999780239" x2="1379.5678277591" y2="1186.05813807923" style="stroke:rgb(99,99,99);stroke-width:1"/> 
<line x1="1400.0145323222" y1="1068.85658867619" x2="1476.32267259903" y2="1089.30329323929" style="stroke:rgb(99,99,99);stroke-width:1"/> 
<line x1="1496.76937716213" y1="1012.99515296245" x2="1476.32267259903" y2="1089.30329323929" style="stroke:rgb(99,99,99);stroke-width:1"/> 
<line x1="1496.76937716213" y1="1012.99515296245" x2="1573.07751743897" y2="992.548448399355" style="stroke:rgb(99,99,99);stroke-width:1"/> 
<line x1="1476.32267259903" y1="1089.30329323929" x2="1455.87596803593" y2="1165.61143351613" style="stroke:rgb(99,99,99);stroke-width:1"/> 
<line x1="1476.32267259903" y1="1089.30329323929" x2="1552.63081287587" y2="1109.74999780239" style="stroke:rgb(99,99,99);stroke-width:1"/> 
<line x1="1573.07751743897" y1="992.548448399355" x2="1593.52422200207" y2="1068.85658867619" style="stroke:rgb(99,99,99);stroke-width:1"/> 
<line x1="1593.52422200207" y1="1068.85658867619" x2="1552.63081287587" y2="1109.74999780239" style="stroke:rgb(99,99,99);stroke-width:1"/> 
<line x1="1552.63081287587" y1="1109.74999780239" x2="1573.07751743897" y2="1186.05813807923" style="stroke:rgb(99,99,99);stroke-width:1"/> 
<line x1="24.9999999999999" y1="1186.05813807923" x2="45.446704563099" y2="1262.36627835606" style="stroke:rgb(99,99,99);stroke-width:1"/> 
<line x1="24.9999999999999" y1="1186.05813807923" x2="101.308140276836" y2="1165.61143351613" style="stroke:rgb(99,99,99);stroke-width:1"/> 
<line x1="45.446704563099" y1="1262.36627835606" x2="4.55329543690073" y2="1303.25968748226" style="stroke:rgb(99,99,99);stroke-width:1"/> 
<line x1="101.308140276836" y1="1165.61143351613" x2="142.201549403035" y2="1206.50484264233" style="stroke:rgb(99,99,99);stroke-width:1"/> 
<line x1="4.55329543690073" y1="1303.25968748226" x2="24.9999999999999" y2="1379.5678277591" style="stroke:rgb(99,99,99);stroke-width:1"/> 
<line x1="45.446704563099" y1="1262.36627835606" x2="121.754844839935" y2="1282.81298291916" style="stroke:rgb(99,99,99);stroke-width:1"/> 
<line x1="142.201549403035" y1="1206.50484264233" x2="121.754844839935" y2="1282.81298291916" style="stroke:rgb(99,99,99);stroke-width:1"/> 
<line x1="142.201549403035" y1="1206.50484264233" x2="218.509689679871" y2="1186.05813807923" style="stroke:rgb(99,99,99);stroke-width:1"/> 
<line x1="121.754844839935" y1="1282.81298291916" x2="101.308140276836" y2="1359.121123196" style="stroke:rgb(99,99,99);stroke-width:1"/> 
<line x1="121.754844839935" y1="1282.81298291916" x2="198.062985116772" y2="1303.25968748226" style="stroke:rgb(99,99,99);stroke-width:1"/> 
<line x1="218.509689679871" y1="1186.05813807923" x2="238.95639424297" y2="1262.36627835606" style="stroke:rgb(99,99,99);stroke-width:1"/> 
<line x1="218.509689679871" y1="1186.05813807923" x2="294.817829956707" y2="1165.61143351613" style="stroke:rgb(99,99,99);stroke-width:1"/> 
<line x1="238.95639424297" y1="1262.36627835606" x2="198.062985116772" y2="1303.25968748226" style="stroke:rgb(99,99,99);stroke-width:1"/> 
<line x1="294.817829956707" y1="1165.61143351613" x2="335.711239082906" y2="1206.50484264233" style="stroke:rgb(99,99,99);stroke-width:1"/> 
<line x1="198.062985116772" y1="1303.25968748226" x2="218.509689679871" y2="1379.5678277591" style="stroke:rgb(99,99,99);stroke-width:1"/> 
<line x1="238.95639424297" y1="1262.36627835606" x2="315.264534519806" y2="1282.81298291916" style="stroke:rgb(99,99,99);stroke-width:1"/> 
<line x1="335.711239082906" y1="1206.50484264233" x2="315.264534519806" y2="1282.81298291916" style="stroke:rgb(99,99,99);stroke-width:1"/> 
<line x1="335.711239082906" y1="1206.50484264233" x2="412.019379359742" y2="1186.05813807923" style="stroke:rgb(99,99,99);stroke-width:1"/> 
<line x1="315.264534519806" y1="1282.81298291916" x2="294.817829956707" y2="1359.121123196" style="stroke:rgb(99,99,99);stroke-width:1"/> 
<line x1="315.264534519806" y1="1282.81298291916" x2="391.572674796643" y2="1303.25968748226" style="stroke:rgb(99,99,99);stroke-width:1"/> 
<line x1="412.019379359742" y1="1186.05813807923" x2="432.466083922841" y2="1262.36627835606" style="stroke:rgb(99,99,99);stroke-width:1"/> 
<line x1="412.019379359742" y1="1186.05813807923" x2="488.327519636578" y2="1165.61143351613" style="stroke:rgb(99,99,99);stroke-width:1"/> 
<line x1="432.466083922841" y1="1262.36627835606" x2="391.572674796643" y2="1303.25968748226" style="stroke:rgb(99,99,99);stroke-width:1"/> 
<line x1="488.327519636578" y1="1165.61143351613" x2="529.220928762777" y2="1206.50484264233" style="stroke:rgb(99,99,99);stroke-width:1"/> 
<line x1="391.572674796643" y1="1303.25968748226" x2="412.019379359742" y2="1379.5678277591" style="stroke:rgb(99,99,99);stroke-width:1"/> 
<line x1="432.466083922841" y1="1262.36627835606" x2="508.774224199677" y2="1282.81298291916" style="stroke:rgb(99,99,99);stroke-width:1"/> 
<line x1="529.220928762777" y1="1206.50484264233" x2="508.774224199677" y2="1282.81298291916" style="stroke:rgb(99,99,99);stroke-width:1"/> 
<line x1="529.220928762777" y1="1206.50484264233" x2="605.529069039613" y2="1186.05813807923" style="stroke:rgb(99,99,99);stroke-width:1"/> 
<line x1="508.774224199677" y1="1282.81298291916" x2="488.327519636578" y2="1359.121123196" style="stroke:rgb(99,99,99);stroke-width:1"/> 
<line x1="508.774224199677" y1="1282.81298291916" x2="585.082364476514" y2="1303.25968748226" style="stroke:rgb(99,99,99);stroke-width:1"/> 
<line x1="605.529069039613" y1="1186.05813807923" x2="625.975773602712" y2="1262.36627835606" style="stroke:rgb(99,99,99);stroke-width:1"/> 
<line x1="605.529069039613" y1="1186.05813807923" x2="681.83720931645" y2="1165.61143351613" style="stroke:rgb(99,99,99);stroke-width:1"/> 
<line x1="625.975773602712" y1="1262.36627835606" x2="585.082364476514" y2="1303.25968748226" style="stroke:rgb(99,99,99);stroke-width:1"/> 
<line x1="681.83720931645" y1="1165.61143351613" x2="722.730618442648" y2="1206.50484264233" style="stroke:rgb(99,99,99);stroke-width:1"/> 
<line x1="585.082364476514" y1="1303.25968748226" x2="605.529069039613" y2="1379.5678277591" style="stroke:rgb(99,99,99);stroke-width:1"/> 
<line x1="625.975773602712" y1="1262.36627835606" x2="702.283913879549" y2="1282.81298291916" style="stroke:rgb(99,99,99);stroke-width:1"/> 
<line x1="722.730618442648" y1="1206.50484264233" x2="702.283913879549" y2="1282.81298291916" style="stroke:rgb(99,99,99);stroke-width:1"/> 
<line x1="722.730618442648" y1="1206.50484264233" x2="799.038758719484" y2="1186.05813807923" style="stroke:rgb(99,99,99);stroke-width:1"/> 
<line x1="702.283913879549" y1="1282.81298291916" x2="681.83720931645" y2="1359.121123196" style="stroke:rgb(99,99,99);stroke-width:1"/> 
<line x1="702.283913879549" y1="1282.81298291916" x2="778.592054156385" y2="1303.25968748226" style="stroke:rgb(99,99,99);stroke-width:1"/> 
<line x1="799.038758719484" y1="1186.05813807923" x2="819.485463282583" y2="1262.36627835606" style="stroke:rgb(99,99,99);stroke-width:1"/> 
<line x1="799.038758719484" y1="1186.05813807923" x2="875.346898996321" y2="1165.61143351613" style="stroke:rgb(99,99,99);stroke-width:1"/> 
<line x1="819.485463282583" y1="1262.36627835606" x2="778.592054156385" y2="1303.25968748226" style="stroke:rgb(99,99,99);stroke-width:1"/> 
<line x1="875.346898996321" y1="1165.61143351613" x2="916.240308122519" y2="1206.50484264233" style="stroke:rgb(99,99,99);stroke-width:1"/> 
<line x1="778.592054156385" y1="1303.25968748226" x2="799.038758719484" y2="1379.5678277591" style="stroke:rgb(99,99,99);stroke-width:1"/> 
<line x1="819.485463282583" y1="1262.36627835606" x2="895.79360355942" y2="1282.81298291916" style="stroke:rgb(99,99,99);stroke-width:1"/> 
<line x1="916.240308122519" y1="1206.50484264233" x2="895.79360355942" y2="1282.81298291916" style="stroke:rgb(99,99,99);stroke-width:1"/> 
<line x1="916.240308122519" y1="1206.50484264233" x2="992.548448399355" y2="1186.05813807923" style="stroke:rgb(99,99,99);stroke-width:1"/> 
<line x1="895.79360355942" y1="1282.81298291916" x2="875.346898996321" y2="1359.121123196" style="stroke:rgb(99,99,99);stroke-width:1"/> 
<line x1="895.79360355942" y1="1282.81298291916" x2="972.101743836256" y2="1303.25968748226" style="stroke:rgb(99,99,99);stroke-width:1"/> 
<line x1="992.548448399355" y1="1186.05813807923" x2="1012.99515296245" y2="1262.36627835606" style="stroke:rgb(99,99,99);stroke-width:1"/> 
<line x1="992.548448399355" y1="1186.05813807923" x2="1068.85658867619" y2="1165.61143351613" style="stroke:rgb(99,99,99);stroke-width:1"/> 
<line x1="1012.99515296245" y1="1262.36627835606" x2="972.101743836256" y2="1303.25968748226" style="stroke:rgb(99,99,99);stroke-width:1"/> 
<line x1="1068.85658867619" y1="1165.61143351613" x2="1109.74999780239" y2="1206.50484264233" style="stroke:rgb(99,99,99);stroke-width:1"/> 
<line x1="972.101743836256" y1="1303.25968748226" x2="992.548448399355" y2="1379.5678277591" style="stroke:rgb(99,99,99);stroke-width:1"/> 
<line x1="1012.99515296245" y1="1262.36627835606" x2="1089.30329323929" y2="1282.81298291916" style="stroke:rgb(99,99,99);stroke-width:1"/> 
<line x1="1109.74999780239" y1="1206.50484264233" x2="1089.30329323929" y2="1282.81298291916" style="stroke:rgb(99,99,99);stroke-width:1"/> 
<line x1="1109.74999780239" y1="1206.50484264233" x2="1186.05813807923" y2="1186.05813807923" style="stroke:rgb(99,99,99);stroke-width:1"/> 
<line x1="1089.30329323929" y1="1282.81298291916" x2="1068.85658867619" y2="1359.121123196" style="stroke:rgb(99,99,99);stroke-width:1"/> 
<line x1="1089.30329323929" y1="1282.81298291916" x2="1165.61143351613" y2="1303.25968748226" style="stroke:rgb(99,99,99);stroke-width:1"/> 
<line x1="1186.05813807923" y1="1186.05813807923" x2="1206.50484264233" y2="1262.36627835606" style="stroke:rgb(99,99,99);stroke-width:1"/> 
<line x1="1186.05813807923" y1="1186.05813807923" x2="1262.36627835606" y2="1165.61143351613" style="stroke:rgb(99,99,99);stroke-width:1"/> 
<line x1="1206.50484264233" y1="1262.36627835606" x2="1165.61143351613" y2="1303.25968748226" style="stroke:rgb(99,99,99);stroke-width:1"/> 
<line x1="1262.36627835606" y1="1165.61143351613" x2="1303.25968748226" y2="1206.50484264233" style="stroke:rgb(99,99,99);stroke-width:1"/> 
<line x1="1165.61143351613" y1="1303.25968748226" x2="1186.05813807923" y2="1379.5678277591" style="stroke:rgb(99,99,99);stroke-width:1"/> 
<line x1="1206.50484264233" y1="1262.36627835606" x2="1282.81298291916" y2="1282.81298291916" style="stroke:rgb(99,99,99);stroke-width:1"/> 
<line x1="1303.25968748226" y1="1206.50484264233" x2="1282.81298291916" y2="1282.81298291916" style="stroke:rgb(99,99,99);stroke-width:1"/> 
<line x1="1303.25968748226" y1="1206.50484264233" x2="1379.5678277591" y2="1186.05813807923" style="stroke:rgb(99,99,99);stroke-width:1"/> 
<line x1="1282.81298291916" y1="1282.81298291916" x2="1262.36627835606" y2="1359.121123196" style="stroke:rgb(99,99,99);stroke-width:1"/> 
<line x1="1282.81298291916" y1="1282.81298291916" x2="1359.121123196" y2="1303.25968748226" style="stroke:rgb(99,99,99);stroke-width:1"/> 
<line x1="1379.5678277591" y1="1186.05813807923" x2="1400.0145323222" y2="1262.36627835606" style="stroke:rgb(99,99,99);stroke-width:1"/> 
<line x1="1379.5678277591" y1="1186.05813807923" x2="1455.87596803593" y2="1165.61143351613" style="stroke:rgb(99,99,99);stroke-width:1"/> 
<line x1="1400.0145323222" y1="1262.36627835606" x2="1359.121123196" y2="1303.25968748226" style="stroke:rgb(99,99,99);stroke-width:1"/> 
<line x1="1455.87596803593" y1="1165.61143351613" x2="1496.76937716213" y2="1206.50484264233" style="stroke:rgb(99,99,99);stroke-width:1"/> 
<line x1="1359.121123196" y1="1303.25968748226" x2="1379.5678277591" y2="1379.5678277591" style="stroke:rgb(99,99,99);stroke-width:1"/> 
<line x1="1400.0145323222" y1="1262.36627835606" x2="1476.32267259903" y2="1282.81298291916" style="stroke:rgb(99,99,99);stroke-width:1"/> 
<line x1="1496.76937716213" y1="1206.50484264233" x2="1476.32267259903" y2="1282.81298291916" style="stroke:rgb(99,99,99);stroke-width:1"/> 
<line x1="1496.76937716213" y1="1206.50484264233" x2="1573.07751743897" y2="1186.05813807923" style="stroke:rgb(99,99,99);stroke-width:1"/> 
<line x1="1476.32267259903" y1="1282.81298291916" x2="1455.87596803593" y2="1359.121123196" style="stroke:rgb(99,99,99);stroke-width:1"/> 
<line x1="1476.32267259903" y1="1282.81298291916" x2="1552.63081287587" y2="1303.25968748226" style="stroke:rgb(99,99,99);stroke-width:1"/> 
<line x1="1573.07751743897" y1="1186.05813807923" x2="1593.52422200207" y2="1262.36627835606" style="stroke:rgb(99,99,99);stroke-width:1"/> 
<line x1="1593.52422200207" y1="1262.36627835606" x2="1552.63081287587" y2="1303.25968748226" style="stroke:rgb(99,99,99);stroke-width:1"/> 
<line x1="1552.63081287587" y1="1303.25968748226" x2="1573.07751743897" y2="1379.5678277591" style="stroke:rgb(99,99,99);stroke-width:1"/> 
<line x1="24.9999999999999" y1="1379.5678277591" x2="45.4467045630989" y2="1455.87596803593" style="stroke:rgb(99,99,99);stroke-width:1"/> 
<line x1="24.9999999999999" y1="1379.5678277591" x2="101.308140276836" y2="1359.121123196" style="stroke:rgb(99,99,99);stroke-width:1"/> 
<line x1="45.4467045630989" y1="1455.87596803593" x2="4.55329543690073" y2="1496.76937716213" style="stroke:rgb(99,99,99);stroke-width:1"/> 
<line x1="101.308140276836" y1="1359.121123196" x2="142.201549403035" y2="1400.0145323222" style="stroke:rgb(99,99,99);stroke-width:1"/> 
<line x1="4.55329543690073" y1="1496.76937716213" x2="24.9999999999998" y2="1573.07751743897" style="stroke:rgb(99,99,99);stroke-width:1"/> 
<line x1="45.4467045630989" y1="1455.87596803593" x2="121.754844839935" y2="1476.32267259903" style="stroke:rgb(99,99,99);stroke-width:1"/> 
<line x1="142.201549403035" y1="1400.0145323222" x2="121.754844839935" y2="1476.32267259903" style="stroke:rgb(99,99,99);stroke-width:1"/> 
<line x1="142.201549403035" y1="1400.0145323222" x2="218.509689679871" y2="1379.5678277591" style="stroke:rgb(99,99,99);stroke-width:1"/> 
<line x1="121.754844839935" y1="1476.32267259903" x2="101.308140276836" y2="1552.63081287587" style="stroke:rgb(99,99,99);stroke-width:1"/> 
<line x1="121.754844839935" y1="1476.32267259903" x2="198.062985116772" y2="1496.76937716213" style="stroke:rgb(99,99,99);stroke-width:1"/> 
<line x1="218.509689679871" y1="1379.5678277591" x2="238.95639424297" y2="1455.87596803593" style="stroke:rgb(99,99,99);stroke-width:1"/> 
<line x1="218.509689679871" y1="1379.5678277591" x2="294.817829956707" y2="1359.121123196" style="stroke:rgb(99,99,99);stroke-width:1"/> 
<line x1="238.95639424297" y1="1455.87596803593" x2="198.062985116772" y2="1496.76937716213" style="stroke:rgb(99,99,99);stroke-width:1"/> 
<line x1="294.817829956707" y1="1359.121123196" x2="335.711239082906" y2="1400.0145323222" style="stroke:rgb(99,99,99);stroke-width:1"/> 
<line x1="198.062985116772" y1="1496.76937716213" x2="218.509689679871" y2="1573.07751743897" style="stroke:rgb(99,99,99);stroke-width:1"/> 
<line x1="238.95639424297" y1="1455.87596803593" x2="315.264534519806" y2="1476.32267259903" style="stroke:rgb(99,99,99);stroke-width:1"/> 
<line x1="335.711239082906" y1="1400.0145323222" x2="315.264534519806" y2="1476.32267259903" style="stroke:rgb(99,99,99);stroke-width:1"/> 
<line x1="335.711239082906" y1="1400.0145323222" x2="412.019379359742" y2="1379.5678277591" style="stroke:rgb(99,99,99);stroke-width:1"/> 
<line x1="315.264534519806" y1="1476.32267259903" x2="294.817829956707" y2="1552.63081287587" style="stroke:rgb(99,99,99);stroke-width:1"/> 
<line x1="315.264534519806" y1="1476.32267259903" x2="391.572674796643" y2="1496.76937716213" style="stroke:rgb(99,99,99);stroke-width:1"/> 
<line x1="412.019379359742" y1="1379.5678277591" x2="432.466083922841" y2="1455.87596803593" style="stroke:rgb(99,99,99);stroke-width:1"/> 
<line x1="412.019379359742" y1="1379.5678277591" x2="488.327519636578" y2="1359.121123196" style="stroke:rgb(99,99,99);stroke-width:1"/> 
<line x1="432.466083922841" y1="1455.87596803593" x2="391.572674796643" y2="1496.76937716213" style="stroke:rgb(99,99,99);stroke-width:1"/> 
<line x1="488.327519636578" y1="1359.121123196" x2="529.220928762777" y2="1400.0145323222" style="stroke:rgb(99,99,99);stroke-width:1"/> 
<line x1="391.572674796643" y1="1496.76937716213" x2="412.019379359742" y2="1573.07751743897" style="stroke:rgb(99,99,99);stroke-width:1"/> 
<line x1="432.466083922841" y1="1455.87596803593" x2="508.774224199677" y2="1476.32267259903" style="stroke:rgb(99,99,99);stroke-width:1"/> 
<line x1="529.220928762777" y1="1400.0145323222" x2="508.774224199677" y2="1476.32267259903" style="stroke:rgb(99,99,99);stroke-width:1"/> 
<line x1="529.220928762777" y1="1400.0145323222" x2="605.529069039613" y2="1379.5678277591" style="stroke:rgb(99,99,99);stroke-width:1"/> 
<line x1="508.774224199677" y1="1476.32267259903" x2="488.327519636578" y2="1552.63081287587" style="stroke:rgb(99,99,99);stroke-width:1"/> 
<line x1="508.774224199677" y1="1476.32267259903" x2="585.082364476514" y2="1496.76937716213" style="stroke:rgb(99,99,99);stroke-width:1"/> 
<line x1="605.529069039613" y1="1379.5678277591" x2="625.975773602712" y2="1455.87596803593" style="stroke:rgb(99,99,99);stroke-width:1"/> 
<line x1="605.529069039613" y1="1379.5678277591" x2="681.83720931645" y2="1359.121123196" style="stroke:rgb(99,99,99);stroke-width:1"/> 
<line x1="625.975773602712" y1="1455.87596803593" x2="585.082364476514" y2="1496.76937716213" style="stroke:rgb(99,99,99);stroke-width:1"/> 
<line x1="681.83720931645" y1="1359.121123196" x2="722.730618442648" y2="1400.0145323222" style="stroke:rgb(99,99,99);stroke-width:1"/> 
<line x1="585.082364476514" y1="1496.76937716213" x2="605.529069039613" y2="1573.07751743897" style="stroke:rgb(99,99,99);stroke-width:1"/> 
<line x1="625.975773602712" y1="1455.87596803593" x2="702.283913879549" y2="1476.32267259903" style="stroke:rgb(99,99,99);stroke-width:1"/> 
<line x1="722.730618442648" y1="1400.0145323222" x2="702.283913879549" y2="1476.32267259903" style="stroke:rgb(99,99,99);stroke-width:1"/> 
<line x1="722.730618442648" y1="1400.0145323222" x2="799.038758719484" y2="1379.5678277591" style="stroke:rgb(99,99,99);stroke-width:1"/> 
<line x1="702.283913879549" y1="1476.32267259903" x2="681.83720931645" y2="1552.63081287587" style="stroke:rgb(99,99,99);stroke-width:1"/> 
<line x1="702.283913879549" y1="1476.32267259903" x2="778.592054156385" y2="1496.76937716213" style="stroke:rgb(99,99,99);stroke-width:1"/> 
<line x1="799.038758719484" y1="1379.5678277591" x2="819.485463282583" y2="1455.87596803593" style="stroke:rgb(99,99,99);stroke-width:1"/> 
<line x1="799.038758719484" y1="1379.5678277591" x2="875.346898996321" y2="1359.121123196" style="stroke:rgb(99,99,99);stroke-width:1"/> 
<line x1="819.485463282583" y1="1455.87596803593" x2="778.592054156385" y2="1496.76937716213" style="stroke:rgb(99,99,99);stroke-width:1"/> 
<line x1="875.346898996321" y1="1359.121123196" x2="916.240308122519" y2="1400.0145323222" style="stroke:rgb(99,99,99);stroke-width:1"/> 
<line x1="778.592054156385" y1="1496.76937716213" x2="799.038758719484" y2="1573.07751743897" style="stroke:rgb(99,99,99);stroke-width:1"/> 
<line x1="819.485463282583" y1="1455.87596803593" x2="895.79360355942" y2="1476.32267259903" style="stroke:rgb(99,99,99);stroke-width:1"/> 
<line x1="916.240308122519" y1="1400.0145323222" x2="895.79360355942" y2="1476.32267259903" style="stroke:rgb(99,99,99);stroke-width:1"/> 
<line x1="916.240308122519" y1="1400.0145323222" x2="992.548448399355" y2="1379.5678277591" style="stroke:rgb(99,99,99);stroke-width:1"/> 
<line x1="895.79360355942" y1="1476.32267259903" x2="875.346898996321" y2="1552.63081287587" style="stroke:rgb(99,99,99);stroke-width:1"/> 
<line x1="895.79360355942" y1="1476.32267259903" x2="972.101743836256" y2="1496.76937716213" style="stroke:rgb(99,99,99);stroke-width:1"/> 
<line x1="992.548448399355" y1="1379.5678277591" x2="1012.99515296245" y2="1455.87596803593" style="stroke:rgb(99,99,99);stroke-width:1"/> 
<line x1="992.548448399355" y1="1379.5678277591" x2="1068.85658867619" y2="1359.121123196" style="stroke:rgb(99,99,99);stroke-width:1"/> 
<line x1="1012.99515296245" y1="1455.87596803593" x2="972.101743836256" y2="1496.76937716213" style="stroke:rgb(99,99,99);stroke-width:1"/> 
<line x1="1068.85658867619" y1="1359.121123196" x2="1109.74999780239" y2="1400.0145323222" style="stroke:rgb(99,99,99);stroke-width:1"/> 
<line x1="972.101743836256" y1="1496.76937716213" x2="992.548448399355" y2="1573.07751743897" style="stroke:rgb(99,99,99);stroke-width:1"/> 
<line x1="1012.99515296245" y1="1455.87596803593" x2="1089.30329323929" y2="1476.32267259903" style="stroke:rgb(99,99,99);stroke-width:1"/> 
<line x1="1109.74999780239" y1="1400.0145323222" x2="1089.30329323929" y2="1476.32267259903" style="stroke:rgb(99,99,99);stroke-width:1"/> 
<line x1="1109.74999780239" y1="1400.0145323222" x2="1186.05813807923" y2="1379.5678277591" style="stroke:rgb(99,99,99);stroke-width:1"/> 
<line x1="1089.30329323929" y1="1476.32267259903" x2="1068.85658867619" y2="1552.63081287587" style="stroke:rgb(99,99,99);stroke-width:1"/> 
<line x1="1089.30329323929" y1="1476.32267259903" x2="1165.61143351613" y2="1496.76937716213" style="stroke:rgb(99,99,99);stroke-width:1"/> 
<line x1="1186.05813807923" y1="1379.5678277591" x2="1206.50484264233" y2="1455.87596803593" style="stroke:rgb(99,99,99);stroke-width:1"/> 
<line x1="1186.05813807923" y1="1379.5678277591" x2="1262.36627835606" y2="1359.121123196" style="stroke:rgb(99,99,99);stroke-width:1"/> 
<line x1="1206.50484264233" y1="1455.87596803593" x2="1165.61143351613" y2="1496.76937716213" style="stroke:rgb(99,99,99);stroke-width:1"/> 
<line x1="1262.36627835606" y1="1359.121123196" x2="1303.25968748226" y2="1400.0145323222" style="stroke:rgb(99,99,99);stroke-width:1"/> 
<line x1="1165.61143351613" y1="1496.76937716213" x2="1186.05813807923" y2="1573.07751743897" style="stroke:rgb(99,99,99);stroke-width:1"/> 
<line x1="1206.50484264233" y1="1455.87596803593" x2="1282.81298291916" y2="1476.32267259903" style="stroke:rgb(99,99,99);stroke-width:1"/> 
<line x1="1303.25968748226" y1="1400.0145323222" x2="1282.81298291916" y2="1476.32267259903" style="stroke:rgb(99,99,99);stroke-width:1"/> 
<line x1="1303.25968748226" y1="1400.0145323222" x2="1379.5678277591" y2="1379.5678277591" style="stroke:rgb(99,99,99);stroke-width:1"/> 
<line x1="1282.81298291916" y1="1476.32267259903" x2="1262.36627835606" y2="1552.63081287587" style="stroke:rgb(99,99,99);stroke-width:1"/> 
<line x1="1282.81298291916" y1="1476.32267259903" x2="1359.121123196" y2="1496.76937716213" style="stroke:rgb(99,99,99);stroke-width:1"/> 
<line x1="1379.5678277591" y1="1379.5678277591" x2="1400.0145323222" y2="1455.87596803593" style="stroke:rgb(99,99,99);stroke-width:1"/> 
<line x1="1379.5678277591" y1="1379.5678277591" x2="1455.87596803593" y2="1359.121123196" style="stroke:rgb(99,99,99);stroke-width:1"/> 
<line x1="1400.0145323222" y1="1455.87596803593" x2="1359.121123196" y2="1496.76937716213" style="stroke:rgb(99,99,99);stroke-width:1"/> 
<line x1="1455.87596803593" y1="1359.121123196" x2="1496.76937716213" y2="1400.0145323222" style="stroke:rgb(99,99,99);stroke-width:1"/> 
<line x1="1359.121123196" y1="1496.76937716213" x2="1379.5678277591" y2="1573.07751743897" style="stroke:rgb(99,99,99);stroke-width:1"/> 
<line x1="1400.0145323222" y1="1455.87596803593" x2="1476.32267259903" y2="1476.32267259903" style="stroke:rgb(99,99,99);stroke-width:1"/> 
<line x1="1496.76937716213" y1="1400.0145323222" x2="1476.32267259903" y2="1476.32267259903" style="stroke:rgb(99,99,99);stroke-width:1"/> 
<line x1="1496.76937716213" y1="1400.0145323222" x2="1573.07751743897" y2="1379.5678277591" style="stroke:rgb(99,99,99);stroke-width:1"/> 
<line x1="1476.32267259903" y1="1476.32267259903" x2="1455.87596803593" y2="1552.63081287587" style="stroke:rgb(99,99,99);stroke-width:1"/> 
<line x1="1476.32267259903" y1="1476.32267259903" x2="1552.63081287587" y2="1496.76937716213" style="stroke:rgb(99,99,99);stroke-width:1"/> 
<line x1="1573.07751743897" y1="1379.5678277591" x2="1593.52422200207" y2="1455.87596803593" style="stroke:rgb(99,99,99);stroke-width:1"/> 
<line x1="1593.52422200207" y1="1455.87596803593" x2="1552.63081287587" y2="1496.76937716213" style="stroke:rgb(99,99,99);stroke-width:1"/> 
<line x1="1552.63081287587" y1="1496.76937716213" x2="1573.07751743897" y2="1573.07751743897" style="stroke:rgb(99,99,99);stroke-width:1"/> 
<line x1="24.9999999999998" y1="1573.07751743897" x2="101.308140276836" y2="1552.63081287587" style="stroke:rgb(99,99,99);stroke-width:1"/> 
<line x1="101.308140276836" y1="1552.63081287587" x2="142.201549403035" y2="1593.52422200207" style="stroke:rgb(99,99,99);stroke-width:1"/> 
<line x1="142.201549403035" y1="1593.52422200207" x2="218.509689679871" y2="1573.07751743897" style="stroke:rgb(99,99,99);stroke-width:1"/> 
<line x1="218.509689679871" y1="1573.07751743897" x2="294.817829956707" y2="1552.63081287587" style="stroke:rgb(99,99,99);stroke-width:1"/> 
<line x1="294.817829956707" y1="1552.63081287587" x2="335.711239082906" y2="1593.52422200207" style="stroke:rgb(99,99,99);stroke-width:1"/> 
<line x1="335.711239082906" y1="1593.52422200207" x2="412.019379359742" y2="1573.07751743897" style="stroke:rgb(99,99,99);stroke-width:1"/> 
<line x1="412.019379359742" y1="1573.07751743897" x2="488.327519636578" y2="1552.63081287587" style="stroke:rgb(99,99,99);stroke-width:1"/> 
<line x1="488.327519636578" y1="1552.63081287587" x2="529.220928762777" y2="1593.52422200207" style="stroke:rgb(99,99,99);stroke-width:1"/> 
<line x1="529.220928762777" y1="1593.52422200207" x2="605.529069039613" y2="1573.07751743897" style="stroke:rgb(99,99,99);stroke-width:1"/> 
<line x1="605.529069039613" y1="1573.07751743897" x2="681.83720931645" y2="1552.63081287587" style="stroke:rgb(99,99,99);stroke-width:1"/> 
<line x1="681.83720931645" y1="1552.63081287587" x2="722.730618442648" y2="1593.52422200207" style="stroke:rgb(99,99,99);stroke-width:1"/> 
<line x1="722.730618442648" y1="1593.52422200207" x2="799.038758719484" y2="1573.07751743897" style="stroke:rgb(99,99,99);stroke-width:1"/> 
<line x1="799.038758719484" y1="1573.07751743897" x2="875.346898996321" y2="1552.63081287587" style="stroke:rgb(99,99,99);stroke-width:1"/> 
<line x1="875.346898996321" y1="1552.63081287587" x2="916.240308122519" y2="1593.52422200207" style="stroke:rgb(99,99,99);stroke-width:1"/> 
<line x1="916.240308122519" y1="1593.52422200207" x2="992.548448399355" y2="1573.07751743897" style="stroke:rgb(99,99,99);stroke-width:1"/> 
<line x1="992.548448399355" y1="1573.07751743897" x2="1068.85658867619" y2="1552.63081287587" style="stroke:rgb(99,99,99);stroke-width:1"/> 
<line x1="1068.85658867619" y1="1552.63081287587" x2="1109.74999780239" y2="1593.52422200207" style="stroke:rgb(99,99,99);stroke-width:1"/> 
<line x1="1109.74999780239" y1="1593.52422200207" x2="1186.05813807923" y2="1573.07751743897" style="stroke:rgb(99,99,99);stroke-width:1"/> 
<line x1="1186.05813807923" y1="1573.07751743897" x2="1262.36627835606" y2="1552.63081287587" style="stroke:rgb(99,99,99);stroke-width:1"/> 
<line x1="1262.36627835606" y1="1552.63081287587" x2="1303.25968748226" y2="1593.52422200207" style="stroke:rgb(99,99,99);stroke-width:1"/> 
<line x1="1303.25968748226" y1="1593.52422200207" x2="1379.5678277591" y2="1573.07751743897" style="stroke:rgb(99,99,99);stroke-width:1"/> 
<line x1="1379.5678277591" y1="1573.07751743897" x2="1455.87596803593" y2="1552.63081287587" style="stroke:rgb(99,99,99);stroke-width:1"/> 
<line x1="1455.87596803593" y1="1552.63081287587" x2="1496.76937716213" y2="1593.52422200207" style="stroke:rgb(99,99,99);stroke-width:1"/> 
<line x1="1496.76937716213" y1="1593.52422200207" x2="1573.07751743897" y2="1573.07751743897" style="stroke:rgb(99,99,99);stroke-width:1"/> 
</svg>
