<?xml version="1.0" standalone="no"?> <!DOCTYPE svg PUBLIC "-//W3C//DTD SVG 1.1//EN" "http://www.w3.org/Graphics/SVG/1.1/DTD/svg11.dtd">
<svg width="2000" height="2000" version="1.1" xmlns="http://www.w3.org/2000/svg">
<line x1="16" y1="16" x2="3.87400377718361" y2="61.254833995939" style="stroke:rgb(50,0,199);stroke-width:1.5"/>
<line x1="16" y1="16" x2="61.254833995939" y2="3.87400377718362" style="stroke:rgb(50,0,199);stroke-width:1.5"/>
<line x1="16" y1="16" x2="49.1288377731226" y2="49.1288377731227" style="stroke:rgb(50,0,199);stroke-width:1.5"/>
<line x1="3.87400377718361" y1="61.254833995939" x2="16" y2="106.509667991878" style="stroke:rgb(50,0,199);stroke-width:1.5"/>
<line x1="3.87400377718361" y1="61.254833995939" x2="49.1288377731226" y2="49.1288377731227" style="stroke:rgb(50,0,199);stroke-width:1.5"/>
<line x1="61.254833995939" y1="3.87400377718362" x2="49.1288377731226" y2="49.1288377731227" style="stroke:rgb(50,0,199);stroke-width:1.5"/>
<line x1="61.254833995939" y1="3.87400377718362" x2="106.509667991878" y2="16" style="stroke:rgb(50,0,199);stroke-width:1.5"/>
<line x1="49.1288377731226" y1="49.1288377731227" x2="61.254833995939" y2="94.3836717690617" style="stroke:rgb(50,0,199);stroke-width:1.5"/>
<line x1="49.1288377731226" y1="49.1288377731227" x2="94.3836717690617" y2="61.254833995939" style="stroke:rgb(50,0,199);stroke-width:1.5"/>
<line x1="61.254833995939" y1="94.3836717690617" x2="94.3836717690617" y2="61.254833995939" style="stroke:rgb(50,0,199);stroke-width:1.5"/>
<line x1="16" y1="106.509667991878" x2="3.87400377718359" y2="151.764501987817" style="stroke:rgb(50,0,199);stroke-width:1.5"/>
<line x1="16" y1="106.509667991878" x2="61.254833995939" y2="94.3836717690617" style="stroke:rgb(50,0,199);stroke-width:1.5"/>
<line x1="16" y1="106.509667991878" x2="49.1288377731226" y2="139.638505765001" style="stroke:rgb(50,0,199);stroke-width:1.5"/>
<line x1="3.87400377718359" y1="151.764501987817" x2="16" y2="197.019335983756" style="stroke:rgb(50,0,199);stroke-width:1.5"/>
<line x1="3.87400377718359" y1="151.764501987817" x2="49.1288377731226" y2="139.638505765001" style="stroke:rgb(50,0,199);stroke-width:1.5"/>
<line x1="61.254833995939" y1="94.3836717690617" x2="49.1288377731226" y2="139.638505765001" style="stroke:rgb(50,0,199);stroke-width:1.5"/>
<line x1="61.254833995939" y1="94.3836717690617" x2="106.509667991878" y2="106.509667991878" style="stroke:rgb(50,0,199);stroke-width:1.5"/>
<line x1="49.1288377731226" y1="139.638505765001" x2="61.254833995939" y2="184.89333976094" style="stroke:rgb(50,0,199);stroke-width:1.5"/>
<line x1="49.1288377731226" y1="139.638505765001" x2="94.3836717690617" y2="151.764501987817" style="stroke:rgb(50,0,199);stroke-width:1.5"/>
<line x1="61.254833995939" y1="184.89333976094" x2="94.3836717690617" y2="151.764501987817" style="stroke:rgb(50,0,199);stroke-width:1.5"/>
<line x1="16" y1="197.019335983756" x2="3.87400377718358" y2="242.274169979695" style="stroke:rgb(50,0,199);stroke-width:1.5"/>
<line x1="16" y1="197.019335983756" x2="61.254833995939" y2="184.89333976094" style="stroke:rgb(50,0,199);stroke-width:1.5"/>
<line x1="16" y1="197.019335983756" x2="49.1288377731226" y2="230.148173756879" style="stroke:rgb(50,0,199);stroke-width:1.5"/>
<line x1="3.87400377718358" y1="242.274169979695" x2="16" y2="287.529003975634" style="stroke:rgb(50,0,199);stroke-width:1.5"/>
<line x1="3.87400377718358" y1="242.274169979695" x2="49.1288377731226" y2="230.148173756879" style="stroke:rgb(50,0,199);stroke-width:1.5"/>
<line x1="61.254833995939" y1="184.89333976094" x2="49.1288377731226" y2="230.148173756879" style="stroke:rgb(50,0,199);stroke-width:1.5"/>
<line x1="61.254833995939" y1="184.89333976094" x2="106.509667991878" y2="197.019335983756" style="stroke:rgb(50,0,199);stroke-width:1.5"/>
<line x1="49.1288377731226" y1="230.148173756879" x2="61.254833995939" y2="275.403007752818" style="stroke:rgb(50,0,199);stroke-width:1.5"/>
<line x1="49.1288377731226" y1="230.148173756879" x2="94.3836717690616" y2="242.274169979695" style="stroke:rgb(50,0,199);stroke-width:1.5"/>
<line x1="61.254833995939" y1="275.403007752818" x2="94.3836717690616" y2="242.274169979695" style="stroke:rgb(50,0,199);stroke-width:1.5"/>
<line x1="16" y1="287.529003975634" x2="3.87400377718357" y2="332.783837971573" style="stroke:rgb(50,0,199);stroke-width:1.5"/>
<line x1="16" y1="287.529003975634" x2="61.254833995939" y2="275.403007752818" style="stroke:rgb(50,0,199);stroke-width:1.5"/>
<line x1="16" y1="287.529003975634" x2="49.1288377731226" y2="320.657841748757" style="stroke:rgb(50,0,199);stroke-width:1.5"/>
<line x1="3.87400377718357" y1="332.783837971573" x2="15.9999999999999" y2="378.038671967512" style="stroke:rgb(50,0,199);stroke-width:1.5"/>
<line x1="3.87400377718357" y1="332.783837971573" x2="49.1288377731226" y2="320.657841748757" style="stroke:rgb(50,0,199);stroke-width:1.5"/>
<line x1="61.254833995939" y1="275.403007752818" x2="49.1288377731226" y2="320.657841748757" style="stroke:rgb(50,0,199);stroke-width:1.5"/>
<line x1="61.254833995939" y1="275.403007752818" x2="106.509667991878" y2="287.529003975634" style="stroke:rgb(50,0,199);stroke-width:1.5"/>
<line x1="49.1288377731226" y1="320.657841748757" x2="61.254833995939" y2="365.912675744696" style="stroke:rgb(50,0,199);stroke-width:1.5"/>
<line x1="49.1288377731226" y1="320.657841748757" x2="94.3836717690616" y2="332.783837971573" style="stroke:rgb(50,0,199);stroke-width:1.5"/>
<line x1="61.254833995939" y1="365.912675744696" x2="94.3836717690616" y2="332.783837971573" style="stroke:rgb(50,0,199);stroke-width:1.5"/>
<line x1="15.9999999999999" y1="378.038671967512" x2="61.254833995939" y2="365.912675744696" style="stroke:rgb(50,0,199);stroke-width:1.5"/>
<line x1="61.254833995939" y1="365.912675744696" x2="106.509667991878" y2="378.038671967512" style="stroke:rgb(50,0,199);stroke-width:1.5"/>
<line x1="106.509667991878" y1="16" x2="94.3836717690617" y2="61.254833995939" style="stroke:rgb(50,0,199);stroke-width:1.5"/>
<line x1="106.509667991878" y1="16" x2="151.764501987817" y2="3.87400377718364" style="stroke:rgb(50,0,199);stroke-width:1.5"/>
<line x1="106.509667991878" y1="16" x2="139.638505765001" y2="49.1288377731227" style="stroke:rgb(50,0,199);stroke-width:1.5"/>
<line x1="94.3836717690617" y1="61.254833995939" x2="106.509667991878" y2="106.509667991878" style="stroke:rgb(50,0,199);stroke-width:1.5"/>
<line x1="94.3836717690617" y1="61.254833995939" x2="139.638505765001" y2="49.1288377731227" style="stroke:rgb(50,0,199);stroke-width:1.5"/>
<line x1="151.764501987817" y1="3.87400377718364" x2="139.638505765001" y2="49.1288377731227" style="stroke:rgb(50,0,199);stroke-width:1.5"/>
<line x1="151.764501987817" y1="3.87400377718364" x2="197.019335983756" y2="16" style="stroke:rgb(50,0,199);stroke-width:1.5"/>
<line x1="139.638505765001" y1="49.1288377731227" x2="151.764501987817" y2="94.3836717690617" style="stroke:rgb(50,0,199);stroke-width:1.5"/>
<line x1="139.638505765001" y1="49.1288377731227" x2="184.89333976094" y2="61.2548339959391" style="stroke:rgb(50,0,199);stroke-width:1.5"/>
<line x1="151.764501987817" y1="94.3836717690617" x2="184.89333976094" y2="61.2548339959391" style="stroke:rgb(50,0,199);stroke-width:1.5"/>
<line x1="106.509667991878" y1="106.509667991878" x2="94.3836717690616" y2="151.764501987817" style="stroke:rgb(50,0,199);stroke-width:1.5"/>
<line x1="106.509667991878" y1="106.509667991878" x2="151.764501987817" y2="94.3836717690617" style="stroke:rgb(50,0,199);stroke-width:1.5"/>
<line x1="106.509667991878" y1="106.509667991878" x2="139.638505765001" y2="139.638505765001" style="stroke:rgb(50,0,199);stroke-width:1.5"/>
<line x1="94.3836717690616" y1="151.764501987817" x2="106.509667991878" y2="197.019335983756" style="stroke:rgb(50,0,199);stroke-width:1.5"/>
<line x1="94.3836717690616" y1="151.764501987817" x2="139.638505765001" y2="139.638505765001" style="stroke:rgb(50,0,199);stroke-width:1.5"/>
<line x1="151.764501987817" y1="94.3836717690617" x2="139.638505765001" y2="139.638505765001" style="stroke:rgb(50,0,199);stroke-width:1.5"/>
<line x1="151.764501987817" y1="94.3836717690617" x2="197.019335983756" y2="106.509667991878" style="stroke:rgb(50,0,199);stroke-width:1.5"/>
<line x1="139.638505765001" y1="139.638505765001" x2="151.764501987817" y2="184.89333976094" style="stroke:rgb(50,0,199);stroke-width:1.5"/>
<line x1="139.638505765001" y1="139.638505765001" x2="184.89333976094" y2="151.764501987817" style="stroke:rgb(50,0,199);stroke-width:1.5"/>
<line x1="151.764501987817" y1="184.89333976094" x2="184.89333976094" y2="151.764501987817" style="stroke:rgb(50,0,199);stroke-width:1.5"/>
<line x1="106.509667991878" y1="197.019335983756" x2="94.3836717690616" y2="242.274169979695" style="stroke:rgb(50,0,199);stroke-width:1.5"/>
<line x1="106.509667991878" y1="197.019335983756" x2="151.764501987817" y2="184.89333976094" style="stroke:rgb(50,0,199);stroke-width:1.5"/>
<line x1="106.509667991878" y1="197.019335983756" x2="139.638505765001" y2="230.148173756879" style="stroke:rgb(50,0,199);stroke-width:1.5"/>
<line x1="94.3836717690616" y1="242.274169979695" x2="106.509667991878" y2="287.529003975634" style="stroke:rgb(50,0,199);stroke-width:1.5"/>
<line x1="94.3836717690616" y1="242.274169979695" x2="139.638505765001" y2="230.148173756879" style="stroke:rgb(50,0,199);stroke-width:1.5"/>
<line x1="151.764501987817" y1="184.89333976094" x2="139.638505765001" y2="230.148173756879" style="stroke:rgb(50,0,199);stroke-width:1.5"/>
<line x1="151.764501987817" y1="184.89333976094" x2="197.019335983756" y2="197.019335983756" style="stroke:rgb(50,0,199);stroke-width:1.5"/>
<line x1="139.638505765001" y1="230.148173756879" x2="151.764501987817" y2="275.403007752818" style="stroke:rgb(50,0,199);stroke-width:1.5"/>
<line x1="139.638505765001" y1="230.148173756879" x2="184.89333976094" y2="242.274169979695" style="stroke:rgb(50,0,199);stroke-width:1.5"/>
<line x1="151.764501987817" y1="275.403007752818" x2="184.89333976094" y2="242.274169979695" style="stroke:rgb(50,0,199);stroke-width:1.5"/>
<line x1="106.509667991878" y1="287.529003975634" x2="94.3836717690616" y2="332.783837971573" style="stroke:rgb(50,0,199);stroke-width:1.5"/>
<line x1="106.509667991878" y1="287.529003975634" x2="151.764501987817" y2="275.403007752818" style="stroke:rgb(50,0,199);stroke-width:1.5"/>
<line x1="106.509667991878" y1="287.529003975634" x2="139.638505765001" y2="320.657841748757" style="stroke:rgb(50,0,199);stroke-width:1.5"/>
<line x1="94.3836717690616" y1="332.783837971573" x2="106.509667991878" y2="378.038671967512" style="stroke:rgb(50,0,199);stroke-width:1.5"/>
<line x1="94.3836717690616" y1="332.783837971573" x2="139.638505765001" y2="320.657841748757" style="stroke:rgb(50,0,199);stroke-width:1.5"/>
<line x1="151.764501987817" y1="275.403007752818" x2="139.638505765001" y2="320.657841748757" style="stroke:rgb(50,0,199);stroke-width:1.5"/>
<line x1="151.764501987817" y1="275.403007752818" x2="197.019335983756" y2="287.529003975634" style="stroke:rgb(50,0,199);stroke-width:1.5"/>
<line x1="139.638505765001" y1="320.657841748757" x2="151.764501987817" y2="365.912675744696" style="stroke:rgb(50,0,199);stroke-width:1.5"/>
<line x1="139.638505765001" y1="320.657841748757" x2="184.89333976094" y2="332.783837971573" style="stroke:rgb(50,0,199);stroke-width:1.5"/>
<line x1="151.764501987817" y1="365.912675744696" x2="184.89333976094" y2="332.783837971573" style="stroke:rgb(50,0,199);stroke-width:1.5"/>
<line x1="106.509667991878" y1="378.038671967512" x2="151.764501987817" y2="365.912675744696" style="stroke:rgb(50,0,199);stroke-width:1.5"/>
<line x1="151.764501987817" y1="365.912675744696" x2="197.019335983756" y2="378.038671967512" style="stroke:rgb(50,0,199);stroke-width:1.5"/>
<line x1="197.019335983756" y1="16" x2="184.89333976094" y2="61.2548339959391" style="stroke:rgb(50,0,199);stroke-width:1.5"/>
<line x1="197.019335983756" y1="16" x2="242.274169979695" y2="3.87400377718365" style="stroke:rgb(50,0,199);stroke-width:1.5"/>
<line x1="197.019335983756" y1="16" x2="230.148173756879" y2="49.1288377731227" style="stroke:rgb(50,0,199);stroke-width:1.5"/>
<line x1="184.89333976094" y1="61.2548339959391" x2="197.019335983756" y2="106.509667991878" style="stroke:rgb(50,0,199);stroke-width:1.5"/>
<line x1="184.89333976094" y1="61.2548339959391" x2="230.148173756879" y2="49.1288377731227" style="stroke:rgb(50,0,199);stroke-width:1.5"/>
<line x1="242.274169979695" y1="3.87400377718365" x2="230.148173756879" y2="49.1288377731227" style="stroke:rgb(50,0,199);stroke-width:1.5"/>
<line x1="242.274169979695" y1="3.87400377718365" x2="287.529003975634" y2="16" style="stroke:rgb(50,0,199);stroke-width:1.5"/>
<line x1="230.148173756879" y1="49.1288377731227" x2="242.274169979695" y2="94.3836717690617" style="stroke:rgb(50,0,199);stroke-width:1.5"/>
<line x1="230.148173756879" y1="49.1288377731227" x2="275.403007752818" y2="61.2548339959391" style="stroke:rgb(50,0,199);stroke-width:1.5"/>
<line x1="242.274169979695" y1="94.3836717690617" x2="275.403007752818" y2="61.2548339959391" style="stroke:rgb(50,0,199);stroke-width:1.5"/>
<line x1="197.019335983756" y1="106.509667991878" x2="184.89333976094" y2="151.764501987817" style="stroke:rgb(50,0,199);stroke-width:1.5"/>
<line x1="197.019335983756" y1="106.509667991878" x2="242.274169979695" y2="94.3836717690617" style="stroke:rgb(50,0,199);stroke-width:1.5"/>
<line x1="197.019335983756" y1="106.509667991878" x2="230.148173756879" y2="139.638505765001" style="stroke:rgb(50,0,199);stroke-width:1.5"/>
<line x1="184.89333976094" y1="151.764501987817" x2="197.019335983756" y2="197.019335983756" style="stroke:rgb(50,0,199);stroke-width:1.5"/>
<line x1="184.89333976094" y1="151.764501987817" x2="230.148173756879" y2="139.638505765001" style="stroke:rgb(50,0,199);stroke-width:1.5"/>
<line x1="242.274169979695" y1="94.3836717690617" x2="230.148173756879" y2="139.638505765001" style="stroke:rgb(50,0,199);stroke-width:1.5"/>
<line x1="242.274169979695" y1="94.3836717690617" x2="287.529003975634" y2="106.509667991878" style="stroke:rgb(50,0,199);stroke-width:1.5"/>
<line x1="230.148173756879" y1="139.638505765001" x2="242.274169979695" y2="184.89333976094" style="stroke:rgb(50,0,199);stroke-width:1.5"/>
<line x1="230.148173756879" y1="139.638505765001" x2="275.403007752818" y2="151.764501987817" style="stroke:rgb(50,0,199);stroke-width:1.5"/>
<line x1="242.274169979695" y1="184.89333976094" x2="275.403007752818" y2="151.764501987817" style="stroke:rgb(50,0,199);stroke-width:1.5"/>
<line x1="197.019335983756" y1="197.019335983756" x2="184.89333976094" y2="242.274169979695" style="stroke:rgb(50,0,199);stroke-width:1.5"/>
<line x1="197.019335983756" y1="197.019335983756" x2="242.274169979695" y2="184.89333976094" style="stroke:rgb(50,0,199);stroke-width:1.5"/>
<line x1="197.019335983756" y1="197.019335983756" x2="230.148173756879" y2="230.148173756879" style="stroke:rgb(50,0,199);stroke-width:1.5"/>
<line x1="184.89333976094" y1="242.274169979695" x2="197.019335983756" y2="287.529003975634" style="stroke:rgb(50,0,199);stroke-width:1.5"/>
<line x1="184.89333976094" y1="242.274169979695" x2="230.148173756879" y2="230.148173756879" style="stroke:rgb(50,0,199);stroke-width:1.5"/>
<line x1="242.274169979695" y1="184.89333976094" x2="230.148173756879" y2="230.148173756879" style="stroke:rgb(50,0,199);stroke-width:1.5"/>
<line x1="242.274169979695" y1="184.89333976094" x2="287.529003975634" y2="197.019335983756" style="stroke:rgb(50,0,199);stroke-width:1.5"/>
<line x1="230.148173756879" y1="230.148173756879" x2="242.274169979695" y2="275.403007752818" style="stroke:rgb(50,0,199);stroke-width:1.5"/>
<line x1="230.148173756879" y1="230.148173756879" x2="275.403007752818" y2="242.274169979695" style="stroke:rgb(50,0,199);stroke-width:1.5"/>
<line x1="242.274169979695" y1="275.403007752818" x2="275.403007752818" y2="242.274169979695" style="stroke:rgb(50,0,199);stroke-width:1.5"/>
<line x1="197.019335983756" y1="287.529003975634" x2="184.89333976094" y2="332.783837971573" style="stroke:rgb(50,0,199);stroke-width:1.5"/>
<line x1="197.019335983756" y1="287.529003975634" x2="242.274169979695" y2="275.403007752818" style="stroke:rgb(50,0,199);stroke-width:1.5"/>
<line x1="197.019335983756" y1="287.529003975634" x2="230.148173756879" y2="320.657841748757" style="stroke:rgb(50,0,199);stroke-width:1.5"/>
<line x1="184.89333976094" y1="332.783837971573" x2="197.019335983756" y2="378.038671967512" style="stroke:rgb(50,0,199);stroke-width:1.5"/>
<line x1="184.89333976094" y1="332.783837971573" x2="230.148173756879" y2="320.657841748757" style="stroke:rgb(50,0,199);stroke-width:1.5"/>
<line x1="242.274169979695" y1="275.403007752818" x2="230.148173756879" y2="320.657841748757" style="stroke:rgb(50,0,199);stroke-width:1.5"/>
<line x1="242.274169979695" y1="275.403007752818" x2="287.529003975634" y2="287.529003975634" style="stroke:rgb(50,0,199);stroke-width:1.5"/>
<line x1="230.148173756879" y1="320.657841748757" x2="242.274169979695" y2="365.912675744696" style="stroke:rgb(50,0,199);stroke-width:1.5"/>
<line x1="230.148173756879" y1="320.657841748757" x2="275.403007752818" y2="332.783837971573" style="stroke:rgb(50,0,199);stroke-width:1.5"/>
<line x1="242.274169979695" y1="365.912675744696" x2="275.403007752818" y2="332.783837971573" style="stroke:rgb(50,0,199);stroke-width:1.5"/>
<line x1="197.019335983756" y1="378.038671967512" x2="242.274169979695" y2="365.912675744696" style="stroke:rgb(50,0,199);stroke-width:1.5"/>
<line x1="242.274169979695" y1="365.912675744696" x2="287.529003975634" y2="378.038671967512" style="stroke:rgb(50,0,199);stroke-width:1.5"/>
<line x1="287.529003975634" y1="16" x2="275.403007752818" y2="61.2548339959391" style="stroke:rgb(50,0,199);stroke-width:1.5"/>
<line x1="287.529003975634" y1="16" x2="332.783837971573" y2="3.87400377718367" style="stroke:rgb(50,0,199);stroke-width:1.5"/>
<line x1="287.529003975634" y1="16" x2="320.657841748757" y2="49.1288377731227" style="stroke:rgb(50,0,199);stroke-width:1.5"/>
<line x1="275.403007752818" y1="61.2548339959391" x2="287.529003975634" y2="106.509667991878" style="stroke:rgb(50,0,199);stroke-width:1.5"/>
<line x1="275.403007752818" y1="61.2548339959391" x2="320.657841748757" y2="49.1288377731227" style="stroke:rgb(50,0,199);stroke-width:1.5"/>
<line x1="332.783837971573" y1="3.87400377718367" x2="320.657841748757" y2="49.1288377731227" style="stroke:rgb(50,0,199);stroke-width:1.5"/>
<line x1="332.783837971573" y1="3.87400377718367" x2="378.038671967512" y2="16.0000000000001" style="stroke:rgb(50,0,199);stroke-width:1.5"/>
<line x1="320.657841748757" y1="49.1288377731227" x2="332.783837971573" y2="94.3836717690617" style="stroke:rgb(50,0,199);stroke-width:1.5"/>
<line x1="320.657841748757" y1="49.1288377731227" x2="365.912675744696" y2="61.2548339959391" style="stroke:rgb(50,0,199);stroke-width:1.5"/>
<line x1="332.783837971573" y1="94.3836717690617" x2="365.912675744696" y2="61.2548339959391" style="stroke:rgb(50,0,199);stroke-width:1.5"/>
<line x1="287.529003975634" y1="106.509667991878" x2="275.403007752818" y2="151.764501987817" style="stroke:rgb(50,0,199);stroke-width:1.5"/>
<line x1="287.529003975634" y1="106.509667991878" x2="332.783837971573" y2="94.3836717690617" style="stroke:rgb(50,0,199);stroke-width:1.5"/>
<line x1="287.529003975634" y1="106.509667991878" x2="320.657841748757" y2="139.638505765001" style="stroke:rgb(50,0,199);stroke-width:1.5"/>
<line x1="275.403007752818" y1="151.764501987817" x2="287.529003975634" y2="197.019335983756" style="stroke:rgb(50,0,199);stroke-width:1.5"/>
<line x1="275.403007752818" y1="151.764501987817" x2="320.657841748757" y2="139.638505765001" style="stroke:rgb(50,0,199);stroke-width:1.5"/>
<line x1="332.783837971573" y1="94.3836717690617" x2="320.657841748757" y2="139.638505765001" style="stroke:rgb(50,0,199);stroke-width:1.5"/>
<line x1="332.783837971573" y1="94.3836717690617" x2="378.038671967512" y2="106.509667991878" style="stroke:rgb(50,0,199);stroke-width:1.5"/>
<line x1="320.657841748757" y1="139.638505765001" x2="332.783837971573" y2="184.89333976094" style="stroke:rgb(50,0,199);stroke-width:1.5"/>
<line x1="320.657841748757" y1="139.638505765001" x2="365.912675744696" y2="151.764501987817" style="stroke:rgb(50,0,199);stroke-width:1.5"/>
<line x1="332.783837971573" y1="184.89333976094" x2="365.912675744696" y2="151.764501987817" style="stroke:rgb(50,0,199);stroke-width:1.5"/>
<line x1="287.529003975634" y1="197.019335983756" x2="275.403007752818" y2="242.274169979695" style="stroke:rgb(50,0,199);stroke-width:1.5"/>
<line x1="287.529003975634" y1="197.019335983756" x2="332.783837971573" y2="184.89333976094" style="stroke:rgb(50,0,199);stroke-width:1.5"/>
<line x1="287.529003975634" y1="197.019335983756" x2="320.657841748757" y2="230.148173756879" style="stroke:rgb(50,0,199);stroke-width:1.5"/>
<line x1="275.403007752818" y1="242.274169979695" x2="287.529003975634" y2="287.529003975634" style="stroke:rgb(50,0,199);stroke-width:1.5"/>
<line x1="275.403007752818" y1="242.274169979695" x2="320.657841748757" y2="230.148173756879" style="stroke:rgb(50,0,199);stroke-width:1.5"/>
<line x1="332.783837971573" y1="184.89333976094" x2="320.657841748757" y2="230.148173756879" style="stroke:rgb(50,0,199);stroke-width:1.5"/>
<line x1="332.783837971573" y1="184.89333976094" x2="378.038671967512" y2="197.019335983756" style="stroke:rgb(50,0,199);stroke-width:1.5"/>
<line x1="320.657841748757" y1="230.148173756879" x2="332.783837971573" y2="275.403007752818" style="stroke:rgb(50,0,199);stroke-width:1.5"/>
<line x1="320.657841748757" y1="230.148173756879" x2="365.912675744696" y2="242.274169979695" style="stroke:rgb(50,0,199);stroke-width:1.5"/>
<line x1="332.783837971573" y1="275.403007752818" x2="365.912675744696" y2="242.274169979695" style="stroke:rgb(50,0,199);stroke-width:1.5"/>
<line x1="287.529003975634" y1="287.529003975634" x2="275.403007752818" y2="332.783837971573" style="stroke:rgb(50,0,199);stroke-width:1.5"/>
<line x1="287.529003975634" y1="287.529003975634" x2="332.783837971573" y2="275.403007752818" style="stroke:rgb(50,0,199);stroke-width:1.5"/>
<line x1="287.529003975634" y1="287.529003975634" x2="320.657841748757" y2="320.657841748757" style="stroke:rgb(50,0,199);stroke-width:1.5"/>
<line x1="275.403007752818" y1="332.783837971573" x2="287.529003975634" y2="378.038671967512" style="stroke:rgb(50,0,199);stroke-width:1.5"/>
<line x1="275.403007752818" y1="332.783837971573" x2="320.657841748757" y2="320.657841748757" style="stroke:rgb(50,0,199);stroke-width:1.5"/>
<line x1="332.783837971573" y1="275.403007752818" x2="320.657841748757" y2="320.657841748757" style="stroke:rgb(50,0,199);stroke-width:1.5"/>
<line x1="332.783837971573" y1="275.403007752818" x2="378.038671967512" y2="287.529003975634" style="stroke:rgb(50,0,199);stroke-width:1.5"/>
<line x1="320.657841748757" y1="320.657841748757" x2="332.783837971573" y2="365.912675744696" style="stroke:rgb(50,0,199);stroke-width:1.5"/>
<line x1="320.657841748757" y1="320.657841748757" x2="365.912675744696" y2="332.783837971573" style="stroke:rgb(50,0,199);stroke-width:1.5"/>
<line x1="332.783837971573" y1="365.912675744696" x2="365.912675744696" y2="332.783837971573" style="stroke:rgb(50,0,199);stroke-width:1.5"/>
<line x1="287.529003975634" y1="378.038671967512" x2="332.783837971573" y2="365.912675744696" style="stroke:rgb(50,0,199);stroke-width:1.5"/>
<line x1="332.783837971573" y1="365.912675744696" x2="378.038671967512" y2="378.038671967512" style="stroke:rgb(50,0,199);stroke-width:1.5"/>
<line x1="378.038671967512" y1="16.0000000000001" x2="365.912675744696" y2="61.2548339959391" style="stroke:rgb(50,0,199);stroke-width:1.5"/>
<line x1="365.912675744696" y1="61.2548339959391" x2="378.038671967512" y2="106.509667991878" style="stroke:rgb(50,0,199);stroke-width:1.5"/>
<line x1="378.038671967512" y1="106.509667991878" x2="365.912675744696" y2="151.764501987817" style="stroke:rgb(50,0,199);stroke-width:1.5"/>
<line x1="365.912675744696" y1="151.764501987817" x2="378.038671967512" y2="197.019335983756" style="stroke:rgb(50,0,199);stroke-width:1.5"/>
<line x1="378.038671967512" y1="197.019335983756" x2="365.912675744696" y2="242.274169979695" style="stroke:rgb(50,0,199);stroke-width:1.5"/>
<line x1="365.912675744696" y1="242.274169979695" x2="378.038671967512" y2="287.529003975634" style="stroke:rgb(50,0,199);stroke-width:1.5"/>
<line x1="378.038671967512" y1="287.529003975634" x2="365.912675744696" y2="332.783837971573" style="stroke:rgb(50,0,199);stroke-width:1.5"/>
<line x1="365.912675744696" y1="332.783837971573" x2="378.038671967512" y2="378.038671967512" style="stroke:rgb(50,0,199);stroke-width:1.5"/>
</svg>
