<?xml version="1.0" standalone="no"?> <!DOCTYPE svg PUBLIC "-//W3C//DTD SVG 1.1//EN" "http://www.w3.org/Graphics/SVG/1.1/DTD/svg11.dtd">
<svg width="1600" height="1600" version="1.1" xmlns="http://www.w3.org/2000/svg">
<line x1="45" y1="35" x2="1.99999999999999" y2="138.811183182043" style="stroke:rgb(99,99,99);stroke-width:1"/> 
<line x1="45" y1="35" x2="148.811183182043" y2="78" style="stroke:rgb(99,99,99);stroke-width:1"/> 
<line x1="1.99999999999999" y1="138.811183182043" x2="88" y2="52.8111831820431" style="stroke:rgb(99,99,99);stroke-width:1"/> 
<line x1="148.811183182043" y1="78" x2="62.8111831820431" y2="-7.99999999999999" style="stroke:rgb(99,99,99);stroke-width:1"/> 
<line x1="88" y1="52.8111831820431" x2="45" y2="156.622366364086" style="stroke:rgb(99,99,99);stroke-width:1"/> 
<line x1="1.99999999999999" y1="138.811183182043" x2="105.811183182043" y2="95.8111831820431" style="stroke:rgb(99,99,99);stroke-width:1"/> 
<line x1="62.8111831820431" y1="-7.99999999999999" x2="105.811183182043" y2="95.8111831820431" style="stroke:rgb(99,99,99);stroke-width:1"/> 
<line x1="62.8111831820431" y1="-7.99999999999999" x2="166.622366364086" y2="35" style="stroke:rgb(99,99,99);stroke-width:1"/> 
<line x1="105.811183182043" y1="95.8111831820431" x2="148.811183182043" y2="199.622366364086" style="stroke:rgb(99,99,99);stroke-width:1"/> 
<line x1="105.811183182043" y1="95.8111831820431" x2="209.622366364086" y2="52.8111831820431" style="stroke:rgb(99,99,99);stroke-width:1"/> 
<line x1="166.622366364086" y1="35" x2="123.622366364086" y2="138.811183182043" style="stroke:rgb(99,99,99);stroke-width:1"/> 
<line x1="166.622366364086" y1="35" x2="270.433549546129" y2="78" style="stroke:rgb(99,99,99);stroke-width:1"/> 
<line x1="123.622366364086" y1="138.811183182043" x2="209.622366364086" y2="52.8111831820431" style="stroke:rgb(99,99,99);stroke-width:1"/> 
<line x1="270.433549546129" y1="78" x2="184.433549546129" y2="-7.99999999999997" style="stroke:rgb(99,99,99);stroke-width:1"/> 
<line x1="209.622366364086" y1="52.8111831820431" x2="166.622366364086" y2="156.622366364086" style="stroke:rgb(99,99,99);stroke-width:1"/> 
<line x1="123.622366364086" y1="138.811183182043" x2="227.433549546129" y2="95.8111831820431" style="stroke:rgb(99,99,99);stroke-width:1"/> 
<line x1="184.433549546129" y1="-7.99999999999997" x2="227.433549546129" y2="95.8111831820431" style="stroke:rgb(99,99,99);stroke-width:1"/> 
<line x1="184.433549546129" y1="-7.99999999999997" x2="288.244732728172" y2="35" style="stroke:rgb(99,99,99);stroke-width:1"/> 
<line x1="227.433549546129" y1="95.8111831820431" x2="270.433549546129" y2="199.622366364086" style="stroke:rgb(99,99,99);stroke-width:1"/> 
<line x1="227.433549546129" y1="95.8111831820431" x2="331.244732728172" y2="52.8111831820431" style="stroke:rgb(99,99,99);stroke-width:1"/> 
<line x1="288.244732728172" y1="35" x2="245.244732728172" y2="138.811183182043" style="stroke:rgb(99,99,99);stroke-width:1"/> 
<line x1="288.244732728172" y1="35" x2="392.055915910215" y2="78.0000000000001" style="stroke:rgb(99,99,99);stroke-width:1"/> 
<line x1="245.244732728172" y1="138.811183182043" x2="331.244732728172" y2="52.8111831820432" style="stroke:rgb(99,99,99);stroke-width:1"/> 
<line x1="392.055915910215" y1="78.0000000000001" x2="306.055915910215" y2="-7.99999999999993" style="stroke:rgb(99,99,99);stroke-width:1"/> 
<line x1="331.244732728172" y1="52.8111831820432" x2="288.244732728172" y2="156.622366364086" style="stroke:rgb(99,99,99);stroke-width:1"/> 
<line x1="245.244732728172" y1="138.811183182043" x2="349.055915910215" y2="95.8111831820431" style="stroke:rgb(99,99,99);stroke-width:1"/> 
<line x1="306.055915910215" y1="-7.99999999999993" x2="349.055915910215" y2="95.8111831820431" style="stroke:rgb(99,99,99);stroke-width:1"/> 
<line x1="306.055915910215" y1="-7.99999999999993" x2="409.867099092259" y2="35.0000000000001" style="stroke:rgb(99,99,99);stroke-width:1"/> 
<line x1="349.055915910215" y1="95.8111831820431" x2="392.055915910215" y2="199.622366364086" style="stroke:rgb(99,99,99);stroke-width:1"/> 
<line x1="349.055915910215" y1="95.8111831820431" x2="452.867099092259" y2="52.8111831820431" style="stroke:rgb(99,99,99);stroke-width:1"/> 
<line x1="409.867099092259" y1="35.0000000000001" x2="366.867099092259" y2="138.811183182043" style="stroke:rgb(99,99,99);stroke-width:1"/> 
<line x1="409.867099092259" y1="35.0000000000001" x2="513.678282274302" y2="78.0000000000001" style="stroke:rgb(99,99,99);stroke-width:1"/> 
<line x1="366.867099092259" y1="138.811183182043" x2="452.867099092259" y2="52.8111831820432" style="stroke:rgb(99,99,99);stroke-width:1"/> 
<line x1="513.678282274302" y1="78.0000000000001" x2="427.678282274302" y2="-7.99999999999991" style="stroke:rgb(99,99,99);stroke-width:1"/> 
<line x1="452.867099092259" y1="52.8111831820432" x2="409.867099092259" y2="156.622366364086" style="stroke:rgb(99,99,99);stroke-width:1"/> 
<line x1="366.867099092259" y1="138.811183182043" x2="470.678282274302" y2="95.8111831820432" style="stroke:rgb(99,99,99);stroke-width:1"/> 
<line x1="427.678282274302" y1="-7.99999999999991" x2="470.678282274302" y2="95.8111831820432" style="stroke:rgb(99,99,99);stroke-width:1"/> 
<line x1="427.678282274302" y1="-7.99999999999991" x2="531.489465456345" y2="35.0000000000001" style="stroke:rgb(99,99,99);stroke-width:1"/> 
<line x1="470.678282274302" y1="95.8111831820432" x2="513.678282274302" y2="199.622366364086" style="stroke:rgb(99,99,99);stroke-width:1"/> 
<line x1="470.678282274302" y1="95.8111831820432" x2="574.489465456345" y2="52.8111831820432" style="stroke:rgb(99,99,99);stroke-width:1"/> 
<line x1="531.489465456345" y1="35.0000000000001" x2="488.489465456345" y2="138.811183182043" style="stroke:rgb(99,99,99);stroke-width:1"/> 
<line x1="531.489465456345" y1="35.0000000000001" x2="635.300648638388" y2="78.0000000000001" style="stroke:rgb(99,99,99);stroke-width:1"/> 
<line x1="488.489465456345" y1="138.811183182043" x2="574.489465456345" y2="52.8111831820432" style="stroke:rgb(99,99,99);stroke-width:1"/> 
<line x1="635.300648638388" y1="78.0000000000001" x2="549.300648638388" y2="-7.99999999999991" style="stroke:rgb(99,99,99);stroke-width:1"/> 
<line x1="574.489465456345" y1="52.8111831820432" x2="531.489465456345" y2="156.622366364086" style="stroke:rgb(99,99,99);stroke-width:1"/> 
<line x1="488.489465456345" y1="138.811183182043" x2="592.300648638388" y2="95.8111831820432" style="stroke:rgb(99,99,99);stroke-width:1"/> 
<line x1="549.300648638388" y1="-7.99999999999991" x2="592.300648638388" y2="95.8111831820432" style="stroke:rgb(99,99,99);stroke-width:1"/> 
<line x1="549.300648638388" y1="-7.99999999999991" x2="653.111831820431" y2="35.0000000000001" style="stroke:rgb(99,99,99);stroke-width:1"/> 
<line x1="592.300648638388" y1="95.8111831820432" x2="635.300648638388" y2="199.622366364086" style="stroke:rgb(99,99,99);stroke-width:1"/> 
<line x1="592.300648638388" y1="95.8111831820432" x2="696.111831820431" y2="52.8111831820432" style="stroke:rgb(99,99,99);stroke-width:1"/> 
<line x1="653.111831820431" y1="35.0000000000001" x2="610.111831820431" y2="138.811183182043" style="stroke:rgb(99,99,99);stroke-width:1"/> 
<line x1="653.111831820431" y1="35.0000000000001" x2="756.923015002474" y2="78.0000000000001" style="stroke:rgb(99,99,99);stroke-width:1"/> 
<line x1="610.111831820431" y1="138.811183182043" x2="696.111831820431" y2="52.8111831820432" style="stroke:rgb(99,99,99);stroke-width:1"/> 
<line x1="756.923015002474" y1="78.0000000000001" x2="670.923015002474" y2="-7.99999999999989" style="stroke:rgb(99,99,99);stroke-width:1"/> 
<line x1="696.111831820431" y1="52.8111831820432" x2="653.111831820431" y2="156.622366364086" style="stroke:rgb(99,99,99);stroke-width:1"/> 
<line x1="610.111831820431" y1="138.811183182043" x2="713.923015002474" y2="95.8111831820432" style="stroke:rgb(99,99,99);stroke-width:1"/> 
<line x1="670.923015002474" y1="-7.99999999999989" x2="713.923015002474" y2="95.8111831820432" style="stroke:rgb(99,99,99);stroke-width:1"/> 
<line x1="670.923015002474" y1="-7.99999999999989" x2="774.734198184517" y2="35.0000000000001" style="stroke:rgb(99,99,99);stroke-width:1"/> 
<line x1="713.923015002474" y1="95.8111831820432" x2="756.923015002474" y2="199.622366364086" style="stroke:rgb(99,99,99);stroke-width:1"/> 
<line x1="713.923015002474" y1="95.8111831820432" x2="817.734198184517" y2="52.8111831820431" style="stroke:rgb(99,99,99);stroke-width:1"/> 
<line x1="774.734198184517" y1="35.0000000000001" x2="731.734198184517" y2="138.811183182043" style="stroke:rgb(99,99,99);stroke-width:1"/> 
<line x1="774.734198184517" y1="35.0000000000001" x2="878.54538136656" y2="78.0000000000002" style="stroke:rgb(99,99,99);stroke-width:1"/> 
<line x1="731.734198184517" y1="138.811183182043" x2="817.734198184517" y2="52.8111831820432" style="stroke:rgb(99,99,99);stroke-width:1"/> 
<line x1="878.54538136656" y1="78.0000000000002" x2="792.54538136656" y2="-7.99999999999983" style="stroke:rgb(99,99,99);stroke-width:1"/> 
<line x1="817.734198184517" y1="52.8111831820432" x2="774.734198184517" y2="156.622366364086" style="stroke:rgb(99,99,99);stroke-width:1"/> 
<line x1="731.734198184517" y1="138.811183182043" x2="835.54538136656" y2="95.8111831820432" style="stroke:rgb(99,99,99);stroke-width:1"/> 
<line x1="792.54538136656" y1="-7.99999999999983" x2="835.54538136656" y2="95.8111831820432" style="stroke:rgb(99,99,99);stroke-width:1"/> 
<line x1="792.54538136656" y1="-7.99999999999983" x2="896.356564548603" y2="35.0000000000001" style="stroke:rgb(99,99,99);stroke-width:1"/> 
<line x1="835.54538136656" y1="95.8111831820432" x2="878.54538136656" y2="199.622366364086" style="stroke:rgb(99,99,99);stroke-width:1"/> 
<line x1="835.54538136656" y1="95.8111831820432" x2="939.356564548603" y2="52.8111831820432" style="stroke:rgb(99,99,99);stroke-width:1"/> 
<line x1="896.356564548603" y1="35.0000000000001" x2="853.356564548603" y2="138.811183182043" style="stroke:rgb(99,99,99);stroke-width:1"/> 
<line x1="853.356564548603" y1="138.811183182043" x2="939.356564548603" y2="52.8111831820432" style="stroke:rgb(99,99,99);stroke-width:1"/> 
<line x1="939.356564548603" y1="52.8111831820432" x2="896.356564548603" y2="156.622366364086" style="stroke:rgb(99,99,99);stroke-width:1"/> 
<line x1="45" y1="156.622366364086" x2="1.99999999999997" y2="260.433549546129" style="stroke:rgb(99,99,99);stroke-width:1"/> 
<line x1="45" y1="156.622366364086" x2="148.811183182043" y2="199.622366364086" style="stroke:rgb(99,99,99);stroke-width:1"/> 
<line x1="1.99999999999997" y1="260.433549546129" x2="88" y2="174.433549546129" style="stroke:rgb(99,99,99);stroke-width:1"/> 
<line x1="148.811183182043" y1="199.622366364086" x2="62.8111831820431" y2="113.622366364086" style="stroke:rgb(99,99,99);stroke-width:1"/> 
<line x1="88" y1="174.433549546129" x2="45" y2="278.244732728172" style="stroke:rgb(99,99,99);stroke-width:1"/> 
<line x1="1.99999999999997" y1="260.433549546129" x2="105.811183182043" y2="217.433549546129" style="stroke:rgb(99,99,99);stroke-width:1"/> 
<line x1="62.8111831820431" y1="113.622366364086" x2="105.811183182043" y2="217.433549546129" style="stroke:rgb(99,99,99);stroke-width:1"/> 
<line x1="62.8111831820431" y1="113.622366364086" x2="166.622366364086" y2="156.622366364086" style="stroke:rgb(99,99,99);stroke-width:1"/> 
<line x1="105.811183182043" y1="217.433549546129" x2="148.811183182043" y2="321.244732728172" style="stroke:rgb(99,99,99);stroke-width:1"/> 
<line x1="105.811183182043" y1="217.433549546129" x2="209.622366364086" y2="174.433549546129" style="stroke:rgb(99,99,99);stroke-width:1"/> 
<line x1="166.622366364086" y1="156.622366364086" x2="123.622366364086" y2="260.433549546129" style="stroke:rgb(99,99,99);stroke-width:1"/> 
<line x1="166.622366364086" y1="156.622366364086" x2="270.433549546129" y2="199.622366364086" style="stroke:rgb(99,99,99);stroke-width:1"/> 
<line x1="123.622366364086" y1="260.433549546129" x2="209.622366364086" y2="174.433549546129" style="stroke:rgb(99,99,99);stroke-width:1"/> 
<line x1="270.433549546129" y1="199.622366364086" x2="184.433549546129" y2="113.622366364086" style="stroke:rgb(99,99,99);stroke-width:1"/> 
<line x1="209.622366364086" y1="174.433549546129" x2="166.622366364086" y2="278.244732728172" style="stroke:rgb(99,99,99);stroke-width:1"/> 
<line x1="123.622366364086" y1="260.433549546129" x2="227.433549546129" y2="217.433549546129" style="stroke:rgb(99,99,99);stroke-width:1"/> 
<line x1="184.433549546129" y1="113.622366364086" x2="227.433549546129" y2="217.433549546129" style="stroke:rgb(99,99,99);stroke-width:1"/> 
<line x1="184.433549546129" y1="113.622366364086" x2="288.244732728172" y2="156.622366364086" style="stroke:rgb(99,99,99);stroke-width:1"/> 
<line x1="227.433549546129" y1="217.433549546129" x2="270.433549546129" y2="321.244732728172" style="stroke:rgb(99,99,99);stroke-width:1"/> 
<line x1="227.433549546129" y1="217.433549546129" x2="331.244732728172" y2="174.433549546129" style="stroke:rgb(99,99,99);stroke-width:1"/> 
<line x1="288.244732728172" y1="156.622366364086" x2="245.244732728172" y2="260.433549546129" style="stroke:rgb(99,99,99);stroke-width:1"/> 
<line x1="288.244732728172" y1="156.622366364086" x2="392.055915910215" y2="199.622366364086" style="stroke:rgb(99,99,99);stroke-width:1"/> 
<line x1="245.244732728172" y1="260.433549546129" x2="331.244732728172" y2="174.433549546129" style="stroke:rgb(99,99,99);stroke-width:1"/> 
<line x1="392.055915910215" y1="199.622366364086" x2="306.055915910215" y2="113.622366364086" style="stroke:rgb(99,99,99);stroke-width:1"/> 
<line x1="331.244732728172" y1="174.433549546129" x2="288.244732728172" y2="278.244732728172" style="stroke:rgb(99,99,99);stroke-width:1"/> 
<line x1="245.244732728172" y1="260.433549546129" x2="349.055915910215" y2="217.433549546129" style="stroke:rgb(99,99,99);stroke-width:1"/> 
<line x1="306.055915910215" y1="113.622366364086" x2="349.055915910215" y2="217.433549546129" style="stroke:rgb(99,99,99);stroke-width:1"/> 
<line x1="306.055915910215" y1="113.622366364086" x2="409.867099092259" y2="156.622366364086" style="stroke:rgb(99,99,99);stroke-width:1"/> 
<line x1="349.055915910215" y1="217.433549546129" x2="392.055915910215" y2="321.244732728172" style="stroke:rgb(99,99,99);stroke-width:1"/> 
<line x1="349.055915910215" y1="217.433549546129" x2="452.867099092259" y2="174.433549546129" style="stroke:rgb(99,99,99);stroke-width:1"/> 
<line x1="409.867099092259" y1="156.622366364086" x2="366.867099092259" y2="260.433549546129" style="stroke:rgb(99,99,99);stroke-width:1"/> 
<line x1="409.867099092259" y1="156.622366364086" x2="513.678282274302" y2="199.622366364086" style="stroke:rgb(99,99,99);stroke-width:1"/> 
<line x1="366.867099092259" y1="260.433549546129" x2="452.867099092259" y2="174.433549546129" style="stroke:rgb(99,99,99);stroke-width:1"/> 
<line x1="513.678282274302" y1="199.622366364086" x2="427.678282274302" y2="113.622366364086" style="stroke:rgb(99,99,99);stroke-width:1"/> 
<line x1="452.867099092259" y1="174.433549546129" x2="409.867099092259" y2="278.244732728172" style="stroke:rgb(99,99,99);stroke-width:1"/> 
<line x1="366.867099092259" y1="260.433549546129" x2="470.678282274302" y2="217.433549546129" style="stroke:rgb(99,99,99);stroke-width:1"/> 
<line x1="427.678282274302" y1="113.622366364086" x2="470.678282274302" y2="217.433549546129" style="stroke:rgb(99,99,99);stroke-width:1"/> 
<line x1="427.678282274302" y1="113.622366364086" x2="531.489465456345" y2="156.622366364086" style="stroke:rgb(99,99,99);stroke-width:1"/> 
<line x1="470.678282274302" y1="217.433549546129" x2="513.678282274302" y2="321.244732728172" style="stroke:rgb(99,99,99);stroke-width:1"/> 
<line x1="470.678282274302" y1="217.433549546129" x2="574.489465456345" y2="174.433549546129" style="stroke:rgb(99,99,99);stroke-width:1"/> 
<line x1="531.489465456345" y1="156.622366364086" x2="488.489465456345" y2="260.433549546129" style="stroke:rgb(99,99,99);stroke-width:1"/> 
<line x1="531.489465456345" y1="156.622366364086" x2="635.300648638388" y2="199.622366364086" style="stroke:rgb(99,99,99);stroke-width:1"/> 
<line x1="488.489465456345" y1="260.433549546129" x2="574.489465456345" y2="174.433549546129" style="stroke:rgb(99,99,99);stroke-width:1"/> 
<line x1="635.300648638388" y1="199.622366364086" x2="549.300648638388" y2="113.622366364086" style="stroke:rgb(99,99,99);stroke-width:1"/> 
<line x1="574.489465456345" y1="174.433549546129" x2="531.489465456345" y2="278.244732728172" style="stroke:rgb(99,99,99);stroke-width:1"/> 
<line x1="488.489465456345" y1="260.433549546129" x2="592.300648638388" y2="217.433549546129" style="stroke:rgb(99,99,99);stroke-width:1"/> 
<line x1="549.300648638388" y1="113.622366364086" x2="592.300648638388" y2="217.433549546129" style="stroke:rgb(99,99,99);stroke-width:1"/> 
<line x1="549.300648638388" y1="113.622366364086" x2="653.111831820431" y2="156.622366364086" style="stroke:rgb(99,99,99);stroke-width:1"/> 
<line x1="592.300648638388" y1="217.433549546129" x2="635.300648638388" y2="321.244732728172" style="stroke:rgb(99,99,99);stroke-width:1"/> 
<line x1="592.300648638388" y1="217.433549546129" x2="696.111831820431" y2="174.433549546129" style="stroke:rgb(99,99,99);stroke-width:1"/> 
<line x1="653.111831820431" y1="156.622366364086" x2="610.111831820431" y2="260.433549546129" style="stroke:rgb(99,99,99);stroke-width:1"/> 
<line x1="653.111831820431" y1="156.622366364086" x2="756.923015002474" y2="199.622366364086" style="stroke:rgb(99,99,99);stroke-width:1"/> 
<line x1="610.111831820431" y1="260.433549546129" x2="696.111831820431" y2="174.433549546129" style="stroke:rgb(99,99,99);stroke-width:1"/> 
<line x1="756.923015002474" y1="199.622366364086" x2="670.923015002474" y2="113.622366364086" style="stroke:rgb(99,99,99);stroke-width:1"/> 
<line x1="696.111831820431" y1="174.433549546129" x2="653.111831820431" y2="278.244732728172" style="stroke:rgb(99,99,99);stroke-width:1"/> 
<line x1="610.111831820431" y1="260.433549546129" x2="713.923015002474" y2="217.433549546129" style="stroke:rgb(99,99,99);stroke-width:1"/> 
<line x1="670.923015002474" y1="113.622366364086" x2="713.923015002474" y2="217.433549546129" style="stroke:rgb(99,99,99);stroke-width:1"/> 
<line x1="670.923015002474" y1="113.622366364086" x2="774.734198184517" y2="156.622366364086" style="stroke:rgb(99,99,99);stroke-width:1"/> 
<line x1="713.923015002474" y1="217.433549546129" x2="756.923015002474" y2="321.244732728172" style="stroke:rgb(99,99,99);stroke-width:1"/> 
<line x1="713.923015002474" y1="217.433549546129" x2="817.734198184517" y2="174.433549546129" style="stroke:rgb(99,99,99);stroke-width:1"/> 
<line x1="774.734198184517" y1="156.622366364086" x2="731.734198184517" y2="260.433549546129" style="stroke:rgb(99,99,99);stroke-width:1"/> 
<line x1="774.734198184517" y1="156.622366364086" x2="878.54538136656" y2="199.622366364086" style="stroke:rgb(99,99,99);stroke-width:1"/> 
<line x1="731.734198184517" y1="260.433549546129" x2="817.734198184517" y2="174.433549546129" style="stroke:rgb(99,99,99);stroke-width:1"/> 
<line x1="878.54538136656" y1="199.622366364086" x2="792.54538136656" y2="113.622366364086" style="stroke:rgb(99,99,99);stroke-width:1"/> 
<line x1="817.734198184517" y1="174.433549546129" x2="774.734198184517" y2="278.244732728172" style="stroke:rgb(99,99,99);stroke-width:1"/> 
<line x1="731.734198184517" y1="260.433549546129" x2="835.54538136656" y2="217.433549546129" style="stroke:rgb(99,99,99);stroke-width:1"/> 
<line x1="792.54538136656" y1="113.622366364086" x2="835.54538136656" y2="217.433549546129" style="stroke:rgb(99,99,99);stroke-width:1"/> 
<line x1="792.54538136656" y1="113.622366364086" x2="896.356564548603" y2="156.622366364086" style="stroke:rgb(99,99,99);stroke-width:1"/> 
<line x1="835.54538136656" y1="217.433549546129" x2="878.54538136656" y2="321.244732728172" style="stroke:rgb(99,99,99);stroke-width:1"/> 
<line x1="835.54538136656" y1="217.433549546129" x2="939.356564548603" y2="174.433549546129" style="stroke:rgb(99,99,99);stroke-width:1"/> 
<line x1="896.356564548603" y1="156.622366364086" x2="853.356564548603" y2="260.433549546129" style="stroke:rgb(99,99,99);stroke-width:1"/> 
<line x1="853.356564548603" y1="260.433549546129" x2="939.356564548603" y2="174.433549546129" style="stroke:rgb(99,99,99);stroke-width:1"/> 
<line x1="939.356564548603" y1="174.433549546129" x2="896.356564548603" y2="278.244732728172" style="stroke:rgb(99,99,99);stroke-width:1"/> 
<line x1="45" y1="278.244732728172" x2="1.99999999999994" y2="382.055915910215" style="stroke:rgb(99,99,99);stroke-width:1"/> 
<line x1="45" y1="278.244732728172" x2="148.811183182043" y2="321.244732728172" style="stroke:rgb(99,99,99);stroke-width:1"/> 
<line x1="1.99999999999994" y1="382.055915910215" x2="87.9999999999999" y2="296.055915910215" style="stroke:rgb(99,99,99);stroke-width:1"/> 
<line x1="148.811183182043" y1="321.244732728172" x2="62.8111831820431" y2="235.244732728172" style="stroke:rgb(99,99,99);stroke-width:1"/> 
<line x1="87.9999999999999" y1="296.055915910215" x2="44.9999999999999" y2="399.867099092259" style="stroke:rgb(99,99,99);stroke-width:1"/> 
<line x1="1.99999999999994" y1="382.055915910215" x2="105.811183182043" y2="339.055915910216" style="stroke:rgb(99,99,99);stroke-width:1"/> 
<line x1="62.8111831820431" y1="235.244732728172" x2="105.811183182043" y2="339.055915910216" style="stroke:rgb(99,99,99);stroke-width:1"/> 
<line x1="62.8111831820431" y1="235.244732728172" x2="166.622366364086" y2="278.244732728172" style="stroke:rgb(99,99,99);stroke-width:1"/> 
<line x1="105.811183182043" y1="339.055915910216" x2="148.811183182043" y2="442.867099092259" style="stroke:rgb(99,99,99);stroke-width:1"/> 
<line x1="105.811183182043" y1="339.055915910216" x2="209.622366364086" y2="296.055915910215" style="stroke:rgb(99,99,99);stroke-width:1"/> 
<line x1="166.622366364086" y1="278.244732728172" x2="123.622366364086" y2="382.055915910216" style="stroke:rgb(99,99,99);stroke-width:1"/> 
<line x1="166.622366364086" y1="278.244732728172" x2="270.433549546129" y2="321.244732728172" style="stroke:rgb(99,99,99);stroke-width:1"/> 
<line x1="123.622366364086" y1="382.055915910216" x2="209.622366364086" y2="296.055915910216" style="stroke:rgb(99,99,99);stroke-width:1"/> 
<line x1="270.433549546129" y1="321.244732728172" x2="184.433549546129" y2="235.244732728172" style="stroke:rgb(99,99,99);stroke-width:1"/> 
<line x1="209.622366364086" y1="296.055915910216" x2="166.622366364086" y2="399.867099092259" style="stroke:rgb(99,99,99);stroke-width:1"/> 
<line x1="123.622366364086" y1="382.055915910216" x2="227.433549546129" y2="339.055915910215" style="stroke:rgb(99,99,99);stroke-width:1"/> 
<line x1="184.433549546129" y1="235.244732728172" x2="227.433549546129" y2="339.055915910215" style="stroke:rgb(99,99,99);stroke-width:1"/> 
<line x1="184.433549546129" y1="235.244732728172" x2="288.244732728172" y2="278.244732728172" style="stroke:rgb(99,99,99);stroke-width:1"/> 
<line x1="227.433549546129" y1="339.055915910215" x2="270.433549546129" y2="442.867099092259" style="stroke:rgb(99,99,99);stroke-width:1"/> 
<line x1="227.433549546129" y1="339.055915910215" x2="331.244732728172" y2="296.055915910215" style="stroke:rgb(99,99,99);stroke-width:1"/> 
<line x1="288.244732728172" y1="278.244732728172" x2="245.244732728172" y2="382.055915910215" style="stroke:rgb(99,99,99);stroke-width:1"/> 
<line x1="288.244732728172" y1="278.244732728172" x2="392.055915910215" y2="321.244732728172" style="stroke:rgb(99,99,99);stroke-width:1"/> 
<line x1="245.244732728172" y1="382.055915910215" x2="331.244732728172" y2="296.055915910215" style="stroke:rgb(99,99,99);stroke-width:1"/> 
<line x1="392.055915910215" y1="321.244732728172" x2="306.055915910215" y2="235.244732728172" style="stroke:rgb(99,99,99);stroke-width:1"/> 
<line x1="331.244732728172" y1="296.055915910215" x2="288.244732728172" y2="399.867099092259" style="stroke:rgb(99,99,99);stroke-width:1"/> 
<line x1="245.244732728172" y1="382.055915910215" x2="349.055915910215" y2="339.055915910215" style="stroke:rgb(99,99,99);stroke-width:1"/> 
<line x1="306.055915910215" y1="235.244732728172" x2="349.055915910215" y2="339.055915910215" style="stroke:rgb(99,99,99);stroke-width:1"/> 
<line x1="306.055915910215" y1="235.244732728172" x2="409.867099092258" y2="278.244732728172" style="stroke:rgb(99,99,99);stroke-width:1"/> 
<line x1="349.055915910215" y1="339.055915910215" x2="392.055915910215" y2="442.867099092259" style="stroke:rgb(99,99,99);stroke-width:1"/> 
<line x1="349.055915910215" y1="339.055915910215" x2="452.867099092258" y2="296.055915910216" style="stroke:rgb(99,99,99);stroke-width:1"/> 
<line x1="409.867099092259" y1="278.244732728172" x2="366.867099092259" y2="382.055915910216" style="stroke:rgb(99,99,99);stroke-width:1"/> 
<line x1="409.867099092259" y1="278.244732728172" x2="513.678282274302" y2="321.244732728172" style="stroke:rgb(99,99,99);stroke-width:1"/> 
<line x1="366.867099092259" y1="382.055915910216" x2="452.867099092259" y2="296.055915910216" style="stroke:rgb(99,99,99);stroke-width:1"/> 
<line x1="513.678282274302" y1="321.244732728172" x2="427.678282274302" y2="235.244732728172" style="stroke:rgb(99,99,99);stroke-width:1"/> 
<line x1="452.867099092259" y1="296.055915910216" x2="409.867099092258" y2="399.867099092259" style="stroke:rgb(99,99,99);stroke-width:1"/> 
<line x1="366.867099092259" y1="382.055915910216" x2="470.678282274302" y2="339.055915910216" style="stroke:rgb(99,99,99);stroke-width:1"/> 
<line x1="427.678282274302" y1="235.244732728172" x2="470.678282274302" y2="339.055915910216" style="stroke:rgb(99,99,99);stroke-width:1"/> 
<line x1="427.678282274302" y1="235.244732728172" x2="531.489465456345" y2="278.244732728172" style="stroke:rgb(99,99,99);stroke-width:1"/> 
<line x1="470.678282274302" y1="339.055915910216" x2="513.678282274302" y2="442.867099092259" style="stroke:rgb(99,99,99);stroke-width:1"/> 
<line x1="470.678282274302" y1="339.055915910216" x2="574.489465456345" y2="296.055915910216" style="stroke:rgb(99,99,99);stroke-width:1"/> 
<line x1="531.489465456345" y1="278.244732728172" x2="488.489465456345" y2="382.055915910216" style="stroke:rgb(99,99,99);stroke-width:1"/> 
<line x1="531.489465456345" y1="278.244732728172" x2="635.300648638388" y2="321.244732728172" style="stroke:rgb(99,99,99);stroke-width:1"/> 
<line x1="488.489465456345" y1="382.055915910216" x2="574.489465456345" y2="296.055915910216" style="stroke:rgb(99,99,99);stroke-width:1"/> 
<line x1="635.300648638388" y1="321.244732728172" x2="549.300648638388" y2="235.244732728172" style="stroke:rgb(99,99,99);stroke-width:1"/> 
<line x1="574.489465456345" y1="296.055915910216" x2="531.489465456345" y2="399.867099092259" style="stroke:rgb(99,99,99);stroke-width:1"/> 
<line x1="488.489465456345" y1="382.055915910216" x2="592.300648638388" y2="339.055915910216" style="stroke:rgb(99,99,99);stroke-width:1"/> 
<line x1="549.300648638388" y1="235.244732728172" x2="592.300648638388" y2="339.055915910216" style="stroke:rgb(99,99,99);stroke-width:1"/> 
<line x1="549.300648638388" y1="235.244732728172" x2="653.111831820431" y2="278.244732728172" style="stroke:rgb(99,99,99);stroke-width:1"/> 
<line x1="592.300648638388" y1="339.055915910216" x2="635.300648638388" y2="442.867099092259" style="stroke:rgb(99,99,99);stroke-width:1"/> 
<line x1="592.300648638388" y1="339.055915910216" x2="696.111831820431" y2="296.055915910216" style="stroke:rgb(99,99,99);stroke-width:1"/> 
<line x1="653.111831820431" y1="278.244732728172" x2="610.111831820431" y2="382.055915910216" style="stroke:rgb(99,99,99);stroke-width:1"/> 
<line x1="653.111831820431" y1="278.244732728172" x2="756.923015002474" y2="321.244732728172" style="stroke:rgb(99,99,99);stroke-width:1"/> 
<line x1="610.111831820431" y1="382.055915910216" x2="696.111831820431" y2="296.055915910216" style="stroke:rgb(99,99,99);stroke-width:1"/> 
<line x1="756.923015002474" y1="321.244732728172" x2="670.923015002474" y2="235.244732728172" style="stroke:rgb(99,99,99);stroke-width:1"/> 
<line x1="696.111831820431" y1="296.055915910216" x2="653.111831820431" y2="399.867099092259" style="stroke:rgb(99,99,99);stroke-width:1"/> 
<line x1="610.111831820431" y1="382.055915910216" x2="713.923015002474" y2="339.055915910215" style="stroke:rgb(99,99,99);stroke-width:1"/> 
<line x1="670.923015002474" y1="235.244732728172" x2="713.923015002474" y2="339.055915910215" style="stroke:rgb(99,99,99);stroke-width:1"/> 
<line x1="670.923015002474" y1="235.244732728172" x2="774.734198184517" y2="278.244732728172" style="stroke:rgb(99,99,99);stroke-width:1"/> 
<line x1="713.923015002474" y1="339.055915910215" x2="756.923015002474" y2="442.867099092259" style="stroke:rgb(99,99,99);stroke-width:1"/> 
<line x1="713.923015002474" y1="339.055915910215" x2="817.734198184517" y2="296.055915910216" style="stroke:rgb(99,99,99);stroke-width:1"/> 
<line x1="774.734198184517" y1="278.244732728172" x2="731.734198184517" y2="382.055915910216" style="stroke:rgb(99,99,99);stroke-width:1"/> 
<line x1="774.734198184517" y1="278.244732728172" x2="878.54538136656" y2="321.244732728172" style="stroke:rgb(99,99,99);stroke-width:1"/> 
<line x1="731.734198184517" y1="382.055915910216" x2="817.734198184517" y2="296.055915910216" style="stroke:rgb(99,99,99);stroke-width:1"/> 
<line x1="878.54538136656" y1="321.244732728172" x2="792.54538136656" y2="235.244732728173" style="stroke:rgb(99,99,99);stroke-width:1"/> 
<line x1="817.734198184517" y1="296.055915910216" x2="774.734198184517" y2="399.867099092259" style="stroke:rgb(99,99,99);stroke-width:1"/> 
<line x1="731.734198184517" y1="382.055915910216" x2="835.54538136656" y2="339.055915910216" style="stroke:rgb(99,99,99);stroke-width:1"/> 
<line x1="792.54538136656" y1="235.244732728173" x2="835.54538136656" y2="339.055915910216" style="stroke:rgb(99,99,99);stroke-width:1"/> 
<line x1="792.54538136656" y1="235.244732728173" x2="896.356564548603" y2="278.244732728172" style="stroke:rgb(99,99,99);stroke-width:1"/> 
<line x1="835.54538136656" y1="339.055915910216" x2="878.54538136656" y2="442.867099092259" style="stroke:rgb(99,99,99);stroke-width:1"/> 
<line x1="835.54538136656" y1="339.055915910216" x2="939.356564548603" y2="296.055915910216" style="stroke:rgb(99,99,99);stroke-width:1"/> 
<line x1="896.356564548603" y1="278.244732728172" x2="853.356564548603" y2="382.055915910216" style="stroke:rgb(99,99,99);stroke-width:1"/> 
<line x1="853.356564548603" y1="382.055915910216" x2="939.356564548603" y2="296.055915910216" style="stroke:rgb(99,99,99);stroke-width:1"/> 
<line x1="939.356564548603" y1="296.055915910216" x2="896.356564548603" y2="399.867099092259" style="stroke:rgb(99,99,99);stroke-width:1"/> 
<line x1="44.9999999999999" y1="399.867099092259" x2="1.99999999999994" y2="503.678282274302" style="stroke:rgb(99,99,99);stroke-width:1"/> 
<line x1="44.9999999999999" y1="399.867099092259" x2="148.811183182043" y2="442.867099092259" style="stroke:rgb(99,99,99);stroke-width:1"/> 
<line x1="1.99999999999994" y1="503.678282274302" x2="87.9999999999999" y2="417.678282274302" style="stroke:rgb(99,99,99);stroke-width:1"/> 
<line x1="148.811183182043" y1="442.867099092259" x2="62.811183182043" y2="356.867099092259" style="stroke:rgb(99,99,99);stroke-width:1"/> 
<line x1="87.9999999999999" y1="417.678282274302" x2="44.9999999999999" y2="521.489465456345" style="stroke:rgb(99,99,99);stroke-width:1"/> 
<line x1="1.99999999999994" y1="503.678282274302" x2="105.811183182043" y2="460.678282274302" style="stroke:rgb(99,99,99);stroke-width:1"/> 
<line x1="62.811183182043" y1="356.867099092259" x2="105.811183182043" y2="460.678282274302" style="stroke:rgb(99,99,99);stroke-width:1"/> 
<line x1="62.811183182043" y1="356.867099092259" x2="166.622366364086" y2="399.867099092259" style="stroke:rgb(99,99,99);stroke-width:1"/> 
<line x1="105.811183182043" y1="460.678282274302" x2="148.811183182043" y2="564.489465456345" style="stroke:rgb(99,99,99);stroke-width:1"/> 
<line x1="105.811183182043" y1="460.678282274302" x2="209.622366364086" y2="417.678282274302" style="stroke:rgb(99,99,99);stroke-width:1"/> 
<line x1="166.622366364086" y1="399.867099092259" x2="123.622366364086" y2="503.678282274302" style="stroke:rgb(99,99,99);stroke-width:1"/> 
<line x1="166.622366364086" y1="399.867099092259" x2="270.433549546129" y2="442.867099092259" style="stroke:rgb(99,99,99);stroke-width:1"/> 
<line x1="123.622366364086" y1="503.678282274302" x2="209.622366364086" y2="417.678282274302" style="stroke:rgb(99,99,99);stroke-width:1"/> 
<line x1="270.433549546129" y1="442.867099092259" x2="184.433549546129" y2="356.867099092259" style="stroke:rgb(99,99,99);stroke-width:1"/> 
<line x1="209.622366364086" y1="417.678282274302" x2="166.622366364086" y2="521.489465456345" style="stroke:rgb(99,99,99);stroke-width:1"/> 
<line x1="123.622366364086" y1="503.678282274302" x2="227.433549546129" y2="460.678282274302" style="stroke:rgb(99,99,99);stroke-width:1"/> 
<line x1="184.433549546129" y1="356.867099092259" x2="227.433549546129" y2="460.678282274302" style="stroke:rgb(99,99,99);stroke-width:1"/> 
<line x1="184.433549546129" y1="356.867099092259" x2="288.244732728172" y2="399.867099092259" style="stroke:rgb(99,99,99);stroke-width:1"/> 
<line x1="227.433549546129" y1="460.678282274302" x2="270.433549546129" y2="564.489465456345" style="stroke:rgb(99,99,99);stroke-width:1"/> 
<line x1="227.433549546129" y1="460.678282274302" x2="331.244732728172" y2="417.678282274302" style="stroke:rgb(99,99,99);stroke-width:1"/> 
<line x1="288.244732728172" y1="399.867099092259" x2="245.244732728172" y2="503.678282274302" style="stroke:rgb(99,99,99);stroke-width:1"/> 
<line x1="288.244732728172" y1="399.867099092259" x2="392.055915910215" y2="442.867099092259" style="stroke:rgb(99,99,99);stroke-width:1"/> 
<line x1="245.244732728172" y1="503.678282274302" x2="331.244732728172" y2="417.678282274302" style="stroke:rgb(99,99,99);stroke-width:1"/> 
<line x1="392.055915910215" y1="442.867099092259" x2="306.055915910215" y2="356.867099092259" style="stroke:rgb(99,99,99);stroke-width:1"/> 
<line x1="331.244732728172" y1="417.678282274302" x2="288.244732728172" y2="521.489465456345" style="stroke:rgb(99,99,99);stroke-width:1"/> 
<line x1="245.244732728172" y1="503.678282274302" x2="349.055915910215" y2="460.678282274302" style="stroke:rgb(99,99,99);stroke-width:1"/> 
<line x1="306.055915910215" y1="356.867099092259" x2="349.055915910215" y2="460.678282274302" style="stroke:rgb(99,99,99);stroke-width:1"/> 
<line x1="306.055915910215" y1="356.867099092259" x2="409.867099092258" y2="399.867099092259" style="stroke:rgb(99,99,99);stroke-width:1"/> 
<line x1="349.055915910215" y1="460.678282274302" x2="392.055915910215" y2="564.489465456345" style="stroke:rgb(99,99,99);stroke-width:1"/> 
<line x1="349.055915910215" y1="460.678282274302" x2="452.867099092258" y2="417.678282274302" style="stroke:rgb(99,99,99);stroke-width:1"/> 
<line x1="409.867099092258" y1="399.867099092259" x2="366.867099092258" y2="503.678282274302" style="stroke:rgb(99,99,99);stroke-width:1"/> 
<line x1="409.867099092258" y1="399.867099092259" x2="513.678282274302" y2="442.867099092259" style="stroke:rgb(99,99,99);stroke-width:1"/> 
<line x1="366.867099092258" y1="503.678282274302" x2="452.867099092258" y2="417.678282274302" style="stroke:rgb(99,99,99);stroke-width:1"/> 
<line x1="513.678282274302" y1="442.867099092259" x2="427.678282274302" y2="356.867099092259" style="stroke:rgb(99,99,99);stroke-width:1"/> 
<line x1="452.867099092258" y1="417.678282274302" x2="409.867099092258" y2="521.489465456345" style="stroke:rgb(99,99,99);stroke-width:1"/> 
<line x1="366.867099092258" y1="503.678282274302" x2="470.678282274302" y2="460.678282274302" style="stroke:rgb(99,99,99);stroke-width:1"/> 
<line x1="427.678282274302" y1="356.867099092259" x2="470.678282274302" y2="460.678282274302" style="stroke:rgb(99,99,99);stroke-width:1"/> 
<line x1="427.678282274302" y1="356.867099092259" x2="531.489465456345" y2="399.867099092259" style="stroke:rgb(99,99,99);stroke-width:1"/> 
<line x1="470.678282274302" y1="460.678282274302" x2="513.678282274302" y2="564.489465456345" style="stroke:rgb(99,99,99);stroke-width:1"/> 
<line x1="470.678282274302" y1="460.678282274302" x2="574.489465456345" y2="417.678282274302" style="stroke:rgb(99,99,99);stroke-width:1"/> 
<line x1="531.489465456345" y1="399.867099092259" x2="488.489465456345" y2="503.678282274302" style="stroke:rgb(99,99,99);stroke-width:1"/> 
<line x1="531.489465456345" y1="399.867099092259" x2="635.300648638388" y2="442.867099092259" style="stroke:rgb(99,99,99);stroke-width:1"/> 
<line x1="488.489465456345" y1="503.678282274302" x2="574.489465456345" y2="417.678282274302" style="stroke:rgb(99,99,99);stroke-width:1"/> 
<line x1="635.300648638388" y1="442.867099092259" x2="549.300648638388" y2="356.867099092259" style="stroke:rgb(99,99,99);stroke-width:1"/> 
<line x1="574.489465456345" y1="417.678282274302" x2="531.489465456345" y2="521.489465456345" style="stroke:rgb(99,99,99);stroke-width:1"/> 
<line x1="488.489465456345" y1="503.678282274302" x2="592.300648638388" y2="460.678282274302" style="stroke:rgb(99,99,99);stroke-width:1"/> 
<line x1="549.300648638388" y1="356.867099092259" x2="592.300648638388" y2="460.678282274302" style="stroke:rgb(99,99,99);stroke-width:1"/> 
<line x1="549.300648638388" y1="356.867099092259" x2="653.111831820431" y2="399.867099092259" style="stroke:rgb(99,99,99);stroke-width:1"/> 
<line x1="592.300648638388" y1="460.678282274302" x2="635.300648638388" y2="564.489465456345" style="stroke:rgb(99,99,99);stroke-width:1"/> 
<line x1="592.300648638388" y1="460.678282274302" x2="696.111831820431" y2="417.678282274302" style="stroke:rgb(99,99,99);stroke-width:1"/> 
<line x1="653.111831820431" y1="399.867099092259" x2="610.111831820431" y2="503.678282274302" style="stroke:rgb(99,99,99);stroke-width:1"/> 
<line x1="653.111831820431" y1="399.867099092259" x2="756.923015002474" y2="442.867099092259" style="stroke:rgb(99,99,99);stroke-width:1"/> 
<line x1="610.111831820431" y1="503.678282274302" x2="696.111831820431" y2="417.678282274302" style="stroke:rgb(99,99,99);stroke-width:1"/> 
<line x1="756.923015002474" y1="442.867099092259" x2="670.923015002474" y2="356.867099092259" style="stroke:rgb(99,99,99);stroke-width:1"/> 
<line x1="696.111831820431" y1="417.678282274302" x2="653.111831820431" y2="521.489465456345" style="stroke:rgb(99,99,99);stroke-width:1"/> 
<line x1="610.111831820431" y1="503.678282274302" x2="713.923015002474" y2="460.678282274302" style="stroke:rgb(99,99,99);stroke-width:1"/> 
<line x1="670.923015002474" y1="356.867099092259" x2="713.923015002474" y2="460.678282274302" style="stroke:rgb(99,99,99);stroke-width:1"/> 
<line x1="670.923015002474" y1="356.867099092259" x2="774.734198184517" y2="399.867099092259" style="stroke:rgb(99,99,99);stroke-width:1"/> 
<line x1="713.923015002474" y1="460.678282274302" x2="756.923015002474" y2="564.489465456345" style="stroke:rgb(99,99,99);stroke-width:1"/> 
<line x1="713.923015002474" y1="460.678282274302" x2="817.734198184517" y2="417.678282274302" style="stroke:rgb(99,99,99);stroke-width:1"/> 
<line x1="774.734198184517" y1="399.867099092259" x2="731.734198184517" y2="503.678282274302" style="stroke:rgb(99,99,99);stroke-width:1"/> 
<line x1="774.734198184517" y1="399.867099092259" x2="878.54538136656" y2="442.867099092259" style="stroke:rgb(99,99,99);stroke-width:1"/> 
<line x1="731.734198184517" y1="503.678282274302" x2="817.734198184517" y2="417.678282274302" style="stroke:rgb(99,99,99);stroke-width:1"/> 
<line x1="878.54538136656" y1="442.867099092259" x2="792.54538136656" y2="356.867099092259" style="stroke:rgb(99,99,99);stroke-width:1"/> 
<line x1="817.734198184517" y1="417.678282274302" x2="774.734198184517" y2="521.489465456345" style="stroke:rgb(99,99,99);stroke-width:1"/> 
<line x1="731.734198184517" y1="503.678282274302" x2="835.54538136656" y2="460.678282274302" style="stroke:rgb(99,99,99);stroke-width:1"/> 
<line x1="792.54538136656" y1="356.867099092259" x2="835.54538136656" y2="460.678282274302" style="stroke:rgb(99,99,99);stroke-width:1"/> 
<line x1="792.54538136656" y1="356.867099092259" x2="896.356564548603" y2="399.867099092259" style="stroke:rgb(99,99,99);stroke-width:1"/> 
<line x1="835.54538136656" y1="460.678282274302" x2="878.54538136656" y2="564.489465456345" style="stroke:rgb(99,99,99);stroke-width:1"/> 
<line x1="835.54538136656" y1="460.678282274302" x2="939.356564548603" y2="417.678282274302" style="stroke:rgb(99,99,99);stroke-width:1"/> 
<line x1="896.356564548603" y1="399.867099092259" x2="853.356564548603" y2="503.678282274302" style="stroke:rgb(99,99,99);stroke-width:1"/> 
<line x1="853.356564548603" y1="503.678282274302" x2="939.356564548603" y2="417.678282274302" style="stroke:rgb(99,99,99);stroke-width:1"/> 
<line x1="939.356564548603" y1="417.678282274302" x2="896.356564548603" y2="521.489465456345" style="stroke:rgb(99,99,99);stroke-width:1"/> 
<line x1="44.9999999999999" y1="521.489465456345" x2="1.99999999999994" y2="625.300648638388" style="stroke:rgb(99,99,99);stroke-width:1"/> 
<line x1="44.9999999999999" y1="521.489465456345" x2="148.811183182043" y2="564.489465456345" style="stroke:rgb(99,99,99);stroke-width:1"/> 
<line x1="1.99999999999994" y1="625.300648638388" x2="87.9999999999999" y2="539.300648638388" style="stroke:rgb(99,99,99);stroke-width:1"/> 
<line x1="148.811183182043" y1="564.489465456345" x2="62.811183182043" y2="478.489465456345" style="stroke:rgb(99,99,99);stroke-width:1"/> 
<line x1="87.9999999999999" y1="539.300648638388" x2="44.9999999999999" y2="643.111831820431" style="stroke:rgb(99,99,99);stroke-width:1"/> 
<line x1="1.99999999999994" y1="625.300648638388" x2="105.811183182043" y2="582.300648638388" style="stroke:rgb(99,99,99);stroke-width:1"/> 
<line x1="62.811183182043" y1="478.489465456345" x2="105.811183182043" y2="582.300648638388" style="stroke:rgb(99,99,99);stroke-width:1"/> 
<line x1="62.811183182043" y1="478.489465456345" x2="166.622366364086" y2="521.489465456345" style="stroke:rgb(99,99,99);stroke-width:1"/> 
<line x1="105.811183182043" y1="582.300648638388" x2="148.811183182043" y2="686.111831820431" style="stroke:rgb(99,99,99);stroke-width:1"/> 
<line x1="105.811183182043" y1="582.300648638388" x2="209.622366364086" y2="539.300648638388" style="stroke:rgb(99,99,99);stroke-width:1"/> 
<line x1="166.622366364086" y1="521.489465456345" x2="123.622366364086" y2="625.300648638388" style="stroke:rgb(99,99,99);stroke-width:1"/> 
<line x1="166.622366364086" y1="521.489465456345" x2="270.433549546129" y2="564.489465456345" style="stroke:rgb(99,99,99);stroke-width:1"/> 
<line x1="123.622366364086" y1="625.300648638388" x2="209.622366364086" y2="539.300648638388" style="stroke:rgb(99,99,99);stroke-width:1"/> 
<line x1="270.433549546129" y1="564.489465456345" x2="184.433549546129" y2="478.489465456345" style="stroke:rgb(99,99,99);stroke-width:1"/> 
<line x1="209.622366364086" y1="539.300648638388" x2="166.622366364086" y2="643.111831820431" style="stroke:rgb(99,99,99);stroke-width:1"/> 
<line x1="123.622366364086" y1="625.300648638388" x2="227.433549546129" y2="582.300648638388" style="stroke:rgb(99,99,99);stroke-width:1"/> 
<line x1="184.433549546129" y1="478.489465456345" x2="227.433549546129" y2="582.300648638388" style="stroke:rgb(99,99,99);stroke-width:1"/> 
<line x1="184.433549546129" y1="478.489465456345" x2="288.244732728172" y2="521.489465456345" style="stroke:rgb(99,99,99);stroke-width:1"/> 
<line x1="227.433549546129" y1="582.300648638388" x2="270.433549546129" y2="686.111831820431" style="stroke:rgb(99,99,99);stroke-width:1"/> 
<line x1="227.433549546129" y1="582.300648638388" x2="331.244732728172" y2="539.300648638388" style="stroke:rgb(99,99,99);stroke-width:1"/> 
<line x1="288.244732728172" y1="521.489465456345" x2="245.244732728172" y2="625.300648638388" style="stroke:rgb(99,99,99);stroke-width:1"/> 
<line x1="288.244732728172" y1="521.489465456345" x2="392.055915910215" y2="564.489465456345" style="stroke:rgb(99,99,99);stroke-width:1"/> 
<line x1="245.244732728172" y1="625.300648638388" x2="331.244732728172" y2="539.300648638388" style="stroke:rgb(99,99,99);stroke-width:1"/> 
<line x1="392.055915910215" y1="564.489465456345" x2="306.055915910215" y2="478.489465456345" style="stroke:rgb(99,99,99);stroke-width:1"/> 
<line x1="331.244732728172" y1="539.300648638388" x2="288.244732728172" y2="643.111831820431" style="stroke:rgb(99,99,99);stroke-width:1"/> 
<line x1="245.244732728172" y1="625.300648638388" x2="349.055915910215" y2="582.300648638388" style="stroke:rgb(99,99,99);stroke-width:1"/> 
<line x1="306.055915910215" y1="478.489465456345" x2="349.055915910215" y2="582.300648638388" style="stroke:rgb(99,99,99);stroke-width:1"/> 
<line x1="306.055915910215" y1="478.489465456345" x2="409.867099092258" y2="521.489465456345" style="stroke:rgb(99,99,99);stroke-width:1"/> 
<line x1="349.055915910215" y1="582.300648638388" x2="392.055915910215" y2="686.111831820431" style="stroke:rgb(99,99,99);stroke-width:1"/> 
<line x1="349.055915910215" y1="582.300648638388" x2="452.867099092258" y2="539.300648638388" style="stroke:rgb(99,99,99);stroke-width:1"/> 
<line x1="409.867099092258" y1="521.489465456345" x2="366.867099092258" y2="625.300648638388" style="stroke:rgb(99,99,99);stroke-width:1"/> 
<line x1="409.867099092258" y1="521.489465456345" x2="513.678282274302" y2="564.489465456345" style="stroke:rgb(99,99,99);stroke-width:1"/> 
<line x1="366.867099092258" y1="625.300648638388" x2="452.867099092258" y2="539.300648638388" style="stroke:rgb(99,99,99);stroke-width:1"/> 
<line x1="513.678282274302" y1="564.489465456345" x2="427.678282274302" y2="478.489465456345" style="stroke:rgb(99,99,99);stroke-width:1"/> 
<line x1="452.867099092258" y1="539.300648638388" x2="409.867099092258" y2="643.111831820431" style="stroke:rgb(99,99,99);stroke-width:1"/> 
<line x1="366.867099092258" y1="625.300648638388" x2="470.678282274302" y2="582.300648638388" style="stroke:rgb(99,99,99);stroke-width:1"/> 
<line x1="427.678282274302" y1="478.489465456345" x2="470.678282274302" y2="582.300648638388" style="stroke:rgb(99,99,99);stroke-width:1"/> 
<line x1="427.678282274302" y1="478.489465456345" x2="531.489465456345" y2="521.489465456345" style="stroke:rgb(99,99,99);stroke-width:1"/> 
<line x1="470.678282274302" y1="582.300648638388" x2="513.678282274302" y2="686.111831820431" style="stroke:rgb(99,99,99);stroke-width:1"/> 
<line x1="470.678282274302" y1="582.300648638388" x2="574.489465456345" y2="539.300648638388" style="stroke:rgb(99,99,99);stroke-width:1"/> 
<line x1="531.489465456345" y1="521.489465456345" x2="488.489465456345" y2="625.300648638388" style="stroke:rgb(99,99,99);stroke-width:1"/> 
<line x1="531.489465456345" y1="521.489465456345" x2="635.300648638388" y2="564.489465456345" style="stroke:rgb(99,99,99);stroke-width:1"/> 
<line x1="488.489465456345" y1="625.300648638388" x2="574.489465456345" y2="539.300648638388" style="stroke:rgb(99,99,99);stroke-width:1"/> 
<line x1="635.300648638388" y1="564.489465456345" x2="549.300648638388" y2="478.489465456345" style="stroke:rgb(99,99,99);stroke-width:1"/> 
<line x1="574.489465456345" y1="539.300648638388" x2="531.489465456345" y2="643.111831820431" style="stroke:rgb(99,99,99);stroke-width:1"/> 
<line x1="488.489465456345" y1="625.300648638388" x2="592.300648638388" y2="582.300648638388" style="stroke:rgb(99,99,99);stroke-width:1"/> 
<line x1="549.300648638388" y1="478.489465456345" x2="592.300648638388" y2="582.300648638388" style="stroke:rgb(99,99,99);stroke-width:1"/> 
<line x1="549.300648638388" y1="478.489465456345" x2="653.111831820431" y2="521.489465456345" style="stroke:rgb(99,99,99);stroke-width:1"/> 
<line x1="592.300648638388" y1="582.300648638388" x2="635.300648638388" y2="686.111831820431" style="stroke:rgb(99,99,99);stroke-width:1"/> 
<line x1="592.300648638388" y1="582.300648638388" x2="696.111831820431" y2="539.300648638388" style="stroke:rgb(99,99,99);stroke-width:1"/> 
<line x1="653.111831820431" y1="521.489465456345" x2="610.111831820431" y2="625.300648638388" style="stroke:rgb(99,99,99);stroke-width:1"/> 
<line x1="653.111831820431" y1="521.489465456345" x2="756.923015002474" y2="564.489465456345" style="stroke:rgb(99,99,99);stroke-width:1"/> 
<line x1="610.111831820431" y1="625.300648638388" x2="696.111831820431" y2="539.300648638388" style="stroke:rgb(99,99,99);stroke-width:1"/> 
<line x1="756.923015002474" y1="564.489465456345" x2="670.923015002474" y2="478.489465456345" style="stroke:rgb(99,99,99);stroke-width:1"/> 
<line x1="696.111831820431" y1="539.300648638388" x2="653.111831820431" y2="643.111831820431" style="stroke:rgb(99,99,99);stroke-width:1"/> 
<line x1="610.111831820431" y1="625.300648638388" x2="713.923015002474" y2="582.300648638388" style="stroke:rgb(99,99,99);stroke-width:1"/> 
<line x1="670.923015002474" y1="478.489465456345" x2="713.923015002474" y2="582.300648638388" style="stroke:rgb(99,99,99);stroke-width:1"/> 
<line x1="670.923015002474" y1="478.489465456345" x2="774.734198184517" y2="521.489465456345" style="stroke:rgb(99,99,99);stroke-width:1"/> 
<line x1="713.923015002474" y1="582.300648638388" x2="756.923015002474" y2="686.111831820431" style="stroke:rgb(99,99,99);stroke-width:1"/> 
<line x1="713.923015002474" y1="582.300648638388" x2="817.734198184517" y2="539.300648638388" style="stroke:rgb(99,99,99);stroke-width:1"/> 
<line x1="774.734198184517" y1="521.489465456345" x2="731.734198184517" y2="625.300648638388" style="stroke:rgb(99,99,99);stroke-width:1"/> 
<line x1="774.734198184517" y1="521.489465456345" x2="878.54538136656" y2="564.489465456345" style="stroke:rgb(99,99,99);stroke-width:1"/> 
<line x1="731.734198184517" y1="625.300648638388" x2="817.734198184517" y2="539.300648638388" style="stroke:rgb(99,99,99);stroke-width:1"/> 
<line x1="878.54538136656" y1="564.489465456345" x2="792.54538136656" y2="478.489465456345" style="stroke:rgb(99,99,99);stroke-width:1"/> 
<line x1="817.734198184517" y1="539.300648638388" x2="774.734198184517" y2="643.111831820431" style="stroke:rgb(99,99,99);stroke-width:1"/> 
<line x1="731.734198184517" y1="625.300648638388" x2="835.54538136656" y2="582.300648638388" style="stroke:rgb(99,99,99);stroke-width:1"/> 
<line x1="792.54538136656" y1="478.489465456345" x2="835.54538136656" y2="582.300648638388" style="stroke:rgb(99,99,99);stroke-width:1"/> 
<line x1="792.54538136656" y1="478.489465456345" x2="896.356564548603" y2="521.489465456345" style="stroke:rgb(99,99,99);stroke-width:1"/> 
<line x1="835.54538136656" y1="582.300648638388" x2="878.54538136656" y2="686.111831820431" style="stroke:rgb(99,99,99);stroke-width:1"/> 
<line x1="835.54538136656" y1="582.300648638388" x2="939.356564548603" y2="539.300648638388" style="stroke:rgb(99,99,99);stroke-width:1"/> 
<line x1="896.356564548603" y1="521.489465456345" x2="853.356564548603" y2="625.300648638388" style="stroke:rgb(99,99,99);stroke-width:1"/> 
<line x1="853.356564548603" y1="625.300648638388" x2="939.356564548603" y2="539.300648638388" style="stroke:rgb(99,99,99);stroke-width:1"/> 
<line x1="939.356564548603" y1="539.300648638388" x2="896.356564548603" y2="643.111831820431" style="stroke:rgb(99,99,99);stroke-width:1"/> 
<line x1="44.9999999999999" y1="643.111831820431" x2="1.99999999999994" y2="746.923015002474" style="stroke:rgb(99,99,99);stroke-width:1"/> 
<line x1="44.9999999999999" y1="643.111831820431" x2="148.811183182043" y2="686.111831820431" style="stroke:rgb(99,99,99);stroke-width:1"/> 
<line x1="1.99999999999994" y1="746.923015002474" x2="87.9999999999999" y2="660.923015002474" style="stroke:rgb(99,99,99);stroke-width:1"/> 
<line x1="148.811183182043" y1="686.111831820431" x2="62.811183182043" y2="600.111831820431" style="stroke:rgb(99,99,99);stroke-width:1"/> 
<line x1="87.9999999999999" y1="660.923015002474" x2="44.9999999999999" y2="764.734198184517" style="stroke:rgb(99,99,99);stroke-width:1"/> 
<line x1="1.99999999999994" y1="746.923015002474" x2="105.811183182043" y2="703.923015002474" style="stroke:rgb(99,99,99);stroke-width:1"/> 
<line x1="62.811183182043" y1="600.111831820431" x2="105.811183182043" y2="703.923015002474" style="stroke:rgb(99,99,99);stroke-width:1"/> 
<line x1="62.811183182043" y1="600.111831820431" x2="166.622366364086" y2="643.111831820431" style="stroke:rgb(99,99,99);stroke-width:1"/> 
<line x1="105.811183182043" y1="703.923015002474" x2="148.811183182043" y2="807.734198184517" style="stroke:rgb(99,99,99);stroke-width:1"/> 
<line x1="105.811183182043" y1="703.923015002474" x2="209.622366364086" y2="660.923015002474" style="stroke:rgb(99,99,99);stroke-width:1"/> 
<line x1="166.622366364086" y1="643.111831820431" x2="123.622366364086" y2="746.923015002474" style="stroke:rgb(99,99,99);stroke-width:1"/> 
<line x1="166.622366364086" y1="643.111831820431" x2="270.433549546129" y2="686.111831820431" style="stroke:rgb(99,99,99);stroke-width:1"/> 
<line x1="123.622366364086" y1="746.923015002474" x2="209.622366364086" y2="660.923015002474" style="stroke:rgb(99,99,99);stroke-width:1"/> 
<line x1="270.433549546129" y1="686.111831820431" x2="184.433549546129" y2="600.111831820431" style="stroke:rgb(99,99,99);stroke-width:1"/> 
<line x1="209.622366364086" y1="660.923015002474" x2="166.622366364086" y2="764.734198184517" style="stroke:rgb(99,99,99);stroke-width:1"/> 
<line x1="123.622366364086" y1="746.923015002474" x2="227.433549546129" y2="703.923015002474" style="stroke:rgb(99,99,99);stroke-width:1"/> 
<line x1="184.433549546129" y1="600.111831820431" x2="227.433549546129" y2="703.923015002474" style="stroke:rgb(99,99,99);stroke-width:1"/> 
<line x1="184.433549546129" y1="600.111831820431" x2="288.244732728172" y2="643.111831820431" style="stroke:rgb(99,99,99);stroke-width:1"/> 
<line x1="227.433549546129" y1="703.923015002474" x2="270.433549546129" y2="807.734198184517" style="stroke:rgb(99,99,99);stroke-width:1"/> 
<line x1="227.433549546129" y1="703.923015002474" x2="331.244732728172" y2="660.923015002474" style="stroke:rgb(99,99,99);stroke-width:1"/> 
<line x1="288.244732728172" y1="643.111831820431" x2="245.244732728172" y2="746.923015002474" style="stroke:rgb(99,99,99);stroke-width:1"/> 
<line x1="288.244732728172" y1="643.111831820431" x2="392.055915910215" y2="686.111831820431" style="stroke:rgb(99,99,99);stroke-width:1"/> 
<line x1="245.244732728172" y1="746.923015002474" x2="331.244732728172" y2="660.923015002474" style="stroke:rgb(99,99,99);stroke-width:1"/> 
<line x1="392.055915910215" y1="686.111831820431" x2="306.055915910215" y2="600.111831820431" style="stroke:rgb(99,99,99);stroke-width:1"/> 
<line x1="331.244732728172" y1="660.923015002474" x2="288.244732728172" y2="764.734198184517" style="stroke:rgb(99,99,99);stroke-width:1"/> 
<line x1="245.244732728172" y1="746.923015002474" x2="349.055915910215" y2="703.923015002474" style="stroke:rgb(99,99,99);stroke-width:1"/> 
<line x1="306.055915910215" y1="600.111831820431" x2="349.055915910215" y2="703.923015002474" style="stroke:rgb(99,99,99);stroke-width:1"/> 
<line x1="306.055915910215" y1="600.111831820431" x2="409.867099092258" y2="643.111831820431" style="stroke:rgb(99,99,99);stroke-width:1"/> 
<line x1="349.055915910215" y1="703.923015002474" x2="392.055915910215" y2="807.734198184517" style="stroke:rgb(99,99,99);stroke-width:1"/> 
<line x1="349.055915910215" y1="703.923015002474" x2="452.867099092258" y2="660.923015002474" style="stroke:rgb(99,99,99);stroke-width:1"/> 
<line x1="409.867099092258" y1="643.111831820431" x2="366.867099092258" y2="746.923015002474" style="stroke:rgb(99,99,99);stroke-width:1"/> 
<line x1="409.867099092258" y1="643.111831820431" x2="513.678282274302" y2="686.111831820431" style="stroke:rgb(99,99,99);stroke-width:1"/> 
<line x1="366.867099092258" y1="746.923015002474" x2="452.867099092258" y2="660.923015002474" style="stroke:rgb(99,99,99);stroke-width:1"/> 
<line x1="513.678282274302" y1="686.111831820431" x2="427.678282274302" y2="600.111831820431" style="stroke:rgb(99,99,99);stroke-width:1"/> 
<line x1="452.867099092258" y1="660.923015002474" x2="409.867099092258" y2="764.734198184517" style="stroke:rgb(99,99,99);stroke-width:1"/> 
<line x1="366.867099092258" y1="746.923015002474" x2="470.678282274302" y2="703.923015002474" style="stroke:rgb(99,99,99);stroke-width:1"/> 
<line x1="427.678282274302" y1="600.111831820431" x2="470.678282274302" y2="703.923015002474" style="stroke:rgb(99,99,99);stroke-width:1"/> 
<line x1="427.678282274302" y1="600.111831820431" x2="531.489465456345" y2="643.111831820431" style="stroke:rgb(99,99,99);stroke-width:1"/> 
<line x1="470.678282274302" y1="703.923015002474" x2="513.678282274302" y2="807.734198184517" style="stroke:rgb(99,99,99);stroke-width:1"/> 
<line x1="470.678282274302" y1="703.923015002474" x2="574.489465456345" y2="660.923015002474" style="stroke:rgb(99,99,99);stroke-width:1"/> 
<line x1="531.489465456345" y1="643.111831820431" x2="488.489465456345" y2="746.923015002474" style="stroke:rgb(99,99,99);stroke-width:1"/> 
<line x1="531.489465456345" y1="643.111831820431" x2="635.300648638388" y2="686.111831820431" style="stroke:rgb(99,99,99);stroke-width:1"/> 
<line x1="488.489465456345" y1="746.923015002474" x2="574.489465456345" y2="660.923015002474" style="stroke:rgb(99,99,99);stroke-width:1"/> 
<line x1="635.300648638388" y1="686.111831820431" x2="549.300648638388" y2="600.111831820431" style="stroke:rgb(99,99,99);stroke-width:1"/> 
<line x1="574.489465456345" y1="660.923015002474" x2="531.489465456345" y2="764.734198184517" style="stroke:rgb(99,99,99);stroke-width:1"/> 
<line x1="488.489465456345" y1="746.923015002474" x2="592.300648638388" y2="703.923015002474" style="stroke:rgb(99,99,99);stroke-width:1"/> 
<line x1="549.300648638388" y1="600.111831820431" x2="592.300648638388" y2="703.923015002474" style="stroke:rgb(99,99,99);stroke-width:1"/> 
<line x1="549.300648638388" y1="600.111831820431" x2="653.111831820431" y2="643.111831820431" style="stroke:rgb(99,99,99);stroke-width:1"/> 
<line x1="592.300648638388" y1="703.923015002474" x2="635.300648638388" y2="807.734198184517" style="stroke:rgb(99,99,99);stroke-width:1"/> 
<line x1="592.300648638388" y1="703.923015002474" x2="696.111831820431" y2="660.923015002474" style="stroke:rgb(99,99,99);stroke-width:1"/> 
<line x1="653.111831820431" y1="643.111831820431" x2="610.111831820431" y2="746.923015002474" style="stroke:rgb(99,99,99);stroke-width:1"/> 
<line x1="653.111831820431" y1="643.111831820431" x2="756.923015002474" y2="686.111831820431" style="stroke:rgb(99,99,99);stroke-width:1"/> 
<line x1="610.111831820431" y1="746.923015002474" x2="696.111831820431" y2="660.923015002474" style="stroke:rgb(99,99,99);stroke-width:1"/> 
<line x1="756.923015002474" y1="686.111831820431" x2="670.923015002474" y2="600.111831820431" style="stroke:rgb(99,99,99);stroke-width:1"/> 
<line x1="696.111831820431" y1="660.923015002474" x2="653.111831820431" y2="764.734198184517" style="stroke:rgb(99,99,99);stroke-width:1"/> 
<line x1="610.111831820431" y1="746.923015002474" x2="713.923015002474" y2="703.923015002474" style="stroke:rgb(99,99,99);stroke-width:1"/> 
<line x1="670.923015002474" y1="600.111831820431" x2="713.923015002474" y2="703.923015002474" style="stroke:rgb(99,99,99);stroke-width:1"/> 
<line x1="670.923015002474" y1="600.111831820431" x2="774.734198184517" y2="643.111831820431" style="stroke:rgb(99,99,99);stroke-width:1"/> 
<line x1="713.923015002474" y1="703.923015002474" x2="756.923015002474" y2="807.734198184517" style="stroke:rgb(99,99,99);stroke-width:1"/> 
<line x1="713.923015002474" y1="703.923015002474" x2="817.734198184517" y2="660.923015002474" style="stroke:rgb(99,99,99);stroke-width:1"/> 
<line x1="774.734198184517" y1="643.111831820431" x2="731.734198184517" y2="746.923015002474" style="stroke:rgb(99,99,99);stroke-width:1"/> 
<line x1="774.734198184517" y1="643.111831820431" x2="878.54538136656" y2="686.111831820431" style="stroke:rgb(99,99,99);stroke-width:1"/> 
<line x1="731.734198184517" y1="746.923015002474" x2="817.734198184517" y2="660.923015002474" style="stroke:rgb(99,99,99);stroke-width:1"/> 
<line x1="878.54538136656" y1="686.111831820431" x2="792.54538136656" y2="600.111831820431" style="stroke:rgb(99,99,99);stroke-width:1"/> 
<line x1="817.734198184517" y1="660.923015002474" x2="774.734198184517" y2="764.734198184517" style="stroke:rgb(99,99,99);stroke-width:1"/> 
<line x1="731.734198184517" y1="746.923015002474" x2="835.54538136656" y2="703.923015002474" style="stroke:rgb(99,99,99);stroke-width:1"/> 
<line x1="792.54538136656" y1="600.111831820431" x2="835.54538136656" y2="703.923015002474" style="stroke:rgb(99,99,99);stroke-width:1"/> 
<line x1="792.54538136656" y1="600.111831820431" x2="896.356564548603" y2="643.111831820431" style="stroke:rgb(99,99,99);stroke-width:1"/> 
<line x1="835.54538136656" y1="703.923015002474" x2="878.54538136656" y2="807.734198184517" style="stroke:rgb(99,99,99);stroke-width:1"/> 
<line x1="835.54538136656" y1="703.923015002474" x2="939.356564548603" y2="660.923015002474" style="stroke:rgb(99,99,99);stroke-width:1"/> 
<line x1="896.356564548603" y1="643.111831820431" x2="853.356564548603" y2="746.923015002474" style="stroke:rgb(99,99,99);stroke-width:1"/> 
<line x1="853.356564548603" y1="746.923015002474" x2="939.356564548603" y2="660.923015002474" style="stroke:rgb(99,99,99);stroke-width:1"/> 
<line x1="939.356564548603" y1="660.923015002474" x2="896.356564548603" y2="764.734198184517" style="stroke:rgb(99,99,99);stroke-width:1"/> 
<line x1="44.9999999999999" y1="764.734198184517" x2="1.99999999999983" y2="868.54538136656" style="stroke:rgb(99,99,99);stroke-width:1"/> 
<line x1="44.9999999999999" y1="764.734198184517" x2="148.811183182043" y2="807.734198184517" style="stroke:rgb(99,99,99);stroke-width:1"/> 
<line x1="1.99999999999983" y1="868.54538136656" x2="87.9999999999998" y2="782.54538136656" style="stroke:rgb(99,99,99);stroke-width:1"/> 
<line x1="148.811183182043" y1="807.734198184517" x2="62.811183182043" y2="721.734198184517" style="stroke:rgb(99,99,99);stroke-width:1"/> 
<line x1="87.9999999999998" y1="782.54538136656" x2="44.9999999999999" y2="886.356564548603" style="stroke:rgb(99,99,99);stroke-width:1"/> 
<line x1="1.99999999999983" y1="868.54538136656" x2="105.811183182043" y2="825.54538136656" style="stroke:rgb(99,99,99);stroke-width:1"/> 
<line x1="62.811183182043" y1="721.734198184517" x2="105.811183182043" y2="825.54538136656" style="stroke:rgb(99,99,99);stroke-width:1"/> 
<line x1="62.811183182043" y1="721.734198184517" x2="166.622366364086" y2="764.734198184517" style="stroke:rgb(99,99,99);stroke-width:1"/> 
<line x1="105.811183182043" y1="825.54538136656" x2="148.811183182043" y2="929.356564548603" style="stroke:rgb(99,99,99);stroke-width:1"/> 
<line x1="105.811183182043" y1="825.54538136656" x2="209.622366364086" y2="782.54538136656" style="stroke:rgb(99,99,99);stroke-width:1"/> 
<line x1="166.622366364086" y1="764.734198184517" x2="123.622366364086" y2="868.54538136656" style="stroke:rgb(99,99,99);stroke-width:1"/> 
<line x1="166.622366364086" y1="764.734198184517" x2="270.433549546129" y2="807.734198184517" style="stroke:rgb(99,99,99);stroke-width:1"/> 
<line x1="123.622366364086" y1="868.54538136656" x2="209.622366364086" y2="782.54538136656" style="stroke:rgb(99,99,99);stroke-width:1"/> 
<line x1="270.433549546129" y1="807.734198184517" x2="184.433549546129" y2="721.734198184517" style="stroke:rgb(99,99,99);stroke-width:1"/> 
<line x1="209.622366364086" y1="782.54538136656" x2="166.622366364086" y2="886.356564548603" style="stroke:rgb(99,99,99);stroke-width:1"/> 
<line x1="123.622366364086" y1="868.54538136656" x2="227.433549546129" y2="825.54538136656" style="stroke:rgb(99,99,99);stroke-width:1"/> 
<line x1="184.433549546129" y1="721.734198184517" x2="227.433549546129" y2="825.54538136656" style="stroke:rgb(99,99,99);stroke-width:1"/> 
<line x1="184.433549546129" y1="721.734198184517" x2="288.244732728172" y2="764.734198184517" style="stroke:rgb(99,99,99);stroke-width:1"/> 
<line x1="227.433549546129" y1="825.54538136656" x2="270.433549546129" y2="929.356564548603" style="stroke:rgb(99,99,99);stroke-width:1"/> 
<line x1="227.433549546129" y1="825.54538136656" x2="331.244732728172" y2="782.54538136656" style="stroke:rgb(99,99,99);stroke-width:1"/> 
<line x1="288.244732728172" y1="764.734198184517" x2="245.244732728172" y2="868.54538136656" style="stroke:rgb(99,99,99);stroke-width:1"/> 
<line x1="288.244732728172" y1="764.734198184517" x2="392.055915910215" y2="807.734198184517" style="stroke:rgb(99,99,99);stroke-width:1"/> 
<line x1="245.244732728172" y1="868.54538136656" x2="331.244732728172" y2="782.54538136656" style="stroke:rgb(99,99,99);stroke-width:1"/> 
<line x1="392.055915910215" y1="807.734198184517" x2="306.055915910215" y2="721.734198184517" style="stroke:rgb(99,99,99);stroke-width:1"/> 
<line x1="331.244732728172" y1="782.54538136656" x2="288.244732728172" y2="886.356564548603" style="stroke:rgb(99,99,99);stroke-width:1"/> 
<line x1="245.244732728172" y1="868.54538136656" x2="349.055915910215" y2="825.54538136656" style="stroke:rgb(99,99,99);stroke-width:1"/> 
<line x1="306.055915910215" y1="721.734198184517" x2="349.055915910215" y2="825.54538136656" style="stroke:rgb(99,99,99);stroke-width:1"/> 
<line x1="306.055915910215" y1="721.734198184517" x2="409.867099092258" y2="764.734198184517" style="stroke:rgb(99,99,99);stroke-width:1"/> 
<line x1="349.055915910215" y1="825.54538136656" x2="392.055915910215" y2="929.356564548603" style="stroke:rgb(99,99,99);stroke-width:1"/> 
<line x1="349.055915910215" y1="825.54538136656" x2="452.867099092258" y2="782.54538136656" style="stroke:rgb(99,99,99);stroke-width:1"/> 
<line x1="409.867099092258" y1="764.734198184517" x2="366.867099092258" y2="868.54538136656" style="stroke:rgb(99,99,99);stroke-width:1"/> 
<line x1="409.867099092258" y1="764.734198184517" x2="513.678282274302" y2="807.734198184517" style="stroke:rgb(99,99,99);stroke-width:1"/> 
<line x1="366.867099092258" y1="868.54538136656" x2="452.867099092258" y2="782.54538136656" style="stroke:rgb(99,99,99);stroke-width:1"/> 
<line x1="513.678282274302" y1="807.734198184517" x2="427.678282274302" y2="721.734198184517" style="stroke:rgb(99,99,99);stroke-width:1"/> 
<line x1="452.867099092258" y1="782.54538136656" x2="409.867099092258" y2="886.356564548603" style="stroke:rgb(99,99,99);stroke-width:1"/> 
<line x1="366.867099092258" y1="868.54538136656" x2="470.678282274301" y2="825.54538136656" style="stroke:rgb(99,99,99);stroke-width:1"/> 
<line x1="427.678282274302" y1="721.734198184517" x2="470.678282274301" y2="825.54538136656" style="stroke:rgb(99,99,99);stroke-width:1"/> 
<line x1="427.678282274302" y1="721.734198184517" x2="531.489465456345" y2="764.734198184517" style="stroke:rgb(99,99,99);stroke-width:1"/> 
<line x1="470.678282274301" y1="825.54538136656" x2="513.678282274301" y2="929.356564548603" style="stroke:rgb(99,99,99);stroke-width:1"/> 
<line x1="470.678282274301" y1="825.54538136656" x2="574.489465456345" y2="782.54538136656" style="stroke:rgb(99,99,99);stroke-width:1"/> 
<line x1="531.489465456345" y1="764.734198184517" x2="488.489465456345" y2="868.54538136656" style="stroke:rgb(99,99,99);stroke-width:1"/> 
<line x1="531.489465456345" y1="764.734198184517" x2="635.300648638388" y2="807.734198184517" style="stroke:rgb(99,99,99);stroke-width:1"/> 
<line x1="488.489465456345" y1="868.54538136656" x2="574.489465456345" y2="782.54538136656" style="stroke:rgb(99,99,99);stroke-width:1"/> 
<line x1="635.300648638388" y1="807.734198184517" x2="549.300648638388" y2="721.734198184517" style="stroke:rgb(99,99,99);stroke-width:1"/> 
<line x1="574.489465456345" y1="782.54538136656" x2="531.489465456345" y2="886.356564548603" style="stroke:rgb(99,99,99);stroke-width:1"/> 
<line x1="488.489465456345" y1="868.54538136656" x2="592.300648638388" y2="825.54538136656" style="stroke:rgb(99,99,99);stroke-width:1"/> 
<line x1="549.300648638388" y1="721.734198184517" x2="592.300648638388" y2="825.54538136656" style="stroke:rgb(99,99,99);stroke-width:1"/> 
<line x1="549.300648638388" y1="721.734198184517" x2="653.111831820431" y2="764.734198184517" style="stroke:rgb(99,99,99);stroke-width:1"/> 
<line x1="592.300648638388" y1="825.54538136656" x2="635.300648638388" y2="929.356564548603" style="stroke:rgb(99,99,99);stroke-width:1"/> 
<line x1="592.300648638388" y1="825.54538136656" x2="696.111831820431" y2="782.54538136656" style="stroke:rgb(99,99,99);stroke-width:1"/> 
<line x1="653.111831820431" y1="764.734198184517" x2="610.111831820431" y2="868.54538136656" style="stroke:rgb(99,99,99);stroke-width:1"/> 
<line x1="653.111831820431" y1="764.734198184517" x2="756.923015002474" y2="807.734198184517" style="stroke:rgb(99,99,99);stroke-width:1"/> 
<line x1="610.111831820431" y1="868.54538136656" x2="696.111831820431" y2="782.54538136656" style="stroke:rgb(99,99,99);stroke-width:1"/> 
<line x1="756.923015002474" y1="807.734198184517" x2="670.923015002474" y2="721.734198184517" style="stroke:rgb(99,99,99);stroke-width:1"/> 
<line x1="696.111831820431" y1="782.54538136656" x2="653.111831820431" y2="886.356564548603" style="stroke:rgb(99,99,99);stroke-width:1"/> 
<line x1="610.111831820431" y1="868.54538136656" x2="713.923015002474" y2="825.54538136656" style="stroke:rgb(99,99,99);stroke-width:1"/> 
<line x1="670.923015002474" y1="721.734198184517" x2="713.923015002474" y2="825.54538136656" style="stroke:rgb(99,99,99);stroke-width:1"/> 
<line x1="670.923015002474" y1="721.734198184517" x2="774.734198184517" y2="764.734198184517" style="stroke:rgb(99,99,99);stroke-width:1"/> 
<line x1="713.923015002474" y1="825.54538136656" x2="756.923015002474" y2="929.356564548603" style="stroke:rgb(99,99,99);stroke-width:1"/> 
<line x1="713.923015002474" y1="825.54538136656" x2="817.734198184517" y2="782.54538136656" style="stroke:rgb(99,99,99);stroke-width:1"/> 
<line x1="774.734198184517" y1="764.734198184517" x2="731.734198184517" y2="868.54538136656" style="stroke:rgb(99,99,99);stroke-width:1"/> 
<line x1="774.734198184517" y1="764.734198184517" x2="878.54538136656" y2="807.734198184517" style="stroke:rgb(99,99,99);stroke-width:1"/> 
<line x1="731.734198184517" y1="868.54538136656" x2="817.734198184517" y2="782.54538136656" style="stroke:rgb(99,99,99);stroke-width:1"/> 
<line x1="878.54538136656" y1="807.734198184517" x2="792.54538136656" y2="721.734198184517" style="stroke:rgb(99,99,99);stroke-width:1"/> 
<line x1="817.734198184517" y1="782.54538136656" x2="774.734198184517" y2="886.356564548603" style="stroke:rgb(99,99,99);stroke-width:1"/> 
<line x1="731.734198184517" y1="868.54538136656" x2="835.54538136656" y2="825.54538136656" style="stroke:rgb(99,99,99);stroke-width:1"/> 
<line x1="792.54538136656" y1="721.734198184517" x2="835.54538136656" y2="825.54538136656" style="stroke:rgb(99,99,99);stroke-width:1"/> 
<line x1="792.54538136656" y1="721.734198184517" x2="896.356564548603" y2="764.734198184517" style="stroke:rgb(99,99,99);stroke-width:1"/> 
<line x1="835.54538136656" y1="825.54538136656" x2="878.54538136656" y2="929.356564548604" style="stroke:rgb(99,99,99);stroke-width:1"/> 
<line x1="835.54538136656" y1="825.54538136656" x2="939.356564548603" y2="782.54538136656" style="stroke:rgb(99,99,99);stroke-width:1"/> 
<line x1="896.356564548603" y1="764.734198184517" x2="853.356564548603" y2="868.54538136656" style="stroke:rgb(99,99,99);stroke-width:1"/> 
<line x1="853.356564548603" y1="868.54538136656" x2="939.356564548603" y2="782.54538136656" style="stroke:rgb(99,99,99);stroke-width:1"/> 
<line x1="939.356564548603" y1="782.54538136656" x2="896.356564548603" y2="886.356564548603" style="stroke:rgb(99,99,99);stroke-width:1"/> 
<line x1="44.9999999999999" y1="886.356564548603" x2="148.811183182043" y2="929.356564548603" style="stroke:rgb(99,99,99);stroke-width:1"/> 
<line x1="148.811183182043" y1="929.356564548603" x2="62.8111831820429" y2="843.356564548603" style="stroke:rgb(99,99,99);stroke-width:1"/> 
<line x1="62.8111831820429" y1="843.356564548603" x2="166.622366364086" y2="886.356564548603" style="stroke:rgb(99,99,99);stroke-width:1"/> 
<line x1="166.622366364086" y1="886.356564548603" x2="270.433549546129" y2="929.356564548603" style="stroke:rgb(99,99,99);stroke-width:1"/> 
<line x1="270.433549546129" y1="929.356564548603" x2="184.433549546129" y2="843.356564548603" style="stroke:rgb(99,99,99);stroke-width:1"/> 
<line x1="184.433549546129" y1="843.356564548603" x2="288.244732728172" y2="886.356564548603" style="stroke:rgb(99,99,99);stroke-width:1"/> 
<line x1="288.244732728172" y1="886.356564548603" x2="392.055915910215" y2="929.356564548603" style="stroke:rgb(99,99,99);stroke-width:1"/> 
<line x1="392.055915910215" y1="929.356564548603" x2="306.055915910215" y2="843.356564548603" style="stroke:rgb(99,99,99);stroke-width:1"/> 
<line x1="306.055915910215" y1="843.356564548603" x2="409.867099092258" y2="886.356564548603" style="stroke:rgb(99,99,99);stroke-width:1"/> 
<line x1="409.867099092258" y1="886.356564548603" x2="513.678282274301" y2="929.356564548603" style="stroke:rgb(99,99,99);stroke-width:1"/> 
<line x1="513.678282274301" y1="929.356564548603" x2="427.678282274301" y2="843.356564548603" style="stroke:rgb(99,99,99);stroke-width:1"/> 
<line x1="427.678282274301" y1="843.356564548603" x2="531.489465456345" y2="886.356564548603" style="stroke:rgb(99,99,99);stroke-width:1"/> 
<line x1="531.489465456345" y1="886.356564548603" x2="635.300648638388" y2="929.356564548603" style="stroke:rgb(99,99,99);stroke-width:1"/> 
<line x1="635.300648638388" y1="929.356564548603" x2="549.300648638388" y2="843.356564548603" style="stroke:rgb(99,99,99);stroke-width:1"/> 
<line x1="549.300648638388" y1="843.356564548603" x2="653.111831820431" y2="886.356564548603" style="stroke:rgb(99,99,99);stroke-width:1"/> 
<line x1="653.111831820431" y1="886.356564548603" x2="756.923015002474" y2="929.356564548603" style="stroke:rgb(99,99,99);stroke-width:1"/> 
<line x1="756.923015002474" y1="929.356564548603" x2="670.923015002474" y2="843.356564548603" style="stroke:rgb(99,99,99);stroke-width:1"/> 
<line x1="670.923015002474" y1="843.356564548603" x2="774.734198184517" y2="886.356564548603" style="stroke:rgb(99,99,99);stroke-width:1"/> 
<line x1="774.734198184517" y1="886.356564548603" x2="878.54538136656" y2="929.356564548604" style="stroke:rgb(99,99,99);stroke-width:1"/> 
<line x1="878.54538136656" y1="929.356564548604" x2="792.54538136656" y2="843.356564548604" style="stroke:rgb(99,99,99);stroke-width:1"/> 
<line x1="792.54538136656" y1="843.356564548604" x2="896.356564548603" y2="886.356564548603" style="stroke:rgb(99,99,99);stroke-width:1"/> 
</svg>
