<?xml version="1.0" standalone="no"?> <!DOCTYPE svg PUBLIC "-//W3C//DTD SVG 1.1//EN" "http://www.w3.org/Graphics/SVG/1.1/DTD/svg11.dtd">
<svg width="2000" height="2000" version="1.1" xmlns="http://www.w3.org/2000/svg">
<line x1="40" y1="40" x2="63.9086792578147" y2="129.228405732033" style="stroke:rgb(50,0,199);stroke-width:1.2"/>
<line x1="40" y1="40" x2="129.228405732033" y2="16.0913207421853" style="stroke:rgb(50,0,199);stroke-width:1.2"/>
<line x1="63.9086792578147" y1="129.228405732033" x2="16.0913207421852" y2="177.045764247662" style="stroke:rgb(50,0,199);stroke-width:1.2"/>
<line x1="129.228405732033" y1="16.0913207421853" x2="177.045764247662" y2="63.9086792578148" style="stroke:rgb(50,0,199);stroke-width:1.2"/>
<line x1="16.0913207421852" y1="177.045764247662" x2="40" y2="266.274169979695" style="stroke:rgb(50,0,199);stroke-width:1.2"/>
<line x1="63.9086792578147" y1="129.228405732033" x2="153.137084989848" y2="153.137084989848" style="stroke:rgb(50,0,199);stroke-width:1.2"/>
<line x1="177.045764247662" y1="63.9086792578148" x2="153.137084989848" y2="153.137084989848" style="stroke:rgb(50,0,199);stroke-width:1.2"/>
<line x1="177.045764247662" y1="63.9086792578148" x2="266.274169979695" y2="40" style="stroke:rgb(50,0,199);stroke-width:1.2"/>
<line x1="153.137084989848" y1="153.137084989848" x2="129.228405732033" y2="242.36549072188" style="stroke:rgb(50,0,199);stroke-width:1.2"/>
<line x1="153.137084989848" y1="153.137084989848" x2="242.36549072188" y2="177.045764247662" style="stroke:rgb(50,0,199);stroke-width:1.2"/>
<line x1="266.274169979695" y1="40" x2="290.18284923751" y2="129.228405732033" style="stroke:rgb(50,0,199);stroke-width:1.2"/>
<line x1="266.274169979695" y1="40" x2="355.502575711728" y2="16.0913207421853" style="stroke:rgb(50,0,199);stroke-width:1.2"/>
<line x1="290.18284923751" y1="129.228405732033" x2="242.36549072188" y2="177.045764247662" style="stroke:rgb(50,0,199);stroke-width:1.2"/>
<line x1="355.502575711728" y1="16.0913207421853" x2="403.319934227358" y2="63.9086792578148" style="stroke:rgb(50,0,199);stroke-width:1.2"/>
<line x1="242.36549072188" y1="177.045764247662" x2="266.274169979695" y2="266.274169979695" style="stroke:rgb(50,0,199);stroke-width:1.2"/>
<line x1="290.18284923751" y1="129.228405732033" x2="379.411254969543" y2="153.137084989848" style="stroke:rgb(50,0,199);stroke-width:1.2"/>
<line x1="403.319934227358" y1="63.9086792578148" x2="379.411254969543" y2="153.137084989848" style="stroke:rgb(50,0,199);stroke-width:1.2"/>
<line x1="403.319934227358" y1="63.9086792578148" x2="492.54833995939" y2="40" style="stroke:rgb(50,0,199);stroke-width:1.2"/>
<line x1="379.411254969543" y1="153.137084989848" x2="355.502575711728" y2="242.36549072188" style="stroke:rgb(50,0,199);stroke-width:1.2"/>
<line x1="379.411254969543" y1="153.137084989848" x2="468.639660701576" y2="177.045764247662" style="stroke:rgb(50,0,199);stroke-width:1.2"/>
<line x1="492.54833995939" y1="40" x2="516.457019217205" y2="129.228405732033" style="stroke:rgb(50,0,199);stroke-width:1.2"/>
<line x1="492.54833995939" y1="40" x2="581.776745691423" y2="16.0913207421853" style="stroke:rgb(50,0,199);stroke-width:1.2"/>
<line x1="516.457019217205" y1="129.228405732033" x2="468.639660701576" y2="177.045764247662" style="stroke:rgb(50,0,199);stroke-width:1.2"/>
<line x1="581.776745691423" y1="16.0913207421853" x2="629.594104207053" y2="63.9086792578148" style="stroke:rgb(50,0,199);stroke-width:1.2"/>
<line x1="468.639660701576" y1="177.045764247662" x2="492.54833995939" y2="266.274169979695" style="stroke:rgb(50,0,199);stroke-width:1.2"/>
<line x1="516.457019217205" y1="129.228405732033" x2="605.685424949238" y2="153.137084989848" style="stroke:rgb(50,0,199);stroke-width:1.2"/>
<line x1="629.594104207053" y1="63.9086792578148" x2="605.685424949238" y2="153.137084989848" style="stroke:rgb(50,0,199);stroke-width:1.2"/>
<line x1="629.594104207053" y1="63.9086792578148" x2="718.822509939086" y2="40" style="stroke:rgb(50,0,199);stroke-width:1.2"/>
<line x1="605.685424949238" y1="153.137084989848" x2="581.776745691423" y2="242.36549072188" style="stroke:rgb(50,0,199);stroke-width:1.2"/>
<line x1="605.685424949238" y1="153.137084989848" x2="694.913830681271" y2="177.045764247662" style="stroke:rgb(50,0,199);stroke-width:1.2"/>
<line x1="718.822509939086" y1="40" x2="742.7311891969" y2="129.228405732033" style="stroke:rgb(50,0,199);stroke-width:1.2"/>
<line x1="718.822509939086" y1="40" x2="808.050915671118" y2="16.0913207421853" style="stroke:rgb(50,0,199);stroke-width:1.2"/>
<line x1="742.7311891969" y1="129.228405732033" x2="694.913830681271" y2="177.045764247662" style="stroke:rgb(50,0,199);stroke-width:1.2"/>
<line x1="808.050915671118" y1="16.0913207421853" x2="855.868274186748" y2="63.9086792578148" style="stroke:rgb(50,0,199);stroke-width:1.2"/>
<line x1="694.913830681271" y1="177.045764247662" x2="718.822509939086" y2="266.274169979695" style="stroke:rgb(50,0,199);stroke-width:1.2"/>
<line x1="742.7311891969" y1="129.228405732033" x2="831.959594928933" y2="153.137084989848" style="stroke:rgb(50,0,199);stroke-width:1.2"/>
<line x1="855.868274186748" y1="63.9086792578148" x2="831.959594928933" y2="153.137084989848" style="stroke:rgb(50,0,199);stroke-width:1.2"/>
<line x1="855.868274186748" y1="63.9086792578148" x2="945.096679918781" y2="40.0000000000001" style="stroke:rgb(50,0,199);stroke-width:1.2"/>
<line x1="831.959594928933" y1="153.137084989848" x2="808.050915671118" y2="242.365490721881" style="stroke:rgb(50,0,199);stroke-width:1.2"/>
<line x1="831.959594928933" y1="153.137084989848" x2="921.188000660966" y2="177.045764247662" style="stroke:rgb(50,0,199);stroke-width:1.2"/>
<line x1="945.096679918781" y1="40.0000000000001" x2="969.005359176596" y2="129.228405732033" style="stroke:rgb(50,0,199);stroke-width:1.2"/>
<line x1="969.005359176596" y1="129.228405732033" x2="921.188000660966" y2="177.045764247662" style="stroke:rgb(50,0,199);stroke-width:1.2"/>
<line x1="921.188000660966" y1="177.045764247662" x2="945.096679918781" y2="266.274169979695" style="stroke:rgb(50,0,199);stroke-width:1.2"/>
<line x1="40" y1="266.274169979695" x2="63.9086792578147" y2="355.502575711728" style="stroke:rgb(50,0,199);stroke-width:1.2"/>
<line x1="40" y1="266.274169979695" x2="129.228405732033" y2="242.36549072188" style="stroke:rgb(50,0,199);stroke-width:1.2"/>
<line x1="63.9086792578147" y1="355.502575711728" x2="16.0913207421852" y2="403.319934227358" style="stroke:rgb(50,0,199);stroke-width:1.2"/>
<line x1="129.228405732033" y1="242.36549072188" x2="177.045764247662" y2="290.18284923751" style="stroke:rgb(50,0,199);stroke-width:1.2"/>
<line x1="16.0913207421852" y1="403.319934227358" x2="40" y2="492.54833995939" style="stroke:rgb(50,0,199);stroke-width:1.2"/>
<line x1="63.9086792578147" y1="355.502575711728" x2="153.137084989848" y2="379.411254969543" style="stroke:rgb(50,0,199);stroke-width:1.2"/>
<line x1="177.045764247662" y1="290.18284923751" x2="153.137084989848" y2="379.411254969543" style="stroke:rgb(50,0,199);stroke-width:1.2"/>
<line x1="177.045764247662" y1="290.18284923751" x2="266.274169979695" y2="266.274169979695" style="stroke:rgb(50,0,199);stroke-width:1.2"/>
<line x1="153.137084989848" y1="379.411254969543" x2="129.228405732033" y2="468.639660701576" style="stroke:rgb(50,0,199);stroke-width:1.2"/>
<line x1="153.137084989848" y1="379.411254969543" x2="242.36549072188" y2="403.319934227358" style="stroke:rgb(50,0,199);stroke-width:1.2"/>
<line x1="266.274169979695" y1="266.274169979695" x2="290.18284923751" y2="355.502575711728" style="stroke:rgb(50,0,199);stroke-width:1.2"/>
<line x1="266.274169979695" y1="266.274169979695" x2="355.502575711728" y2="242.36549072188" style="stroke:rgb(50,0,199);stroke-width:1.2"/>
<line x1="290.18284923751" y1="355.502575711728" x2="242.36549072188" y2="403.319934227358" style="stroke:rgb(50,0,199);stroke-width:1.2"/>
<line x1="355.502575711728" y1="242.36549072188" x2="403.319934227358" y2="290.18284923751" style="stroke:rgb(50,0,199);stroke-width:1.2"/>
<line x1="242.36549072188" y1="403.319934227358" x2="266.274169979695" y2="492.54833995939" style="stroke:rgb(50,0,199);stroke-width:1.2"/>
<line x1="290.18284923751" y1="355.502575711728" x2="379.411254969543" y2="379.411254969543" style="stroke:rgb(50,0,199);stroke-width:1.2"/>
<line x1="403.319934227358" y1="290.18284923751" x2="379.411254969543" y2="379.411254969543" style="stroke:rgb(50,0,199);stroke-width:1.2"/>
<line x1="403.319934227358" y1="290.18284923751" x2="492.54833995939" y2="266.274169979695" style="stroke:rgb(50,0,199);stroke-width:1.2"/>
<line x1="379.411254969543" y1="379.411254969543" x2="355.502575711728" y2="468.639660701576" style="stroke:rgb(50,0,199);stroke-width:1.2"/>
<line x1="379.411254969543" y1="379.411254969543" x2="468.639660701576" y2="403.319934227358" style="stroke:rgb(50,0,199);stroke-width:1.2"/>
<line x1="492.54833995939" y1="266.274169979695" x2="516.457019217205" y2="355.502575711728" style="stroke:rgb(50,0,199);stroke-width:1.2"/>
<line x1="492.54833995939" y1="266.274169979695" x2="581.776745691423" y2="242.36549072188" style="stroke:rgb(50,0,199);stroke-width:1.2"/>
<line x1="516.457019217205" y1="355.502575711728" x2="468.639660701576" y2="403.319934227358" style="stroke:rgb(50,0,199);stroke-width:1.2"/>
<line x1="581.776745691423" y1="242.36549072188" x2="629.594104207053" y2="290.18284923751" style="stroke:rgb(50,0,199);stroke-width:1.2"/>
<line x1="468.639660701576" y1="403.319934227358" x2="492.54833995939" y2="492.54833995939" style="stroke:rgb(50,0,199);stroke-width:1.2"/>
<line x1="516.457019217205" y1="355.502575711728" x2="605.685424949238" y2="379.411254969543" style="stroke:rgb(50,0,199);stroke-width:1.2"/>
<line x1="629.594104207053" y1="290.18284923751" x2="605.685424949238" y2="379.411254969543" style="stroke:rgb(50,0,199);stroke-width:1.2"/>
<line x1="629.594104207053" y1="290.18284923751" x2="718.822509939086" y2="266.274169979695" style="stroke:rgb(50,0,199);stroke-width:1.2"/>
<line x1="605.685424949238" y1="379.411254969543" x2="581.776745691423" y2="468.639660701576" style="stroke:rgb(50,0,199);stroke-width:1.2"/>
<line x1="605.685424949238" y1="379.411254969543" x2="694.913830681271" y2="403.319934227358" style="stroke:rgb(50,0,199);stroke-width:1.2"/>
<line x1="718.822509939086" y1="266.274169979695" x2="742.7311891969" y2="355.502575711728" style="stroke:rgb(50,0,199);stroke-width:1.2"/>
<line x1="718.822509939086" y1="266.274169979695" x2="808.050915671118" y2="242.365490721881" style="stroke:rgb(50,0,199);stroke-width:1.2"/>
<line x1="742.7311891969" y1="355.502575711728" x2="694.913830681271" y2="403.319934227358" style="stroke:rgb(50,0,199);stroke-width:1.2"/>
<line x1="808.050915671118" y1="242.365490721881" x2="855.868274186748" y2="290.18284923751" style="stroke:rgb(50,0,199);stroke-width:1.2"/>
<line x1="694.913830681271" y1="403.319934227358" x2="718.822509939086" y2="492.54833995939" style="stroke:rgb(50,0,199);stroke-width:1.2"/>
<line x1="742.7311891969" y1="355.502575711728" x2="831.959594928933" y2="379.411254969543" style="stroke:rgb(50,0,199);stroke-width:1.2"/>
<line x1="855.868274186748" y1="290.18284923751" x2="831.959594928933" y2="379.411254969543" style="stroke:rgb(50,0,199);stroke-width:1.2"/>
<line x1="855.868274186748" y1="290.18284923751" x2="945.096679918781" y2="266.274169979695" style="stroke:rgb(50,0,199);stroke-width:1.2"/>
<line x1="831.959594928933" y1="379.411254969543" x2="808.050915671118" y2="468.639660701576" style="stroke:rgb(50,0,199);stroke-width:1.2"/>
<line x1="831.959594928933" y1="379.411254969543" x2="921.188000660966" y2="403.319934227358" style="stroke:rgb(50,0,199);stroke-width:1.2"/>
<line x1="945.096679918781" y1="266.274169979695" x2="969.005359176596" y2="355.502575711728" style="stroke:rgb(50,0,199);stroke-width:1.2"/>
<line x1="969.005359176596" y1="355.502575711728" x2="921.188000660966" y2="403.319934227358" style="stroke:rgb(50,0,199);stroke-width:1.2"/>
<line x1="921.188000660966" y1="403.319934227358" x2="945.096679918781" y2="492.54833995939" style="stroke:rgb(50,0,199);stroke-width:1.2"/>
<line x1="40" y1="492.54833995939" x2="63.9086792578147" y2="581.776745691423" style="stroke:rgb(50,0,199);stroke-width:1.2"/>
<line x1="40" y1="492.54833995939" x2="129.228405732033" y2="468.639660701576" style="stroke:rgb(50,0,199);stroke-width:1.2"/>
<line x1="63.9086792578147" y1="581.776745691423" x2="16.0913207421852" y2="629.594104207053" style="stroke:rgb(50,0,199);stroke-width:1.2"/>
<line x1="129.228405732033" y1="468.639660701576" x2="177.045764247662" y2="516.457019217205" style="stroke:rgb(50,0,199);stroke-width:1.2"/>
<line x1="16.0913207421852" y1="629.594104207053" x2="40" y2="718.822509939086" style="stroke:rgb(50,0,199);stroke-width:1.2"/>
<line x1="63.9086792578147" y1="581.776745691423" x2="153.137084989848" y2="605.685424949238" style="stroke:rgb(50,0,199);stroke-width:1.2"/>
<line x1="177.045764247662" y1="516.457019217205" x2="153.137084989848" y2="605.685424949238" style="stroke:rgb(50,0,199);stroke-width:1.2"/>
<line x1="177.045764247662" y1="516.457019217205" x2="266.274169979695" y2="492.54833995939" style="stroke:rgb(50,0,199);stroke-width:1.2"/>
<line x1="153.137084989848" y1="605.685424949238" x2="129.228405732033" y2="694.913830681271" style="stroke:rgb(50,0,199);stroke-width:1.2"/>
<line x1="153.137084989848" y1="605.685424949238" x2="242.36549072188" y2="629.594104207053" style="stroke:rgb(50,0,199);stroke-width:1.2"/>
<line x1="266.274169979695" y1="492.54833995939" x2="290.18284923751" y2="581.776745691423" style="stroke:rgb(50,0,199);stroke-width:1.2"/>
<line x1="266.274169979695" y1="492.54833995939" x2="355.502575711728" y2="468.639660701576" style="stroke:rgb(50,0,199);stroke-width:1.2"/>
<line x1="290.18284923751" y1="581.776745691423" x2="242.36549072188" y2="629.594104207053" style="stroke:rgb(50,0,199);stroke-width:1.2"/>
<line x1="355.502575711728" y1="468.639660701576" x2="403.319934227358" y2="516.457019217205" style="stroke:rgb(50,0,199);stroke-width:1.2"/>
<line x1="242.36549072188" y1="629.594104207053" x2="266.274169979695" y2="718.822509939086" style="stroke:rgb(50,0,199);stroke-width:1.2"/>
<line x1="290.18284923751" y1="581.776745691423" x2="379.411254969543" y2="605.685424949238" style="stroke:rgb(50,0,199);stroke-width:1.2"/>
<line x1="403.319934227358" y1="516.457019217205" x2="379.411254969543" y2="605.685424949238" style="stroke:rgb(50,0,199);stroke-width:1.2"/>
<line x1="403.319934227358" y1="516.457019217205" x2="492.54833995939" y2="492.54833995939" style="stroke:rgb(50,0,199);stroke-width:1.2"/>
<line x1="379.411254969543" y1="605.685424949238" x2="355.502575711728" y2="694.913830681271" style="stroke:rgb(50,0,199);stroke-width:1.2"/>
<line x1="379.411254969543" y1="605.685424949238" x2="468.639660701576" y2="629.594104207053" style="stroke:rgb(50,0,199);stroke-width:1.2"/>
<line x1="492.54833995939" y1="492.54833995939" x2="516.457019217205" y2="581.776745691423" style="stroke:rgb(50,0,199);stroke-width:1.2"/>
<line x1="492.54833995939" y1="492.54833995939" x2="581.776745691423" y2="468.639660701576" style="stroke:rgb(50,0,199);stroke-width:1.2"/>
<line x1="516.457019217205" y1="581.776745691423" x2="468.639660701576" y2="629.594104207053" style="stroke:rgb(50,0,199);stroke-width:1.2"/>
<line x1="581.776745691423" y1="468.639660701576" x2="629.594104207053" y2="516.457019217205" style="stroke:rgb(50,0,199);stroke-width:1.2"/>
<line x1="468.639660701576" y1="629.594104207053" x2="492.54833995939" y2="718.822509939086" style="stroke:rgb(50,0,199);stroke-width:1.2"/>
<line x1="516.457019217205" y1="581.776745691423" x2="605.685424949238" y2="605.685424949238" style="stroke:rgb(50,0,199);stroke-width:1.2"/>
<line x1="629.594104207053" y1="516.457019217205" x2="605.685424949238" y2="605.685424949238" style="stroke:rgb(50,0,199);stroke-width:1.2"/>
<line x1="629.594104207053" y1="516.457019217205" x2="718.822509939086" y2="492.54833995939" style="stroke:rgb(50,0,199);stroke-width:1.2"/>
<line x1="605.685424949238" y1="605.685424949238" x2="581.776745691423" y2="694.913830681271" style="stroke:rgb(50,0,199);stroke-width:1.2"/>
<line x1="605.685424949238" y1="605.685424949238" x2="694.913830681271" y2="629.594104207053" style="stroke:rgb(50,0,199);stroke-width:1.2"/>
<line x1="718.822509939086" y1="492.54833995939" x2="742.7311891969" y2="581.776745691423" style="stroke:rgb(50,0,199);stroke-width:1.2"/>
<line x1="718.822509939086" y1="492.54833995939" x2="808.050915671118" y2="468.639660701576" style="stroke:rgb(50,0,199);stroke-width:1.2"/>
<line x1="742.7311891969" y1="581.776745691423" x2="694.913830681271" y2="629.594104207053" style="stroke:rgb(50,0,199);stroke-width:1.2"/>
<line x1="808.050915671118" y1="468.639660701576" x2="855.868274186748" y2="516.457019217205" style="stroke:rgb(50,0,199);stroke-width:1.2"/>
<line x1="694.913830681271" y1="629.594104207053" x2="718.822509939086" y2="718.822509939086" style="stroke:rgb(50,0,199);stroke-width:1.2"/>
<line x1="742.7311891969" y1="581.776745691423" x2="831.959594928933" y2="605.685424949238" style="stroke:rgb(50,0,199);stroke-width:1.2"/>
<line x1="855.868274186748" y1="516.457019217205" x2="831.959594928933" y2="605.685424949238" style="stroke:rgb(50,0,199);stroke-width:1.2"/>
<line x1="855.868274186748" y1="516.457019217205" x2="945.096679918781" y2="492.54833995939" style="stroke:rgb(50,0,199);stroke-width:1.2"/>
<line x1="831.959594928933" y1="605.685424949238" x2="808.050915671118" y2="694.913830681271" style="stroke:rgb(50,0,199);stroke-width:1.2"/>
<line x1="831.959594928933" y1="605.685424949238" x2="921.188000660966" y2="629.594104207053" style="stroke:rgb(50,0,199);stroke-width:1.2"/>
<line x1="945.096679918781" y1="492.54833995939" x2="969.005359176596" y2="581.776745691423" style="stroke:rgb(50,0,199);stroke-width:1.2"/>
<line x1="969.005359176596" y1="581.776745691423" x2="921.188000660966" y2="629.594104207053" style="stroke:rgb(50,0,199);stroke-width:1.2"/>
<line x1="921.188000660966" y1="629.594104207053" x2="945.096679918781" y2="718.822509939086" style="stroke:rgb(50,0,199);stroke-width:1.2"/>
<line x1="40" y1="718.822509939086" x2="129.228405732033" y2="694.913830681271" style="stroke:rgb(50,0,199);stroke-width:1.2"/>
<line x1="129.228405732033" y1="694.913830681271" x2="177.045764247662" y2="742.7311891969" style="stroke:rgb(50,0,199);stroke-width:1.2"/>
<line x1="177.045764247662" y1="742.7311891969" x2="266.274169979695" y2="718.822509939086" style="stroke:rgb(50,0,199);stroke-width:1.2"/>
<line x1="266.274169979695" y1="718.822509939086" x2="355.502575711728" y2="694.913830681271" style="stroke:rgb(50,0,199);stroke-width:1.2"/>
<line x1="355.502575711728" y1="694.913830681271" x2="403.319934227358" y2="742.7311891969" style="stroke:rgb(50,0,199);stroke-width:1.2"/>
<line x1="403.319934227358" y1="742.7311891969" x2="492.54833995939" y2="718.822509939086" style="stroke:rgb(50,0,199);stroke-width:1.2"/>
<line x1="492.54833995939" y1="718.822509939086" x2="581.776745691423" y2="694.913830681271" style="stroke:rgb(50,0,199);stroke-width:1.2"/>
<line x1="581.776745691423" y1="694.913830681271" x2="629.594104207053" y2="742.7311891969" style="stroke:rgb(50,0,199);stroke-width:1.2"/>
<line x1="629.594104207053" y1="742.7311891969" x2="718.822509939086" y2="718.822509939086" style="stroke:rgb(50,0,199);stroke-width:1.2"/>
<line x1="718.822509939086" y1="718.822509939086" x2="808.050915671118" y2="694.913830681271" style="stroke:rgb(50,0,199);stroke-width:1.2"/>
<line x1="808.050915671118" y1="694.913830681271" x2="855.868274186748" y2="742.7311891969" style="stroke:rgb(50,0,199);stroke-width:1.2"/>
<line x1="855.868274186748" y1="742.7311891969" x2="945.096679918781" y2="718.822509939086" style="stroke:rgb(50,0,199);stroke-width:1.2"/>
</svg>
