<?xml version="1.0" standalone="no"?> <!DOCTYPE svg PUBLIC "-//W3C//DTD SVG 1.1//EN" "http://www.w3.org/Graphics/SVG/1.1/DTD/svg11.dtd">
<svg width="2000" height="2000" version="1.1" xmlns="http://www.w3.org/2000/svg">
<line x1="1.5" y1="1.5" x2="111.307621135332" y2="1.5" style="stroke:rgb(50,50,50);stroke-width:1.2;fill:none"/>
<line x1="1.5" y1="1.5" x2="56.4038105676658" y2="96.5961894323342" style="stroke:rgb(50,50,50);stroke-width:1.2;fill:none"/>
<line x1="111.307621135332" y1="1.5" x2="56.4038105676658" y2="96.5961894323342" style="stroke:rgb(50,50,50);stroke-width:1.2;fill:none"/>
<line x1="56.4038105676658" y1="96.5961894323342" x2="166.211431702997" y2="96.5961894323342" style="stroke:rgb(50,50,50);stroke-width:1.2;fill:none"/>
<line x1="56.4038105676658" y1="96.5961894323342" x2="111.307621135332" y2="191.692378864668" style="stroke:rgb(50,50,50);stroke-width:1.2;fill:none"/>
<line x1="56.4038105676658" y1="96.5961894323342" x2="1.50000000000003" y2="191.692378864668" style="stroke:rgb(50,50,50);stroke-width:1.2;fill:none"/>
<line x1="1.50000000000003" y1="191.692378864668" x2="111.307621135332" y2="191.692378864668" style="stroke:rgb(50,50,50);stroke-width:1.2;fill:none"/>
<line x1="1.50000000000003" y1="191.692378864668" x2="56.4038105676658" y2="286.788568297003" style="stroke:rgb(50,50,50);stroke-width:1.2;fill:none"/>
<line x1="111.307621135332" y1="191.692378864668" x2="56.4038105676658" y2="286.788568297003" style="stroke:rgb(50,50,50);stroke-width:1.2;fill:none"/>
<line x1="56.4038105676658" y1="286.788568297003" x2="166.211431702997" y2="286.788568297003" style="stroke:rgb(50,50,50);stroke-width:1.2;fill:none"/>
<line x1="56.4038105676658" y1="286.788568297003" x2="111.307621135332" y2="381.884757729337" style="stroke:rgb(50,50,50);stroke-width:1.2;fill:none"/>
<line x1="56.4038105676658" y1="286.788568297003" x2="1.50000000000006" y2="381.884757729337" style="stroke:rgb(50,50,50);stroke-width:1.2;fill:none"/>
<line x1="1.50000000000006" y1="381.884757729337" x2="111.307621135332" y2="381.884757729337" style="stroke:rgb(50,50,50);stroke-width:1.2;fill:none"/>
<line x1="1.50000000000006" y1="381.884757729337" x2="56.4038105676659" y2="476.980947161671" style="stroke:rgb(50,50,50);stroke-width:1.2;fill:none"/>
<line x1="111.307621135332" y1="381.884757729337" x2="56.4038105676659" y2="476.980947161671" style="stroke:rgb(50,50,50);stroke-width:1.2;fill:none"/>
<line x1="56.4038105676659" y1="476.980947161671" x2="166.211431702997" y2="476.980947161671" style="stroke:rgb(50,50,50);stroke-width:1.2;fill:none"/>
<line x1="56.4038105676659" y1="476.980947161671" x2="111.307621135332" y2="572.077136594005" style="stroke:rgb(50,50,50);stroke-width:1.2;fill:none"/>
<line x1="56.4038105676659" y1="476.980947161671" x2="1.50000000000009" y2="572.077136594005" style="stroke:rgb(50,50,50);stroke-width:1.2;fill:none"/>
<line x1="1.50000000000009" y1="572.077136594005" x2="111.307621135332" y2="572.077136594005" style="stroke:rgb(50,50,50);stroke-width:1.2;fill:none"/>
<line x1="111.307621135332" y1="1.5" x2="221.115242270663" y2="1.5" style="stroke:rgb(50,50,50);stroke-width:1.2;fill:none"/>
<line x1="111.307621135332" y1="1.5" x2="166.211431702997" y2="96.5961894323342" style="stroke:rgb(50,50,50);stroke-width:1.2;fill:none"/>
<line x1="221.115242270663" y1="1.5" x2="166.211431702997" y2="96.5961894323342" style="stroke:rgb(50,50,50);stroke-width:1.2;fill:none"/>
<line x1="166.211431702997" y1="96.5961894323342" x2="276.019052838329" y2="96.5961894323342" style="stroke:rgb(50,50,50);stroke-width:1.2;fill:none"/>
<line x1="166.211431702997" y1="96.5961894323342" x2="221.115242270663" y2="191.692378864668" style="stroke:rgb(50,50,50);stroke-width:1.2;fill:none"/>
<line x1="166.211431702997" y1="96.5961894323342" x2="111.307621135332" y2="191.692378864668" style="stroke:rgb(50,50,50);stroke-width:1.2;fill:none"/>
<line x1="111.307621135332" y1="191.692378864668" x2="221.115242270663" y2="191.692378864668" style="stroke:rgb(50,50,50);stroke-width:1.2;fill:none"/>
<line x1="111.307621135332" y1="191.692378864668" x2="166.211431702997" y2="286.788568297003" style="stroke:rgb(50,50,50);stroke-width:1.2;fill:none"/>
<line x1="221.115242270663" y1="191.692378864668" x2="166.211431702997" y2="286.788568297003" style="stroke:rgb(50,50,50);stroke-width:1.2;fill:none"/>
<line x1="166.211431702997" y1="286.788568297003" x2="276.019052838329" y2="286.788568297003" style="stroke:rgb(50,50,50);stroke-width:1.2;fill:none"/>
<line x1="166.211431702997" y1="286.788568297003" x2="221.115242270663" y2="381.884757729337" style="stroke:rgb(50,50,50);stroke-width:1.2;fill:none"/>
<line x1="166.211431702997" y1="286.788568297003" x2="111.307621135332" y2="381.884757729337" style="stroke:rgb(50,50,50);stroke-width:1.2;fill:none"/>
<line x1="111.307621135332" y1="381.884757729337" x2="221.115242270663" y2="381.884757729337" style="stroke:rgb(50,50,50);stroke-width:1.2;fill:none"/>
<line x1="111.307621135332" y1="381.884757729337" x2="166.211431702997" y2="476.980947161671" style="stroke:rgb(50,50,50);stroke-width:1.2;fill:none"/>
<line x1="221.115242270663" y1="381.884757729337" x2="166.211431702997" y2="476.980947161671" style="stroke:rgb(50,50,50);stroke-width:1.2;fill:none"/>
<line x1="166.211431702997" y1="476.980947161671" x2="276.019052838329" y2="476.980947161671" style="stroke:rgb(50,50,50);stroke-width:1.2;fill:none"/>
<line x1="166.211431702997" y1="476.980947161671" x2="221.115242270663" y2="572.077136594005" style="stroke:rgb(50,50,50);stroke-width:1.2;fill:none"/>
<line x1="166.211431702997" y1="476.980947161671" x2="111.307621135332" y2="572.077136594005" style="stroke:rgb(50,50,50);stroke-width:1.2;fill:none"/>
<line x1="111.307621135332" y1="572.077136594005" x2="221.115242270663" y2="572.077136594005" style="stroke:rgb(50,50,50);stroke-width:1.2;fill:none"/>
<line x1="221.115242270663" y1="1.5" x2="330.922863405995" y2="1.5" style="stroke:rgb(50,50,50);stroke-width:1.2;fill:none"/>
<line x1="221.115242270663" y1="1.5" x2="276.019052838329" y2="96.5961894323342" style="stroke:rgb(50,50,50);stroke-width:1.2;fill:none"/>
<line x1="330.922863405995" y1="1.5" x2="276.019052838329" y2="96.5961894323342" style="stroke:rgb(50,50,50);stroke-width:1.2;fill:none"/>
<line x1="276.019052838329" y1="96.5961894323342" x2="385.826673973661" y2="96.5961894323342" style="stroke:rgb(50,50,50);stroke-width:1.2;fill:none"/>
<line x1="276.019052838329" y1="96.5961894323342" x2="330.922863405995" y2="191.692378864668" style="stroke:rgb(50,50,50);stroke-width:1.2;fill:none"/>
<line x1="276.019052838329" y1="96.5961894323342" x2="221.115242270663" y2="191.692378864668" style="stroke:rgb(50,50,50);stroke-width:1.2;fill:none"/>
<line x1="221.115242270663" y1="191.692378864668" x2="330.922863405995" y2="191.692378864668" style="stroke:rgb(50,50,50);stroke-width:1.2;fill:none"/>
<line x1="221.115242270663" y1="191.692378864668" x2="276.019052838329" y2="286.788568297003" style="stroke:rgb(50,50,50);stroke-width:1.2;fill:none"/>
<line x1="330.922863405995" y1="191.692378864668" x2="276.019052838329" y2="286.788568297003" style="stroke:rgb(50,50,50);stroke-width:1.2;fill:none"/>
<line x1="276.019052838329" y1="286.788568297003" x2="385.826673973661" y2="286.788568297003" style="stroke:rgb(50,50,50);stroke-width:1.2;fill:none"/>
<line x1="276.019052838329" y1="286.788568297003" x2="330.922863405995" y2="381.884757729337" style="stroke:rgb(50,50,50);stroke-width:1.2;fill:none"/>
<line x1="276.019052838329" y1="286.788568297003" x2="221.115242270663" y2="381.884757729337" style="stroke:rgb(50,50,50);stroke-width:1.2;fill:none"/>
<line x1="221.115242270663" y1="381.884757729337" x2="330.922863405995" y2="381.884757729337" style="stroke:rgb(50,50,50);stroke-width:1.2;fill:none"/>
<line x1="221.115242270663" y1="381.884757729337" x2="276.019052838329" y2="476.980947161671" style="stroke:rgb(50,50,50);stroke-width:1.2;fill:none"/>
<line x1="330.922863405995" y1="381.884757729337" x2="276.019052838329" y2="476.980947161671" style="stroke:rgb(50,50,50);stroke-width:1.2;fill:none"/>
<line x1="276.019052838329" y1="476.980947161671" x2="385.826673973661" y2="476.980947161671" style="stroke:rgb(50,50,50);stroke-width:1.2;fill:none"/>
<line x1="276.019052838329" y1="476.980947161671" x2="330.922863405995" y2="572.077136594005" style="stroke:rgb(50,50,50);stroke-width:1.2;fill:none"/>
<line x1="276.019052838329" y1="476.980947161671" x2="221.115242270663" y2="572.077136594005" style="stroke:rgb(50,50,50);stroke-width:1.2;fill:none"/>
<line x1="221.115242270663" y1="572.077136594005" x2="330.922863405995" y2="572.077136594005" style="stroke:rgb(50,50,50);stroke-width:1.2;fill:none"/>
<line x1="330.922863405995" y1="1.5" x2="440.730484541326" y2="1.5" style="stroke:rgb(50,50,50);stroke-width:1.2;fill:none"/>
<line x1="330.922863405995" y1="1.5" x2="385.826673973661" y2="96.5961894323342" style="stroke:rgb(50,50,50);stroke-width:1.2;fill:none"/>
<line x1="440.730484541326" y1="1.5" x2="385.826673973661" y2="96.5961894323342" style="stroke:rgb(50,50,50);stroke-width:1.2;fill:none"/>
<line x1="385.826673973661" y1="96.5961894323342" x2="495.634295108992" y2="96.5961894323342" style="stroke:rgb(50,50,50);stroke-width:1.2;fill:none"/>
<line x1="385.826673973661" y1="96.5961894323342" x2="440.730484541326" y2="191.692378864668" style="stroke:rgb(50,50,50);stroke-width:1.2;fill:none"/>
<line x1="385.826673973661" y1="96.5961894323342" x2="330.922863405995" y2="191.692378864668" style="stroke:rgb(50,50,50);stroke-width:1.2;fill:none"/>
<line x1="330.922863405995" y1="191.692378864668" x2="440.730484541326" y2="191.692378864668" style="stroke:rgb(50,50,50);stroke-width:1.2;fill:none"/>
<line x1="330.922863405995" y1="191.692378864668" x2="385.826673973661" y2="286.788568297003" style="stroke:rgb(50,50,50);stroke-width:1.2;fill:none"/>
<line x1="440.730484541326" y1="191.692378864668" x2="385.826673973661" y2="286.788568297003" style="stroke:rgb(50,50,50);stroke-width:1.2;fill:none"/>
<line x1="385.826673973661" y1="286.788568297003" x2="495.634295108992" y2="286.788568297003" style="stroke:rgb(50,50,50);stroke-width:1.2;fill:none"/>
<line x1="385.826673973661" y1="286.788568297003" x2="440.730484541326" y2="381.884757729337" style="stroke:rgb(50,50,50);stroke-width:1.2;fill:none"/>
<line x1="385.826673973661" y1="286.788568297003" x2="330.922863405995" y2="381.884757729337" style="stroke:rgb(50,50,50);stroke-width:1.2;fill:none"/>
<line x1="330.922863405995" y1="381.884757729337" x2="440.730484541326" y2="381.884757729337" style="stroke:rgb(50,50,50);stroke-width:1.2;fill:none"/>
<line x1="330.922863405995" y1="381.884757729337" x2="385.826673973661" y2="476.980947161671" style="stroke:rgb(50,50,50);stroke-width:1.2;fill:none"/>
<line x1="440.730484541326" y1="381.884757729337" x2="385.826673973661" y2="476.980947161671" style="stroke:rgb(50,50,50);stroke-width:1.2;fill:none"/>
<line x1="385.826673973661" y1="476.980947161671" x2="495.634295108992" y2="476.980947161671" style="stroke:rgb(50,50,50);stroke-width:1.2;fill:none"/>
<line x1="385.826673973661" y1="476.980947161671" x2="440.730484541326" y2="572.077136594005" style="stroke:rgb(50,50,50);stroke-width:1.2;fill:none"/>
<line x1="385.826673973661" y1="476.980947161671" x2="330.922863405995" y2="572.077136594005" style="stroke:rgb(50,50,50);stroke-width:1.2;fill:none"/>
<line x1="330.922863405995" y1="572.077136594005" x2="440.730484541326" y2="572.077136594005" style="stroke:rgb(50,50,50);stroke-width:1.2;fill:none"/>
<line x1="440.730484541326" y1="1.5" x2="550.538105676658" y2="1.5" style="stroke:rgb(50,50,50);stroke-width:1.2;fill:none"/>
<line x1="440.730484541326" y1="1.5" x2="495.634295108992" y2="96.5961894323342" style="stroke:rgb(50,50,50);stroke-width:1.2;fill:none"/>
<line x1="550.538105676658" y1="1.5" x2="495.634295108992" y2="96.5961894323342" style="stroke:rgb(50,50,50);stroke-width:1.2;fill:none"/>
<line x1="495.634295108992" y1="96.5961894323342" x2="605.441916244324" y2="96.5961894323342" style="stroke:rgb(50,50,50);stroke-width:1.2;fill:none"/>
<line x1="495.634295108992" y1="96.5961894323342" x2="550.538105676658" y2="191.692378864668" style="stroke:rgb(50,50,50);stroke-width:1.2;fill:none"/>
<line x1="495.634295108992" y1="96.5961894323342" x2="440.730484541326" y2="191.692378864668" style="stroke:rgb(50,50,50);stroke-width:1.2;fill:none"/>
<line x1="440.730484541326" y1="191.692378864668" x2="550.538105676658" y2="191.692378864668" style="stroke:rgb(50,50,50);stroke-width:1.2;fill:none"/>
<line x1="440.730484541326" y1="191.692378864668" x2="495.634295108992" y2="286.788568297003" style="stroke:rgb(50,50,50);stroke-width:1.2;fill:none"/>
<line x1="550.538105676658" y1="191.692378864668" x2="495.634295108992" y2="286.788568297003" style="stroke:rgb(50,50,50);stroke-width:1.2;fill:none"/>
<line x1="495.634295108992" y1="286.788568297003" x2="605.441916244324" y2="286.788568297003" style="stroke:rgb(50,50,50);stroke-width:1.2;fill:none"/>
<line x1="495.634295108992" y1="286.788568297003" x2="550.538105676658" y2="381.884757729337" style="stroke:rgb(50,50,50);stroke-width:1.2;fill:none"/>
<line x1="495.634295108992" y1="286.788568297003" x2="440.730484541326" y2="381.884757729337" style="stroke:rgb(50,50,50);stroke-width:1.2;fill:none"/>
<line x1="440.730484541326" y1="381.884757729337" x2="550.538105676658" y2="381.884757729337" style="stroke:rgb(50,50,50);stroke-width:1.2;fill:none"/>
<line x1="440.730484541326" y1="381.884757729337" x2="495.634295108992" y2="476.980947161671" style="stroke:rgb(50,50,50);stroke-width:1.2;fill:none"/>
<line x1="550.538105676658" y1="381.884757729337" x2="495.634295108992" y2="476.980947161671" style="stroke:rgb(50,50,50);stroke-width:1.2;fill:none"/>
<line x1="495.634295108992" y1="476.980947161671" x2="605.441916244324" y2="476.980947161671" style="stroke:rgb(50,50,50);stroke-width:1.2;fill:none"/>
<line x1="495.634295108992" y1="476.980947161671" x2="550.538105676658" y2="572.077136594005" style="stroke:rgb(50,50,50);stroke-width:1.2;fill:none"/>
<line x1="495.634295108992" y1="476.980947161671" x2="440.730484541326" y2="572.077136594005" style="stroke:rgb(50,50,50);stroke-width:1.2;fill:none"/>
<line x1="440.730484541326" y1="572.077136594005" x2="550.538105676658" y2="572.077136594005" style="stroke:rgb(50,50,50);stroke-width:1.2;fill:none"/>
<line x1="550.538105676658" y1="1.5" x2="605.441916244324" y2="96.5961894323342" style="stroke:rgb(50,50,50);stroke-width:1.2;fill:none"/>
<line x1="605.441916244324" y1="96.5961894323342" x2="550.538105676658" y2="191.692378864668" style="stroke:rgb(50,50,50);stroke-width:1.2;fill:none"/>
<line x1="550.538105676658" y1="191.692378864668" x2="605.441916244324" y2="286.788568297003" style="stroke:rgb(50,50,50);stroke-width:1.2;fill:none"/>
<line x1="605.441916244324" y1="286.788568297003" x2="550.538105676658" y2="381.884757729337" style="stroke:rgb(50,50,50);stroke-width:1.2;fill:none"/>
<line x1="550.538105676658" y1="381.884757729337" x2="605.441916244324" y2="476.980947161671" style="stroke:rgb(50,50,50);stroke-width:1.2;fill:none"/>
<line x1="605.441916244324" y1="476.980947161671" x2="550.538105676658" y2="572.077136594005" style="stroke:rgb(50,50,50);stroke-width:1.2;fill:none"/>
</svg>
