<?xml version="1.0" standalone="no"?> <!DOCTYPE svg PUBLIC "-//W3C//DTD SVG 1.1//EN" "http://www.w3.org/Graphics/SVG/1.1/DTD/svg11.dtd">
<svg width="2000" height="2000" version="1.1" xmlns="http://www.w3.org/2000/svg">
<line x1="1.44" y1="1.44" x2="106.855316289918" y2="1.44" style="stroke:rgb(50,0,199);stroke-width:1.2"/>
<line x1="1.44" y1="1.44" x2="54.1476581449592" y2="92.7323418550408" style="stroke:rgb(50,0,199);stroke-width:1.2"/>
<line x1="106.855316289918" y1="1.44" x2="54.1476581449592" y2="92.7323418550408" style="stroke:rgb(50,0,199);stroke-width:1.2"/>
<line x1="54.1476581449592" y1="92.7323418550408" x2="159.562974434878" y2="92.7323418550408" style="stroke:rgb(50,0,199);stroke-width:1.2"/>
<line x1="54.1476581449592" y1="92.7323418550408" x2="106.855316289918" y2="184.024683710082" style="stroke:rgb(50,0,199);stroke-width:1.2"/>
<line x1="54.1476581449592" y1="92.7323418550408" x2="1.44000000000003" y2="184.024683710082" style="stroke:rgb(50,0,199);stroke-width:1.2"/>
<line x1="1.44000000000003" y1="184.024683710082" x2="106.855316289918" y2="184.024683710082" style="stroke:rgb(50,0,199);stroke-width:1.2"/>
<line x1="1.44000000000003" y1="184.024683710082" x2="54.1476581449592" y2="275.317025565122" style="stroke:rgb(50,0,199);stroke-width:1.2"/>
<line x1="106.855316289918" y1="184.024683710082" x2="54.1476581449592" y2="275.317025565122" style="stroke:rgb(50,0,199);stroke-width:1.2"/>
<line x1="54.1476581449592" y1="275.317025565122" x2="159.562974434878" y2="275.317025565122" style="stroke:rgb(50,0,199);stroke-width:1.2"/>
<line x1="54.1476581449592" y1="275.317025565122" x2="106.855316289918" y2="366.609367420163" style="stroke:rgb(50,0,199);stroke-width:1.2"/>
<line x1="54.1476581449592" y1="275.317025565122" x2="1.44000000000006" y2="366.609367420163" style="stroke:rgb(50,0,199);stroke-width:1.2"/>
<line x1="1.44000000000006" y1="366.609367420163" x2="106.855316289918" y2="366.609367420163" style="stroke:rgb(50,0,199);stroke-width:1.2"/>
<line x1="1.44000000000006" y1="366.609367420163" x2="54.1476581449592" y2="457.901709275204" style="stroke:rgb(50,0,199);stroke-width:1.2"/>
<line x1="106.855316289918" y1="366.609367420163" x2="54.1476581449592" y2="457.901709275204" style="stroke:rgb(50,0,199);stroke-width:1.2"/>
<line x1="54.1476581449592" y1="457.901709275204" x2="159.562974434878" y2="457.901709275204" style="stroke:rgb(50,0,199);stroke-width:1.2"/>
<line x1="54.1476581449592" y1="457.901709275204" x2="106.855316289918" y2="549.194051130245" style="stroke:rgb(50,0,199);stroke-width:1.2"/>
<line x1="54.1476581449592" y1="457.901709275204" x2="1.44000000000009" y2="549.194051130245" style="stroke:rgb(50,0,199);stroke-width:1.2"/>
<line x1="1.44000000000009" y1="549.194051130245" x2="106.855316289918" y2="549.194051130245" style="stroke:rgb(50,0,199);stroke-width:1.2"/>
<line x1="1.44000000000009" y1="549.194051130245" x2="54.1476581449593" y2="640.486392985286" style="stroke:rgb(50,0,199);stroke-width:1.2"/>
<line x1="106.855316289918" y1="549.194051130245" x2="54.1476581449593" y2="640.486392985286" style="stroke:rgb(50,0,199);stroke-width:1.2"/>
<line x1="54.1476581449593" y1="640.486392985286" x2="159.562974434878" y2="640.486392985286" style="stroke:rgb(50,0,199);stroke-width:1.2"/>
<line x1="54.1476581449593" y1="640.486392985286" x2="106.855316289918" y2="731.778734840327" style="stroke:rgb(50,0,199);stroke-width:1.2"/>
<line x1="54.1476581449593" y1="640.486392985286" x2="1.44000000000011" y2="731.778734840327" style="stroke:rgb(50,0,199);stroke-width:1.2"/>
<line x1="1.44000000000011" y1="731.778734840327" x2="106.855316289918" y2="731.778734840327" style="stroke:rgb(50,0,199);stroke-width:1.2"/>
<line x1="1.44000000000011" y1="731.778734840327" x2="54.1476581449593" y2="823.071076695367" style="stroke:rgb(50,0,199);stroke-width:1.2"/>
<line x1="106.855316289918" y1="731.778734840327" x2="54.1476581449593" y2="823.071076695367" style="stroke:rgb(50,0,199);stroke-width:1.2"/>
<line x1="54.1476581449593" y1="823.071076695367" x2="159.562974434878" y2="823.071076695367" style="stroke:rgb(50,0,199);stroke-width:1.2"/>
<line x1="54.1476581449593" y1="823.071076695367" x2="106.855316289918" y2="914.363418550408" style="stroke:rgb(50,0,199);stroke-width:1.2"/>
<line x1="54.1476581449593" y1="823.071076695367" x2="1.44000000000014" y2="914.363418550408" style="stroke:rgb(50,0,199);stroke-width:1.2"/>
<line x1="1.44000000000014" y1="914.363418550408" x2="106.855316289918" y2="914.363418550408" style="stroke:rgb(50,0,199);stroke-width:1.2"/>
<line x1="1.44000000000014" y1="914.363418550408" x2="54.1476581449593" y2="1005.65576040545" style="stroke:rgb(50,0,199);stroke-width:1.2"/>
<line x1="106.855316289918" y1="914.363418550408" x2="54.1476581449593" y2="1005.65576040545" style="stroke:rgb(50,0,199);stroke-width:1.2"/>
<line x1="54.1476581449593" y1="1005.65576040545" x2="159.562974434878" y2="1005.65576040545" style="stroke:rgb(50,0,199);stroke-width:1.2"/>
<line x1="54.1476581449593" y1="1005.65576040545" x2="106.855316289918" y2="1096.94810226049" style="stroke:rgb(50,0,199);stroke-width:1.2"/>
<line x1="54.1476581449593" y1="1005.65576040545" x2="1.44000000000017" y2="1096.94810226049" style="stroke:rgb(50,0,199);stroke-width:1.2"/>
<line x1="1.44000000000017" y1="1096.94810226049" x2="106.855316289918" y2="1096.94810226049" style="stroke:rgb(50,0,199);stroke-width:1.2"/>
<line x1="1.44000000000017" y1="1096.94810226049" x2="54.1476581449593" y2="1188.24044411553" style="stroke:rgb(50,0,199);stroke-width:1.2"/>
<line x1="106.855316289918" y1="1096.94810226049" x2="54.1476581449593" y2="1188.24044411553" style="stroke:rgb(50,0,199);stroke-width:1.2"/>
<line x1="54.1476581449593" y1="1188.24044411553" x2="159.562974434878" y2="1188.24044411553" style="stroke:rgb(50,0,199);stroke-width:1.2"/>
<line x1="54.1476581449593" y1="1188.24044411553" x2="106.855316289919" y2="1279.53278597057" style="stroke:rgb(50,0,199);stroke-width:1.2"/>
<line x1="54.1476581449593" y1="1188.24044411553" x2="1.4400000000002" y2="1279.53278597057" style="stroke:rgb(50,0,199);stroke-width:1.2"/>
<line x1="1.4400000000002" y1="1279.53278597057" x2="106.855316289919" y2="1279.53278597057" style="stroke:rgb(50,0,199);stroke-width:1.2"/>
<line x1="106.855316289918" y1="1.44" x2="212.270632579837" y2="1.44" style="stroke:rgb(50,0,199);stroke-width:1.2"/>
<line x1="106.855316289918" y1="1.44" x2="159.562974434878" y2="92.7323418550408" style="stroke:rgb(50,0,199);stroke-width:1.2"/>
<line x1="212.270632579837" y1="1.44" x2="159.562974434878" y2="92.7323418550408" style="stroke:rgb(50,0,199);stroke-width:1.2"/>
<line x1="159.562974434878" y1="92.7323418550408" x2="264.978290724796" y2="92.7323418550408" style="stroke:rgb(50,0,199);stroke-width:1.2"/>
<line x1="159.562974434878" y1="92.7323418550408" x2="212.270632579837" y2="184.024683710082" style="stroke:rgb(50,0,199);stroke-width:1.2"/>
<line x1="159.562974434878" y1="92.7323418550408" x2="106.855316289918" y2="184.024683710082" style="stroke:rgb(50,0,199);stroke-width:1.2"/>
<line x1="106.855316289918" y1="184.024683710082" x2="212.270632579837" y2="184.024683710082" style="stroke:rgb(50,0,199);stroke-width:1.2"/>
<line x1="106.855316289918" y1="184.024683710082" x2="159.562974434878" y2="275.317025565122" style="stroke:rgb(50,0,199);stroke-width:1.2"/>
<line x1="212.270632579837" y1="184.024683710082" x2="159.562974434878" y2="275.317025565122" style="stroke:rgb(50,0,199);stroke-width:1.2"/>
<line x1="159.562974434878" y1="275.317025565122" x2="264.978290724796" y2="275.317025565122" style="stroke:rgb(50,0,199);stroke-width:1.2"/>
<line x1="159.562974434878" y1="275.317025565122" x2="212.270632579837" y2="366.609367420163" style="stroke:rgb(50,0,199);stroke-width:1.2"/>
<line x1="159.562974434878" y1="275.317025565122" x2="106.855316289918" y2="366.609367420163" style="stroke:rgb(50,0,199);stroke-width:1.2"/>
<line x1="106.855316289918" y1="366.609367420163" x2="212.270632579837" y2="366.609367420163" style="stroke:rgb(50,0,199);stroke-width:1.2"/>
<line x1="106.855316289918" y1="366.609367420163" x2="159.562974434878" y2="457.901709275204" style="stroke:rgb(50,0,199);stroke-width:1.2"/>
<line x1="212.270632579837" y1="366.609367420163" x2="159.562974434878" y2="457.901709275204" style="stroke:rgb(50,0,199);stroke-width:1.2"/>
<line x1="159.562974434878" y1="457.901709275204" x2="264.978290724796" y2="457.901709275204" style="stroke:rgb(50,0,199);stroke-width:1.2"/>
<line x1="159.562974434878" y1="457.901709275204" x2="212.270632579837" y2="549.194051130245" style="stroke:rgb(50,0,199);stroke-width:1.2"/>
<line x1="159.562974434878" y1="457.901709275204" x2="106.855316289918" y2="549.194051130245" style="stroke:rgb(50,0,199);stroke-width:1.2"/>
<line x1="106.855316289918" y1="549.194051130245" x2="212.270632579837" y2="549.194051130245" style="stroke:rgb(50,0,199);stroke-width:1.2"/>
<line x1="106.855316289918" y1="549.194051130245" x2="159.562974434878" y2="640.486392985286" style="stroke:rgb(50,0,199);stroke-width:1.2"/>
<line x1="212.270632579837" y1="549.194051130245" x2="159.562974434878" y2="640.486392985286" style="stroke:rgb(50,0,199);stroke-width:1.2"/>
<line x1="159.562974434878" y1="640.486392985286" x2="264.978290724796" y2="640.486392985286" style="stroke:rgb(50,0,199);stroke-width:1.2"/>
<line x1="159.562974434878" y1="640.486392985286" x2="212.270632579837" y2="731.778734840327" style="stroke:rgb(50,0,199);stroke-width:1.2"/>
<line x1="159.562974434878" y1="640.486392985286" x2="106.855316289918" y2="731.778734840327" style="stroke:rgb(50,0,199);stroke-width:1.2"/>
<line x1="106.855316289918" y1="731.778734840327" x2="212.270632579837" y2="731.778734840327" style="stroke:rgb(50,0,199);stroke-width:1.2"/>
<line x1="106.855316289918" y1="731.778734840327" x2="159.562974434878" y2="823.071076695367" style="stroke:rgb(50,0,199);stroke-width:1.2"/>
<line x1="212.270632579837" y1="731.778734840327" x2="159.562974434878" y2="823.071076695367" style="stroke:rgb(50,0,199);stroke-width:1.2"/>
<line x1="159.562974434878" y1="823.071076695367" x2="264.978290724796" y2="823.071076695367" style="stroke:rgb(50,0,199);stroke-width:1.2"/>
<line x1="159.562974434878" y1="823.071076695367" x2="212.270632579837" y2="914.363418550408" style="stroke:rgb(50,0,199);stroke-width:1.2"/>
<line x1="159.562974434878" y1="823.071076695367" x2="106.855316289918" y2="914.363418550408" style="stroke:rgb(50,0,199);stroke-width:1.2"/>
<line x1="106.855316289918" y1="914.363418550408" x2="212.270632579837" y2="914.363418550408" style="stroke:rgb(50,0,199);stroke-width:1.2"/>
<line x1="106.855316289918" y1="914.363418550408" x2="159.562974434878" y2="1005.65576040545" style="stroke:rgb(50,0,199);stroke-width:1.2"/>
<line x1="212.270632579837" y1="914.363418550408" x2="159.562974434878" y2="1005.65576040545" style="stroke:rgb(50,0,199);stroke-width:1.2"/>
<line x1="159.562974434878" y1="1005.65576040545" x2="264.978290724796" y2="1005.65576040545" style="stroke:rgb(50,0,199);stroke-width:1.2"/>
<line x1="159.562974434878" y1="1005.65576040545" x2="212.270632579837" y2="1096.94810226049" style="stroke:rgb(50,0,199);stroke-width:1.2"/>
<line x1="159.562974434878" y1="1005.65576040545" x2="106.855316289918" y2="1096.94810226049" style="stroke:rgb(50,0,199);stroke-width:1.2"/>
<line x1="106.855316289918" y1="1096.94810226049" x2="212.270632579837" y2="1096.94810226049" style="stroke:rgb(50,0,199);stroke-width:1.2"/>
<line x1="106.855316289918" y1="1096.94810226049" x2="159.562974434878" y2="1188.24044411553" style="stroke:rgb(50,0,199);stroke-width:1.2"/>
<line x1="212.270632579837" y1="1096.94810226049" x2="159.562974434878" y2="1188.24044411553" style="stroke:rgb(50,0,199);stroke-width:1.2"/>
<line x1="159.562974434878" y1="1188.24044411553" x2="264.978290724796" y2="1188.24044411553" style="stroke:rgb(50,0,199);stroke-width:1.2"/>
<line x1="159.562974434878" y1="1188.24044411553" x2="212.270632579837" y2="1279.53278597057" style="stroke:rgb(50,0,199);stroke-width:1.2"/>
<line x1="159.562974434878" y1="1188.24044411553" x2="106.855316289919" y2="1279.53278597057" style="stroke:rgb(50,0,199);stroke-width:1.2"/>
<line x1="106.855316289919" y1="1279.53278597057" x2="212.270632579837" y2="1279.53278597057" style="stroke:rgb(50,0,199);stroke-width:1.2"/>
<line x1="212.270632579837" y1="1.44" x2="317.685948869755" y2="1.44" style="stroke:rgb(50,0,199);stroke-width:1.2"/>
<line x1="212.270632579837" y1="1.44" x2="264.978290724796" y2="92.7323418550408" style="stroke:rgb(50,0,199);stroke-width:1.2"/>
<line x1="317.685948869755" y1="1.44" x2="264.978290724796" y2="92.7323418550408" style="stroke:rgb(50,0,199);stroke-width:1.2"/>
<line x1="264.978290724796" y1="92.7323418550408" x2="370.393607014714" y2="92.7323418550408" style="stroke:rgb(50,0,199);stroke-width:1.2"/>
<line x1="264.978290724796" y1="92.7323418550408" x2="317.685948869755" y2="184.024683710082" style="stroke:rgb(50,0,199);stroke-width:1.2"/>
<line x1="264.978290724796" y1="92.7323418550408" x2="212.270632579837" y2="184.024683710082" style="stroke:rgb(50,0,199);stroke-width:1.2"/>
<line x1="212.270632579837" y1="184.024683710082" x2="317.685948869755" y2="184.024683710082" style="stroke:rgb(50,0,199);stroke-width:1.2"/>
<line x1="212.270632579837" y1="184.024683710082" x2="264.978290724796" y2="275.317025565122" style="stroke:rgb(50,0,199);stroke-width:1.2"/>
<line x1="317.685948869755" y1="184.024683710082" x2="264.978290724796" y2="275.317025565122" style="stroke:rgb(50,0,199);stroke-width:1.2"/>
<line x1="264.978290724796" y1="275.317025565122" x2="370.393607014714" y2="275.317025565122" style="stroke:rgb(50,0,199);stroke-width:1.2"/>
<line x1="264.978290724796" y1="275.317025565122" x2="317.685948869755" y2="366.609367420163" style="stroke:rgb(50,0,199);stroke-width:1.2"/>
<line x1="264.978290724796" y1="275.317025565122" x2="212.270632579837" y2="366.609367420163" style="stroke:rgb(50,0,199);stroke-width:1.2"/>
<line x1="212.270632579837" y1="366.609367420163" x2="317.685948869755" y2="366.609367420163" style="stroke:rgb(50,0,199);stroke-width:1.2"/>
<line x1="212.270632579837" y1="366.609367420163" x2="264.978290724796" y2="457.901709275204" style="stroke:rgb(50,0,199);stroke-width:1.2"/>
<line x1="317.685948869755" y1="366.609367420163" x2="264.978290724796" y2="457.901709275204" style="stroke:rgb(50,0,199);stroke-width:1.2"/>
<line x1="264.978290724796" y1="457.901709275204" x2="370.393607014714" y2="457.901709275204" style="stroke:rgb(50,0,199);stroke-width:1.2"/>
<line x1="264.978290724796" y1="457.901709275204" x2="317.685948869755" y2="549.194051130245" style="stroke:rgb(50,0,199);stroke-width:1.2"/>
<line x1="264.978290724796" y1="457.901709275204" x2="212.270632579837" y2="549.194051130245" style="stroke:rgb(50,0,199);stroke-width:1.2"/>
<line x1="212.270632579837" y1="549.194051130245" x2="317.685948869755" y2="549.194051130245" style="stroke:rgb(50,0,199);stroke-width:1.2"/>
<line x1="212.270632579837" y1="549.194051130245" x2="264.978290724796" y2="640.486392985286" style="stroke:rgb(50,0,199);stroke-width:1.2"/>
<line x1="317.685948869755" y1="549.194051130245" x2="264.978290724796" y2="640.486392985286" style="stroke:rgb(50,0,199);stroke-width:1.2"/>
<line x1="264.978290724796" y1="640.486392985286" x2="370.393607014714" y2="640.486392985286" style="stroke:rgb(50,0,199);stroke-width:1.2"/>
<line x1="264.978290724796" y1="640.486392985286" x2="317.685948869755" y2="731.778734840327" style="stroke:rgb(50,0,199);stroke-width:1.2"/>
<line x1="264.978290724796" y1="640.486392985286" x2="212.270632579837" y2="731.778734840327" style="stroke:rgb(50,0,199);stroke-width:1.2"/>
<line x1="212.270632579837" y1="731.778734840327" x2="317.685948869755" y2="731.778734840327" style="stroke:rgb(50,0,199);stroke-width:1.2"/>
<line x1="212.270632579837" y1="731.778734840327" x2="264.978290724796" y2="823.071076695367" style="stroke:rgb(50,0,199);stroke-width:1.2"/>
<line x1="317.685948869755" y1="731.778734840327" x2="264.978290724796" y2="823.071076695367" style="stroke:rgb(50,0,199);stroke-width:1.2"/>
<line x1="264.978290724796" y1="823.071076695367" x2="370.393607014714" y2="823.071076695367" style="stroke:rgb(50,0,199);stroke-width:1.2"/>
<line x1="264.978290724796" y1="823.071076695367" x2="317.685948869755" y2="914.363418550408" style="stroke:rgb(50,0,199);stroke-width:1.2"/>
<line x1="264.978290724796" y1="823.071076695367" x2="212.270632579837" y2="914.363418550408" style="stroke:rgb(50,0,199);stroke-width:1.2"/>
<line x1="212.270632579837" y1="914.363418550408" x2="317.685948869755" y2="914.363418550408" style="stroke:rgb(50,0,199);stroke-width:1.2"/>
<line x1="212.270632579837" y1="914.363418550408" x2="264.978290724796" y2="1005.65576040545" style="stroke:rgb(50,0,199);stroke-width:1.2"/>
<line x1="317.685948869755" y1="914.363418550408" x2="264.978290724796" y2="1005.65576040545" style="stroke:rgb(50,0,199);stroke-width:1.2"/>
<line x1="264.978290724796" y1="1005.65576040545" x2="370.393607014714" y2="1005.65576040545" style="stroke:rgb(50,0,199);stroke-width:1.2"/>
<line x1="264.978290724796" y1="1005.65576040545" x2="317.685948869755" y2="1096.94810226049" style="stroke:rgb(50,0,199);stroke-width:1.2"/>
<line x1="264.978290724796" y1="1005.65576040545" x2="212.270632579837" y2="1096.94810226049" style="stroke:rgb(50,0,199);stroke-width:1.2"/>
<line x1="212.270632579837" y1="1096.94810226049" x2="317.685948869755" y2="1096.94810226049" style="stroke:rgb(50,0,199);stroke-width:1.2"/>
<line x1="212.270632579837" y1="1096.94810226049" x2="264.978290724796" y2="1188.24044411553" style="stroke:rgb(50,0,199);stroke-width:1.2"/>
<line x1="317.685948869755" y1="1096.94810226049" x2="264.978290724796" y2="1188.24044411553" style="stroke:rgb(50,0,199);stroke-width:1.2"/>
<line x1="264.978290724796" y1="1188.24044411553" x2="370.393607014714" y2="1188.24044411553" style="stroke:rgb(50,0,199);stroke-width:1.2"/>
<line x1="264.978290724796" y1="1188.24044411553" x2="317.685948869755" y2="1279.53278597057" style="stroke:rgb(50,0,199);stroke-width:1.2"/>
<line x1="264.978290724796" y1="1188.24044411553" x2="212.270632579837" y2="1279.53278597057" style="stroke:rgb(50,0,199);stroke-width:1.2"/>
<line x1="212.270632579837" y1="1279.53278597057" x2="317.685948869755" y2="1279.53278597057" style="stroke:rgb(50,0,199);stroke-width:1.2"/>
<line x1="317.685948869755" y1="1.44" x2="423.101265159673" y2="1.44" style="stroke:rgb(50,0,199);stroke-width:1.2"/>
<line x1="317.685948869755" y1="1.44" x2="370.393607014714" y2="92.7323418550408" style="stroke:rgb(50,0,199);stroke-width:1.2"/>
<line x1="423.101265159673" y1="1.44" x2="370.393607014714" y2="92.7323418550408" style="stroke:rgb(50,0,199);stroke-width:1.2"/>
<line x1="370.393607014714" y1="92.7323418550408" x2="475.808923304632" y2="92.7323418550408" style="stroke:rgb(50,0,199);stroke-width:1.2"/>
<line x1="370.393607014714" y1="92.7323418550408" x2="423.101265159673" y2="184.024683710082" style="stroke:rgb(50,0,199);stroke-width:1.2"/>
<line x1="370.393607014714" y1="92.7323418550408" x2="317.685948869755" y2="184.024683710082" style="stroke:rgb(50,0,199);stroke-width:1.2"/>
<line x1="317.685948869755" y1="184.024683710082" x2="423.101265159673" y2="184.024683710082" style="stroke:rgb(50,0,199);stroke-width:1.2"/>
<line x1="317.685948869755" y1="184.024683710082" x2="370.393607014714" y2="275.317025565122" style="stroke:rgb(50,0,199);stroke-width:1.2"/>
<line x1="423.101265159673" y1="184.024683710082" x2="370.393607014714" y2="275.317025565122" style="stroke:rgb(50,0,199);stroke-width:1.2"/>
<line x1="370.393607014714" y1="275.317025565122" x2="475.808923304633" y2="275.317025565122" style="stroke:rgb(50,0,199);stroke-width:1.2"/>
<line x1="370.393607014714" y1="275.317025565122" x2="423.101265159673" y2="366.609367420163" style="stroke:rgb(50,0,199);stroke-width:1.2"/>
<line x1="370.393607014714" y1="275.317025565122" x2="317.685948869755" y2="366.609367420163" style="stroke:rgb(50,0,199);stroke-width:1.2"/>
<line x1="317.685948869755" y1="366.609367420163" x2="423.101265159673" y2="366.609367420163" style="stroke:rgb(50,0,199);stroke-width:1.2"/>
<line x1="317.685948869755" y1="366.609367420163" x2="370.393607014714" y2="457.901709275204" style="stroke:rgb(50,0,199);stroke-width:1.2"/>
<line x1="423.101265159673" y1="366.609367420163" x2="370.393607014714" y2="457.901709275204" style="stroke:rgb(50,0,199);stroke-width:1.2"/>
<line x1="370.393607014714" y1="457.901709275204" x2="475.808923304633" y2="457.901709275204" style="stroke:rgb(50,0,199);stroke-width:1.2"/>
<line x1="370.393607014714" y1="457.901709275204" x2="423.101265159673" y2="549.194051130245" style="stroke:rgb(50,0,199);stroke-width:1.2"/>
<line x1="370.393607014714" y1="457.901709275204" x2="317.685948869755" y2="549.194051130245" style="stroke:rgb(50,0,199);stroke-width:1.2"/>
<line x1="317.685948869755" y1="549.194051130245" x2="423.101265159673" y2="549.194051130245" style="stroke:rgb(50,0,199);stroke-width:1.2"/>
<line x1="317.685948869755" y1="549.194051130245" x2="370.393607014714" y2="640.486392985286" style="stroke:rgb(50,0,199);stroke-width:1.2"/>
<line x1="423.101265159673" y1="549.194051130245" x2="370.393607014714" y2="640.486392985286" style="stroke:rgb(50,0,199);stroke-width:1.2"/>
<line x1="370.393607014714" y1="640.486392985286" x2="475.808923304633" y2="640.486392985286" style="stroke:rgb(50,0,199);stroke-width:1.2"/>
<line x1="370.393607014714" y1="640.486392985286" x2="423.101265159673" y2="731.778734840327" style="stroke:rgb(50,0,199);stroke-width:1.2"/>
<line x1="370.393607014714" y1="640.486392985286" x2="317.685948869755" y2="731.778734840327" style="stroke:rgb(50,0,199);stroke-width:1.2"/>
<line x1="317.685948869755" y1="731.778734840327" x2="423.101265159673" y2="731.778734840327" style="stroke:rgb(50,0,199);stroke-width:1.2"/>
<line x1="317.685948869755" y1="731.778734840327" x2="370.393607014714" y2="823.071076695367" style="stroke:rgb(50,0,199);stroke-width:1.2"/>
<line x1="423.101265159673" y1="731.778734840327" x2="370.393607014714" y2="823.071076695367" style="stroke:rgb(50,0,199);stroke-width:1.2"/>
<line x1="370.393607014714" y1="823.071076695367" x2="475.808923304633" y2="823.071076695367" style="stroke:rgb(50,0,199);stroke-width:1.2"/>
<line x1="370.393607014714" y1="823.071076695367" x2="423.101265159673" y2="914.363418550408" style="stroke:rgb(50,0,199);stroke-width:1.2"/>
<line x1="370.393607014714" y1="823.071076695367" x2="317.685948869755" y2="914.363418550408" style="stroke:rgb(50,0,199);stroke-width:1.2"/>
<line x1="317.685948869755" y1="914.363418550408" x2="423.101265159673" y2="914.363418550408" style="stroke:rgb(50,0,199);stroke-width:1.2"/>
<line x1="317.685948869755" y1="914.363418550408" x2="370.393607014714" y2="1005.65576040545" style="stroke:rgb(50,0,199);stroke-width:1.2"/>
<line x1="423.101265159673" y1="914.363418550408" x2="370.393607014714" y2="1005.65576040545" style="stroke:rgb(50,0,199);stroke-width:1.2"/>
<line x1="370.393607014714" y1="1005.65576040545" x2="475.808923304633" y2="1005.65576040545" style="stroke:rgb(50,0,199);stroke-width:1.2"/>
<line x1="370.393607014714" y1="1005.65576040545" x2="423.101265159673" y2="1096.94810226049" style="stroke:rgb(50,0,199);stroke-width:1.2"/>
<line x1="370.393607014714" y1="1005.65576040545" x2="317.685948869755" y2="1096.94810226049" style="stroke:rgb(50,0,199);stroke-width:1.2"/>
<line x1="317.685948869755" y1="1096.94810226049" x2="423.101265159673" y2="1096.94810226049" style="stroke:rgb(50,0,199);stroke-width:1.2"/>
<line x1="317.685948869755" y1="1096.94810226049" x2="370.393607014714" y2="1188.24044411553" style="stroke:rgb(50,0,199);stroke-width:1.2"/>
<line x1="423.101265159673" y1="1096.94810226049" x2="370.393607014714" y2="1188.24044411553" style="stroke:rgb(50,0,199);stroke-width:1.2"/>
<line x1="370.393607014714" y1="1188.24044411553" x2="475.808923304633" y2="1188.24044411553" style="stroke:rgb(50,0,199);stroke-width:1.2"/>
<line x1="370.393607014714" y1="1188.24044411553" x2="423.101265159673" y2="1279.53278597057" style="stroke:rgb(50,0,199);stroke-width:1.2"/>
<line x1="370.393607014714" y1="1188.24044411553" x2="317.685948869755" y2="1279.53278597057" style="stroke:rgb(50,0,199);stroke-width:1.2"/>
<line x1="317.685948869755" y1="1279.53278597057" x2="423.101265159673" y2="1279.53278597057" style="stroke:rgb(50,0,199);stroke-width:1.2"/>
<line x1="423.101265159673" y1="1.44" x2="528.516581449592" y2="1.44" style="stroke:rgb(50,0,199);stroke-width:1.2"/>
<line x1="423.101265159673" y1="1.44" x2="475.808923304632" y2="92.7323418550408" style="stroke:rgb(50,0,199);stroke-width:1.2"/>
<line x1="528.516581449592" y1="1.44" x2="475.808923304632" y2="92.7323418550408" style="stroke:rgb(50,0,199);stroke-width:1.2"/>
<line x1="475.808923304632" y1="92.7323418550408" x2="581.224239594551" y2="92.7323418550408" style="stroke:rgb(50,0,199);stroke-width:1.2"/>
<line x1="475.808923304632" y1="92.7323418550408" x2="528.516581449592" y2="184.024683710082" style="stroke:rgb(50,0,199);stroke-width:1.2"/>
<line x1="475.808923304632" y1="92.7323418550408" x2="423.101265159673" y2="184.024683710082" style="stroke:rgb(50,0,199);stroke-width:1.2"/>
<line x1="423.101265159673" y1="184.024683710082" x2="528.516581449592" y2="184.024683710082" style="stroke:rgb(50,0,199);stroke-width:1.2"/>
<line x1="423.101265159673" y1="184.024683710082" x2="475.808923304633" y2="275.317025565122" style="stroke:rgb(50,0,199);stroke-width:1.2"/>
<line x1="528.516581449592" y1="184.024683710082" x2="475.808923304633" y2="275.317025565122" style="stroke:rgb(50,0,199);stroke-width:1.2"/>
<line x1="475.808923304633" y1="275.317025565122" x2="581.224239594551" y2="275.317025565122" style="stroke:rgb(50,0,199);stroke-width:1.2"/>
<line x1="475.808923304633" y1="275.317025565122" x2="528.516581449592" y2="366.609367420163" style="stroke:rgb(50,0,199);stroke-width:1.2"/>
<line x1="475.808923304633" y1="275.317025565122" x2="423.101265159673" y2="366.609367420163" style="stroke:rgb(50,0,199);stroke-width:1.2"/>
<line x1="423.101265159673" y1="366.609367420163" x2="528.516581449592" y2="366.609367420163" style="stroke:rgb(50,0,199);stroke-width:1.2"/>
<line x1="423.101265159673" y1="366.609367420163" x2="475.808923304633" y2="457.901709275204" style="stroke:rgb(50,0,199);stroke-width:1.2"/>
<line x1="528.516581449592" y1="366.609367420163" x2="475.808923304633" y2="457.901709275204" style="stroke:rgb(50,0,199);stroke-width:1.2"/>
<line x1="475.808923304633" y1="457.901709275204" x2="581.224239594551" y2="457.901709275204" style="stroke:rgb(50,0,199);stroke-width:1.2"/>
<line x1="475.808923304633" y1="457.901709275204" x2="528.516581449592" y2="549.194051130245" style="stroke:rgb(50,0,199);stroke-width:1.2"/>
<line x1="475.808923304633" y1="457.901709275204" x2="423.101265159673" y2="549.194051130245" style="stroke:rgb(50,0,199);stroke-width:1.2"/>
<line x1="423.101265159673" y1="549.194051130245" x2="528.516581449592" y2="549.194051130245" style="stroke:rgb(50,0,199);stroke-width:1.2"/>
<line x1="423.101265159673" y1="549.194051130245" x2="475.808923304633" y2="640.486392985286" style="stroke:rgb(50,0,199);stroke-width:1.2"/>
<line x1="528.516581449592" y1="549.194051130245" x2="475.808923304633" y2="640.486392985286" style="stroke:rgb(50,0,199);stroke-width:1.2"/>
<line x1="475.808923304633" y1="640.486392985286" x2="581.224239594551" y2="640.486392985286" style="stroke:rgb(50,0,199);stroke-width:1.2"/>
<line x1="475.808923304633" y1="640.486392985286" x2="528.516581449592" y2="731.778734840327" style="stroke:rgb(50,0,199);stroke-width:1.2"/>
<line x1="475.808923304633" y1="640.486392985286" x2="423.101265159673" y2="731.778734840327" style="stroke:rgb(50,0,199);stroke-width:1.2"/>
<line x1="423.101265159673" y1="731.778734840327" x2="528.516581449592" y2="731.778734840327" style="stroke:rgb(50,0,199);stroke-width:1.2"/>
<line x1="423.101265159673" y1="731.778734840327" x2="475.808923304633" y2="823.071076695367" style="stroke:rgb(50,0,199);stroke-width:1.2"/>
<line x1="528.516581449592" y1="731.778734840327" x2="475.808923304633" y2="823.071076695367" style="stroke:rgb(50,0,199);stroke-width:1.2"/>
<line x1="475.808923304633" y1="823.071076695367" x2="581.224239594551" y2="823.071076695367" style="stroke:rgb(50,0,199);stroke-width:1.2"/>
<line x1="475.808923304633" y1="823.071076695367" x2="528.516581449592" y2="914.363418550408" style="stroke:rgb(50,0,199);stroke-width:1.2"/>
<line x1="475.808923304633" y1="823.071076695367" x2="423.101265159673" y2="914.363418550408" style="stroke:rgb(50,0,199);stroke-width:1.2"/>
<line x1="423.101265159673" y1="914.363418550408" x2="528.516581449592" y2="914.363418550408" style="stroke:rgb(50,0,199);stroke-width:1.2"/>
<line x1="423.101265159673" y1="914.363418550408" x2="475.808923304633" y2="1005.65576040545" style="stroke:rgb(50,0,199);stroke-width:1.2"/>
<line x1="528.516581449592" y1="914.363418550408" x2="475.808923304633" y2="1005.65576040545" style="stroke:rgb(50,0,199);stroke-width:1.2"/>
<line x1="475.808923304633" y1="1005.65576040545" x2="581.224239594551" y2="1005.65576040545" style="stroke:rgb(50,0,199);stroke-width:1.2"/>
<line x1="475.808923304633" y1="1005.65576040545" x2="528.516581449592" y2="1096.94810226049" style="stroke:rgb(50,0,199);stroke-width:1.2"/>
<line x1="475.808923304633" y1="1005.65576040545" x2="423.101265159673" y2="1096.94810226049" style="stroke:rgb(50,0,199);stroke-width:1.2"/>
<line x1="423.101265159673" y1="1096.94810226049" x2="528.516581449592" y2="1096.94810226049" style="stroke:rgb(50,0,199);stroke-width:1.2"/>
<line x1="423.101265159673" y1="1096.94810226049" x2="475.808923304633" y2="1188.24044411553" style="stroke:rgb(50,0,199);stroke-width:1.2"/>
<line x1="528.516581449592" y1="1096.94810226049" x2="475.808923304633" y2="1188.24044411553" style="stroke:rgb(50,0,199);stroke-width:1.2"/>
<line x1="475.808923304633" y1="1188.24044411553" x2="581.224239594551" y2="1188.24044411553" style="stroke:rgb(50,0,199);stroke-width:1.2"/>
<line x1="475.808923304633" y1="1188.24044411553" x2="528.516581449592" y2="1279.53278597057" style="stroke:rgb(50,0,199);stroke-width:1.2"/>
<line x1="475.808923304633" y1="1188.24044411553" x2="423.101265159673" y2="1279.53278597057" style="stroke:rgb(50,0,199);stroke-width:1.2"/>
<line x1="423.101265159673" y1="1279.53278597057" x2="528.516581449592" y2="1279.53278597057" style="stroke:rgb(50,0,199);stroke-width:1.2"/>
<line x1="528.516581449592" y1="1.44" x2="633.93189773951" y2="1.44" style="stroke:rgb(50,0,199);stroke-width:1.2"/>
<line x1="528.516581449592" y1="1.44" x2="581.224239594551" y2="92.7323418550408" style="stroke:rgb(50,0,199);stroke-width:1.2"/>
<line x1="633.93189773951" y1="1.44" x2="581.224239594551" y2="92.7323418550408" style="stroke:rgb(50,0,199);stroke-width:1.2"/>
<line x1="581.224239594551" y1="92.7323418550408" x2="686.639555884469" y2="92.7323418550408" style="stroke:rgb(50,0,199);stroke-width:1.2"/>
<line x1="581.224239594551" y1="92.7323418550408" x2="633.93189773951" y2="184.024683710082" style="stroke:rgb(50,0,199);stroke-width:1.2"/>
<line x1="581.224239594551" y1="92.7323418550408" x2="528.516581449592" y2="184.024683710082" style="stroke:rgb(50,0,199);stroke-width:1.2"/>
<line x1="528.516581449592" y1="184.024683710082" x2="633.93189773951" y2="184.024683710082" style="stroke:rgb(50,0,199);stroke-width:1.2"/>
<line x1="528.516581449592" y1="184.024683710082" x2="581.224239594551" y2="275.317025565122" style="stroke:rgb(50,0,199);stroke-width:1.2"/>
<line x1="633.93189773951" y1="184.024683710082" x2="581.224239594551" y2="275.317025565122" style="stroke:rgb(50,0,199);stroke-width:1.2"/>
<line x1="581.224239594551" y1="275.317025565122" x2="686.639555884469" y2="275.317025565122" style="stroke:rgb(50,0,199);stroke-width:1.2"/>
<line x1="581.224239594551" y1="275.317025565122" x2="633.93189773951" y2="366.609367420163" style="stroke:rgb(50,0,199);stroke-width:1.2"/>
<line x1="581.224239594551" y1="275.317025565122" x2="528.516581449592" y2="366.609367420163" style="stroke:rgb(50,0,199);stroke-width:1.2"/>
<line x1="528.516581449592" y1="366.609367420163" x2="633.93189773951" y2="366.609367420163" style="stroke:rgb(50,0,199);stroke-width:1.2"/>
<line x1="528.516581449592" y1="366.609367420163" x2="581.224239594551" y2="457.901709275204" style="stroke:rgb(50,0,199);stroke-width:1.2"/>
<line x1="633.93189773951" y1="366.609367420163" x2="581.224239594551" y2="457.901709275204" style="stroke:rgb(50,0,199);stroke-width:1.2"/>
<line x1="581.224239594551" y1="457.901709275204" x2="686.639555884469" y2="457.901709275204" style="stroke:rgb(50,0,199);stroke-width:1.2"/>
<line x1="581.224239594551" y1="457.901709275204" x2="633.93189773951" y2="549.194051130245" style="stroke:rgb(50,0,199);stroke-width:1.2"/>
<line x1="581.224239594551" y1="457.901709275204" x2="528.516581449592" y2="549.194051130245" style="stroke:rgb(50,0,199);stroke-width:1.2"/>
<line x1="528.516581449592" y1="549.194051130245" x2="633.93189773951" y2="549.194051130245" style="stroke:rgb(50,0,199);stroke-width:1.2"/>
<line x1="528.516581449592" y1="549.194051130245" x2="581.224239594551" y2="640.486392985286" style="stroke:rgb(50,0,199);stroke-width:1.2"/>
<line x1="633.93189773951" y1="549.194051130245" x2="581.224239594551" y2="640.486392985286" style="stroke:rgb(50,0,199);stroke-width:1.2"/>
<line x1="581.224239594551" y1="640.486392985286" x2="686.639555884469" y2="640.486392985286" style="stroke:rgb(50,0,199);stroke-width:1.2"/>
<line x1="581.224239594551" y1="640.486392985286" x2="633.93189773951" y2="731.778734840327" style="stroke:rgb(50,0,199);stroke-width:1.2"/>
<line x1="581.224239594551" y1="640.486392985286" x2="528.516581449592" y2="731.778734840327" style="stroke:rgb(50,0,199);stroke-width:1.2"/>
<line x1="528.516581449592" y1="731.778734840327" x2="633.93189773951" y2="731.778734840327" style="stroke:rgb(50,0,199);stroke-width:1.2"/>
<line x1="528.516581449592" y1="731.778734840327" x2="581.224239594551" y2="823.071076695367" style="stroke:rgb(50,0,199);stroke-width:1.2"/>
<line x1="633.93189773951" y1="731.778734840327" x2="581.224239594551" y2="823.071076695367" style="stroke:rgb(50,0,199);stroke-width:1.2"/>
<line x1="581.224239594551" y1="823.071076695367" x2="686.639555884469" y2="823.071076695367" style="stroke:rgb(50,0,199);stroke-width:1.2"/>
<line x1="581.224239594551" y1="823.071076695367" x2="633.93189773951" y2="914.363418550408" style="stroke:rgb(50,0,199);stroke-width:1.2"/>
<line x1="581.224239594551" y1="823.071076695367" x2="528.516581449592" y2="914.363418550408" style="stroke:rgb(50,0,199);stroke-width:1.2"/>
<line x1="528.516581449592" y1="914.363418550408" x2="633.93189773951" y2="914.363418550408" style="stroke:rgb(50,0,199);stroke-width:1.2"/>
<line x1="528.516581449592" y1="914.363418550408" x2="581.224239594551" y2="1005.65576040545" style="stroke:rgb(50,0,199);stroke-width:1.2"/>
<line x1="633.93189773951" y1="914.363418550408" x2="581.224239594551" y2="1005.65576040545" style="stroke:rgb(50,0,199);stroke-width:1.2"/>
<line x1="581.224239594551" y1="1005.65576040545" x2="686.639555884469" y2="1005.65576040545" style="stroke:rgb(50,0,199);stroke-width:1.2"/>
<line x1="581.224239594551" y1="1005.65576040545" x2="633.93189773951" y2="1096.94810226049" style="stroke:rgb(50,0,199);stroke-width:1.2"/>
<line x1="581.224239594551" y1="1005.65576040545" x2="528.516581449592" y2="1096.94810226049" style="stroke:rgb(50,0,199);stroke-width:1.2"/>
<line x1="528.516581449592" y1="1096.94810226049" x2="633.93189773951" y2="1096.94810226049" style="stroke:rgb(50,0,199);stroke-width:1.2"/>
<line x1="528.516581449592" y1="1096.94810226049" x2="581.224239594551" y2="1188.24044411553" style="stroke:rgb(50,0,199);stroke-width:1.2"/>
<line x1="633.93189773951" y1="1096.94810226049" x2="581.224239594551" y2="1188.24044411553" style="stroke:rgb(50,0,199);stroke-width:1.2"/>
<line x1="581.224239594551" y1="1188.24044411553" x2="686.639555884469" y2="1188.24044411553" style="stroke:rgb(50,0,199);stroke-width:1.2"/>
<line x1="581.224239594551" y1="1188.24044411553" x2="633.93189773951" y2="1279.53278597057" style="stroke:rgb(50,0,199);stroke-width:1.2"/>
<line x1="581.224239594551" y1="1188.24044411553" x2="528.516581449592" y2="1279.53278597057" style="stroke:rgb(50,0,199);stroke-width:1.2"/>
<line x1="528.516581449592" y1="1279.53278597057" x2="633.93189773951" y2="1279.53278597057" style="stroke:rgb(50,0,199);stroke-width:1.2"/>
<line x1="633.93189773951" y1="1.44" x2="739.347214029428" y2="1.44" style="stroke:rgb(50,0,199);stroke-width:1.2"/>
<line x1="633.93189773951" y1="1.44" x2="686.639555884469" y2="92.7323418550408" style="stroke:rgb(50,0,199);stroke-width:1.2"/>
<line x1="739.347214029428" y1="1.44" x2="686.639555884469" y2="92.7323418550408" style="stroke:rgb(50,0,199);stroke-width:1.2"/>
<line x1="686.639555884469" y1="92.7323418550408" x2="792.054872174387" y2="92.7323418550408" style="stroke:rgb(50,0,199);stroke-width:1.2"/>
<line x1="686.639555884469" y1="92.7323418550408" x2="739.347214029428" y2="184.024683710082" style="stroke:rgb(50,0,199);stroke-width:1.2"/>
<line x1="686.639555884469" y1="92.7323418550408" x2="633.93189773951" y2="184.024683710082" style="stroke:rgb(50,0,199);stroke-width:1.2"/>
<line x1="633.93189773951" y1="184.024683710082" x2="739.347214029428" y2="184.024683710082" style="stroke:rgb(50,0,199);stroke-width:1.2"/>
<line x1="633.93189773951" y1="184.024683710082" x2="686.639555884469" y2="275.317025565122" style="stroke:rgb(50,0,199);stroke-width:1.2"/>
<line x1="739.347214029428" y1="184.024683710082" x2="686.639555884469" y2="275.317025565122" style="stroke:rgb(50,0,199);stroke-width:1.2"/>
<line x1="686.639555884469" y1="275.317025565122" x2="792.054872174387" y2="275.317025565122" style="stroke:rgb(50,0,199);stroke-width:1.2"/>
<line x1="686.639555884469" y1="275.317025565122" x2="739.347214029428" y2="366.609367420163" style="stroke:rgb(50,0,199);stroke-width:1.2"/>
<line x1="686.639555884469" y1="275.317025565122" x2="633.93189773951" y2="366.609367420163" style="stroke:rgb(50,0,199);stroke-width:1.2"/>
<line x1="633.93189773951" y1="366.609367420163" x2="739.347214029428" y2="366.609367420163" style="stroke:rgb(50,0,199);stroke-width:1.2"/>
<line x1="633.93189773951" y1="366.609367420163" x2="686.639555884469" y2="457.901709275204" style="stroke:rgb(50,0,199);stroke-width:1.2"/>
<line x1="739.347214029428" y1="366.609367420163" x2="686.639555884469" y2="457.901709275204" style="stroke:rgb(50,0,199);stroke-width:1.2"/>
<line x1="686.639555884469" y1="457.901709275204" x2="792.054872174388" y2="457.901709275204" style="stroke:rgb(50,0,199);stroke-width:1.2"/>
<line x1="686.639555884469" y1="457.901709275204" x2="739.347214029428" y2="549.194051130245" style="stroke:rgb(50,0,199);stroke-width:1.2"/>
<line x1="686.639555884469" y1="457.901709275204" x2="633.93189773951" y2="549.194051130245" style="stroke:rgb(50,0,199);stroke-width:1.2"/>
<line x1="633.93189773951" y1="549.194051130245" x2="739.347214029428" y2="549.194051130245" style="stroke:rgb(50,0,199);stroke-width:1.2"/>
<line x1="633.93189773951" y1="549.194051130245" x2="686.639555884469" y2="640.486392985286" style="stroke:rgb(50,0,199);stroke-width:1.2"/>
<line x1="739.347214029428" y1="549.194051130245" x2="686.639555884469" y2="640.486392985286" style="stroke:rgb(50,0,199);stroke-width:1.2"/>
<line x1="686.639555884469" y1="640.486392985286" x2="792.054872174388" y2="640.486392985286" style="stroke:rgb(50,0,199);stroke-width:1.2"/>
<line x1="686.639555884469" y1="640.486392985286" x2="739.347214029428" y2="731.778734840327" style="stroke:rgb(50,0,199);stroke-width:1.2"/>
<line x1="686.639555884469" y1="640.486392985286" x2="633.93189773951" y2="731.778734840327" style="stroke:rgb(50,0,199);stroke-width:1.2"/>
<line x1="633.93189773951" y1="731.778734840327" x2="739.347214029428" y2="731.778734840327" style="stroke:rgb(50,0,199);stroke-width:1.2"/>
<line x1="633.93189773951" y1="731.778734840327" x2="686.639555884469" y2="823.071076695367" style="stroke:rgb(50,0,199);stroke-width:1.2"/>
<line x1="739.347214029428" y1="731.778734840327" x2="686.639555884469" y2="823.071076695367" style="stroke:rgb(50,0,199);stroke-width:1.2"/>
<line x1="686.639555884469" y1="823.071076695367" x2="792.054872174388" y2="823.071076695367" style="stroke:rgb(50,0,199);stroke-width:1.2"/>
<line x1="686.639555884469" y1="823.071076695367" x2="739.347214029428" y2="914.363418550408" style="stroke:rgb(50,0,199);stroke-width:1.2"/>
<line x1="686.639555884469" y1="823.071076695367" x2="633.93189773951" y2="914.363418550408" style="stroke:rgb(50,0,199);stroke-width:1.2"/>
<line x1="633.93189773951" y1="914.363418550408" x2="739.347214029428" y2="914.363418550408" style="stroke:rgb(50,0,199);stroke-width:1.2"/>
<line x1="633.93189773951" y1="914.363418550408" x2="686.639555884469" y2="1005.65576040545" style="stroke:rgb(50,0,199);stroke-width:1.2"/>
<line x1="739.347214029428" y1="914.363418550408" x2="686.639555884469" y2="1005.65576040545" style="stroke:rgb(50,0,199);stroke-width:1.2"/>
<line x1="686.639555884469" y1="1005.65576040545" x2="792.054872174388" y2="1005.65576040545" style="stroke:rgb(50,0,199);stroke-width:1.2"/>
<line x1="686.639555884469" y1="1005.65576040545" x2="739.347214029428" y2="1096.94810226049" style="stroke:rgb(50,0,199);stroke-width:1.2"/>
<line x1="686.639555884469" y1="1005.65576040545" x2="633.93189773951" y2="1096.94810226049" style="stroke:rgb(50,0,199);stroke-width:1.2"/>
<line x1="633.93189773951" y1="1096.94810226049" x2="739.347214029428" y2="1096.94810226049" style="stroke:rgb(50,0,199);stroke-width:1.2"/>
<line x1="633.93189773951" y1="1096.94810226049" x2="686.639555884469" y2="1188.24044411553" style="stroke:rgb(50,0,199);stroke-width:1.2"/>
<line x1="739.347214029428" y1="1096.94810226049" x2="686.639555884469" y2="1188.24044411553" style="stroke:rgb(50,0,199);stroke-width:1.2"/>
<line x1="686.639555884469" y1="1188.24044411553" x2="792.054872174388" y2="1188.24044411553" style="stroke:rgb(50,0,199);stroke-width:1.2"/>
<line x1="686.639555884469" y1="1188.24044411553" x2="739.347214029428" y2="1279.53278597057" style="stroke:rgb(50,0,199);stroke-width:1.2"/>
<line x1="686.639555884469" y1="1188.24044411553" x2="633.93189773951" y2="1279.53278597057" style="stroke:rgb(50,0,199);stroke-width:1.2"/>
<line x1="633.93189773951" y1="1279.53278597057" x2="739.347214029429" y2="1279.53278597057" style="stroke:rgb(50,0,199);stroke-width:1.2"/>
<line x1="739.347214029428" y1="1.44" x2="844.762530319347" y2="1.44" style="stroke:rgb(50,0,199);stroke-width:1.2"/>
<line x1="739.347214029428" y1="1.44" x2="792.054872174387" y2="92.7323418550408" style="stroke:rgb(50,0,199);stroke-width:1.2"/>
<line x1="844.762530319347" y1="1.44" x2="792.054872174387" y2="92.7323418550408" style="stroke:rgb(50,0,199);stroke-width:1.2"/>
<line x1="792.054872174387" y1="92.7323418550408" x2="897.470188464306" y2="92.7323418550408" style="stroke:rgb(50,0,199);stroke-width:1.2"/>
<line x1="792.054872174387" y1="92.7323418550408" x2="844.762530319347" y2="184.024683710082" style="stroke:rgb(50,0,199);stroke-width:1.2"/>
<line x1="792.054872174387" y1="92.7323418550408" x2="739.347214029428" y2="184.024683710082" style="stroke:rgb(50,0,199);stroke-width:1.2"/>
<line x1="739.347214029428" y1="184.024683710082" x2="844.762530319347" y2="184.024683710082" style="stroke:rgb(50,0,199);stroke-width:1.2"/>
<line x1="739.347214029428" y1="184.024683710082" x2="792.054872174387" y2="275.317025565122" style="stroke:rgb(50,0,199);stroke-width:1.2"/>
<line x1="844.762530319347" y1="184.024683710082" x2="792.054872174387" y2="275.317025565122" style="stroke:rgb(50,0,199);stroke-width:1.2"/>
<line x1="792.054872174387" y1="275.317025565122" x2="897.470188464306" y2="275.317025565122" style="stroke:rgb(50,0,199);stroke-width:1.2"/>
<line x1="792.054872174387" y1="275.317025565122" x2="844.762530319347" y2="366.609367420163" style="stroke:rgb(50,0,199);stroke-width:1.2"/>
<line x1="792.054872174387" y1="275.317025565122" x2="739.347214029428" y2="366.609367420163" style="stroke:rgb(50,0,199);stroke-width:1.2"/>
<line x1="739.347214029428" y1="366.609367420163" x2="844.762530319347" y2="366.609367420163" style="stroke:rgb(50,0,199);stroke-width:1.2"/>
<line x1="739.347214029428" y1="366.609367420163" x2="792.054872174388" y2="457.901709275204" style="stroke:rgb(50,0,199);stroke-width:1.2"/>
<line x1="844.762530319347" y1="366.609367420163" x2="792.054872174388" y2="457.901709275204" style="stroke:rgb(50,0,199);stroke-width:1.2"/>
<line x1="792.054872174388" y1="457.901709275204" x2="897.470188464306" y2="457.901709275204" style="stroke:rgb(50,0,199);stroke-width:1.2"/>
<line x1="792.054872174388" y1="457.901709275204" x2="844.762530319347" y2="549.194051130245" style="stroke:rgb(50,0,199);stroke-width:1.2"/>
<line x1="792.054872174388" y1="457.901709275204" x2="739.347214029428" y2="549.194051130245" style="stroke:rgb(50,0,199);stroke-width:1.2"/>
<line x1="739.347214029428" y1="549.194051130245" x2="844.762530319347" y2="549.194051130245" style="stroke:rgb(50,0,199);stroke-width:1.2"/>
<line x1="739.347214029428" y1="549.194051130245" x2="792.054872174388" y2="640.486392985286" style="stroke:rgb(50,0,199);stroke-width:1.2"/>
<line x1="844.762530319347" y1="549.194051130245" x2="792.054872174388" y2="640.486392985286" style="stroke:rgb(50,0,199);stroke-width:1.2"/>
<line x1="792.054872174388" y1="640.486392985286" x2="897.470188464306" y2="640.486392985286" style="stroke:rgb(50,0,199);stroke-width:1.2"/>
<line x1="792.054872174388" y1="640.486392985286" x2="844.762530319347" y2="731.778734840327" style="stroke:rgb(50,0,199);stroke-width:1.2"/>
<line x1="792.054872174388" y1="640.486392985286" x2="739.347214029428" y2="731.778734840327" style="stroke:rgb(50,0,199);stroke-width:1.2"/>
<line x1="739.347214029428" y1="731.778734840327" x2="844.762530319347" y2="731.778734840327" style="stroke:rgb(50,0,199);stroke-width:1.2"/>
<line x1="739.347214029428" y1="731.778734840327" x2="792.054872174388" y2="823.071076695367" style="stroke:rgb(50,0,199);stroke-width:1.2"/>
<line x1="844.762530319347" y1="731.778734840327" x2="792.054872174388" y2="823.071076695367" style="stroke:rgb(50,0,199);stroke-width:1.2"/>
<line x1="792.054872174388" y1="823.071076695367" x2="897.470188464306" y2="823.071076695367" style="stroke:rgb(50,0,199);stroke-width:1.2"/>
<line x1="792.054872174388" y1="823.071076695367" x2="844.762530319347" y2="914.363418550408" style="stroke:rgb(50,0,199);stroke-width:1.2"/>
<line x1="792.054872174388" y1="823.071076695367" x2="739.347214029428" y2="914.363418550408" style="stroke:rgb(50,0,199);stroke-width:1.2"/>
<line x1="739.347214029428" y1="914.363418550408" x2="844.762530319347" y2="914.363418550408" style="stroke:rgb(50,0,199);stroke-width:1.2"/>
<line x1="739.347214029428" y1="914.363418550408" x2="792.054872174388" y2="1005.65576040545" style="stroke:rgb(50,0,199);stroke-width:1.2"/>
<line x1="844.762530319347" y1="914.363418550408" x2="792.054872174388" y2="1005.65576040545" style="stroke:rgb(50,0,199);stroke-width:1.2"/>
<line x1="792.054872174388" y1="1005.65576040545" x2="897.470188464306" y2="1005.65576040545" style="stroke:rgb(50,0,199);stroke-width:1.2"/>
<line x1="792.054872174388" y1="1005.65576040545" x2="844.762530319347" y2="1096.94810226049" style="stroke:rgb(50,0,199);stroke-width:1.2"/>
<line x1="792.054872174388" y1="1005.65576040545" x2="739.347214029428" y2="1096.94810226049" style="stroke:rgb(50,0,199);stroke-width:1.2"/>
<line x1="739.347214029428" y1="1096.94810226049" x2="844.762530319347" y2="1096.94810226049" style="stroke:rgb(50,0,199);stroke-width:1.2"/>
<line x1="739.347214029428" y1="1096.94810226049" x2="792.054872174388" y2="1188.24044411553" style="stroke:rgb(50,0,199);stroke-width:1.2"/>
<line x1="844.762530319347" y1="1096.94810226049" x2="792.054872174388" y2="1188.24044411553" style="stroke:rgb(50,0,199);stroke-width:1.2"/>
<line x1="792.054872174388" y1="1188.24044411553" x2="897.470188464306" y2="1188.24044411553" style="stroke:rgb(50,0,199);stroke-width:1.2"/>
<line x1="792.054872174388" y1="1188.24044411553" x2="844.762530319347" y2="1279.53278597057" style="stroke:rgb(50,0,199);stroke-width:1.2"/>
<line x1="792.054872174388" y1="1188.24044411553" x2="739.347214029428" y2="1279.53278597057" style="stroke:rgb(50,0,199);stroke-width:1.2"/>
<line x1="739.347214029429" y1="1279.53278597057" x2="844.762530319347" y2="1279.53278597057" style="stroke:rgb(50,0,199);stroke-width:1.2"/>
<line x1="844.762530319347" y1="1.44" x2="950.177846609265" y2="1.44" style="stroke:rgb(50,0,199);stroke-width:1.2"/>
<line x1="844.762530319347" y1="1.44" x2="897.470188464306" y2="92.7323418550408" style="stroke:rgb(50,0,199);stroke-width:1.2"/>
<line x1="950.177846609265" y1="1.44" x2="897.470188464306" y2="92.7323418550408" style="stroke:rgb(50,0,199);stroke-width:1.2"/>
<line x1="897.470188464306" y1="92.7323418550408" x2="1002.88550475422" y2="92.7323418550408" style="stroke:rgb(50,0,199);stroke-width:1.2"/>
<line x1="897.470188464306" y1="92.7323418550408" x2="950.177846609265" y2="184.024683710082" style="stroke:rgb(50,0,199);stroke-width:1.2"/>
<line x1="897.470188464306" y1="92.7323418550408" x2="844.762530319347" y2="184.024683710082" style="stroke:rgb(50,0,199);stroke-width:1.2"/>
<line x1="844.762530319347" y1="184.024683710082" x2="950.177846609265" y2="184.024683710082" style="stroke:rgb(50,0,199);stroke-width:1.2"/>
<line x1="844.762530319347" y1="184.024683710082" x2="897.470188464306" y2="275.317025565122" style="stroke:rgb(50,0,199);stroke-width:1.2"/>
<line x1="950.177846609265" y1="184.024683710082" x2="897.470188464306" y2="275.317025565122" style="stroke:rgb(50,0,199);stroke-width:1.2"/>
<line x1="897.470188464306" y1="275.317025565122" x2="1002.88550475422" y2="275.317025565122" style="stroke:rgb(50,0,199);stroke-width:1.2"/>
<line x1="897.470188464306" y1="275.317025565122" x2="950.177846609265" y2="366.609367420163" style="stroke:rgb(50,0,199);stroke-width:1.2"/>
<line x1="897.470188464306" y1="275.317025565122" x2="844.762530319347" y2="366.609367420163" style="stroke:rgb(50,0,199);stroke-width:1.2"/>
<line x1="844.762530319347" y1="366.609367420163" x2="950.177846609265" y2="366.609367420163" style="stroke:rgb(50,0,199);stroke-width:1.2"/>
<line x1="844.762530319347" y1="366.609367420163" x2="897.470188464306" y2="457.901709275204" style="stroke:rgb(50,0,199);stroke-width:1.2"/>
<line x1="950.177846609265" y1="366.609367420163" x2="897.470188464306" y2="457.901709275204" style="stroke:rgb(50,0,199);stroke-width:1.2"/>
<line x1="897.470188464306" y1="457.901709275204" x2="1002.88550475422" y2="457.901709275204" style="stroke:rgb(50,0,199);stroke-width:1.2"/>
<line x1="897.470188464306" y1="457.901709275204" x2="950.177846609265" y2="549.194051130245" style="stroke:rgb(50,0,199);stroke-width:1.2"/>
<line x1="897.470188464306" y1="457.901709275204" x2="844.762530319347" y2="549.194051130245" style="stroke:rgb(50,0,199);stroke-width:1.2"/>
<line x1="844.762530319347" y1="549.194051130245" x2="950.177846609265" y2="549.194051130245" style="stroke:rgb(50,0,199);stroke-width:1.2"/>
<line x1="844.762530319347" y1="549.194051130245" x2="897.470188464306" y2="640.486392985286" style="stroke:rgb(50,0,199);stroke-width:1.2"/>
<line x1="950.177846609265" y1="549.194051130245" x2="897.470188464306" y2="640.486392985286" style="stroke:rgb(50,0,199);stroke-width:1.2"/>
<line x1="897.470188464306" y1="640.486392985286" x2="1002.88550475422" y2="640.486392985286" style="stroke:rgb(50,0,199);stroke-width:1.2"/>
<line x1="897.470188464306" y1="640.486392985286" x2="950.177846609265" y2="731.778734840327" style="stroke:rgb(50,0,199);stroke-width:1.2"/>
<line x1="897.470188464306" y1="640.486392985286" x2="844.762530319347" y2="731.778734840327" style="stroke:rgb(50,0,199);stroke-width:1.2"/>
<line x1="844.762530319347" y1="731.778734840327" x2="950.177846609265" y2="731.778734840327" style="stroke:rgb(50,0,199);stroke-width:1.2"/>
<line x1="844.762530319347" y1="731.778734840327" x2="897.470188464306" y2="823.071076695367" style="stroke:rgb(50,0,199);stroke-width:1.2"/>
<line x1="950.177846609265" y1="731.778734840327" x2="897.470188464306" y2="823.071076695367" style="stroke:rgb(50,0,199);stroke-width:1.2"/>
<line x1="897.470188464306" y1="823.071076695367" x2="1002.88550475422" y2="823.071076695367" style="stroke:rgb(50,0,199);stroke-width:1.2"/>
<line x1="897.470188464306" y1="823.071076695367" x2="950.177846609265" y2="914.363418550408" style="stroke:rgb(50,0,199);stroke-width:1.2"/>
<line x1="897.470188464306" y1="823.071076695367" x2="844.762530319347" y2="914.363418550408" style="stroke:rgb(50,0,199);stroke-width:1.2"/>
<line x1="844.762530319347" y1="914.363418550408" x2="950.177846609265" y2="914.363418550408" style="stroke:rgb(50,0,199);stroke-width:1.2"/>
<line x1="844.762530319347" y1="914.363418550408" x2="897.470188464306" y2="1005.65576040545" style="stroke:rgb(50,0,199);stroke-width:1.2"/>
<line x1="950.177846609265" y1="914.363418550408" x2="897.470188464306" y2="1005.65576040545" style="stroke:rgb(50,0,199);stroke-width:1.2"/>
<line x1="897.470188464306" y1="1005.65576040545" x2="1002.88550475422" y2="1005.65576040545" style="stroke:rgb(50,0,199);stroke-width:1.2"/>
<line x1="897.470188464306" y1="1005.65576040545" x2="950.177846609265" y2="1096.94810226049" style="stroke:rgb(50,0,199);stroke-width:1.2"/>
<line x1="897.470188464306" y1="1005.65576040545" x2="844.762530319347" y2="1096.94810226049" style="stroke:rgb(50,0,199);stroke-width:1.2"/>
<line x1="844.762530319347" y1="1096.94810226049" x2="950.177846609265" y2="1096.94810226049" style="stroke:rgb(50,0,199);stroke-width:1.2"/>
<line x1="844.762530319347" y1="1096.94810226049" x2="897.470188464306" y2="1188.24044411553" style="stroke:rgb(50,0,199);stroke-width:1.2"/>
<line x1="950.177846609265" y1="1096.94810226049" x2="897.470188464306" y2="1188.24044411553" style="stroke:rgb(50,0,199);stroke-width:1.2"/>
<line x1="897.470188464306" y1="1188.24044411553" x2="1002.88550475422" y2="1188.24044411553" style="stroke:rgb(50,0,199);stroke-width:1.2"/>
<line x1="897.470188464306" y1="1188.24044411553" x2="950.177846609265" y2="1279.53278597057" style="stroke:rgb(50,0,199);stroke-width:1.2"/>
<line x1="897.470188464306" y1="1188.24044411553" x2="844.762530319347" y2="1279.53278597057" style="stroke:rgb(50,0,199);stroke-width:1.2"/>
<line x1="844.762530319347" y1="1279.53278597057" x2="950.177846609265" y2="1279.53278597057" style="stroke:rgb(50,0,199);stroke-width:1.2"/>
<line x1="950.177846609265" y1="1.44" x2="1055.59316289918" y2="1.44" style="stroke:rgb(50,0,199);stroke-width:1.2"/>
<line x1="950.177846609265" y1="1.44" x2="1002.88550475422" y2="92.7323418550408" style="stroke:rgb(50,0,199);stroke-width:1.2"/>
<line x1="1055.59316289918" y1="1.44" x2="1002.88550475422" y2="92.7323418550408" style="stroke:rgb(50,0,199);stroke-width:1.2"/>
<line x1="1002.88550475422" y1="92.7323418550408" x2="1108.30082104414" y2="92.7323418550408" style="stroke:rgb(50,0,199);stroke-width:1.2"/>
<line x1="1002.88550475422" y1="92.7323418550408" x2="1055.59316289918" y2="184.024683710082" style="stroke:rgb(50,0,199);stroke-width:1.2"/>
<line x1="1002.88550475422" y1="92.7323418550408" x2="950.177846609265" y2="184.024683710082" style="stroke:rgb(50,0,199);stroke-width:1.2"/>
<line x1="950.177846609265" y1="184.024683710082" x2="1055.59316289918" y2="184.024683710082" style="stroke:rgb(50,0,199);stroke-width:1.2"/>
<line x1="950.177846609265" y1="184.024683710082" x2="1002.88550475422" y2="275.317025565122" style="stroke:rgb(50,0,199);stroke-width:1.2"/>
<line x1="1055.59316289918" y1="184.024683710082" x2="1002.88550475422" y2="275.317025565122" style="stroke:rgb(50,0,199);stroke-width:1.2"/>
<line x1="1002.88550475422" y1="275.317025565122" x2="1108.30082104414" y2="275.317025565122" style="stroke:rgb(50,0,199);stroke-width:1.2"/>
<line x1="1002.88550475422" y1="275.317025565122" x2="1055.59316289918" y2="366.609367420163" style="stroke:rgb(50,0,199);stroke-width:1.2"/>
<line x1="1002.88550475422" y1="275.317025565122" x2="950.177846609265" y2="366.609367420163" style="stroke:rgb(50,0,199);stroke-width:1.2"/>
<line x1="950.177846609265" y1="366.609367420163" x2="1055.59316289918" y2="366.609367420163" style="stroke:rgb(50,0,199);stroke-width:1.2"/>
<line x1="950.177846609265" y1="366.609367420163" x2="1002.88550475422" y2="457.901709275204" style="stroke:rgb(50,0,199);stroke-width:1.2"/>
<line x1="1055.59316289918" y1="366.609367420163" x2="1002.88550475422" y2="457.901709275204" style="stroke:rgb(50,0,199);stroke-width:1.2"/>
<line x1="1002.88550475422" y1="457.901709275204" x2="1108.30082104414" y2="457.901709275204" style="stroke:rgb(50,0,199);stroke-width:1.2"/>
<line x1="1002.88550475422" y1="457.901709275204" x2="1055.59316289918" y2="549.194051130245" style="stroke:rgb(50,0,199);stroke-width:1.2"/>
<line x1="1002.88550475422" y1="457.901709275204" x2="950.177846609265" y2="549.194051130245" style="stroke:rgb(50,0,199);stroke-width:1.2"/>
<line x1="950.177846609265" y1="549.194051130245" x2="1055.59316289918" y2="549.194051130245" style="stroke:rgb(50,0,199);stroke-width:1.2"/>
<line x1="950.177846609265" y1="549.194051130245" x2="1002.88550475422" y2="640.486392985286" style="stroke:rgb(50,0,199);stroke-width:1.2"/>
<line x1="1055.59316289918" y1="549.194051130245" x2="1002.88550475422" y2="640.486392985286" style="stroke:rgb(50,0,199);stroke-width:1.2"/>
<line x1="1002.88550475422" y1="640.486392985286" x2="1108.30082104414" y2="640.486392985286" style="stroke:rgb(50,0,199);stroke-width:1.2"/>
<line x1="1002.88550475422" y1="640.486392985286" x2="1055.59316289918" y2="731.778734840327" style="stroke:rgb(50,0,199);stroke-width:1.2"/>
<line x1="1002.88550475422" y1="640.486392985286" x2="950.177846609265" y2="731.778734840327" style="stroke:rgb(50,0,199);stroke-width:1.2"/>
<line x1="950.177846609265" y1="731.778734840327" x2="1055.59316289918" y2="731.778734840327" style="stroke:rgb(50,0,199);stroke-width:1.2"/>
<line x1="950.177846609265" y1="731.778734840327" x2="1002.88550475422" y2="823.071076695367" style="stroke:rgb(50,0,199);stroke-width:1.2"/>
<line x1="1055.59316289918" y1="731.778734840327" x2="1002.88550475422" y2="823.071076695367" style="stroke:rgb(50,0,199);stroke-width:1.2"/>
<line x1="1002.88550475422" y1="823.071076695367" x2="1108.30082104414" y2="823.071076695367" style="stroke:rgb(50,0,199);stroke-width:1.2"/>
<line x1="1002.88550475422" y1="823.071076695367" x2="1055.59316289918" y2="914.363418550408" style="stroke:rgb(50,0,199);stroke-width:1.2"/>
<line x1="1002.88550475422" y1="823.071076695367" x2="950.177846609265" y2="914.363418550408" style="stroke:rgb(50,0,199);stroke-width:1.2"/>
<line x1="950.177846609265" y1="914.363418550408" x2="1055.59316289918" y2="914.363418550408" style="stroke:rgb(50,0,199);stroke-width:1.2"/>
<line x1="950.177846609265" y1="914.363418550408" x2="1002.88550475422" y2="1005.65576040545" style="stroke:rgb(50,0,199);stroke-width:1.2"/>
<line x1="1055.59316289918" y1="914.363418550408" x2="1002.88550475422" y2="1005.65576040545" style="stroke:rgb(50,0,199);stroke-width:1.2"/>
<line x1="1002.88550475422" y1="1005.65576040545" x2="1108.30082104414" y2="1005.65576040545" style="stroke:rgb(50,0,199);stroke-width:1.2"/>
<line x1="1002.88550475422" y1="1005.65576040545" x2="1055.59316289918" y2="1096.94810226049" style="stroke:rgb(50,0,199);stroke-width:1.2"/>
<line x1="1002.88550475422" y1="1005.65576040545" x2="950.177846609265" y2="1096.94810226049" style="stroke:rgb(50,0,199);stroke-width:1.2"/>
<line x1="950.177846609265" y1="1096.94810226049" x2="1055.59316289918" y2="1096.94810226049" style="stroke:rgb(50,0,199);stroke-width:1.2"/>
<line x1="950.177846609265" y1="1096.94810226049" x2="1002.88550475422" y2="1188.24044411553" style="stroke:rgb(50,0,199);stroke-width:1.2"/>
<line x1="1055.59316289918" y1="1096.94810226049" x2="1002.88550475422" y2="1188.24044411553" style="stroke:rgb(50,0,199);stroke-width:1.2"/>
<line x1="1002.88550475422" y1="1188.24044411553" x2="1108.30082104414" y2="1188.24044411553" style="stroke:rgb(50,0,199);stroke-width:1.2"/>
<line x1="1002.88550475422" y1="1188.24044411553" x2="1055.59316289918" y2="1279.53278597057" style="stroke:rgb(50,0,199);stroke-width:1.2"/>
<line x1="1002.88550475422" y1="1188.24044411553" x2="950.177846609265" y2="1279.53278597057" style="stroke:rgb(50,0,199);stroke-width:1.2"/>
<line x1="950.177846609265" y1="1279.53278597057" x2="1055.59316289918" y2="1279.53278597057" style="stroke:rgb(50,0,199);stroke-width:1.2"/>
<line x1="1055.59316289918" y1="1.44" x2="1161.0084791891" y2="1.44" style="stroke:rgb(50,0,199);stroke-width:1.2"/>
<line x1="1055.59316289918" y1="1.44" x2="1108.30082104414" y2="92.7323418550408" style="stroke:rgb(50,0,199);stroke-width:1.2"/>
<line x1="1161.0084791891" y1="1.44" x2="1108.30082104414" y2="92.7323418550408" style="stroke:rgb(50,0,199);stroke-width:1.2"/>
<line x1="1108.30082104414" y1="92.7323418550408" x2="1213.71613733406" y2="92.7323418550408" style="stroke:rgb(50,0,199);stroke-width:1.2"/>
<line x1="1108.30082104414" y1="92.7323418550408" x2="1161.0084791891" y2="184.024683710082" style="stroke:rgb(50,0,199);stroke-width:1.2"/>
<line x1="1108.30082104414" y1="92.7323418550408" x2="1055.59316289918" y2="184.024683710082" style="stroke:rgb(50,0,199);stroke-width:1.2"/>
<line x1="1055.59316289918" y1="184.024683710082" x2="1161.0084791891" y2="184.024683710082" style="stroke:rgb(50,0,199);stroke-width:1.2"/>
<line x1="1055.59316289918" y1="184.024683710082" x2="1108.30082104414" y2="275.317025565122" style="stroke:rgb(50,0,199);stroke-width:1.2"/>
<line x1="1161.0084791891" y1="184.024683710082" x2="1108.30082104414" y2="275.317025565122" style="stroke:rgb(50,0,199);stroke-width:1.2"/>
<line x1="1108.30082104414" y1="275.317025565122" x2="1213.71613733406" y2="275.317025565122" style="stroke:rgb(50,0,199);stroke-width:1.2"/>
<line x1="1108.30082104414" y1="275.317025565122" x2="1161.0084791891" y2="366.609367420163" style="stroke:rgb(50,0,199);stroke-width:1.2"/>
<line x1="1108.30082104414" y1="275.317025565122" x2="1055.59316289918" y2="366.609367420163" style="stroke:rgb(50,0,199);stroke-width:1.2"/>
<line x1="1055.59316289918" y1="366.609367420163" x2="1161.0084791891" y2="366.609367420163" style="stroke:rgb(50,0,199);stroke-width:1.2"/>
<line x1="1055.59316289918" y1="366.609367420163" x2="1108.30082104414" y2="457.901709275204" style="stroke:rgb(50,0,199);stroke-width:1.2"/>
<line x1="1161.0084791891" y1="366.609367420163" x2="1108.30082104414" y2="457.901709275204" style="stroke:rgb(50,0,199);stroke-width:1.2"/>
<line x1="1108.30082104414" y1="457.901709275204" x2="1213.71613733406" y2="457.901709275204" style="stroke:rgb(50,0,199);stroke-width:1.2"/>
<line x1="1108.30082104414" y1="457.901709275204" x2="1161.0084791891" y2="549.194051130245" style="stroke:rgb(50,0,199);stroke-width:1.2"/>
<line x1="1108.30082104414" y1="457.901709275204" x2="1055.59316289918" y2="549.194051130245" style="stroke:rgb(50,0,199);stroke-width:1.2"/>
<line x1="1055.59316289918" y1="549.194051130245" x2="1161.0084791891" y2="549.194051130245" style="stroke:rgb(50,0,199);stroke-width:1.2"/>
<line x1="1055.59316289918" y1="549.194051130245" x2="1108.30082104414" y2="640.486392985286" style="stroke:rgb(50,0,199);stroke-width:1.2"/>
<line x1="1161.0084791891" y1="549.194051130245" x2="1108.30082104414" y2="640.486392985286" style="stroke:rgb(50,0,199);stroke-width:1.2"/>
<line x1="1108.30082104414" y1="640.486392985286" x2="1213.71613733406" y2="640.486392985286" style="stroke:rgb(50,0,199);stroke-width:1.2"/>
<line x1="1108.30082104414" y1="640.486392985286" x2="1161.0084791891" y2="731.778734840327" style="stroke:rgb(50,0,199);stroke-width:1.2"/>
<line x1="1108.30082104414" y1="640.486392985286" x2="1055.59316289918" y2="731.778734840327" style="stroke:rgb(50,0,199);stroke-width:1.2"/>
<line x1="1055.59316289918" y1="731.778734840327" x2="1161.0084791891" y2="731.778734840327" style="stroke:rgb(50,0,199);stroke-width:1.2"/>
<line x1="1055.59316289918" y1="731.778734840327" x2="1108.30082104414" y2="823.071076695367" style="stroke:rgb(50,0,199);stroke-width:1.2"/>
<line x1="1161.0084791891" y1="731.778734840327" x2="1108.30082104414" y2="823.071076695367" style="stroke:rgb(50,0,199);stroke-width:1.2"/>
<line x1="1108.30082104414" y1="823.071076695367" x2="1213.71613733406" y2="823.071076695367" style="stroke:rgb(50,0,199);stroke-width:1.2"/>
<line x1="1108.30082104414" y1="823.071076695367" x2="1161.0084791891" y2="914.363418550408" style="stroke:rgb(50,0,199);stroke-width:1.2"/>
<line x1="1108.30082104414" y1="823.071076695367" x2="1055.59316289918" y2="914.363418550408" style="stroke:rgb(50,0,199);stroke-width:1.2"/>
<line x1="1055.59316289918" y1="914.363418550408" x2="1161.0084791891" y2="914.363418550408" style="stroke:rgb(50,0,199);stroke-width:1.2"/>
<line x1="1055.59316289918" y1="914.363418550408" x2="1108.30082104414" y2="1005.65576040545" style="stroke:rgb(50,0,199);stroke-width:1.2"/>
<line x1="1161.0084791891" y1="914.363418550408" x2="1108.30082104414" y2="1005.65576040545" style="stroke:rgb(50,0,199);stroke-width:1.2"/>
<line x1="1108.30082104414" y1="1005.65576040545" x2="1213.71613733406" y2="1005.65576040545" style="stroke:rgb(50,0,199);stroke-width:1.2"/>
<line x1="1108.30082104414" y1="1005.65576040545" x2="1161.0084791891" y2="1096.94810226049" style="stroke:rgb(50,0,199);stroke-width:1.2"/>
<line x1="1108.30082104414" y1="1005.65576040545" x2="1055.59316289918" y2="1096.94810226049" style="stroke:rgb(50,0,199);stroke-width:1.2"/>
<line x1="1055.59316289918" y1="1096.94810226049" x2="1161.0084791891" y2="1096.94810226049" style="stroke:rgb(50,0,199);stroke-width:1.2"/>
<line x1="1055.59316289918" y1="1096.94810226049" x2="1108.30082104414" y2="1188.24044411553" style="stroke:rgb(50,0,199);stroke-width:1.2"/>
<line x1="1161.0084791891" y1="1096.94810226049" x2="1108.30082104414" y2="1188.24044411553" style="stroke:rgb(50,0,199);stroke-width:1.2"/>
<line x1="1108.30082104414" y1="1188.24044411553" x2="1213.71613733406" y2="1188.24044411553" style="stroke:rgb(50,0,199);stroke-width:1.2"/>
<line x1="1108.30082104414" y1="1188.24044411553" x2="1161.0084791891" y2="1279.53278597057" style="stroke:rgb(50,0,199);stroke-width:1.2"/>
<line x1="1108.30082104414" y1="1188.24044411553" x2="1055.59316289918" y2="1279.53278597057" style="stroke:rgb(50,0,199);stroke-width:1.2"/>
<line x1="1055.59316289918" y1="1279.53278597057" x2="1161.0084791891" y2="1279.53278597057" style="stroke:rgb(50,0,199);stroke-width:1.2"/>
<line x1="1161.0084791891" y1="1.44" x2="1266.42379547902" y2="1.44" style="stroke:rgb(50,0,199);stroke-width:1.2"/>
<line x1="1161.0084791891" y1="1.44" x2="1213.71613733406" y2="92.7323418550408" style="stroke:rgb(50,0,199);stroke-width:1.2"/>
<line x1="1266.42379547902" y1="1.44" x2="1213.71613733406" y2="92.7323418550408" style="stroke:rgb(50,0,199);stroke-width:1.2"/>
<line x1="1213.71613733406" y1="92.7323418550408" x2="1319.13145362398" y2="92.7323418550408" style="stroke:rgb(50,0,199);stroke-width:1.2"/>
<line x1="1213.71613733406" y1="92.7323418550408" x2="1266.42379547902" y2="184.024683710082" style="stroke:rgb(50,0,199);stroke-width:1.2"/>
<line x1="1213.71613733406" y1="92.7323418550408" x2="1161.0084791891" y2="184.024683710082" style="stroke:rgb(50,0,199);stroke-width:1.2"/>
<line x1="1161.0084791891" y1="184.024683710082" x2="1266.42379547902" y2="184.024683710082" style="stroke:rgb(50,0,199);stroke-width:1.2"/>
<line x1="1161.0084791891" y1="184.024683710082" x2="1213.71613733406" y2="275.317025565122" style="stroke:rgb(50,0,199);stroke-width:1.2"/>
<line x1="1266.42379547902" y1="184.024683710082" x2="1213.71613733406" y2="275.317025565122" style="stroke:rgb(50,0,199);stroke-width:1.2"/>
<line x1="1213.71613733406" y1="275.317025565122" x2="1319.13145362398" y2="275.317025565122" style="stroke:rgb(50,0,199);stroke-width:1.2"/>
<line x1="1213.71613733406" y1="275.317025565122" x2="1266.42379547902" y2="366.609367420163" style="stroke:rgb(50,0,199);stroke-width:1.2"/>
<line x1="1213.71613733406" y1="275.317025565122" x2="1161.0084791891" y2="366.609367420163" style="stroke:rgb(50,0,199);stroke-width:1.2"/>
<line x1="1161.0084791891" y1="366.609367420163" x2="1266.42379547902" y2="366.609367420163" style="stroke:rgb(50,0,199);stroke-width:1.2"/>
<line x1="1161.0084791891" y1="366.609367420163" x2="1213.71613733406" y2="457.901709275204" style="stroke:rgb(50,0,199);stroke-width:1.2"/>
<line x1="1266.42379547902" y1="366.609367420163" x2="1213.71613733406" y2="457.901709275204" style="stroke:rgb(50,0,199);stroke-width:1.2"/>
<line x1="1213.71613733406" y1="457.901709275204" x2="1319.13145362398" y2="457.901709275204" style="stroke:rgb(50,0,199);stroke-width:1.2"/>
<line x1="1213.71613733406" y1="457.901709275204" x2="1266.42379547902" y2="549.194051130245" style="stroke:rgb(50,0,199);stroke-width:1.2"/>
<line x1="1213.71613733406" y1="457.901709275204" x2="1161.0084791891" y2="549.194051130245" style="stroke:rgb(50,0,199);stroke-width:1.2"/>
<line x1="1161.0084791891" y1="549.194051130245" x2="1266.42379547902" y2="549.194051130245" style="stroke:rgb(50,0,199);stroke-width:1.2"/>
<line x1="1161.0084791891" y1="549.194051130245" x2="1213.71613733406" y2="640.486392985286" style="stroke:rgb(50,0,199);stroke-width:1.2"/>
<line x1="1266.42379547902" y1="549.194051130245" x2="1213.71613733406" y2="640.486392985286" style="stroke:rgb(50,0,199);stroke-width:1.2"/>
<line x1="1213.71613733406" y1="640.486392985286" x2="1319.13145362398" y2="640.486392985286" style="stroke:rgb(50,0,199);stroke-width:1.2"/>
<line x1="1213.71613733406" y1="640.486392985286" x2="1266.42379547902" y2="731.778734840327" style="stroke:rgb(50,0,199);stroke-width:1.2"/>
<line x1="1213.71613733406" y1="640.486392985286" x2="1161.0084791891" y2="731.778734840327" style="stroke:rgb(50,0,199);stroke-width:1.2"/>
<line x1="1161.0084791891" y1="731.778734840327" x2="1266.42379547902" y2="731.778734840327" style="stroke:rgb(50,0,199);stroke-width:1.2"/>
<line x1="1161.0084791891" y1="731.778734840327" x2="1213.71613733406" y2="823.071076695367" style="stroke:rgb(50,0,199);stroke-width:1.2"/>
<line x1="1266.42379547902" y1="731.778734840327" x2="1213.71613733406" y2="823.071076695367" style="stroke:rgb(50,0,199);stroke-width:1.2"/>
<line x1="1213.71613733406" y1="823.071076695367" x2="1319.13145362398" y2="823.071076695367" style="stroke:rgb(50,0,199);stroke-width:1.2"/>
<line x1="1213.71613733406" y1="823.071076695367" x2="1266.42379547902" y2="914.363418550408" style="stroke:rgb(50,0,199);stroke-width:1.2"/>
<line x1="1213.71613733406" y1="823.071076695367" x2="1161.0084791891" y2="914.363418550408" style="stroke:rgb(50,0,199);stroke-width:1.2"/>
<line x1="1161.0084791891" y1="914.363418550408" x2="1266.42379547902" y2="914.363418550408" style="stroke:rgb(50,0,199);stroke-width:1.2"/>
<line x1="1161.0084791891" y1="914.363418550408" x2="1213.71613733406" y2="1005.65576040545" style="stroke:rgb(50,0,199);stroke-width:1.2"/>
<line x1="1266.42379547902" y1="914.363418550408" x2="1213.71613733406" y2="1005.65576040545" style="stroke:rgb(50,0,199);stroke-width:1.2"/>
<line x1="1213.71613733406" y1="1005.65576040545" x2="1319.13145362398" y2="1005.65576040545" style="stroke:rgb(50,0,199);stroke-width:1.2"/>
<line x1="1213.71613733406" y1="1005.65576040545" x2="1266.42379547902" y2="1096.94810226049" style="stroke:rgb(50,0,199);stroke-width:1.2"/>
<line x1="1213.71613733406" y1="1005.65576040545" x2="1161.0084791891" y2="1096.94810226049" style="stroke:rgb(50,0,199);stroke-width:1.2"/>
<line x1="1161.0084791891" y1="1096.94810226049" x2="1266.42379547902" y2="1096.94810226049" style="stroke:rgb(50,0,199);stroke-width:1.2"/>
<line x1="1161.0084791891" y1="1096.94810226049" x2="1213.71613733406" y2="1188.24044411553" style="stroke:rgb(50,0,199);stroke-width:1.2"/>
<line x1="1266.42379547902" y1="1096.94810226049" x2="1213.71613733406" y2="1188.24044411553" style="stroke:rgb(50,0,199);stroke-width:1.2"/>
<line x1="1213.71613733406" y1="1188.24044411553" x2="1319.13145362398" y2="1188.24044411553" style="stroke:rgb(50,0,199);stroke-width:1.2"/>
<line x1="1213.71613733406" y1="1188.24044411553" x2="1266.42379547902" y2="1279.53278597057" style="stroke:rgb(50,0,199);stroke-width:1.2"/>
<line x1="1213.71613733406" y1="1188.24044411553" x2="1161.0084791891" y2="1279.53278597057" style="stroke:rgb(50,0,199);stroke-width:1.2"/>
<line x1="1161.0084791891" y1="1279.53278597057" x2="1266.42379547902" y2="1279.53278597057" style="stroke:rgb(50,0,199);stroke-width:1.2"/>
<line x1="1266.42379547902" y1="1.44" x2="1371.83911176894" y2="1.44" style="stroke:rgb(50,0,199);stroke-width:1.2"/>
<line x1="1266.42379547902" y1="1.44" x2="1319.13145362398" y2="92.7323418550408" style="stroke:rgb(50,0,199);stroke-width:1.2"/>
<line x1="1371.83911176894" y1="1.44" x2="1319.13145362398" y2="92.7323418550408" style="stroke:rgb(50,0,199);stroke-width:1.2"/>
<line x1="1319.13145362398" y1="92.7323418550408" x2="1424.5467699139" y2="92.7323418550408" style="stroke:rgb(50,0,199);stroke-width:1.2"/>
<line x1="1319.13145362398" y1="92.7323418550408" x2="1371.83911176894" y2="184.024683710082" style="stroke:rgb(50,0,199);stroke-width:1.2"/>
<line x1="1319.13145362398" y1="92.7323418550408" x2="1266.42379547902" y2="184.024683710082" style="stroke:rgb(50,0,199);stroke-width:1.2"/>
<line x1="1266.42379547902" y1="184.024683710082" x2="1371.83911176894" y2="184.024683710082" style="stroke:rgb(50,0,199);stroke-width:1.2"/>
<line x1="1266.42379547902" y1="184.024683710082" x2="1319.13145362398" y2="275.317025565122" style="stroke:rgb(50,0,199);stroke-width:1.2"/>
<line x1="1371.83911176894" y1="184.024683710082" x2="1319.13145362398" y2="275.317025565122" style="stroke:rgb(50,0,199);stroke-width:1.2"/>
<line x1="1319.13145362398" y1="275.317025565122" x2="1424.5467699139" y2="275.317025565122" style="stroke:rgb(50,0,199);stroke-width:1.2"/>
<line x1="1319.13145362398" y1="275.317025565122" x2="1371.83911176894" y2="366.609367420163" style="stroke:rgb(50,0,199);stroke-width:1.2"/>
<line x1="1319.13145362398" y1="275.317025565122" x2="1266.42379547902" y2="366.609367420163" style="stroke:rgb(50,0,199);stroke-width:1.2"/>
<line x1="1266.42379547902" y1="366.609367420163" x2="1371.83911176894" y2="366.609367420163" style="stroke:rgb(50,0,199);stroke-width:1.2"/>
<line x1="1266.42379547902" y1="366.609367420163" x2="1319.13145362398" y2="457.901709275204" style="stroke:rgb(50,0,199);stroke-width:1.2"/>
<line x1="1371.83911176894" y1="366.609367420163" x2="1319.13145362398" y2="457.901709275204" style="stroke:rgb(50,0,199);stroke-width:1.2"/>
<line x1="1319.13145362398" y1="457.901709275204" x2="1424.5467699139" y2="457.901709275204" style="stroke:rgb(50,0,199);stroke-width:1.2"/>
<line x1="1319.13145362398" y1="457.901709275204" x2="1371.83911176894" y2="549.194051130245" style="stroke:rgb(50,0,199);stroke-width:1.2"/>
<line x1="1319.13145362398" y1="457.901709275204" x2="1266.42379547902" y2="549.194051130245" style="stroke:rgb(50,0,199);stroke-width:1.2"/>
<line x1="1266.42379547902" y1="549.194051130245" x2="1371.83911176894" y2="549.194051130245" style="stroke:rgb(50,0,199);stroke-width:1.2"/>
<line x1="1266.42379547902" y1="549.194051130245" x2="1319.13145362398" y2="640.486392985286" style="stroke:rgb(50,0,199);stroke-width:1.2"/>
<line x1="1371.83911176894" y1="549.194051130245" x2="1319.13145362398" y2="640.486392985286" style="stroke:rgb(50,0,199);stroke-width:1.2"/>
<line x1="1319.13145362398" y1="640.486392985286" x2="1424.5467699139" y2="640.486392985286" style="stroke:rgb(50,0,199);stroke-width:1.2"/>
<line x1="1319.13145362398" y1="640.486392985286" x2="1371.83911176894" y2="731.778734840327" style="stroke:rgb(50,0,199);stroke-width:1.2"/>
<line x1="1319.13145362398" y1="640.486392985286" x2="1266.42379547902" y2="731.778734840327" style="stroke:rgb(50,0,199);stroke-width:1.2"/>
<line x1="1266.42379547902" y1="731.778734840327" x2="1371.83911176894" y2="731.778734840327" style="stroke:rgb(50,0,199);stroke-width:1.2"/>
<line x1="1266.42379547902" y1="731.778734840327" x2="1319.13145362398" y2="823.071076695367" style="stroke:rgb(50,0,199);stroke-width:1.2"/>
<line x1="1371.83911176894" y1="731.778734840327" x2="1319.13145362398" y2="823.071076695367" style="stroke:rgb(50,0,199);stroke-width:1.2"/>
<line x1="1319.13145362398" y1="823.071076695367" x2="1424.5467699139" y2="823.071076695367" style="stroke:rgb(50,0,199);stroke-width:1.2"/>
<line x1="1319.13145362398" y1="823.071076695367" x2="1371.83911176894" y2="914.363418550408" style="stroke:rgb(50,0,199);stroke-width:1.2"/>
<line x1="1319.13145362398" y1="823.071076695367" x2="1266.42379547902" y2="914.363418550408" style="stroke:rgb(50,0,199);stroke-width:1.2"/>
<line x1="1266.42379547902" y1="914.363418550408" x2="1371.83911176894" y2="914.363418550408" style="stroke:rgb(50,0,199);stroke-width:1.2"/>
<line x1="1266.42379547902" y1="914.363418550408" x2="1319.13145362398" y2="1005.65576040545" style="stroke:rgb(50,0,199);stroke-width:1.2"/>
<line x1="1371.83911176894" y1="914.363418550408" x2="1319.13145362398" y2="1005.65576040545" style="stroke:rgb(50,0,199);stroke-width:1.2"/>
<line x1="1319.13145362398" y1="1005.65576040545" x2="1424.5467699139" y2="1005.65576040545" style="stroke:rgb(50,0,199);stroke-width:1.2"/>
<line x1="1319.13145362398" y1="1005.65576040545" x2="1371.83911176894" y2="1096.94810226049" style="stroke:rgb(50,0,199);stroke-width:1.2"/>
<line x1="1319.13145362398" y1="1005.65576040545" x2="1266.42379547902" y2="1096.94810226049" style="stroke:rgb(50,0,199);stroke-width:1.2"/>
<line x1="1266.42379547902" y1="1096.94810226049" x2="1371.83911176894" y2="1096.94810226049" style="stroke:rgb(50,0,199);stroke-width:1.2"/>
<line x1="1266.42379547902" y1="1096.94810226049" x2="1319.13145362398" y2="1188.24044411553" style="stroke:rgb(50,0,199);stroke-width:1.2"/>
<line x1="1371.83911176894" y1="1096.94810226049" x2="1319.13145362398" y2="1188.24044411553" style="stroke:rgb(50,0,199);stroke-width:1.2"/>
<line x1="1319.13145362398" y1="1188.24044411553" x2="1424.5467699139" y2="1188.24044411553" style="stroke:rgb(50,0,199);stroke-width:1.2"/>
<line x1="1319.13145362398" y1="1188.24044411553" x2="1371.83911176894" y2="1279.53278597057" style="stroke:rgb(50,0,199);stroke-width:1.2"/>
<line x1="1319.13145362398" y1="1188.24044411553" x2="1266.42379547902" y2="1279.53278597057" style="stroke:rgb(50,0,199);stroke-width:1.2"/>
<line x1="1266.42379547902" y1="1279.53278597057" x2="1371.83911176894" y2="1279.53278597057" style="stroke:rgb(50,0,199);stroke-width:1.2"/>
<line x1="1371.83911176894" y1="1.44" x2="1424.5467699139" y2="92.7323418550408" style="stroke:rgb(50,0,199);stroke-width:1.2"/>
<line x1="1424.5467699139" y1="92.7323418550408" x2="1371.83911176894" y2="184.024683710082" style="stroke:rgb(50,0,199);stroke-width:1.2"/>
<line x1="1371.83911176894" y1="184.024683710082" x2="1424.5467699139" y2="275.317025565122" style="stroke:rgb(50,0,199);stroke-width:1.2"/>
<line x1="1424.5467699139" y1="275.317025565122" x2="1371.83911176894" y2="366.609367420163" style="stroke:rgb(50,0,199);stroke-width:1.2"/>
<line x1="1371.83911176894" y1="366.609367420163" x2="1424.5467699139" y2="457.901709275204" style="stroke:rgb(50,0,199);stroke-width:1.2"/>
<line x1="1424.5467699139" y1="457.901709275204" x2="1371.83911176894" y2="549.194051130245" style="stroke:rgb(50,0,199);stroke-width:1.2"/>
<line x1="1371.83911176894" y1="549.194051130245" x2="1424.5467699139" y2="640.486392985286" style="stroke:rgb(50,0,199);stroke-width:1.2"/>
<line x1="1424.5467699139" y1="640.486392985286" x2="1371.83911176894" y2="731.778734840327" style="stroke:rgb(50,0,199);stroke-width:1.2"/>
<line x1="1371.83911176894" y1="731.778734840327" x2="1424.5467699139" y2="823.071076695367" style="stroke:rgb(50,0,199);stroke-width:1.2"/>
<line x1="1424.5467699139" y1="823.071076695367" x2="1371.83911176894" y2="914.363418550408" style="stroke:rgb(50,0,199);stroke-width:1.2"/>
<line x1="1371.83911176894" y1="914.363418550408" x2="1424.5467699139" y2="1005.65576040545" style="stroke:rgb(50,0,199);stroke-width:1.2"/>
<line x1="1424.5467699139" y1="1005.65576040545" x2="1371.83911176894" y2="1096.94810226049" style="stroke:rgb(50,0,199);stroke-width:1.2"/>
<line x1="1371.83911176894" y1="1096.94810226049" x2="1424.5467699139" y2="1188.24044411553" style="stroke:rgb(50,0,199);stroke-width:1.2"/>
<line x1="1424.5467699139" y1="1188.24044411553" x2="1371.83911176894" y2="1279.53278597057" style="stroke:rgb(50,0,199);stroke-width:1.2"/>
</svg>
