<?xml version="1.0" standalone="no"?> <!DOCTYPE svg PUBLIC "-//W3C//DTD SVG 1.1//EN" "http://www.w3.org/Graphics/SVG/1.1/DTD/svg11.dtd">
<svg width="2000" height="2000" version="1.1" xmlns="http://www.w3.org/2000/svg">
<line x1="1.4" y1="1.4" x2="103.887113059643" y2="1.4" style="stroke:rgb(50,0,199);stroke-width:1.2"/>
<line x1="1.4" y1="1.4" x2="52.6435565298214" y2="90.1564434701786" style="stroke:rgb(50,0,199);stroke-width:1.2"/>
<line x1="103.887113059643" y1="1.4" x2="52.6435565298214" y2="90.1564434701786" style="stroke:rgb(50,0,199);stroke-width:1.2"/>
<line x1="52.6435565298214" y1="90.1564434701786" x2="155.130669589464" y2="90.1564434701786" style="stroke:rgb(50,0,199);stroke-width:1.2"/>
<line x1="52.6435565298214" y1="90.1564434701786" x2="103.887113059643" y2="178.912886940357" style="stroke:rgb(50,0,199);stroke-width:1.2"/>
<line x1="52.6435565298214" y1="90.1564434701786" x2="1.40000000000003" y2="178.912886940357" style="stroke:rgb(50,0,199);stroke-width:1.2"/>
<line x1="1.40000000000003" y1="178.912886940357" x2="103.887113059643" y2="178.912886940357" style="stroke:rgb(50,0,199);stroke-width:1.2"/>
<line x1="1.40000000000003" y1="178.912886940357" x2="52.6435565298214" y2="267.669330410536" style="stroke:rgb(50,0,199);stroke-width:1.2"/>
<line x1="103.887113059643" y1="178.912886940357" x2="52.6435565298214" y2="267.669330410536" style="stroke:rgb(50,0,199);stroke-width:1.2"/>
<line x1="52.6435565298214" y1="267.669330410536" x2="155.130669589464" y2="267.669330410536" style="stroke:rgb(50,0,199);stroke-width:1.2"/>
<line x1="52.6435565298214" y1="267.669330410536" x2="103.887113059643" y2="356.425773880714" style="stroke:rgb(50,0,199);stroke-width:1.2"/>
<line x1="52.6435565298214" y1="267.669330410536" x2="1.40000000000006" y2="356.425773880714" style="stroke:rgb(50,0,199);stroke-width:1.2"/>
<line x1="1.40000000000006" y1="356.425773880714" x2="103.887113059643" y2="356.425773880714" style="stroke:rgb(50,0,199);stroke-width:1.2"/>
<line x1="1.40000000000006" y1="356.425773880714" x2="52.6435565298215" y2="445.182217350893" style="stroke:rgb(50,0,199);stroke-width:1.2"/>
<line x1="103.887113059643" y1="356.425773880714" x2="52.6435565298215" y2="445.182217350893" style="stroke:rgb(50,0,199);stroke-width:1.2"/>
<line x1="52.6435565298215" y1="445.182217350893" x2="155.130669589464" y2="445.182217350893" style="stroke:rgb(50,0,199);stroke-width:1.2"/>
<line x1="52.6435565298215" y1="445.182217350893" x2="103.887113059643" y2="533.938660821071" style="stroke:rgb(50,0,199);stroke-width:1.2"/>
<line x1="52.6435565298215" y1="445.182217350893" x2="1.40000000000009" y2="533.938660821071" style="stroke:rgb(50,0,199);stroke-width:1.2"/>
<line x1="1.40000000000009" y1="533.938660821071" x2="103.887113059643" y2="533.938660821071" style="stroke:rgb(50,0,199);stroke-width:1.2"/>
<line x1="1.40000000000009" y1="533.938660821071" x2="52.6435565298215" y2="622.69510429125" style="stroke:rgb(50,0,199);stroke-width:1.2"/>
<line x1="103.887113059643" y1="533.938660821071" x2="52.6435565298215" y2="622.69510429125" style="stroke:rgb(50,0,199);stroke-width:1.2"/>
<line x1="52.6435565298215" y1="622.69510429125" x2="155.130669589464" y2="622.69510429125" style="stroke:rgb(50,0,199);stroke-width:1.2"/>
<line x1="52.6435565298215" y1="622.69510429125" x2="103.887113059643" y2="711.451547761429" style="stroke:rgb(50,0,199);stroke-width:1.2"/>
<line x1="52.6435565298215" y1="622.69510429125" x2="1.40000000000011" y2="711.451547761429" style="stroke:rgb(50,0,199);stroke-width:1.2"/>
<line x1="1.40000000000011" y1="711.451547761429" x2="103.887113059643" y2="711.451547761429" style="stroke:rgb(50,0,199);stroke-width:1.2"/>
<line x1="1.40000000000011" y1="711.451547761429" x2="52.6435565298215" y2="800.207991231607" style="stroke:rgb(50,0,199);stroke-width:1.2"/>
<line x1="103.887113059643" y1="711.451547761429" x2="52.6435565298215" y2="800.207991231607" style="stroke:rgb(50,0,199);stroke-width:1.2"/>
<line x1="52.6435565298215" y1="800.207991231607" x2="155.130669589464" y2="800.207991231607" style="stroke:rgb(50,0,199);stroke-width:1.2"/>
<line x1="52.6435565298215" y1="800.207991231607" x2="103.887113059643" y2="888.964434701786" style="stroke:rgb(50,0,199);stroke-width:1.2"/>
<line x1="52.6435565298215" y1="800.207991231607" x2="1.40000000000014" y2="888.964434701786" style="stroke:rgb(50,0,199);stroke-width:1.2"/>
<line x1="1.40000000000014" y1="888.964434701786" x2="103.887113059643" y2="888.964434701786" style="stroke:rgb(50,0,199);stroke-width:1.2"/>
<line x1="1.40000000000014" y1="888.964434701786" x2="52.6435565298216" y2="977.720878171964" style="stroke:rgb(50,0,199);stroke-width:1.2"/>
<line x1="103.887113059643" y1="888.964434701786" x2="52.6435565298216" y2="977.720878171964" style="stroke:rgb(50,0,199);stroke-width:1.2"/>
<line x1="52.6435565298216" y1="977.720878171964" x2="155.130669589464" y2="977.720878171964" style="stroke:rgb(50,0,199);stroke-width:1.2"/>
<line x1="52.6435565298216" y1="977.720878171964" x2="103.887113059643" y2="1066.47732164214" style="stroke:rgb(50,0,199);stroke-width:1.2"/>
<line x1="52.6435565298216" y1="977.720878171964" x2="1.40000000000017" y2="1066.47732164214" style="stroke:rgb(50,0,199);stroke-width:1.2"/>
<line x1="1.40000000000017" y1="1066.47732164214" x2="103.887113059643" y2="1066.47732164214" style="stroke:rgb(50,0,199);stroke-width:1.2"/>
<line x1="1.40000000000017" y1="1066.47732164214" x2="52.6435565298216" y2="1155.23376511232" style="stroke:rgb(50,0,199);stroke-width:1.2"/>
<line x1="103.887113059643" y1="1066.47732164214" x2="52.6435565298216" y2="1155.23376511232" style="stroke:rgb(50,0,199);stroke-width:1.2"/>
<line x1="52.6435565298216" y1="1155.23376511232" x2="155.130669589464" y2="1155.23376511232" style="stroke:rgb(50,0,199);stroke-width:1.2"/>
<line x1="52.6435565298216" y1="1155.23376511232" x2="103.887113059643" y2="1243.9902085825" style="stroke:rgb(50,0,199);stroke-width:1.2"/>
<line x1="52.6435565298216" y1="1155.23376511232" x2="1.4000000000002" y2="1243.9902085825" style="stroke:rgb(50,0,199);stroke-width:1.2"/>
<line x1="1.4000000000002" y1="1243.9902085825" x2="103.887113059643" y2="1243.9902085825" style="stroke:rgb(50,0,199);stroke-width:1.2"/>
<line x1="1.4000000000002" y1="1243.9902085825" x2="52.6435565298216" y2="1332.74665205268" style="stroke:rgb(50,0,199);stroke-width:1.2"/>
<line x1="103.887113059643" y1="1243.9902085825" x2="52.6435565298216" y2="1332.74665205268" style="stroke:rgb(50,0,199);stroke-width:1.2"/>
<line x1="52.6435565298216" y1="1332.74665205268" x2="155.130669589464" y2="1332.74665205268" style="stroke:rgb(50,0,199);stroke-width:1.2"/>
<line x1="52.6435565298216" y1="1332.74665205268" x2="103.887113059643" y2="1421.50309552286" style="stroke:rgb(50,0,199);stroke-width:1.2"/>
<line x1="52.6435565298216" y1="1332.74665205268" x2="1.40000000000023" y2="1421.50309552286" style="stroke:rgb(50,0,199);stroke-width:1.2"/>
<line x1="1.40000000000023" y1="1421.50309552286" x2="103.887113059643" y2="1421.50309552286" style="stroke:rgb(50,0,199);stroke-width:1.2"/>
<line x1="103.887113059643" y1="1.4" x2="206.374226119286" y2="1.4" style="stroke:rgb(50,0,199);stroke-width:1.2"/>
<line x1="103.887113059643" y1="1.4" x2="155.130669589464" y2="90.1564434701786" style="stroke:rgb(50,0,199);stroke-width:1.2"/>
<line x1="206.374226119286" y1="1.4" x2="155.130669589464" y2="90.1564434701786" style="stroke:rgb(50,0,199);stroke-width:1.2"/>
<line x1="155.130669589464" y1="90.1564434701786" x2="257.617782649107" y2="90.1564434701786" style="stroke:rgb(50,0,199);stroke-width:1.2"/>
<line x1="155.130669589464" y1="90.1564434701786" x2="206.374226119286" y2="178.912886940357" style="stroke:rgb(50,0,199);stroke-width:1.2"/>
<line x1="155.130669589464" y1="90.1564434701786" x2="103.887113059643" y2="178.912886940357" style="stroke:rgb(50,0,199);stroke-width:1.2"/>
<line x1="103.887113059643" y1="178.912886940357" x2="206.374226119286" y2="178.912886940357" style="stroke:rgb(50,0,199);stroke-width:1.2"/>
<line x1="103.887113059643" y1="178.912886940357" x2="155.130669589464" y2="267.669330410536" style="stroke:rgb(50,0,199);stroke-width:1.2"/>
<line x1="206.374226119286" y1="178.912886940357" x2="155.130669589464" y2="267.669330410536" style="stroke:rgb(50,0,199);stroke-width:1.2"/>
<line x1="155.130669589464" y1="267.669330410536" x2="257.617782649107" y2="267.669330410536" style="stroke:rgb(50,0,199);stroke-width:1.2"/>
<line x1="155.130669589464" y1="267.669330410536" x2="206.374226119286" y2="356.425773880714" style="stroke:rgb(50,0,199);stroke-width:1.2"/>
<line x1="155.130669589464" y1="267.669330410536" x2="103.887113059643" y2="356.425773880714" style="stroke:rgb(50,0,199);stroke-width:1.2"/>
<line x1="103.887113059643" y1="356.425773880714" x2="206.374226119286" y2="356.425773880714" style="stroke:rgb(50,0,199);stroke-width:1.2"/>
<line x1="103.887113059643" y1="356.425773880714" x2="155.130669589464" y2="445.182217350893" style="stroke:rgb(50,0,199);stroke-width:1.2"/>
<line x1="206.374226119286" y1="356.425773880714" x2="155.130669589464" y2="445.182217350893" style="stroke:rgb(50,0,199);stroke-width:1.2"/>
<line x1="155.130669589464" y1="445.182217350893" x2="257.617782649107" y2="445.182217350893" style="stroke:rgb(50,0,199);stroke-width:1.2"/>
<line x1="155.130669589464" y1="445.182217350893" x2="206.374226119286" y2="533.938660821071" style="stroke:rgb(50,0,199);stroke-width:1.2"/>
<line x1="155.130669589464" y1="445.182217350893" x2="103.887113059643" y2="533.938660821071" style="stroke:rgb(50,0,199);stroke-width:1.2"/>
<line x1="103.887113059643" y1="533.938660821071" x2="206.374226119286" y2="533.938660821071" style="stroke:rgb(50,0,199);stroke-width:1.2"/>
<line x1="103.887113059643" y1="533.938660821071" x2="155.130669589464" y2="622.69510429125" style="stroke:rgb(50,0,199);stroke-width:1.2"/>
<line x1="206.374226119286" y1="533.938660821071" x2="155.130669589464" y2="622.69510429125" style="stroke:rgb(50,0,199);stroke-width:1.2"/>
<line x1="155.130669589464" y1="622.69510429125" x2="257.617782649107" y2="622.69510429125" style="stroke:rgb(50,0,199);stroke-width:1.2"/>
<line x1="155.130669589464" y1="622.69510429125" x2="206.374226119286" y2="711.451547761429" style="stroke:rgb(50,0,199);stroke-width:1.2"/>
<line x1="155.130669589464" y1="622.69510429125" x2="103.887113059643" y2="711.451547761429" style="stroke:rgb(50,0,199);stroke-width:1.2"/>
<line x1="103.887113059643" y1="711.451547761429" x2="206.374226119286" y2="711.451547761429" style="stroke:rgb(50,0,199);stroke-width:1.2"/>
<line x1="103.887113059643" y1="711.451547761429" x2="155.130669589464" y2="800.207991231607" style="stroke:rgb(50,0,199);stroke-width:1.2"/>
<line x1="206.374226119286" y1="711.451547761429" x2="155.130669589464" y2="800.207991231607" style="stroke:rgb(50,0,199);stroke-width:1.2"/>
<line x1="155.130669589464" y1="800.207991231607" x2="257.617782649107" y2="800.207991231607" style="stroke:rgb(50,0,199);stroke-width:1.2"/>
<line x1="155.130669589464" y1="800.207991231607" x2="206.374226119286" y2="888.964434701786" style="stroke:rgb(50,0,199);stroke-width:1.2"/>
<line x1="155.130669589464" y1="800.207991231607" x2="103.887113059643" y2="888.964434701786" style="stroke:rgb(50,0,199);stroke-width:1.2"/>
<line x1="103.887113059643" y1="888.964434701786" x2="206.374226119286" y2="888.964434701786" style="stroke:rgb(50,0,199);stroke-width:1.2"/>
<line x1="103.887113059643" y1="888.964434701786" x2="155.130669589464" y2="977.720878171964" style="stroke:rgb(50,0,199);stroke-width:1.2"/>
<line x1="206.374226119286" y1="888.964434701786" x2="155.130669589464" y2="977.720878171964" style="stroke:rgb(50,0,199);stroke-width:1.2"/>
<line x1="155.130669589464" y1="977.720878171964" x2="257.617782649107" y2="977.720878171964" style="stroke:rgb(50,0,199);stroke-width:1.2"/>
<line x1="155.130669589464" y1="977.720878171964" x2="206.374226119286" y2="1066.47732164214" style="stroke:rgb(50,0,199);stroke-width:1.2"/>
<line x1="155.130669589464" y1="977.720878171964" x2="103.887113059643" y2="1066.47732164214" style="stroke:rgb(50,0,199);stroke-width:1.2"/>
<line x1="103.887113059643" y1="1066.47732164214" x2="206.374226119286" y2="1066.47732164214" style="stroke:rgb(50,0,199);stroke-width:1.2"/>
<line x1="103.887113059643" y1="1066.47732164214" x2="155.130669589464" y2="1155.23376511232" style="stroke:rgb(50,0,199);stroke-width:1.2"/>
<line x1="206.374226119286" y1="1066.47732164214" x2="155.130669589464" y2="1155.23376511232" style="stroke:rgb(50,0,199);stroke-width:1.2"/>
<line x1="155.130669589464" y1="1155.23376511232" x2="257.617782649107" y2="1155.23376511232" style="stroke:rgb(50,0,199);stroke-width:1.2"/>
<line x1="155.130669589464" y1="1155.23376511232" x2="206.374226119286" y2="1243.9902085825" style="stroke:rgb(50,0,199);stroke-width:1.2"/>
<line x1="155.130669589464" y1="1155.23376511232" x2="103.887113059643" y2="1243.9902085825" style="stroke:rgb(50,0,199);stroke-width:1.2"/>
<line x1="103.887113059643" y1="1243.9902085825" x2="206.374226119286" y2="1243.9902085825" style="stroke:rgb(50,0,199);stroke-width:1.2"/>
<line x1="103.887113059643" y1="1243.9902085825" x2="155.130669589464" y2="1332.74665205268" style="stroke:rgb(50,0,199);stroke-width:1.2"/>
<line x1="206.374226119286" y1="1243.9902085825" x2="155.130669589464" y2="1332.74665205268" style="stroke:rgb(50,0,199);stroke-width:1.2"/>
<line x1="155.130669589464" y1="1332.74665205268" x2="257.617782649107" y2="1332.74665205268" style="stroke:rgb(50,0,199);stroke-width:1.2"/>
<line x1="155.130669589464" y1="1332.74665205268" x2="206.374226119286" y2="1421.50309552286" style="stroke:rgb(50,0,199);stroke-width:1.2"/>
<line x1="155.130669589464" y1="1332.74665205268" x2="103.887113059643" y2="1421.50309552286" style="stroke:rgb(50,0,199);stroke-width:1.2"/>
<line x1="103.887113059643" y1="1421.50309552286" x2="206.374226119286" y2="1421.50309552286" style="stroke:rgb(50,0,199);stroke-width:1.2"/>
<line x1="206.374226119286" y1="1.4" x2="308.861339178928" y2="1.4" style="stroke:rgb(50,0,199);stroke-width:1.2"/>
<line x1="206.374226119286" y1="1.4" x2="257.617782649107" y2="90.1564434701786" style="stroke:rgb(50,0,199);stroke-width:1.2"/>
<line x1="308.861339178928" y1="1.4" x2="257.617782649107" y2="90.1564434701786" style="stroke:rgb(50,0,199);stroke-width:1.2"/>
<line x1="257.617782649107" y1="90.1564434701786" x2="360.10489570875" y2="90.1564434701786" style="stroke:rgb(50,0,199);stroke-width:1.2"/>
<line x1="257.617782649107" y1="90.1564434701786" x2="308.861339178928" y2="178.912886940357" style="stroke:rgb(50,0,199);stroke-width:1.2"/>
<line x1="257.617782649107" y1="90.1564434701786" x2="206.374226119286" y2="178.912886940357" style="stroke:rgb(50,0,199);stroke-width:1.2"/>
<line x1="206.374226119286" y1="178.912886940357" x2="308.861339178928" y2="178.912886940357" style="stroke:rgb(50,0,199);stroke-width:1.2"/>
<line x1="206.374226119286" y1="178.912886940357" x2="257.617782649107" y2="267.669330410536" style="stroke:rgb(50,0,199);stroke-width:1.2"/>
<line x1="308.861339178928" y1="178.912886940357" x2="257.617782649107" y2="267.669330410536" style="stroke:rgb(50,0,199);stroke-width:1.2"/>
<line x1="257.617782649107" y1="267.669330410536" x2="360.10489570875" y2="267.669330410536" style="stroke:rgb(50,0,199);stroke-width:1.2"/>
<line x1="257.617782649107" y1="267.669330410536" x2="308.861339178928" y2="356.425773880714" style="stroke:rgb(50,0,199);stroke-width:1.2"/>
<line x1="257.617782649107" y1="267.669330410536" x2="206.374226119286" y2="356.425773880714" style="stroke:rgb(50,0,199);stroke-width:1.2"/>
<line x1="206.374226119286" y1="356.425773880714" x2="308.861339178928" y2="356.425773880714" style="stroke:rgb(50,0,199);stroke-width:1.2"/>
<line x1="206.374226119286" y1="356.425773880714" x2="257.617782649107" y2="445.182217350893" style="stroke:rgb(50,0,199);stroke-width:1.2"/>
<line x1="308.861339178928" y1="356.425773880714" x2="257.617782649107" y2="445.182217350893" style="stroke:rgb(50,0,199);stroke-width:1.2"/>
<line x1="257.617782649107" y1="445.182217350893" x2="360.10489570875" y2="445.182217350893" style="stroke:rgb(50,0,199);stroke-width:1.2"/>
<line x1="257.617782649107" y1="445.182217350893" x2="308.861339178928" y2="533.938660821071" style="stroke:rgb(50,0,199);stroke-width:1.2"/>
<line x1="257.617782649107" y1="445.182217350893" x2="206.374226119286" y2="533.938660821071" style="stroke:rgb(50,0,199);stroke-width:1.2"/>
<line x1="206.374226119286" y1="533.938660821071" x2="308.861339178928" y2="533.938660821071" style="stroke:rgb(50,0,199);stroke-width:1.2"/>
<line x1="206.374226119286" y1="533.938660821071" x2="257.617782649107" y2="622.69510429125" style="stroke:rgb(50,0,199);stroke-width:1.2"/>
<line x1="308.861339178928" y1="533.938660821071" x2="257.617782649107" y2="622.69510429125" style="stroke:rgb(50,0,199);stroke-width:1.2"/>
<line x1="257.617782649107" y1="622.69510429125" x2="360.10489570875" y2="622.69510429125" style="stroke:rgb(50,0,199);stroke-width:1.2"/>
<line x1="257.617782649107" y1="622.69510429125" x2="308.861339178929" y2="711.451547761429" style="stroke:rgb(50,0,199);stroke-width:1.2"/>
<line x1="257.617782649107" y1="622.69510429125" x2="206.374226119286" y2="711.451547761429" style="stroke:rgb(50,0,199);stroke-width:1.2"/>
<line x1="206.374226119286" y1="711.451547761429" x2="308.861339178929" y2="711.451547761429" style="stroke:rgb(50,0,199);stroke-width:1.2"/>
<line x1="206.374226119286" y1="711.451547761429" x2="257.617782649107" y2="800.207991231607" style="stroke:rgb(50,0,199);stroke-width:1.2"/>
<line x1="308.861339178929" y1="711.451547761429" x2="257.617782649107" y2="800.207991231607" style="stroke:rgb(50,0,199);stroke-width:1.2"/>
<line x1="257.617782649107" y1="800.207991231607" x2="360.10489570875" y2="800.207991231607" style="stroke:rgb(50,0,199);stroke-width:1.2"/>
<line x1="257.617782649107" y1="800.207991231607" x2="308.861339178929" y2="888.964434701786" style="stroke:rgb(50,0,199);stroke-width:1.2"/>
<line x1="257.617782649107" y1="800.207991231607" x2="206.374226119286" y2="888.964434701786" style="stroke:rgb(50,0,199);stroke-width:1.2"/>
<line x1="206.374226119286" y1="888.964434701786" x2="308.861339178929" y2="888.964434701786" style="stroke:rgb(50,0,199);stroke-width:1.2"/>
<line x1="206.374226119286" y1="888.964434701786" x2="257.617782649107" y2="977.720878171964" style="stroke:rgb(50,0,199);stroke-width:1.2"/>
<line x1="308.861339178929" y1="888.964434701786" x2="257.617782649107" y2="977.720878171964" style="stroke:rgb(50,0,199);stroke-width:1.2"/>
<line x1="257.617782649107" y1="977.720878171964" x2="360.10489570875" y2="977.720878171964" style="stroke:rgb(50,0,199);stroke-width:1.2"/>
<line x1="257.617782649107" y1="977.720878171964" x2="308.861339178929" y2="1066.47732164214" style="stroke:rgb(50,0,199);stroke-width:1.2"/>
<line x1="257.617782649107" y1="977.720878171964" x2="206.374226119286" y2="1066.47732164214" style="stroke:rgb(50,0,199);stroke-width:1.2"/>
<line x1="206.374226119286" y1="1066.47732164214" x2="308.861339178929" y2="1066.47732164214" style="stroke:rgb(50,0,199);stroke-width:1.2"/>
<line x1="206.374226119286" y1="1066.47732164214" x2="257.617782649107" y2="1155.23376511232" style="stroke:rgb(50,0,199);stroke-width:1.2"/>
<line x1="308.861339178929" y1="1066.47732164214" x2="257.617782649107" y2="1155.23376511232" style="stroke:rgb(50,0,199);stroke-width:1.2"/>
<line x1="257.617782649107" y1="1155.23376511232" x2="360.10489570875" y2="1155.23376511232" style="stroke:rgb(50,0,199);stroke-width:1.2"/>
<line x1="257.617782649107" y1="1155.23376511232" x2="308.861339178929" y2="1243.9902085825" style="stroke:rgb(50,0,199);stroke-width:1.2"/>
<line x1="257.617782649107" y1="1155.23376511232" x2="206.374226119286" y2="1243.9902085825" style="stroke:rgb(50,0,199);stroke-width:1.2"/>
<line x1="206.374226119286" y1="1243.9902085825" x2="308.861339178929" y2="1243.9902085825" style="stroke:rgb(50,0,199);stroke-width:1.2"/>
<line x1="206.374226119286" y1="1243.9902085825" x2="257.617782649107" y2="1332.74665205268" style="stroke:rgb(50,0,199);stroke-width:1.2"/>
<line x1="308.861339178929" y1="1243.9902085825" x2="257.617782649107" y2="1332.74665205268" style="stroke:rgb(50,0,199);stroke-width:1.2"/>
<line x1="257.617782649107" y1="1332.74665205268" x2="360.10489570875" y2="1332.74665205268" style="stroke:rgb(50,0,199);stroke-width:1.2"/>
<line x1="257.617782649107" y1="1332.74665205268" x2="308.861339178929" y2="1421.50309552286" style="stroke:rgb(50,0,199);stroke-width:1.2"/>
<line x1="257.617782649107" y1="1332.74665205268" x2="206.374226119286" y2="1421.50309552286" style="stroke:rgb(50,0,199);stroke-width:1.2"/>
<line x1="206.374226119286" y1="1421.50309552286" x2="308.861339178929" y2="1421.50309552286" style="stroke:rgb(50,0,199);stroke-width:1.2"/>
<line x1="308.861339178928" y1="1.4" x2="411.348452238571" y2="1.4" style="stroke:rgb(50,0,199);stroke-width:1.2"/>
<line x1="308.861339178928" y1="1.4" x2="360.10489570875" y2="90.1564434701786" style="stroke:rgb(50,0,199);stroke-width:1.2"/>
<line x1="411.348452238571" y1="1.4" x2="360.10489570875" y2="90.1564434701786" style="stroke:rgb(50,0,199);stroke-width:1.2"/>
<line x1="360.10489570875" y1="90.1564434701786" x2="462.592008768393" y2="90.1564434701786" style="stroke:rgb(50,0,199);stroke-width:1.2"/>
<line x1="360.10489570875" y1="90.1564434701786" x2="411.348452238571" y2="178.912886940357" style="stroke:rgb(50,0,199);stroke-width:1.2"/>
<line x1="360.10489570875" y1="90.1564434701786" x2="308.861339178928" y2="178.912886940357" style="stroke:rgb(50,0,199);stroke-width:1.2"/>
<line x1="308.861339178928" y1="178.912886940357" x2="411.348452238571" y2="178.912886940357" style="stroke:rgb(50,0,199);stroke-width:1.2"/>
<line x1="308.861339178928" y1="178.912886940357" x2="360.10489570875" y2="267.669330410536" style="stroke:rgb(50,0,199);stroke-width:1.2"/>
<line x1="411.348452238571" y1="178.912886940357" x2="360.10489570875" y2="267.669330410536" style="stroke:rgb(50,0,199);stroke-width:1.2"/>
<line x1="360.10489570875" y1="267.669330410536" x2="462.592008768393" y2="267.669330410536" style="stroke:rgb(50,0,199);stroke-width:1.2"/>
<line x1="360.10489570875" y1="267.669330410536" x2="411.348452238571" y2="356.425773880714" style="stroke:rgb(50,0,199);stroke-width:1.2"/>
<line x1="360.10489570875" y1="267.669330410536" x2="308.861339178928" y2="356.425773880714" style="stroke:rgb(50,0,199);stroke-width:1.2"/>
<line x1="308.861339178928" y1="356.425773880714" x2="411.348452238571" y2="356.425773880714" style="stroke:rgb(50,0,199);stroke-width:1.2"/>
<line x1="308.861339178928" y1="356.425773880714" x2="360.10489570875" y2="445.182217350893" style="stroke:rgb(50,0,199);stroke-width:1.2"/>
<line x1="411.348452238571" y1="356.425773880714" x2="360.10489570875" y2="445.182217350893" style="stroke:rgb(50,0,199);stroke-width:1.2"/>
<line x1="360.10489570875" y1="445.182217350893" x2="462.592008768393" y2="445.182217350893" style="stroke:rgb(50,0,199);stroke-width:1.2"/>
<line x1="360.10489570875" y1="445.182217350893" x2="411.348452238571" y2="533.938660821071" style="stroke:rgb(50,0,199);stroke-width:1.2"/>
<line x1="360.10489570875" y1="445.182217350893" x2="308.861339178928" y2="533.938660821071" style="stroke:rgb(50,0,199);stroke-width:1.2"/>
<line x1="308.861339178928" y1="533.938660821071" x2="411.348452238571" y2="533.938660821071" style="stroke:rgb(50,0,199);stroke-width:1.2"/>
<line x1="308.861339178928" y1="533.938660821071" x2="360.10489570875" y2="622.69510429125" style="stroke:rgb(50,0,199);stroke-width:1.2"/>
<line x1="411.348452238571" y1="533.938660821071" x2="360.10489570875" y2="622.69510429125" style="stroke:rgb(50,0,199);stroke-width:1.2"/>
<line x1="360.10489570875" y1="622.69510429125" x2="462.592008768393" y2="622.69510429125" style="stroke:rgb(50,0,199);stroke-width:1.2"/>
<line x1="360.10489570875" y1="622.69510429125" x2="411.348452238571" y2="711.451547761429" style="stroke:rgb(50,0,199);stroke-width:1.2"/>
<line x1="360.10489570875" y1="622.69510429125" x2="308.861339178928" y2="711.451547761429" style="stroke:rgb(50,0,199);stroke-width:1.2"/>
<line x1="308.861339178929" y1="711.451547761429" x2="411.348452238571" y2="711.451547761429" style="stroke:rgb(50,0,199);stroke-width:1.2"/>
<line x1="308.861339178929" y1="711.451547761429" x2="360.10489570875" y2="800.207991231607" style="stroke:rgb(50,0,199);stroke-width:1.2"/>
<line x1="411.348452238571" y1="711.451547761429" x2="360.10489570875" y2="800.207991231607" style="stroke:rgb(50,0,199);stroke-width:1.2"/>
<line x1="360.10489570875" y1="800.207991231607" x2="462.592008768393" y2="800.207991231607" style="stroke:rgb(50,0,199);stroke-width:1.2"/>
<line x1="360.10489570875" y1="800.207991231607" x2="411.348452238571" y2="888.964434701786" style="stroke:rgb(50,0,199);stroke-width:1.2"/>
<line x1="360.10489570875" y1="800.207991231607" x2="308.861339178929" y2="888.964434701786" style="stroke:rgb(50,0,199);stroke-width:1.2"/>
<line x1="308.861339178929" y1="888.964434701786" x2="411.348452238571" y2="888.964434701786" style="stroke:rgb(50,0,199);stroke-width:1.2"/>
<line x1="308.861339178929" y1="888.964434701786" x2="360.10489570875" y2="977.720878171964" style="stroke:rgb(50,0,199);stroke-width:1.2"/>
<line x1="411.348452238571" y1="888.964434701786" x2="360.10489570875" y2="977.720878171964" style="stroke:rgb(50,0,199);stroke-width:1.2"/>
<line x1="360.10489570875" y1="977.720878171964" x2="462.592008768393" y2="977.720878171964" style="stroke:rgb(50,0,199);stroke-width:1.2"/>
<line x1="360.10489570875" y1="977.720878171964" x2="411.348452238571" y2="1066.47732164214" style="stroke:rgb(50,0,199);stroke-width:1.2"/>
<line x1="360.10489570875" y1="977.720878171964" x2="308.861339178929" y2="1066.47732164214" style="stroke:rgb(50,0,199);stroke-width:1.2"/>
<line x1="308.861339178929" y1="1066.47732164214" x2="411.348452238571" y2="1066.47732164214" style="stroke:rgb(50,0,199);stroke-width:1.2"/>
<line x1="308.861339178929" y1="1066.47732164214" x2="360.10489570875" y2="1155.23376511232" style="stroke:rgb(50,0,199);stroke-width:1.2"/>
<line x1="411.348452238571" y1="1066.47732164214" x2="360.10489570875" y2="1155.23376511232" style="stroke:rgb(50,0,199);stroke-width:1.2"/>
<line x1="360.10489570875" y1="1155.23376511232" x2="462.592008768393" y2="1155.23376511232" style="stroke:rgb(50,0,199);stroke-width:1.2"/>
<line x1="360.10489570875" y1="1155.23376511232" x2="411.348452238571" y2="1243.9902085825" style="stroke:rgb(50,0,199);stroke-width:1.2"/>
<line x1="360.10489570875" y1="1155.23376511232" x2="308.861339178929" y2="1243.9902085825" style="stroke:rgb(50,0,199);stroke-width:1.2"/>
<line x1="308.861339178929" y1="1243.9902085825" x2="411.348452238571" y2="1243.9902085825" style="stroke:rgb(50,0,199);stroke-width:1.2"/>
<line x1="308.861339178929" y1="1243.9902085825" x2="360.10489570875" y2="1332.74665205268" style="stroke:rgb(50,0,199);stroke-width:1.2"/>
<line x1="411.348452238571" y1="1243.9902085825" x2="360.10489570875" y2="1332.74665205268" style="stroke:rgb(50,0,199);stroke-width:1.2"/>
<line x1="360.10489570875" y1="1332.74665205268" x2="462.592008768393" y2="1332.74665205268" style="stroke:rgb(50,0,199);stroke-width:1.2"/>
<line x1="360.10489570875" y1="1332.74665205268" x2="411.348452238571" y2="1421.50309552286" style="stroke:rgb(50,0,199);stroke-width:1.2"/>
<line x1="360.10489570875" y1="1332.74665205268" x2="308.861339178929" y2="1421.50309552286" style="stroke:rgb(50,0,199);stroke-width:1.2"/>
<line x1="308.861339178929" y1="1421.50309552286" x2="411.348452238571" y2="1421.50309552286" style="stroke:rgb(50,0,199);stroke-width:1.2"/>
<line x1="411.348452238571" y1="1.4" x2="513.835565298214" y2="1.4" style="stroke:rgb(50,0,199);stroke-width:1.2"/>
<line x1="411.348452238571" y1="1.4" x2="462.592008768393" y2="90.1564434701786" style="stroke:rgb(50,0,199);stroke-width:1.2"/>
<line x1="513.835565298214" y1="1.4" x2="462.592008768393" y2="90.1564434701786" style="stroke:rgb(50,0,199);stroke-width:1.2"/>
<line x1="462.592008768393" y1="90.1564434701786" x2="565.079121828035" y2="90.1564434701786" style="stroke:rgb(50,0,199);stroke-width:1.2"/>
<line x1="462.592008768393" y1="90.1564434701786" x2="513.835565298214" y2="178.912886940357" style="stroke:rgb(50,0,199);stroke-width:1.2"/>
<line x1="462.592008768393" y1="90.1564434701786" x2="411.348452238571" y2="178.912886940357" style="stroke:rgb(50,0,199);stroke-width:1.2"/>
<line x1="411.348452238571" y1="178.912886940357" x2="513.835565298214" y2="178.912886940357" style="stroke:rgb(50,0,199);stroke-width:1.2"/>
<line x1="411.348452238571" y1="178.912886940357" x2="462.592008768393" y2="267.669330410536" style="stroke:rgb(50,0,199);stroke-width:1.2"/>
<line x1="513.835565298214" y1="178.912886940357" x2="462.592008768393" y2="267.669330410536" style="stroke:rgb(50,0,199);stroke-width:1.2"/>
<line x1="462.592008768393" y1="267.669330410536" x2="565.079121828035" y2="267.669330410536" style="stroke:rgb(50,0,199);stroke-width:1.2"/>
<line x1="462.592008768393" y1="267.669330410536" x2="513.835565298214" y2="356.425773880714" style="stroke:rgb(50,0,199);stroke-width:1.2"/>
<line x1="462.592008768393" y1="267.669330410536" x2="411.348452238571" y2="356.425773880714" style="stroke:rgb(50,0,199);stroke-width:1.2"/>
<line x1="411.348452238571" y1="356.425773880714" x2="513.835565298214" y2="356.425773880714" style="stroke:rgb(50,0,199);stroke-width:1.2"/>
<line x1="411.348452238571" y1="356.425773880714" x2="462.592008768393" y2="445.182217350893" style="stroke:rgb(50,0,199);stroke-width:1.2"/>
<line x1="513.835565298214" y1="356.425773880714" x2="462.592008768393" y2="445.182217350893" style="stroke:rgb(50,0,199);stroke-width:1.2"/>
<line x1="462.592008768393" y1="445.182217350893" x2="565.079121828035" y2="445.182217350893" style="stroke:rgb(50,0,199);stroke-width:1.2"/>
<line x1="462.592008768393" y1="445.182217350893" x2="513.835565298214" y2="533.938660821071" style="stroke:rgb(50,0,199);stroke-width:1.2"/>
<line x1="462.592008768393" y1="445.182217350893" x2="411.348452238571" y2="533.938660821071" style="stroke:rgb(50,0,199);stroke-width:1.2"/>
<line x1="411.348452238571" y1="533.938660821071" x2="513.835565298214" y2="533.938660821071" style="stroke:rgb(50,0,199);stroke-width:1.2"/>
<line x1="411.348452238571" y1="533.938660821071" x2="462.592008768393" y2="622.69510429125" style="stroke:rgb(50,0,199);stroke-width:1.2"/>
<line x1="513.835565298214" y1="533.938660821071" x2="462.592008768393" y2="622.69510429125" style="stroke:rgb(50,0,199);stroke-width:1.2"/>
<line x1="462.592008768393" y1="622.69510429125" x2="565.079121828036" y2="622.69510429125" style="stroke:rgb(50,0,199);stroke-width:1.2"/>
<line x1="462.592008768393" y1="622.69510429125" x2="513.835565298214" y2="711.451547761429" style="stroke:rgb(50,0,199);stroke-width:1.2"/>
<line x1="462.592008768393" y1="622.69510429125" x2="411.348452238571" y2="711.451547761429" style="stroke:rgb(50,0,199);stroke-width:1.2"/>
<line x1="411.348452238571" y1="711.451547761429" x2="513.835565298214" y2="711.451547761429" style="stroke:rgb(50,0,199);stroke-width:1.2"/>
<line x1="411.348452238571" y1="711.451547761429" x2="462.592008768393" y2="800.207991231607" style="stroke:rgb(50,0,199);stroke-width:1.2"/>
<line x1="513.835565298214" y1="711.451547761429" x2="462.592008768393" y2="800.207991231607" style="stroke:rgb(50,0,199);stroke-width:1.2"/>
<line x1="462.592008768393" y1="800.207991231607" x2="565.079121828036" y2="800.207991231607" style="stroke:rgb(50,0,199);stroke-width:1.2"/>
<line x1="462.592008768393" y1="800.207991231607" x2="513.835565298214" y2="888.964434701786" style="stroke:rgb(50,0,199);stroke-width:1.2"/>
<line x1="462.592008768393" y1="800.207991231607" x2="411.348452238571" y2="888.964434701786" style="stroke:rgb(50,0,199);stroke-width:1.2"/>
<line x1="411.348452238571" y1="888.964434701786" x2="513.835565298214" y2="888.964434701786" style="stroke:rgb(50,0,199);stroke-width:1.2"/>
<line x1="411.348452238571" y1="888.964434701786" x2="462.592008768393" y2="977.720878171964" style="stroke:rgb(50,0,199);stroke-width:1.2"/>
<line x1="513.835565298214" y1="888.964434701786" x2="462.592008768393" y2="977.720878171964" style="stroke:rgb(50,0,199);stroke-width:1.2"/>
<line x1="462.592008768393" y1="977.720878171964" x2="565.079121828036" y2="977.720878171964" style="stroke:rgb(50,0,199);stroke-width:1.2"/>
<line x1="462.592008768393" y1="977.720878171964" x2="513.835565298214" y2="1066.47732164214" style="stroke:rgb(50,0,199);stroke-width:1.2"/>
<line x1="462.592008768393" y1="977.720878171964" x2="411.348452238571" y2="1066.47732164214" style="stroke:rgb(50,0,199);stroke-width:1.2"/>
<line x1="411.348452238571" y1="1066.47732164214" x2="513.835565298214" y2="1066.47732164214" style="stroke:rgb(50,0,199);stroke-width:1.2"/>
<line x1="411.348452238571" y1="1066.47732164214" x2="462.592008768393" y2="1155.23376511232" style="stroke:rgb(50,0,199);stroke-width:1.2"/>
<line x1="513.835565298214" y1="1066.47732164214" x2="462.592008768393" y2="1155.23376511232" style="stroke:rgb(50,0,199);stroke-width:1.2"/>
<line x1="462.592008768393" y1="1155.23376511232" x2="565.079121828036" y2="1155.23376511232" style="stroke:rgb(50,0,199);stroke-width:1.2"/>
<line x1="462.592008768393" y1="1155.23376511232" x2="513.835565298214" y2="1243.9902085825" style="stroke:rgb(50,0,199);stroke-width:1.2"/>
<line x1="462.592008768393" y1="1155.23376511232" x2="411.348452238571" y2="1243.9902085825" style="stroke:rgb(50,0,199);stroke-width:1.2"/>
<line x1="411.348452238571" y1="1243.9902085825" x2="513.835565298214" y2="1243.9902085825" style="stroke:rgb(50,0,199);stroke-width:1.2"/>
<line x1="411.348452238571" y1="1243.9902085825" x2="462.592008768393" y2="1332.74665205268" style="stroke:rgb(50,0,199);stroke-width:1.2"/>
<line x1="513.835565298214" y1="1243.9902085825" x2="462.592008768393" y2="1332.74665205268" style="stroke:rgb(50,0,199);stroke-width:1.2"/>
<line x1="462.592008768393" y1="1332.74665205268" x2="565.079121828036" y2="1332.74665205268" style="stroke:rgb(50,0,199);stroke-width:1.2"/>
<line x1="462.592008768393" y1="1332.74665205268" x2="513.835565298214" y2="1421.50309552286" style="stroke:rgb(50,0,199);stroke-width:1.2"/>
<line x1="462.592008768393" y1="1332.74665205268" x2="411.348452238571" y2="1421.50309552286" style="stroke:rgb(50,0,199);stroke-width:1.2"/>
<line x1="411.348452238571" y1="1421.50309552286" x2="513.835565298214" y2="1421.50309552286" style="stroke:rgb(50,0,199);stroke-width:1.2"/>
<line x1="513.835565298214" y1="1.4" x2="616.322678357857" y2="1.4" style="stroke:rgb(50,0,199);stroke-width:1.2"/>
<line x1="513.835565298214" y1="1.4" x2="565.079121828035" y2="90.1564434701786" style="stroke:rgb(50,0,199);stroke-width:1.2"/>
<line x1="616.322678357857" y1="1.4" x2="565.079121828035" y2="90.1564434701786" style="stroke:rgb(50,0,199);stroke-width:1.2"/>
<line x1="565.079121828035" y1="90.1564434701786" x2="667.566234887678" y2="90.1564434701786" style="stroke:rgb(50,0,199);stroke-width:1.2"/>
<line x1="565.079121828035" y1="90.1564434701786" x2="616.322678357857" y2="178.912886940357" style="stroke:rgb(50,0,199);stroke-width:1.2"/>
<line x1="565.079121828035" y1="90.1564434701786" x2="513.835565298214" y2="178.912886940357" style="stroke:rgb(50,0,199);stroke-width:1.2"/>
<line x1="513.835565298214" y1="178.912886940357" x2="616.322678357857" y2="178.912886940357" style="stroke:rgb(50,0,199);stroke-width:1.2"/>
<line x1="513.835565298214" y1="178.912886940357" x2="565.079121828035" y2="267.669330410536" style="stroke:rgb(50,0,199);stroke-width:1.2"/>
<line x1="616.322678357857" y1="178.912886940357" x2="565.079121828035" y2="267.669330410536" style="stroke:rgb(50,0,199);stroke-width:1.2"/>
<line x1="565.079121828035" y1="267.669330410536" x2="667.566234887678" y2="267.669330410536" style="stroke:rgb(50,0,199);stroke-width:1.2"/>
<line x1="565.079121828035" y1="267.669330410536" x2="616.322678357857" y2="356.425773880714" style="stroke:rgb(50,0,199);stroke-width:1.2"/>
<line x1="565.079121828035" y1="267.669330410536" x2="513.835565298214" y2="356.425773880714" style="stroke:rgb(50,0,199);stroke-width:1.2"/>
<line x1="513.835565298214" y1="356.425773880714" x2="616.322678357857" y2="356.425773880714" style="stroke:rgb(50,0,199);stroke-width:1.2"/>
<line x1="513.835565298214" y1="356.425773880714" x2="565.079121828035" y2="445.182217350893" style="stroke:rgb(50,0,199);stroke-width:1.2"/>
<line x1="616.322678357857" y1="356.425773880714" x2="565.079121828035" y2="445.182217350893" style="stroke:rgb(50,0,199);stroke-width:1.2"/>
<line x1="565.079121828035" y1="445.182217350893" x2="667.566234887678" y2="445.182217350893" style="stroke:rgb(50,0,199);stroke-width:1.2"/>
<line x1="565.079121828035" y1="445.182217350893" x2="616.322678357857" y2="533.938660821071" style="stroke:rgb(50,0,199);stroke-width:1.2"/>
<line x1="565.079121828035" y1="445.182217350893" x2="513.835565298214" y2="533.938660821071" style="stroke:rgb(50,0,199);stroke-width:1.2"/>
<line x1="513.835565298214" y1="533.938660821071" x2="616.322678357857" y2="533.938660821071" style="stroke:rgb(50,0,199);stroke-width:1.2"/>
<line x1="513.835565298214" y1="533.938660821071" x2="565.079121828035" y2="622.69510429125" style="stroke:rgb(50,0,199);stroke-width:1.2"/>
<line x1="616.322678357857" y1="533.938660821071" x2="565.079121828035" y2="622.69510429125" style="stroke:rgb(50,0,199);stroke-width:1.2"/>
<line x1="565.079121828035" y1="622.69510429125" x2="667.566234887678" y2="622.69510429125" style="stroke:rgb(50,0,199);stroke-width:1.2"/>
<line x1="565.079121828035" y1="622.69510429125" x2="616.322678357857" y2="711.451547761429" style="stroke:rgb(50,0,199);stroke-width:1.2"/>
<line x1="565.079121828035" y1="622.69510429125" x2="513.835565298214" y2="711.451547761429" style="stroke:rgb(50,0,199);stroke-width:1.2"/>
<line x1="513.835565298214" y1="711.451547761429" x2="616.322678357857" y2="711.451547761429" style="stroke:rgb(50,0,199);stroke-width:1.2"/>
<line x1="513.835565298214" y1="711.451547761429" x2="565.079121828035" y2="800.207991231607" style="stroke:rgb(50,0,199);stroke-width:1.2"/>
<line x1="616.322678357857" y1="711.451547761429" x2="565.079121828035" y2="800.207991231607" style="stroke:rgb(50,0,199);stroke-width:1.2"/>
<line x1="565.079121828035" y1="800.207991231607" x2="667.566234887678" y2="800.207991231607" style="stroke:rgb(50,0,199);stroke-width:1.2"/>
<line x1="565.079121828035" y1="800.207991231607" x2="616.322678357857" y2="888.964434701786" style="stroke:rgb(50,0,199);stroke-width:1.2"/>
<line x1="565.079121828035" y1="800.207991231607" x2="513.835565298214" y2="888.964434701786" style="stroke:rgb(50,0,199);stroke-width:1.2"/>
<line x1="513.835565298214" y1="888.964434701786" x2="616.322678357857" y2="888.964434701786" style="stroke:rgb(50,0,199);stroke-width:1.2"/>
<line x1="513.835565298214" y1="888.964434701786" x2="565.079121828035" y2="977.720878171964" style="stroke:rgb(50,0,199);stroke-width:1.2"/>
<line x1="616.322678357857" y1="888.964434701786" x2="565.079121828035" y2="977.720878171964" style="stroke:rgb(50,0,199);stroke-width:1.2"/>
<line x1="565.079121828035" y1="977.720878171964" x2="667.566234887678" y2="977.720878171964" style="stroke:rgb(50,0,199);stroke-width:1.2"/>
<line x1="565.079121828035" y1="977.720878171964" x2="616.322678357857" y2="1066.47732164214" style="stroke:rgb(50,0,199);stroke-width:1.2"/>
<line x1="565.079121828035" y1="977.720878171964" x2="513.835565298214" y2="1066.47732164214" style="stroke:rgb(50,0,199);stroke-width:1.2"/>
<line x1="513.835565298214" y1="1066.47732164214" x2="616.322678357857" y2="1066.47732164214" style="stroke:rgb(50,0,199);stroke-width:1.2"/>
<line x1="513.835565298214" y1="1066.47732164214" x2="565.079121828036" y2="1155.23376511232" style="stroke:rgb(50,0,199);stroke-width:1.2"/>
<line x1="616.322678357857" y1="1066.47732164214" x2="565.079121828036" y2="1155.23376511232" style="stroke:rgb(50,0,199);stroke-width:1.2"/>
<line x1="565.079121828036" y1="1155.23376511232" x2="667.566234887678" y2="1155.23376511232" style="stroke:rgb(50,0,199);stroke-width:1.2"/>
<line x1="565.079121828036" y1="1155.23376511232" x2="616.322678357857" y2="1243.9902085825" style="stroke:rgb(50,0,199);stroke-width:1.2"/>
<line x1="565.079121828036" y1="1155.23376511232" x2="513.835565298214" y2="1243.9902085825" style="stroke:rgb(50,0,199);stroke-width:1.2"/>
<line x1="513.835565298214" y1="1243.9902085825" x2="616.322678357857" y2="1243.9902085825" style="stroke:rgb(50,0,199);stroke-width:1.2"/>
<line x1="513.835565298214" y1="1243.9902085825" x2="565.079121828036" y2="1332.74665205268" style="stroke:rgb(50,0,199);stroke-width:1.2"/>
<line x1="616.322678357857" y1="1243.9902085825" x2="565.079121828036" y2="1332.74665205268" style="stroke:rgb(50,0,199);stroke-width:1.2"/>
<line x1="565.079121828036" y1="1332.74665205268" x2="667.566234887678" y2="1332.74665205268" style="stroke:rgb(50,0,199);stroke-width:1.2"/>
<line x1="565.079121828036" y1="1332.74665205268" x2="616.322678357857" y2="1421.50309552286" style="stroke:rgb(50,0,199);stroke-width:1.2"/>
<line x1="565.079121828036" y1="1332.74665205268" x2="513.835565298214" y2="1421.50309552286" style="stroke:rgb(50,0,199);stroke-width:1.2"/>
<line x1="513.835565298214" y1="1421.50309552286" x2="616.322678357857" y2="1421.50309552286" style="stroke:rgb(50,0,199);stroke-width:1.2"/>
<line x1="616.322678357857" y1="1.4" x2="718.8097914175" y2="1.4" style="stroke:rgb(50,0,199);stroke-width:1.2"/>
<line x1="616.322678357857" y1="1.4" x2="667.566234887678" y2="90.1564434701786" style="stroke:rgb(50,0,199);stroke-width:1.2"/>
<line x1="718.8097914175" y1="1.4" x2="667.566234887678" y2="90.1564434701786" style="stroke:rgb(50,0,199);stroke-width:1.2"/>
<line x1="667.566234887678" y1="90.1564434701786" x2="770.053347947321" y2="90.1564434701786" style="stroke:rgb(50,0,199);stroke-width:1.2"/>
<line x1="667.566234887678" y1="90.1564434701786" x2="718.8097914175" y2="178.912886940357" style="stroke:rgb(50,0,199);stroke-width:1.2"/>
<line x1="667.566234887678" y1="90.1564434701786" x2="616.322678357857" y2="178.912886940357" style="stroke:rgb(50,0,199);stroke-width:1.2"/>
<line x1="616.322678357857" y1="178.912886940357" x2="718.8097914175" y2="178.912886940357" style="stroke:rgb(50,0,199);stroke-width:1.2"/>
<line x1="616.322678357857" y1="178.912886940357" x2="667.566234887678" y2="267.669330410536" style="stroke:rgb(50,0,199);stroke-width:1.2"/>
<line x1="718.8097914175" y1="178.912886940357" x2="667.566234887678" y2="267.669330410536" style="stroke:rgb(50,0,199);stroke-width:1.2"/>
<line x1="667.566234887678" y1="267.669330410536" x2="770.053347947321" y2="267.669330410536" style="stroke:rgb(50,0,199);stroke-width:1.2"/>
<line x1="667.566234887678" y1="267.669330410536" x2="718.8097914175" y2="356.425773880714" style="stroke:rgb(50,0,199);stroke-width:1.2"/>
<line x1="667.566234887678" y1="267.669330410536" x2="616.322678357857" y2="356.425773880714" style="stroke:rgb(50,0,199);stroke-width:1.2"/>
<line x1="616.322678357857" y1="356.425773880714" x2="718.8097914175" y2="356.425773880714" style="stroke:rgb(50,0,199);stroke-width:1.2"/>
<line x1="616.322678357857" y1="356.425773880714" x2="667.566234887678" y2="445.182217350893" style="stroke:rgb(50,0,199);stroke-width:1.2"/>
<line x1="718.8097914175" y1="356.425773880714" x2="667.566234887678" y2="445.182217350893" style="stroke:rgb(50,0,199);stroke-width:1.2"/>
<line x1="667.566234887678" y1="445.182217350893" x2="770.053347947321" y2="445.182217350893" style="stroke:rgb(50,0,199);stroke-width:1.2"/>
<line x1="667.566234887678" y1="445.182217350893" x2="718.8097914175" y2="533.938660821071" style="stroke:rgb(50,0,199);stroke-width:1.2"/>
<line x1="667.566234887678" y1="445.182217350893" x2="616.322678357857" y2="533.938660821071" style="stroke:rgb(50,0,199);stroke-width:1.2"/>
<line x1="616.322678357857" y1="533.938660821071" x2="718.8097914175" y2="533.938660821071" style="stroke:rgb(50,0,199);stroke-width:1.2"/>
<line x1="616.322678357857" y1="533.938660821071" x2="667.566234887678" y2="622.69510429125" style="stroke:rgb(50,0,199);stroke-width:1.2"/>
<line x1="718.8097914175" y1="533.938660821071" x2="667.566234887678" y2="622.69510429125" style="stroke:rgb(50,0,199);stroke-width:1.2"/>
<line x1="667.566234887678" y1="622.69510429125" x2="770.053347947321" y2="622.69510429125" style="stroke:rgb(50,0,199);stroke-width:1.2"/>
<line x1="667.566234887678" y1="622.69510429125" x2="718.8097914175" y2="711.451547761429" style="stroke:rgb(50,0,199);stroke-width:1.2"/>
<line x1="667.566234887678" y1="622.69510429125" x2="616.322678357857" y2="711.451547761429" style="stroke:rgb(50,0,199);stroke-width:1.2"/>
<line x1="616.322678357857" y1="711.451547761429" x2="718.8097914175" y2="711.451547761429" style="stroke:rgb(50,0,199);stroke-width:1.2"/>
<line x1="616.322678357857" y1="711.451547761429" x2="667.566234887678" y2="800.207991231607" style="stroke:rgb(50,0,199);stroke-width:1.2"/>
<line x1="718.8097914175" y1="711.451547761429" x2="667.566234887678" y2="800.207991231607" style="stroke:rgb(50,0,199);stroke-width:1.2"/>
<line x1="667.566234887678" y1="800.207991231607" x2="770.053347947321" y2="800.207991231607" style="stroke:rgb(50,0,199);stroke-width:1.2"/>
<line x1="667.566234887678" y1="800.207991231607" x2="718.8097914175" y2="888.964434701786" style="stroke:rgb(50,0,199);stroke-width:1.2"/>
<line x1="667.566234887678" y1="800.207991231607" x2="616.322678357857" y2="888.964434701786" style="stroke:rgb(50,0,199);stroke-width:1.2"/>
<line x1="616.322678357857" y1="888.964434701786" x2="718.8097914175" y2="888.964434701786" style="stroke:rgb(50,0,199);stroke-width:1.2"/>
<line x1="616.322678357857" y1="888.964434701786" x2="667.566234887678" y2="977.720878171964" style="stroke:rgb(50,0,199);stroke-width:1.2"/>
<line x1="718.8097914175" y1="888.964434701786" x2="667.566234887678" y2="977.720878171964" style="stroke:rgb(50,0,199);stroke-width:1.2"/>
<line x1="667.566234887678" y1="977.720878171964" x2="770.053347947321" y2="977.720878171964" style="stroke:rgb(50,0,199);stroke-width:1.2"/>
<line x1="667.566234887678" y1="977.720878171964" x2="718.8097914175" y2="1066.47732164214" style="stroke:rgb(50,0,199);stroke-width:1.2"/>
<line x1="667.566234887678" y1="977.720878171964" x2="616.322678357857" y2="1066.47732164214" style="stroke:rgb(50,0,199);stroke-width:1.2"/>
<line x1="616.322678357857" y1="1066.47732164214" x2="718.8097914175" y2="1066.47732164214" style="stroke:rgb(50,0,199);stroke-width:1.2"/>
<line x1="616.322678357857" y1="1066.47732164214" x2="667.566234887678" y2="1155.23376511232" style="stroke:rgb(50,0,199);stroke-width:1.2"/>
<line x1="718.8097914175" y1="1066.47732164214" x2="667.566234887678" y2="1155.23376511232" style="stroke:rgb(50,0,199);stroke-width:1.2"/>
<line x1="667.566234887678" y1="1155.23376511232" x2="770.053347947321" y2="1155.23376511232" style="stroke:rgb(50,0,199);stroke-width:1.2"/>
<line x1="667.566234887678" y1="1155.23376511232" x2="718.8097914175" y2="1243.9902085825" style="stroke:rgb(50,0,199);stroke-width:1.2"/>
<line x1="667.566234887678" y1="1155.23376511232" x2="616.322678357857" y2="1243.9902085825" style="stroke:rgb(50,0,199);stroke-width:1.2"/>
<line x1="616.322678357857" y1="1243.9902085825" x2="718.8097914175" y2="1243.9902085825" style="stroke:rgb(50,0,199);stroke-width:1.2"/>
<line x1="616.322678357857" y1="1243.9902085825" x2="667.566234887678" y2="1332.74665205268" style="stroke:rgb(50,0,199);stroke-width:1.2"/>
<line x1="718.8097914175" y1="1243.9902085825" x2="667.566234887678" y2="1332.74665205268" style="stroke:rgb(50,0,199);stroke-width:1.2"/>
<line x1="667.566234887678" y1="1332.74665205268" x2="770.053347947321" y2="1332.74665205268" style="stroke:rgb(50,0,199);stroke-width:1.2"/>
<line x1="667.566234887678" y1="1332.74665205268" x2="718.8097914175" y2="1421.50309552286" style="stroke:rgb(50,0,199);stroke-width:1.2"/>
<line x1="667.566234887678" y1="1332.74665205268" x2="616.322678357857" y2="1421.50309552286" style="stroke:rgb(50,0,199);stroke-width:1.2"/>
<line x1="616.322678357857" y1="1421.50309552286" x2="718.8097914175" y2="1421.50309552286" style="stroke:rgb(50,0,199);stroke-width:1.2"/>
<line x1="718.8097914175" y1="1.4" x2="821.296904477142" y2="1.4" style="stroke:rgb(50,0,199);stroke-width:1.2"/>
<line x1="718.8097914175" y1="1.4" x2="770.053347947321" y2="90.1564434701786" style="stroke:rgb(50,0,199);stroke-width:1.2"/>
<line x1="821.296904477142" y1="1.4" x2="770.053347947321" y2="90.1564434701786" style="stroke:rgb(50,0,199);stroke-width:1.2"/>
<line x1="770.053347947321" y1="90.1564434701786" x2="872.540461006964" y2="90.1564434701786" style="stroke:rgb(50,0,199);stroke-width:1.2"/>
<line x1="770.053347947321" y1="90.1564434701786" x2="821.296904477143" y2="178.912886940357" style="stroke:rgb(50,0,199);stroke-width:1.2"/>
<line x1="770.053347947321" y1="90.1564434701786" x2="718.8097914175" y2="178.912886940357" style="stroke:rgb(50,0,199);stroke-width:1.2"/>
<line x1="718.8097914175" y1="178.912886940357" x2="821.296904477142" y2="178.912886940357" style="stroke:rgb(50,0,199);stroke-width:1.2"/>
<line x1="718.8097914175" y1="178.912886940357" x2="770.053347947321" y2="267.669330410536" style="stroke:rgb(50,0,199);stroke-width:1.2"/>
<line x1="821.296904477142" y1="178.912886940357" x2="770.053347947321" y2="267.669330410536" style="stroke:rgb(50,0,199);stroke-width:1.2"/>
<line x1="770.053347947321" y1="267.669330410536" x2="872.540461006964" y2="267.669330410536" style="stroke:rgb(50,0,199);stroke-width:1.2"/>
<line x1="770.053347947321" y1="267.669330410536" x2="821.296904477143" y2="356.425773880714" style="stroke:rgb(50,0,199);stroke-width:1.2"/>
<line x1="770.053347947321" y1="267.669330410536" x2="718.8097914175" y2="356.425773880714" style="stroke:rgb(50,0,199);stroke-width:1.2"/>
<line x1="718.8097914175" y1="356.425773880714" x2="821.296904477142" y2="356.425773880714" style="stroke:rgb(50,0,199);stroke-width:1.2"/>
<line x1="718.8097914175" y1="356.425773880714" x2="770.053347947321" y2="445.182217350893" style="stroke:rgb(50,0,199);stroke-width:1.2"/>
<line x1="821.296904477142" y1="356.425773880714" x2="770.053347947321" y2="445.182217350893" style="stroke:rgb(50,0,199);stroke-width:1.2"/>
<line x1="770.053347947321" y1="445.182217350893" x2="872.540461006964" y2="445.182217350893" style="stroke:rgb(50,0,199);stroke-width:1.2"/>
<line x1="770.053347947321" y1="445.182217350893" x2="821.296904477143" y2="533.938660821071" style="stroke:rgb(50,0,199);stroke-width:1.2"/>
<line x1="770.053347947321" y1="445.182217350893" x2="718.8097914175" y2="533.938660821071" style="stroke:rgb(50,0,199);stroke-width:1.2"/>
<line x1="718.8097914175" y1="533.938660821071" x2="821.296904477143" y2="533.938660821071" style="stroke:rgb(50,0,199);stroke-width:1.2"/>
<line x1="718.8097914175" y1="533.938660821071" x2="770.053347947321" y2="622.69510429125" style="stroke:rgb(50,0,199);stroke-width:1.2"/>
<line x1="821.296904477143" y1="533.938660821071" x2="770.053347947321" y2="622.69510429125" style="stroke:rgb(50,0,199);stroke-width:1.2"/>
<line x1="770.053347947321" y1="622.69510429125" x2="872.540461006964" y2="622.69510429125" style="stroke:rgb(50,0,199);stroke-width:1.2"/>
<line x1="770.053347947321" y1="622.69510429125" x2="821.296904477143" y2="711.451547761429" style="stroke:rgb(50,0,199);stroke-width:1.2"/>
<line x1="770.053347947321" y1="622.69510429125" x2="718.8097914175" y2="711.451547761429" style="stroke:rgb(50,0,199);stroke-width:1.2"/>
<line x1="718.8097914175" y1="711.451547761429" x2="821.296904477143" y2="711.451547761429" style="stroke:rgb(50,0,199);stroke-width:1.2"/>
<line x1="718.8097914175" y1="711.451547761429" x2="770.053347947321" y2="800.207991231607" style="stroke:rgb(50,0,199);stroke-width:1.2"/>
<line x1="821.296904477143" y1="711.451547761429" x2="770.053347947321" y2="800.207991231607" style="stroke:rgb(50,0,199);stroke-width:1.2"/>
<line x1="770.053347947321" y1="800.207991231607" x2="872.540461006964" y2="800.207991231607" style="stroke:rgb(50,0,199);stroke-width:1.2"/>
<line x1="770.053347947321" y1="800.207991231607" x2="821.296904477143" y2="888.964434701786" style="stroke:rgb(50,0,199);stroke-width:1.2"/>
<line x1="770.053347947321" y1="800.207991231607" x2="718.8097914175" y2="888.964434701786" style="stroke:rgb(50,0,199);stroke-width:1.2"/>
<line x1="718.8097914175" y1="888.964434701786" x2="821.296904477143" y2="888.964434701786" style="stroke:rgb(50,0,199);stroke-width:1.2"/>
<line x1="718.8097914175" y1="888.964434701786" x2="770.053347947321" y2="977.720878171964" style="stroke:rgb(50,0,199);stroke-width:1.2"/>
<line x1="821.296904477143" y1="888.964434701786" x2="770.053347947321" y2="977.720878171964" style="stroke:rgb(50,0,199);stroke-width:1.2"/>
<line x1="770.053347947321" y1="977.720878171964" x2="872.540461006964" y2="977.720878171964" style="stroke:rgb(50,0,199);stroke-width:1.2"/>
<line x1="770.053347947321" y1="977.720878171964" x2="821.296904477143" y2="1066.47732164214" style="stroke:rgb(50,0,199);stroke-width:1.2"/>
<line x1="770.053347947321" y1="977.720878171964" x2="718.8097914175" y2="1066.47732164214" style="stroke:rgb(50,0,199);stroke-width:1.2"/>
<line x1="718.8097914175" y1="1066.47732164214" x2="821.296904477143" y2="1066.47732164214" style="stroke:rgb(50,0,199);stroke-width:1.2"/>
<line x1="718.8097914175" y1="1066.47732164214" x2="770.053347947321" y2="1155.23376511232" style="stroke:rgb(50,0,199);stroke-width:1.2"/>
<line x1="821.296904477143" y1="1066.47732164214" x2="770.053347947321" y2="1155.23376511232" style="stroke:rgb(50,0,199);stroke-width:1.2"/>
<line x1="770.053347947321" y1="1155.23376511232" x2="872.540461006964" y2="1155.23376511232" style="stroke:rgb(50,0,199);stroke-width:1.2"/>
<line x1="770.053347947321" y1="1155.23376511232" x2="821.296904477143" y2="1243.9902085825" style="stroke:rgb(50,0,199);stroke-width:1.2"/>
<line x1="770.053347947321" y1="1155.23376511232" x2="718.8097914175" y2="1243.9902085825" style="stroke:rgb(50,0,199);stroke-width:1.2"/>
<line x1="718.8097914175" y1="1243.9902085825" x2="821.296904477143" y2="1243.9902085825" style="stroke:rgb(50,0,199);stroke-width:1.2"/>
<line x1="718.8097914175" y1="1243.9902085825" x2="770.053347947321" y2="1332.74665205268" style="stroke:rgb(50,0,199);stroke-width:1.2"/>
<line x1="821.296904477143" y1="1243.9902085825" x2="770.053347947321" y2="1332.74665205268" style="stroke:rgb(50,0,199);stroke-width:1.2"/>
<line x1="770.053347947321" y1="1332.74665205268" x2="872.540461006964" y2="1332.74665205268" style="stroke:rgb(50,0,199);stroke-width:1.2"/>
<line x1="770.053347947321" y1="1332.74665205268" x2="821.296904477143" y2="1421.50309552286" style="stroke:rgb(50,0,199);stroke-width:1.2"/>
<line x1="770.053347947321" y1="1332.74665205268" x2="718.8097914175" y2="1421.50309552286" style="stroke:rgb(50,0,199);stroke-width:1.2"/>
<line x1="718.8097914175" y1="1421.50309552286" x2="821.296904477143" y2="1421.50309552286" style="stroke:rgb(50,0,199);stroke-width:1.2"/>
<line x1="821.296904477142" y1="1.4" x2="923.784017536785" y2="1.4" style="stroke:rgb(50,0,199);stroke-width:1.2"/>
<line x1="821.296904477142" y1="1.4" x2="872.540461006964" y2="90.1564434701786" style="stroke:rgb(50,0,199);stroke-width:1.2"/>
<line x1="923.784017536785" y1="1.4" x2="872.540461006964" y2="90.1564434701786" style="stroke:rgb(50,0,199);stroke-width:1.2"/>
<line x1="872.540461006964" y1="90.1564434701786" x2="975.027574066607" y2="90.1564434701786" style="stroke:rgb(50,0,199);stroke-width:1.2"/>
<line x1="872.540461006964" y1="90.1564434701786" x2="923.784017536785" y2="178.912886940357" style="stroke:rgb(50,0,199);stroke-width:1.2"/>
<line x1="872.540461006964" y1="90.1564434701786" x2="821.296904477142" y2="178.912886940357" style="stroke:rgb(50,0,199);stroke-width:1.2"/>
<line x1="821.296904477142" y1="178.912886940357" x2="923.784017536785" y2="178.912886940357" style="stroke:rgb(50,0,199);stroke-width:1.2"/>
<line x1="821.296904477142" y1="178.912886940357" x2="872.540461006964" y2="267.669330410536" style="stroke:rgb(50,0,199);stroke-width:1.2"/>
<line x1="923.784017536785" y1="178.912886940357" x2="872.540461006964" y2="267.669330410536" style="stroke:rgb(50,0,199);stroke-width:1.2"/>
<line x1="872.540461006964" y1="267.669330410536" x2="975.027574066607" y2="267.669330410536" style="stroke:rgb(50,0,199);stroke-width:1.2"/>
<line x1="872.540461006964" y1="267.669330410536" x2="923.784017536785" y2="356.425773880714" style="stroke:rgb(50,0,199);stroke-width:1.2"/>
<line x1="872.540461006964" y1="267.669330410536" x2="821.296904477142" y2="356.425773880714" style="stroke:rgb(50,0,199);stroke-width:1.2"/>
<line x1="821.296904477142" y1="356.425773880714" x2="923.784017536785" y2="356.425773880714" style="stroke:rgb(50,0,199);stroke-width:1.2"/>
<line x1="821.296904477142" y1="356.425773880714" x2="872.540461006964" y2="445.182217350893" style="stroke:rgb(50,0,199);stroke-width:1.2"/>
<line x1="923.784017536785" y1="356.425773880714" x2="872.540461006964" y2="445.182217350893" style="stroke:rgb(50,0,199);stroke-width:1.2"/>
<line x1="872.540461006964" y1="445.182217350893" x2="975.027574066607" y2="445.182217350893" style="stroke:rgb(50,0,199);stroke-width:1.2"/>
<line x1="872.540461006964" y1="445.182217350893" x2="923.784017536785" y2="533.938660821071" style="stroke:rgb(50,0,199);stroke-width:1.2"/>
<line x1="872.540461006964" y1="445.182217350893" x2="821.296904477142" y2="533.938660821071" style="stroke:rgb(50,0,199);stroke-width:1.2"/>
<line x1="821.296904477143" y1="533.938660821071" x2="923.784017536785" y2="533.938660821071" style="stroke:rgb(50,0,199);stroke-width:1.2"/>
<line x1="821.296904477143" y1="533.938660821071" x2="872.540461006964" y2="622.69510429125" style="stroke:rgb(50,0,199);stroke-width:1.2"/>
<line x1="923.784017536785" y1="533.938660821071" x2="872.540461006964" y2="622.69510429125" style="stroke:rgb(50,0,199);stroke-width:1.2"/>
<line x1="872.540461006964" y1="622.69510429125" x2="975.027574066607" y2="622.69510429125" style="stroke:rgb(50,0,199);stroke-width:1.2"/>
<line x1="872.540461006964" y1="622.69510429125" x2="923.784017536785" y2="711.451547761429" style="stroke:rgb(50,0,199);stroke-width:1.2"/>
<line x1="872.540461006964" y1="622.69510429125" x2="821.296904477143" y2="711.451547761429" style="stroke:rgb(50,0,199);stroke-width:1.2"/>
<line x1="821.296904477143" y1="711.451547761429" x2="923.784017536785" y2="711.451547761429" style="stroke:rgb(50,0,199);stroke-width:1.2"/>
<line x1="821.296904477143" y1="711.451547761429" x2="872.540461006964" y2="800.207991231607" style="stroke:rgb(50,0,199);stroke-width:1.2"/>
<line x1="923.784017536785" y1="711.451547761429" x2="872.540461006964" y2="800.207991231607" style="stroke:rgb(50,0,199);stroke-width:1.2"/>
<line x1="872.540461006964" y1="800.207991231607" x2="975.027574066607" y2="800.207991231607" style="stroke:rgb(50,0,199);stroke-width:1.2"/>
<line x1="872.540461006964" y1="800.207991231607" x2="923.784017536785" y2="888.964434701786" style="stroke:rgb(50,0,199);stroke-width:1.2"/>
<line x1="872.540461006964" y1="800.207991231607" x2="821.296904477143" y2="888.964434701786" style="stroke:rgb(50,0,199);stroke-width:1.2"/>
<line x1="821.296904477143" y1="888.964434701786" x2="923.784017536785" y2="888.964434701786" style="stroke:rgb(50,0,199);stroke-width:1.2"/>
<line x1="821.296904477143" y1="888.964434701786" x2="872.540461006964" y2="977.720878171964" style="stroke:rgb(50,0,199);stroke-width:1.2"/>
<line x1="923.784017536785" y1="888.964434701786" x2="872.540461006964" y2="977.720878171964" style="stroke:rgb(50,0,199);stroke-width:1.2"/>
<line x1="872.540461006964" y1="977.720878171964" x2="975.027574066607" y2="977.720878171964" style="stroke:rgb(50,0,199);stroke-width:1.2"/>
<line x1="872.540461006964" y1="977.720878171964" x2="923.784017536785" y2="1066.47732164214" style="stroke:rgb(50,0,199);stroke-width:1.2"/>
<line x1="872.540461006964" y1="977.720878171964" x2="821.296904477143" y2="1066.47732164214" style="stroke:rgb(50,0,199);stroke-width:1.2"/>
<line x1="821.296904477143" y1="1066.47732164214" x2="923.784017536785" y2="1066.47732164214" style="stroke:rgb(50,0,199);stroke-width:1.2"/>
<line x1="821.296904477143" y1="1066.47732164214" x2="872.540461006964" y2="1155.23376511232" style="stroke:rgb(50,0,199);stroke-width:1.2"/>
<line x1="923.784017536785" y1="1066.47732164214" x2="872.540461006964" y2="1155.23376511232" style="stroke:rgb(50,0,199);stroke-width:1.2"/>
<line x1="872.540461006964" y1="1155.23376511232" x2="975.027574066607" y2="1155.23376511232" style="stroke:rgb(50,0,199);stroke-width:1.2"/>
<line x1="872.540461006964" y1="1155.23376511232" x2="923.784017536786" y2="1243.9902085825" style="stroke:rgb(50,0,199);stroke-width:1.2"/>
<line x1="872.540461006964" y1="1155.23376511232" x2="821.296904477143" y2="1243.9902085825" style="stroke:rgb(50,0,199);stroke-width:1.2"/>
<line x1="821.296904477143" y1="1243.9902085825" x2="923.784017536785" y2="1243.9902085825" style="stroke:rgb(50,0,199);stroke-width:1.2"/>
<line x1="821.296904477143" y1="1243.9902085825" x2="872.540461006964" y2="1332.74665205268" style="stroke:rgb(50,0,199);stroke-width:1.2"/>
<line x1="923.784017536785" y1="1243.9902085825" x2="872.540461006964" y2="1332.74665205268" style="stroke:rgb(50,0,199);stroke-width:1.2"/>
<line x1="872.540461006964" y1="1332.74665205268" x2="975.027574066607" y2="1332.74665205268" style="stroke:rgb(50,0,199);stroke-width:1.2"/>
<line x1="872.540461006964" y1="1332.74665205268" x2="923.784017536786" y2="1421.50309552286" style="stroke:rgb(50,0,199);stroke-width:1.2"/>
<line x1="872.540461006964" y1="1332.74665205268" x2="821.296904477143" y2="1421.50309552286" style="stroke:rgb(50,0,199);stroke-width:1.2"/>
<line x1="821.296904477143" y1="1421.50309552286" x2="923.784017536785" y2="1421.50309552286" style="stroke:rgb(50,0,199);stroke-width:1.2"/>
<line x1="923.784017536785" y1="1.4" x2="1026.27113059643" y2="1.4" style="stroke:rgb(50,0,199);stroke-width:1.2"/>
<line x1="923.784017536785" y1="1.4" x2="975.027574066607" y2="90.1564434701786" style="stroke:rgb(50,0,199);stroke-width:1.2"/>
<line x1="1026.27113059643" y1="1.4" x2="975.027574066607" y2="90.1564434701786" style="stroke:rgb(50,0,199);stroke-width:1.2"/>
<line x1="975.027574066607" y1="90.1564434701786" x2="1077.51468712625" y2="90.1564434701786" style="stroke:rgb(50,0,199);stroke-width:1.2"/>
<line x1="975.027574066607" y1="90.1564434701786" x2="1026.27113059643" y2="178.912886940357" style="stroke:rgb(50,0,199);stroke-width:1.2"/>
<line x1="975.027574066607" y1="90.1564434701786" x2="923.784017536785" y2="178.912886940357" style="stroke:rgb(50,0,199);stroke-width:1.2"/>
<line x1="923.784017536785" y1="178.912886940357" x2="1026.27113059643" y2="178.912886940357" style="stroke:rgb(50,0,199);stroke-width:1.2"/>
<line x1="923.784017536785" y1="178.912886940357" x2="975.027574066607" y2="267.669330410536" style="stroke:rgb(50,0,199);stroke-width:1.2"/>
<line x1="1026.27113059643" y1="178.912886940357" x2="975.027574066607" y2="267.669330410536" style="stroke:rgb(50,0,199);stroke-width:1.2"/>
<line x1="975.027574066607" y1="267.669330410536" x2="1077.51468712625" y2="267.669330410536" style="stroke:rgb(50,0,199);stroke-width:1.2"/>
<line x1="975.027574066607" y1="267.669330410536" x2="1026.27113059643" y2="356.425773880714" style="stroke:rgb(50,0,199);stroke-width:1.2"/>
<line x1="975.027574066607" y1="267.669330410536" x2="923.784017536785" y2="356.425773880714" style="stroke:rgb(50,0,199);stroke-width:1.2"/>
<line x1="923.784017536785" y1="356.425773880714" x2="1026.27113059643" y2="356.425773880714" style="stroke:rgb(50,0,199);stroke-width:1.2"/>
<line x1="923.784017536785" y1="356.425773880714" x2="975.027574066607" y2="445.182217350893" style="stroke:rgb(50,0,199);stroke-width:1.2"/>
<line x1="1026.27113059643" y1="356.425773880714" x2="975.027574066607" y2="445.182217350893" style="stroke:rgb(50,0,199);stroke-width:1.2"/>
<line x1="975.027574066607" y1="445.182217350893" x2="1077.51468712625" y2="445.182217350893" style="stroke:rgb(50,0,199);stroke-width:1.2"/>
<line x1="975.027574066607" y1="445.182217350893" x2="1026.27113059643" y2="533.938660821071" style="stroke:rgb(50,0,199);stroke-width:1.2"/>
<line x1="975.027574066607" y1="445.182217350893" x2="923.784017536785" y2="533.938660821071" style="stroke:rgb(50,0,199);stroke-width:1.2"/>
<line x1="923.784017536785" y1="533.938660821071" x2="1026.27113059643" y2="533.938660821071" style="stroke:rgb(50,0,199);stroke-width:1.2"/>
<line x1="923.784017536785" y1="533.938660821071" x2="975.027574066607" y2="622.69510429125" style="stroke:rgb(50,0,199);stroke-width:1.2"/>
<line x1="1026.27113059643" y1="533.938660821071" x2="975.027574066607" y2="622.69510429125" style="stroke:rgb(50,0,199);stroke-width:1.2"/>
<line x1="975.027574066607" y1="622.69510429125" x2="1077.51468712625" y2="622.69510429125" style="stroke:rgb(50,0,199);stroke-width:1.2"/>
<line x1="975.027574066607" y1="622.69510429125" x2="1026.27113059643" y2="711.451547761429" style="stroke:rgb(50,0,199);stroke-width:1.2"/>
<line x1="975.027574066607" y1="622.69510429125" x2="923.784017536785" y2="711.451547761429" style="stroke:rgb(50,0,199);stroke-width:1.2"/>
<line x1="923.784017536785" y1="711.451547761429" x2="1026.27113059643" y2="711.451547761429" style="stroke:rgb(50,0,199);stroke-width:1.2"/>
<line x1="923.784017536785" y1="711.451547761429" x2="975.027574066607" y2="800.207991231607" style="stroke:rgb(50,0,199);stroke-width:1.2"/>
<line x1="1026.27113059643" y1="711.451547761429" x2="975.027574066607" y2="800.207991231607" style="stroke:rgb(50,0,199);stroke-width:1.2"/>
<line x1="975.027574066607" y1="800.207991231607" x2="1077.51468712625" y2="800.207991231607" style="stroke:rgb(50,0,199);stroke-width:1.2"/>
<line x1="975.027574066607" y1="800.207991231607" x2="1026.27113059643" y2="888.964434701786" style="stroke:rgb(50,0,199);stroke-width:1.2"/>
<line x1="975.027574066607" y1="800.207991231607" x2="923.784017536785" y2="888.964434701786" style="stroke:rgb(50,0,199);stroke-width:1.2"/>
<line x1="923.784017536785" y1="888.964434701786" x2="1026.27113059643" y2="888.964434701786" style="stroke:rgb(50,0,199);stroke-width:1.2"/>
<line x1="923.784017536785" y1="888.964434701786" x2="975.027574066607" y2="977.720878171964" style="stroke:rgb(50,0,199);stroke-width:1.2"/>
<line x1="1026.27113059643" y1="888.964434701786" x2="975.027574066607" y2="977.720878171964" style="stroke:rgb(50,0,199);stroke-width:1.2"/>
<line x1="975.027574066607" y1="977.720878171964" x2="1077.51468712625" y2="977.720878171964" style="stroke:rgb(50,0,199);stroke-width:1.2"/>
<line x1="975.027574066607" y1="977.720878171964" x2="1026.27113059643" y2="1066.47732164214" style="stroke:rgb(50,0,199);stroke-width:1.2"/>
<line x1="975.027574066607" y1="977.720878171964" x2="923.784017536785" y2="1066.47732164214" style="stroke:rgb(50,0,199);stroke-width:1.2"/>
<line x1="923.784017536785" y1="1066.47732164214" x2="1026.27113059643" y2="1066.47732164214" style="stroke:rgb(50,0,199);stroke-width:1.2"/>
<line x1="923.784017536785" y1="1066.47732164214" x2="975.027574066607" y2="1155.23376511232" style="stroke:rgb(50,0,199);stroke-width:1.2"/>
<line x1="1026.27113059643" y1="1066.47732164214" x2="975.027574066607" y2="1155.23376511232" style="stroke:rgb(50,0,199);stroke-width:1.2"/>
<line x1="975.027574066607" y1="1155.23376511232" x2="1077.51468712625" y2="1155.23376511232" style="stroke:rgb(50,0,199);stroke-width:1.2"/>
<line x1="975.027574066607" y1="1155.23376511232" x2="1026.27113059643" y2="1243.9902085825" style="stroke:rgb(50,0,199);stroke-width:1.2"/>
<line x1="975.027574066607" y1="1155.23376511232" x2="923.784017536785" y2="1243.9902085825" style="stroke:rgb(50,0,199);stroke-width:1.2"/>
<line x1="923.784017536785" y1="1243.9902085825" x2="1026.27113059643" y2="1243.9902085825" style="stroke:rgb(50,0,199);stroke-width:1.2"/>
<line x1="923.784017536785" y1="1243.9902085825" x2="975.027574066607" y2="1332.74665205268" style="stroke:rgb(50,0,199);stroke-width:1.2"/>
<line x1="1026.27113059643" y1="1243.9902085825" x2="975.027574066607" y2="1332.74665205268" style="stroke:rgb(50,0,199);stroke-width:1.2"/>
<line x1="975.027574066607" y1="1332.74665205268" x2="1077.51468712625" y2="1332.74665205268" style="stroke:rgb(50,0,199);stroke-width:1.2"/>
<line x1="975.027574066607" y1="1332.74665205268" x2="1026.27113059643" y2="1421.50309552286" style="stroke:rgb(50,0,199);stroke-width:1.2"/>
<line x1="975.027574066607" y1="1332.74665205268" x2="923.784017536785" y2="1421.50309552286" style="stroke:rgb(50,0,199);stroke-width:1.2"/>
<line x1="923.784017536785" y1="1421.50309552286" x2="1026.27113059643" y2="1421.50309552286" style="stroke:rgb(50,0,199);stroke-width:1.2"/>
<line x1="1026.27113059643" y1="1.4" x2="1128.75824365607" y2="1.4" style="stroke:rgb(50,0,199);stroke-width:1.2"/>
<line x1="1026.27113059643" y1="1.4" x2="1077.51468712625" y2="90.1564434701786" style="stroke:rgb(50,0,199);stroke-width:1.2"/>
<line x1="1128.75824365607" y1="1.4" x2="1077.51468712625" y2="90.1564434701786" style="stroke:rgb(50,0,199);stroke-width:1.2"/>
<line x1="1077.51468712625" y1="90.1564434701786" x2="1180.00180018589" y2="90.1564434701786" style="stroke:rgb(50,0,199);stroke-width:1.2"/>
<line x1="1077.51468712625" y1="90.1564434701786" x2="1128.75824365607" y2="178.912886940357" style="stroke:rgb(50,0,199);stroke-width:1.2"/>
<line x1="1077.51468712625" y1="90.1564434701786" x2="1026.27113059643" y2="178.912886940357" style="stroke:rgb(50,0,199);stroke-width:1.2"/>
<line x1="1026.27113059643" y1="178.912886940357" x2="1128.75824365607" y2="178.912886940357" style="stroke:rgb(50,0,199);stroke-width:1.2"/>
<line x1="1026.27113059643" y1="178.912886940357" x2="1077.51468712625" y2="267.669330410536" style="stroke:rgb(50,0,199);stroke-width:1.2"/>
<line x1="1128.75824365607" y1="178.912886940357" x2="1077.51468712625" y2="267.669330410536" style="stroke:rgb(50,0,199);stroke-width:1.2"/>
<line x1="1077.51468712625" y1="267.669330410536" x2="1180.00180018589" y2="267.669330410536" style="stroke:rgb(50,0,199);stroke-width:1.2"/>
<line x1="1077.51468712625" y1="267.669330410536" x2="1128.75824365607" y2="356.425773880714" style="stroke:rgb(50,0,199);stroke-width:1.2"/>
<line x1="1077.51468712625" y1="267.669330410536" x2="1026.27113059643" y2="356.425773880714" style="stroke:rgb(50,0,199);stroke-width:1.2"/>
<line x1="1026.27113059643" y1="356.425773880714" x2="1128.75824365607" y2="356.425773880714" style="stroke:rgb(50,0,199);stroke-width:1.2"/>
<line x1="1026.27113059643" y1="356.425773880714" x2="1077.51468712625" y2="445.182217350893" style="stroke:rgb(50,0,199);stroke-width:1.2"/>
<line x1="1128.75824365607" y1="356.425773880714" x2="1077.51468712625" y2="445.182217350893" style="stroke:rgb(50,0,199);stroke-width:1.2"/>
<line x1="1077.51468712625" y1="445.182217350893" x2="1180.00180018589" y2="445.182217350893" style="stroke:rgb(50,0,199);stroke-width:1.2"/>
<line x1="1077.51468712625" y1="445.182217350893" x2="1128.75824365607" y2="533.938660821071" style="stroke:rgb(50,0,199);stroke-width:1.2"/>
<line x1="1077.51468712625" y1="445.182217350893" x2="1026.27113059643" y2="533.938660821071" style="stroke:rgb(50,0,199);stroke-width:1.2"/>
<line x1="1026.27113059643" y1="533.938660821071" x2="1128.75824365607" y2="533.938660821071" style="stroke:rgb(50,0,199);stroke-width:1.2"/>
<line x1="1026.27113059643" y1="533.938660821071" x2="1077.51468712625" y2="622.69510429125" style="stroke:rgb(50,0,199);stroke-width:1.2"/>
<line x1="1128.75824365607" y1="533.938660821071" x2="1077.51468712625" y2="622.69510429125" style="stroke:rgb(50,0,199);stroke-width:1.2"/>
<line x1="1077.51468712625" y1="622.69510429125" x2="1180.00180018589" y2="622.69510429125" style="stroke:rgb(50,0,199);stroke-width:1.2"/>
<line x1="1077.51468712625" y1="622.69510429125" x2="1128.75824365607" y2="711.451547761429" style="stroke:rgb(50,0,199);stroke-width:1.2"/>
<line x1="1077.51468712625" y1="622.69510429125" x2="1026.27113059643" y2="711.451547761429" style="stroke:rgb(50,0,199);stroke-width:1.2"/>
<line x1="1026.27113059643" y1="711.451547761429" x2="1128.75824365607" y2="711.451547761429" style="stroke:rgb(50,0,199);stroke-width:1.2"/>
<line x1="1026.27113059643" y1="711.451547761429" x2="1077.51468712625" y2="800.207991231607" style="stroke:rgb(50,0,199);stroke-width:1.2"/>
<line x1="1128.75824365607" y1="711.451547761429" x2="1077.51468712625" y2="800.207991231607" style="stroke:rgb(50,0,199);stroke-width:1.2"/>
<line x1="1077.51468712625" y1="800.207991231607" x2="1180.00180018589" y2="800.207991231607" style="stroke:rgb(50,0,199);stroke-width:1.2"/>
<line x1="1077.51468712625" y1="800.207991231607" x2="1128.75824365607" y2="888.964434701786" style="stroke:rgb(50,0,199);stroke-width:1.2"/>
<line x1="1077.51468712625" y1="800.207991231607" x2="1026.27113059643" y2="888.964434701786" style="stroke:rgb(50,0,199);stroke-width:1.2"/>
<line x1="1026.27113059643" y1="888.964434701786" x2="1128.75824365607" y2="888.964434701786" style="stroke:rgb(50,0,199);stroke-width:1.2"/>
<line x1="1026.27113059643" y1="888.964434701786" x2="1077.51468712625" y2="977.720878171964" style="stroke:rgb(50,0,199);stroke-width:1.2"/>
<line x1="1128.75824365607" y1="888.964434701786" x2="1077.51468712625" y2="977.720878171964" style="stroke:rgb(50,0,199);stroke-width:1.2"/>
<line x1="1077.51468712625" y1="977.720878171964" x2="1180.00180018589" y2="977.720878171964" style="stroke:rgb(50,0,199);stroke-width:1.2"/>
<line x1="1077.51468712625" y1="977.720878171964" x2="1128.75824365607" y2="1066.47732164214" style="stroke:rgb(50,0,199);stroke-width:1.2"/>
<line x1="1077.51468712625" y1="977.720878171964" x2="1026.27113059643" y2="1066.47732164214" style="stroke:rgb(50,0,199);stroke-width:1.2"/>
<line x1="1026.27113059643" y1="1066.47732164214" x2="1128.75824365607" y2="1066.47732164214" style="stroke:rgb(50,0,199);stroke-width:1.2"/>
<line x1="1026.27113059643" y1="1066.47732164214" x2="1077.51468712625" y2="1155.23376511232" style="stroke:rgb(50,0,199);stroke-width:1.2"/>
<line x1="1128.75824365607" y1="1066.47732164214" x2="1077.51468712625" y2="1155.23376511232" style="stroke:rgb(50,0,199);stroke-width:1.2"/>
<line x1="1077.51468712625" y1="1155.23376511232" x2="1180.00180018589" y2="1155.23376511232" style="stroke:rgb(50,0,199);stroke-width:1.2"/>
<line x1="1077.51468712625" y1="1155.23376511232" x2="1128.75824365607" y2="1243.9902085825" style="stroke:rgb(50,0,199);stroke-width:1.2"/>
<line x1="1077.51468712625" y1="1155.23376511232" x2="1026.27113059643" y2="1243.9902085825" style="stroke:rgb(50,0,199);stroke-width:1.2"/>
<line x1="1026.27113059643" y1="1243.9902085825" x2="1128.75824365607" y2="1243.9902085825" style="stroke:rgb(50,0,199);stroke-width:1.2"/>
<line x1="1026.27113059643" y1="1243.9902085825" x2="1077.51468712625" y2="1332.74665205268" style="stroke:rgb(50,0,199);stroke-width:1.2"/>
<line x1="1128.75824365607" y1="1243.9902085825" x2="1077.51468712625" y2="1332.74665205268" style="stroke:rgb(50,0,199);stroke-width:1.2"/>
<line x1="1077.51468712625" y1="1332.74665205268" x2="1180.00180018589" y2="1332.74665205268" style="stroke:rgb(50,0,199);stroke-width:1.2"/>
<line x1="1077.51468712625" y1="1332.74665205268" x2="1128.75824365607" y2="1421.50309552286" style="stroke:rgb(50,0,199);stroke-width:1.2"/>
<line x1="1077.51468712625" y1="1332.74665205268" x2="1026.27113059643" y2="1421.50309552286" style="stroke:rgb(50,0,199);stroke-width:1.2"/>
<line x1="1026.27113059643" y1="1421.50309552286" x2="1128.75824365607" y2="1421.50309552286" style="stroke:rgb(50,0,199);stroke-width:1.2"/>
<line x1="1128.75824365607" y1="1.4" x2="1231.24535671571" y2="1.4" style="stroke:rgb(50,0,199);stroke-width:1.2"/>
<line x1="1128.75824365607" y1="1.4" x2="1180.00180018589" y2="90.1564434701786" style="stroke:rgb(50,0,199);stroke-width:1.2"/>
<line x1="1231.24535671571" y1="1.4" x2="1180.00180018589" y2="90.1564434701786" style="stroke:rgb(50,0,199);stroke-width:1.2"/>
<line x1="1180.00180018589" y1="90.1564434701786" x2="1282.48891324554" y2="90.1564434701786" style="stroke:rgb(50,0,199);stroke-width:1.2"/>
<line x1="1180.00180018589" y1="90.1564434701786" x2="1231.24535671571" y2="178.912886940357" style="stroke:rgb(50,0,199);stroke-width:1.2"/>
<line x1="1180.00180018589" y1="90.1564434701786" x2="1128.75824365607" y2="178.912886940357" style="stroke:rgb(50,0,199);stroke-width:1.2"/>
<line x1="1128.75824365607" y1="178.912886940357" x2="1231.24535671571" y2="178.912886940357" style="stroke:rgb(50,0,199);stroke-width:1.2"/>
<line x1="1128.75824365607" y1="178.912886940357" x2="1180.00180018589" y2="267.669330410536" style="stroke:rgb(50,0,199);stroke-width:1.2"/>
<line x1="1231.24535671571" y1="178.912886940357" x2="1180.00180018589" y2="267.669330410536" style="stroke:rgb(50,0,199);stroke-width:1.2"/>
<line x1="1180.00180018589" y1="267.669330410536" x2="1282.48891324554" y2="267.669330410536" style="stroke:rgb(50,0,199);stroke-width:1.2"/>
<line x1="1180.00180018589" y1="267.669330410536" x2="1231.24535671571" y2="356.425773880714" style="stroke:rgb(50,0,199);stroke-width:1.2"/>
<line x1="1180.00180018589" y1="267.669330410536" x2="1128.75824365607" y2="356.425773880714" style="stroke:rgb(50,0,199);stroke-width:1.2"/>
<line x1="1128.75824365607" y1="356.425773880714" x2="1231.24535671571" y2="356.425773880714" style="stroke:rgb(50,0,199);stroke-width:1.2"/>
<line x1="1128.75824365607" y1="356.425773880714" x2="1180.00180018589" y2="445.182217350893" style="stroke:rgb(50,0,199);stroke-width:1.2"/>
<line x1="1231.24535671571" y1="356.425773880714" x2="1180.00180018589" y2="445.182217350893" style="stroke:rgb(50,0,199);stroke-width:1.2"/>
<line x1="1180.00180018589" y1="445.182217350893" x2="1282.48891324554" y2="445.182217350893" style="stroke:rgb(50,0,199);stroke-width:1.2"/>
<line x1="1180.00180018589" y1="445.182217350893" x2="1231.24535671571" y2="533.938660821071" style="stroke:rgb(50,0,199);stroke-width:1.2"/>
<line x1="1180.00180018589" y1="445.182217350893" x2="1128.75824365607" y2="533.938660821071" style="stroke:rgb(50,0,199);stroke-width:1.2"/>
<line x1="1128.75824365607" y1="533.938660821071" x2="1231.24535671571" y2="533.938660821071" style="stroke:rgb(50,0,199);stroke-width:1.2"/>
<line x1="1128.75824365607" y1="533.938660821071" x2="1180.00180018589" y2="622.69510429125" style="stroke:rgb(50,0,199);stroke-width:1.2"/>
<line x1="1231.24535671571" y1="533.938660821071" x2="1180.00180018589" y2="622.69510429125" style="stroke:rgb(50,0,199);stroke-width:1.2"/>
<line x1="1180.00180018589" y1="622.69510429125" x2="1282.48891324554" y2="622.69510429125" style="stroke:rgb(50,0,199);stroke-width:1.2"/>
<line x1="1180.00180018589" y1="622.69510429125" x2="1231.24535671571" y2="711.451547761429" style="stroke:rgb(50,0,199);stroke-width:1.2"/>
<line x1="1180.00180018589" y1="622.69510429125" x2="1128.75824365607" y2="711.451547761429" style="stroke:rgb(50,0,199);stroke-width:1.2"/>
<line x1="1128.75824365607" y1="711.451547761429" x2="1231.24535671571" y2="711.451547761429" style="stroke:rgb(50,0,199);stroke-width:1.2"/>
<line x1="1128.75824365607" y1="711.451547761429" x2="1180.00180018589" y2="800.207991231607" style="stroke:rgb(50,0,199);stroke-width:1.2"/>
<line x1="1231.24535671571" y1="711.451547761429" x2="1180.00180018589" y2="800.207991231607" style="stroke:rgb(50,0,199);stroke-width:1.2"/>
<line x1="1180.00180018589" y1="800.207991231607" x2="1282.48891324554" y2="800.207991231607" style="stroke:rgb(50,0,199);stroke-width:1.2"/>
<line x1="1180.00180018589" y1="800.207991231607" x2="1231.24535671571" y2="888.964434701786" style="stroke:rgb(50,0,199);stroke-width:1.2"/>
<line x1="1180.00180018589" y1="800.207991231607" x2="1128.75824365607" y2="888.964434701786" style="stroke:rgb(50,0,199);stroke-width:1.2"/>
<line x1="1128.75824365607" y1="888.964434701786" x2="1231.24535671571" y2="888.964434701786" style="stroke:rgb(50,0,199);stroke-width:1.2"/>
<line x1="1128.75824365607" y1="888.964434701786" x2="1180.00180018589" y2="977.720878171964" style="stroke:rgb(50,0,199);stroke-width:1.2"/>
<line x1="1231.24535671571" y1="888.964434701786" x2="1180.00180018589" y2="977.720878171964" style="stroke:rgb(50,0,199);stroke-width:1.2"/>
<line x1="1180.00180018589" y1="977.720878171964" x2="1282.48891324554" y2="977.720878171964" style="stroke:rgb(50,0,199);stroke-width:1.2"/>
<line x1="1180.00180018589" y1="977.720878171964" x2="1231.24535671571" y2="1066.47732164214" style="stroke:rgb(50,0,199);stroke-width:1.2"/>
<line x1="1180.00180018589" y1="977.720878171964" x2="1128.75824365607" y2="1066.47732164214" style="stroke:rgb(50,0,199);stroke-width:1.2"/>
<line x1="1128.75824365607" y1="1066.47732164214" x2="1231.24535671571" y2="1066.47732164214" style="stroke:rgb(50,0,199);stroke-width:1.2"/>
<line x1="1128.75824365607" y1="1066.47732164214" x2="1180.00180018589" y2="1155.23376511232" style="stroke:rgb(50,0,199);stroke-width:1.2"/>
<line x1="1231.24535671571" y1="1066.47732164214" x2="1180.00180018589" y2="1155.23376511232" style="stroke:rgb(50,0,199);stroke-width:1.2"/>
<line x1="1180.00180018589" y1="1155.23376511232" x2="1282.48891324554" y2="1155.23376511232" style="stroke:rgb(50,0,199);stroke-width:1.2"/>
<line x1="1180.00180018589" y1="1155.23376511232" x2="1231.24535671571" y2="1243.9902085825" style="stroke:rgb(50,0,199);stroke-width:1.2"/>
<line x1="1180.00180018589" y1="1155.23376511232" x2="1128.75824365607" y2="1243.9902085825" style="stroke:rgb(50,0,199);stroke-width:1.2"/>
<line x1="1128.75824365607" y1="1243.9902085825" x2="1231.24535671571" y2="1243.9902085825" style="stroke:rgb(50,0,199);stroke-width:1.2"/>
<line x1="1128.75824365607" y1="1243.9902085825" x2="1180.00180018589" y2="1332.74665205268" style="stroke:rgb(50,0,199);stroke-width:1.2"/>
<line x1="1231.24535671571" y1="1243.9902085825" x2="1180.00180018589" y2="1332.74665205268" style="stroke:rgb(50,0,199);stroke-width:1.2"/>
<line x1="1180.00180018589" y1="1332.74665205268" x2="1282.48891324554" y2="1332.74665205268" style="stroke:rgb(50,0,199);stroke-width:1.2"/>
<line x1="1180.00180018589" y1="1332.74665205268" x2="1231.24535671571" y2="1421.50309552286" style="stroke:rgb(50,0,199);stroke-width:1.2"/>
<line x1="1180.00180018589" y1="1332.74665205268" x2="1128.75824365607" y2="1421.50309552286" style="stroke:rgb(50,0,199);stroke-width:1.2"/>
<line x1="1128.75824365607" y1="1421.50309552286" x2="1231.24535671571" y2="1421.50309552286" style="stroke:rgb(50,0,199);stroke-width:1.2"/>
<line x1="1231.24535671571" y1="1.4" x2="1333.73246977536" y2="1.4" style="stroke:rgb(50,0,199);stroke-width:1.2"/>
<line x1="1231.24535671571" y1="1.4" x2="1282.48891324554" y2="90.1564434701786" style="stroke:rgb(50,0,199);stroke-width:1.2"/>
<line x1="1333.73246977536" y1="1.4" x2="1282.48891324554" y2="90.1564434701786" style="stroke:rgb(50,0,199);stroke-width:1.2"/>
<line x1="1282.48891324554" y1="90.1564434701786" x2="1384.97602630518" y2="90.1564434701786" style="stroke:rgb(50,0,199);stroke-width:1.2"/>
<line x1="1282.48891324554" y1="90.1564434701786" x2="1333.73246977536" y2="178.912886940357" style="stroke:rgb(50,0,199);stroke-width:1.2"/>
<line x1="1282.48891324554" y1="90.1564434701786" x2="1231.24535671571" y2="178.912886940357" style="stroke:rgb(50,0,199);stroke-width:1.2"/>
<line x1="1231.24535671571" y1="178.912886940357" x2="1333.73246977536" y2="178.912886940357" style="stroke:rgb(50,0,199);stroke-width:1.2"/>
<line x1="1231.24535671571" y1="178.912886940357" x2="1282.48891324554" y2="267.669330410536" style="stroke:rgb(50,0,199);stroke-width:1.2"/>
<line x1="1333.73246977536" y1="178.912886940357" x2="1282.48891324554" y2="267.669330410536" style="stroke:rgb(50,0,199);stroke-width:1.2"/>
<line x1="1282.48891324554" y1="267.669330410536" x2="1384.97602630518" y2="267.669330410536" style="stroke:rgb(50,0,199);stroke-width:1.2"/>
<line x1="1282.48891324554" y1="267.669330410536" x2="1333.73246977536" y2="356.425773880714" style="stroke:rgb(50,0,199);stroke-width:1.2"/>
<line x1="1282.48891324554" y1="267.669330410536" x2="1231.24535671571" y2="356.425773880714" style="stroke:rgb(50,0,199);stroke-width:1.2"/>
<line x1="1231.24535671571" y1="356.425773880714" x2="1333.73246977536" y2="356.425773880714" style="stroke:rgb(50,0,199);stroke-width:1.2"/>
<line x1="1231.24535671571" y1="356.425773880714" x2="1282.48891324554" y2="445.182217350893" style="stroke:rgb(50,0,199);stroke-width:1.2"/>
<line x1="1333.73246977536" y1="356.425773880714" x2="1282.48891324554" y2="445.182217350893" style="stroke:rgb(50,0,199);stroke-width:1.2"/>
<line x1="1282.48891324554" y1="445.182217350893" x2="1384.97602630518" y2="445.182217350893" style="stroke:rgb(50,0,199);stroke-width:1.2"/>
<line x1="1282.48891324554" y1="445.182217350893" x2="1333.73246977536" y2="533.938660821071" style="stroke:rgb(50,0,199);stroke-width:1.2"/>
<line x1="1282.48891324554" y1="445.182217350893" x2="1231.24535671571" y2="533.938660821071" style="stroke:rgb(50,0,199);stroke-width:1.2"/>
<line x1="1231.24535671571" y1="533.938660821071" x2="1333.73246977536" y2="533.938660821071" style="stroke:rgb(50,0,199);stroke-width:1.2"/>
<line x1="1231.24535671571" y1="533.938660821071" x2="1282.48891324554" y2="622.69510429125" style="stroke:rgb(50,0,199);stroke-width:1.2"/>
<line x1="1333.73246977536" y1="533.938660821071" x2="1282.48891324554" y2="622.69510429125" style="stroke:rgb(50,0,199);stroke-width:1.2"/>
<line x1="1282.48891324554" y1="622.69510429125" x2="1384.97602630518" y2="622.69510429125" style="stroke:rgb(50,0,199);stroke-width:1.2"/>
<line x1="1282.48891324554" y1="622.69510429125" x2="1333.73246977536" y2="711.451547761429" style="stroke:rgb(50,0,199);stroke-width:1.2"/>
<line x1="1282.48891324554" y1="622.69510429125" x2="1231.24535671571" y2="711.451547761429" style="stroke:rgb(50,0,199);stroke-width:1.2"/>
<line x1="1231.24535671571" y1="711.451547761429" x2="1333.73246977536" y2="711.451547761429" style="stroke:rgb(50,0,199);stroke-width:1.2"/>
<line x1="1231.24535671571" y1="711.451547761429" x2="1282.48891324554" y2="800.207991231607" style="stroke:rgb(50,0,199);stroke-width:1.2"/>
<line x1="1333.73246977536" y1="711.451547761429" x2="1282.48891324554" y2="800.207991231607" style="stroke:rgb(50,0,199);stroke-width:1.2"/>
<line x1="1282.48891324554" y1="800.207991231607" x2="1384.97602630518" y2="800.207991231607" style="stroke:rgb(50,0,199);stroke-width:1.2"/>
<line x1="1282.48891324554" y1="800.207991231607" x2="1333.73246977536" y2="888.964434701786" style="stroke:rgb(50,0,199);stroke-width:1.2"/>
<line x1="1282.48891324554" y1="800.207991231607" x2="1231.24535671571" y2="888.964434701786" style="stroke:rgb(50,0,199);stroke-width:1.2"/>
<line x1="1231.24535671571" y1="888.964434701786" x2="1333.73246977536" y2="888.964434701786" style="stroke:rgb(50,0,199);stroke-width:1.2"/>
<line x1="1231.24535671571" y1="888.964434701786" x2="1282.48891324554" y2="977.720878171964" style="stroke:rgb(50,0,199);stroke-width:1.2"/>
<line x1="1333.73246977536" y1="888.964434701786" x2="1282.48891324554" y2="977.720878171964" style="stroke:rgb(50,0,199);stroke-width:1.2"/>
<line x1="1282.48891324554" y1="977.720878171964" x2="1384.97602630518" y2="977.720878171964" style="stroke:rgb(50,0,199);stroke-width:1.2"/>
<line x1="1282.48891324554" y1="977.720878171964" x2="1333.73246977536" y2="1066.47732164214" style="stroke:rgb(50,0,199);stroke-width:1.2"/>
<line x1="1282.48891324554" y1="977.720878171964" x2="1231.24535671571" y2="1066.47732164214" style="stroke:rgb(50,0,199);stroke-width:1.2"/>
<line x1="1231.24535671571" y1="1066.47732164214" x2="1333.73246977536" y2="1066.47732164214" style="stroke:rgb(50,0,199);stroke-width:1.2"/>
<line x1="1231.24535671571" y1="1066.47732164214" x2="1282.48891324554" y2="1155.23376511232" style="stroke:rgb(50,0,199);stroke-width:1.2"/>
<line x1="1333.73246977536" y1="1066.47732164214" x2="1282.48891324554" y2="1155.23376511232" style="stroke:rgb(50,0,199);stroke-width:1.2"/>
<line x1="1282.48891324554" y1="1155.23376511232" x2="1384.97602630518" y2="1155.23376511232" style="stroke:rgb(50,0,199);stroke-width:1.2"/>
<line x1="1282.48891324554" y1="1155.23376511232" x2="1333.73246977536" y2="1243.9902085825" style="stroke:rgb(50,0,199);stroke-width:1.2"/>
<line x1="1282.48891324554" y1="1155.23376511232" x2="1231.24535671571" y2="1243.9902085825" style="stroke:rgb(50,0,199);stroke-width:1.2"/>
<line x1="1231.24535671571" y1="1243.9902085825" x2="1333.73246977536" y2="1243.9902085825" style="stroke:rgb(50,0,199);stroke-width:1.2"/>
<line x1="1231.24535671571" y1="1243.9902085825" x2="1282.48891324554" y2="1332.74665205268" style="stroke:rgb(50,0,199);stroke-width:1.2"/>
<line x1="1333.73246977536" y1="1243.9902085825" x2="1282.48891324554" y2="1332.74665205268" style="stroke:rgb(50,0,199);stroke-width:1.2"/>
<line x1="1282.48891324554" y1="1332.74665205268" x2="1384.97602630518" y2="1332.74665205268" style="stroke:rgb(50,0,199);stroke-width:1.2"/>
<line x1="1282.48891324554" y1="1332.74665205268" x2="1333.73246977536" y2="1421.50309552286" style="stroke:rgb(50,0,199);stroke-width:1.2"/>
<line x1="1282.48891324554" y1="1332.74665205268" x2="1231.24535671571" y2="1421.50309552286" style="stroke:rgb(50,0,199);stroke-width:1.2"/>
<line x1="1231.24535671571" y1="1421.50309552286" x2="1333.73246977536" y2="1421.50309552286" style="stroke:rgb(50,0,199);stroke-width:1.2"/>
<line x1="1333.73246977536" y1="1.4" x2="1384.97602630518" y2="90.1564434701786" style="stroke:rgb(50,0,199);stroke-width:1.2"/>
<line x1="1384.97602630518" y1="90.1564434701786" x2="1333.73246977536" y2="178.912886940357" style="stroke:rgb(50,0,199);stroke-width:1.2"/>
<line x1="1333.73246977536" y1="178.912886940357" x2="1384.97602630518" y2="267.669330410536" style="stroke:rgb(50,0,199);stroke-width:1.2"/>
<line x1="1384.97602630518" y1="267.669330410536" x2="1333.73246977536" y2="356.425773880714" style="stroke:rgb(50,0,199);stroke-width:1.2"/>
<line x1="1333.73246977536" y1="356.425773880714" x2="1384.97602630518" y2="445.182217350893" style="stroke:rgb(50,0,199);stroke-width:1.2"/>
<line x1="1384.97602630518" y1="445.182217350893" x2="1333.73246977536" y2="533.938660821071" style="stroke:rgb(50,0,199);stroke-width:1.2"/>
<line x1="1333.73246977536" y1="533.938660821071" x2="1384.97602630518" y2="622.69510429125" style="stroke:rgb(50,0,199);stroke-width:1.2"/>
<line x1="1384.97602630518" y1="622.69510429125" x2="1333.73246977536" y2="711.451547761429" style="stroke:rgb(50,0,199);stroke-width:1.2"/>
<line x1="1333.73246977536" y1="711.451547761429" x2="1384.97602630518" y2="800.207991231607" style="stroke:rgb(50,0,199);stroke-width:1.2"/>
<line x1="1384.97602630518" y1="800.207991231607" x2="1333.73246977536" y2="888.964434701786" style="stroke:rgb(50,0,199);stroke-width:1.2"/>
<line x1="1333.73246977536" y1="888.964434701786" x2="1384.97602630518" y2="977.720878171964" style="stroke:rgb(50,0,199);stroke-width:1.2"/>
<line x1="1384.97602630518" y1="977.720878171964" x2="1333.73246977536" y2="1066.47732164214" style="stroke:rgb(50,0,199);stroke-width:1.2"/>
<line x1="1333.73246977536" y1="1066.47732164214" x2="1384.97602630518" y2="1155.23376511232" style="stroke:rgb(50,0,199);stroke-width:1.2"/>
<line x1="1384.97602630518" y1="1155.23376511232" x2="1333.73246977536" y2="1243.9902085825" style="stroke:rgb(50,0,199);stroke-width:1.2"/>
<line x1="1333.73246977536" y1="1243.9902085825" x2="1384.97602630518" y2="1332.74665205268" style="stroke:rgb(50,0,199);stroke-width:1.2"/>
<line x1="1384.97602630518" y1="1332.74665205268" x2="1333.73246977536" y2="1421.50309552286" style="stroke:rgb(50,0,199);stroke-width:1.2"/>
</svg>
