<?xml version="1.0" standalone="no"?> <!DOCTYPE svg PUBLIC "-//W3C//DTD SVG 1.1//EN" "http://www.w3.org/Graphics/SVG/1.1/DTD/svg11.dtd">
<svg width="2000" height="2000" version="1.1" xmlns="http://www.w3.org/2000/svg">
<line x1="363.632034355964" y1="107.566017177982" x2="257.566017177982" y2="1.5" style="stroke:rgb(50,50,50);stroke-width:1.2;fill:none"/>
<line x1="257.566017177982" y1="1.5" x2="107.566017177982" y2="1.5" style="stroke:rgb(50,50,50);stroke-width:1.2;fill:none"/>
<line x1="107.566017177982" y1="1.5" x2="1.5" y2="107.566017177982" style="stroke:rgb(50,50,50);stroke-width:1.2;fill:none"/>
<line x1="1.5" y1="107.566017177982" x2="1.5" y2="257.566017177982" style="stroke:rgb(50,50,50);stroke-width:1.2;fill:none"/>
<line x1="1.5" y1="257.566017177982" x2="107.566017177982" y2="363.632034355964" style="stroke:rgb(50,50,50);stroke-width:1.2;fill:none"/>
<line x1="257.566017177982" y1="363.632034355964" x2="363.632034355964" y2="257.566017177982" style="stroke:rgb(50,50,50);stroke-width:1.2;fill:none"/>
<line x1="363.632034355964" y1="469.698051533946" x2="257.566017177982" y2="363.632034355964" style="stroke:rgb(50,50,50);stroke-width:1.2;fill:none"/>
<line x1="257.566017177982" y1="363.632034355964" x2="107.566017177982" y2="363.632034355964" style="stroke:rgb(50,50,50);stroke-width:1.2;fill:none"/>
<line x1="107.566017177982" y1="363.632034355964" x2="1.5" y2="469.698051533946" style="stroke:rgb(50,50,50);stroke-width:1.2;fill:none"/>
<line x1="1.5" y1="469.698051533946" x2="1.5" y2="619.698051533946" style="stroke:rgb(50,50,50);stroke-width:1.2;fill:none"/>
<line x1="1.5" y1="619.698051533946" x2="107.566017177982" y2="725.764068711929" style="stroke:rgb(50,50,50);stroke-width:1.2;fill:none"/>
<line x1="257.566017177982" y1="725.764068711929" x2="363.632034355964" y2="619.698051533946" style="stroke:rgb(50,50,50);stroke-width:1.2;fill:none"/>
<line x1="363.632034355964" y1="831.830085889911" x2="257.566017177982" y2="725.764068711929" style="stroke:rgb(50,50,50);stroke-width:1.2;fill:none"/>
<line x1="257.566017177982" y1="725.764068711929" x2="107.566017177982" y2="725.764068711929" style="stroke:rgb(50,50,50);stroke-width:1.2;fill:none"/>
<line x1="107.566017177982" y1="725.764068711929" x2="1.5" y2="831.830085889911" style="stroke:rgb(50,50,50);stroke-width:1.2;fill:none"/>
<line x1="1.5" y1="831.830085889911" x2="1.5" y2="981.830085889911" style="stroke:rgb(50,50,50);stroke-width:1.2;fill:none"/>
<line x1="1.5" y1="981.830085889911" x2="107.566017177982" y2="1087.89610306789" style="stroke:rgb(50,50,50);stroke-width:1.2;fill:none"/>
<line x1="257.566017177982" y1="1087.89610306789" x2="363.632034355964" y2="981.830085889911" style="stroke:rgb(50,50,50);stroke-width:1.2;fill:none"/>
<line x1="363.632034355964" y1="1193.96212024587" x2="257.566017177982" y2="1087.89610306789" style="stroke:rgb(50,50,50);stroke-width:1.2;fill:none"/>
<line x1="257.566017177982" y1="1087.89610306789" x2="107.566017177982" y2="1087.89610306789" style="stroke:rgb(50,50,50);stroke-width:1.2;fill:none"/>
<line x1="107.566017177982" y1="1087.89610306789" x2="1.5" y2="1193.96212024587" style="stroke:rgb(50,50,50);stroke-width:1.2;fill:none"/>
<line x1="1.5" y1="1193.96212024587" x2="1.5" y2="1343.96212024587" style="stroke:rgb(50,50,50);stroke-width:1.2;fill:none"/>
<line x1="1.5" y1="1343.96212024587" x2="107.566017177982" y2="1450.02813742386" style="stroke:rgb(50,50,50);stroke-width:1.2;fill:none"/>
<line x1="257.566017177982" y1="1450.02813742386" x2="363.632034355964" y2="1343.96212024587" style="stroke:rgb(50,50,50);stroke-width:1.2;fill:none"/>
<line x1="363.632034355964" y1="1556.09415460184" x2="257.566017177982" y2="1450.02813742386" style="stroke:rgb(50,50,50);stroke-width:1.2;fill:none"/>
<line x1="257.566017177982" y1="1450.02813742386" x2="107.566017177982" y2="1450.02813742386" style="stroke:rgb(50,50,50);stroke-width:1.2;fill:none"/>
<line x1="107.566017177982" y1="1450.02813742386" x2="1.5" y2="1556.09415460184" style="stroke:rgb(50,50,50);stroke-width:1.2;fill:none"/>
<line x1="1.5" y1="1556.09415460184" x2="1.5" y2="1706.09415460184" style="stroke:rgb(50,50,50);stroke-width:1.2;fill:none"/>
<line x1="1.5" y1="1706.09415460184" x2="107.566017177982" y2="1812.16017177982" style="stroke:rgb(50,50,50);stroke-width:1.2;fill:none"/>
<line x1="257.566017177982" y1="1812.16017177982" x2="363.632034355964" y2="1706.09415460184" style="stroke:rgb(50,50,50);stroke-width:1.2;fill:none"/>
<line x1="257.566017177982" y1="1812.16017177982" x2="107.566017177982" y2="1812.16017177982" style="stroke:rgb(50,50,50);stroke-width:1.2;fill:none"/>
<line x1="725.764068711929" y1="107.566017177982" x2="619.698051533946" y2="1.5" style="stroke:rgb(50,50,50);stroke-width:1.2;fill:none"/>
<line x1="619.698051533946" y1="1.5" x2="469.698051533946" y2="1.5" style="stroke:rgb(50,50,50);stroke-width:1.2;fill:none"/>
<line x1="469.698051533946" y1="1.5" x2="363.632034355964" y2="107.566017177982" style="stroke:rgb(50,50,50);stroke-width:1.2;fill:none"/>
<line x1="363.632034355964" y1="107.566017177982" x2="363.632034355964" y2="257.566017177982" style="stroke:rgb(50,50,50);stroke-width:1.2;fill:none"/>
<line x1="363.632034355964" y1="257.566017177982" x2="469.698051533946" y2="363.632034355964" style="stroke:rgb(50,50,50);stroke-width:1.2;fill:none"/>
<line x1="619.698051533946" y1="363.632034355964" x2="725.764068711929" y2="257.566017177982" style="stroke:rgb(50,50,50);stroke-width:1.2;fill:none"/>
<line x1="725.764068711929" y1="469.698051533946" x2="619.698051533946" y2="363.632034355964" style="stroke:rgb(50,50,50);stroke-width:1.2;fill:none"/>
<line x1="619.698051533946" y1="363.632034355964" x2="469.698051533946" y2="363.632034355964" style="stroke:rgb(50,50,50);stroke-width:1.2;fill:none"/>
<line x1="469.698051533946" y1="363.632034355964" x2="363.632034355964" y2="469.698051533946" style="stroke:rgb(50,50,50);stroke-width:1.2;fill:none"/>
<line x1="363.632034355964" y1="469.698051533946" x2="363.632034355964" y2="619.698051533946" style="stroke:rgb(50,50,50);stroke-width:1.2;fill:none"/>
<line x1="363.632034355964" y1="619.698051533946" x2="469.698051533946" y2="725.764068711929" style="stroke:rgb(50,50,50);stroke-width:1.2;fill:none"/>
<line x1="619.698051533946" y1="725.764068711929" x2="725.764068711929" y2="619.698051533946" style="stroke:rgb(50,50,50);stroke-width:1.2;fill:none"/>
<line x1="725.764068711929" y1="831.830085889911" x2="619.698051533946" y2="725.764068711929" style="stroke:rgb(50,50,50);stroke-width:1.2;fill:none"/>
<line x1="619.698051533946" y1="725.764068711929" x2="469.698051533946" y2="725.764068711929" style="stroke:rgb(50,50,50);stroke-width:1.2;fill:none"/>
<line x1="469.698051533946" y1="725.764068711929" x2="363.632034355964" y2="831.830085889911" style="stroke:rgb(50,50,50);stroke-width:1.2;fill:none"/>
<line x1="363.632034355964" y1="831.830085889911" x2="363.632034355964" y2="981.830085889911" style="stroke:rgb(50,50,50);stroke-width:1.2;fill:none"/>
<line x1="363.632034355964" y1="981.830085889911" x2="469.698051533946" y2="1087.89610306789" style="stroke:rgb(50,50,50);stroke-width:1.2;fill:none"/>
<line x1="619.698051533946" y1="1087.89610306789" x2="725.764068711929" y2="981.830085889911" style="stroke:rgb(50,50,50);stroke-width:1.2;fill:none"/>
<line x1="725.764068711929" y1="1193.96212024587" x2="619.698051533946" y2="1087.89610306789" style="stroke:rgb(50,50,50);stroke-width:1.2;fill:none"/>
<line x1="619.698051533946" y1="1087.89610306789" x2="469.698051533946" y2="1087.89610306789" style="stroke:rgb(50,50,50);stroke-width:1.2;fill:none"/>
<line x1="469.698051533946" y1="1087.89610306789" x2="363.632034355964" y2="1193.96212024587" style="stroke:rgb(50,50,50);stroke-width:1.2;fill:none"/>
<line x1="363.632034355964" y1="1193.96212024587" x2="363.632034355964" y2="1343.96212024587" style="stroke:rgb(50,50,50);stroke-width:1.2;fill:none"/>
<line x1="363.632034355964" y1="1343.96212024587" x2="469.698051533946" y2="1450.02813742386" style="stroke:rgb(50,50,50);stroke-width:1.2;fill:none"/>
<line x1="619.698051533946" y1="1450.02813742386" x2="725.764068711929" y2="1343.96212024587" style="stroke:rgb(50,50,50);stroke-width:1.2;fill:none"/>
<line x1="725.764068711929" y1="1556.09415460184" x2="619.698051533946" y2="1450.02813742386" style="stroke:rgb(50,50,50);stroke-width:1.2;fill:none"/>
<line x1="619.698051533946" y1="1450.02813742386" x2="469.698051533946" y2="1450.02813742386" style="stroke:rgb(50,50,50);stroke-width:1.2;fill:none"/>
<line x1="469.698051533946" y1="1450.02813742386" x2="363.632034355964" y2="1556.09415460184" style="stroke:rgb(50,50,50);stroke-width:1.2;fill:none"/>
<line x1="363.632034355964" y1="1556.09415460184" x2="363.632034355964" y2="1706.09415460184" style="stroke:rgb(50,50,50);stroke-width:1.2;fill:none"/>
<line x1="363.632034355964" y1="1706.09415460184" x2="469.698051533946" y2="1812.16017177982" style="stroke:rgb(50,50,50);stroke-width:1.2;fill:none"/>
<line x1="619.698051533946" y1="1812.16017177982" x2="725.764068711929" y2="1706.09415460184" style="stroke:rgb(50,50,50);stroke-width:1.2;fill:none"/>
<line x1="619.698051533946" y1="1812.16017177982" x2="469.698051533946" y2="1812.16017177982" style="stroke:rgb(50,50,50);stroke-width:1.2;fill:none"/>
<line x1="1087.89610306789" y1="107.566017177982" x2="981.830085889911" y2="1.5" style="stroke:rgb(50,50,50);stroke-width:1.2;fill:none"/>
<line x1="981.830085889911" y1="1.5" x2="831.830085889911" y2="1.5" style="stroke:rgb(50,50,50);stroke-width:1.2;fill:none"/>
<line x1="831.830085889911" y1="1.5" x2="725.764068711929" y2="107.566017177982" style="stroke:rgb(50,50,50);stroke-width:1.2;fill:none"/>
<line x1="725.764068711929" y1="107.566017177982" x2="725.764068711929" y2="257.566017177982" style="stroke:rgb(50,50,50);stroke-width:1.2;fill:none"/>
<line x1="725.764068711929" y1="257.566017177982" x2="831.830085889911" y2="363.632034355964" style="stroke:rgb(50,50,50);stroke-width:1.2;fill:none"/>
<line x1="981.830085889911" y1="363.632034355964" x2="1087.89610306789" y2="257.566017177982" style="stroke:rgb(50,50,50);stroke-width:1.2;fill:none"/>
<line x1="1087.89610306789" y1="469.698051533946" x2="981.830085889911" y2="363.632034355964" style="stroke:rgb(50,50,50);stroke-width:1.2;fill:none"/>
<line x1="981.830085889911" y1="363.632034355964" x2="831.830085889911" y2="363.632034355964" style="stroke:rgb(50,50,50);stroke-width:1.2;fill:none"/>
<line x1="831.830085889911" y1="363.632034355964" x2="725.764068711929" y2="469.698051533946" style="stroke:rgb(50,50,50);stroke-width:1.2;fill:none"/>
<line x1="725.764068711929" y1="469.698051533946" x2="725.764068711929" y2="619.698051533946" style="stroke:rgb(50,50,50);stroke-width:1.2;fill:none"/>
<line x1="725.764068711929" y1="619.698051533946" x2="831.830085889911" y2="725.764068711929" style="stroke:rgb(50,50,50);stroke-width:1.2;fill:none"/>
<line x1="981.830085889911" y1="725.764068711929" x2="1087.89610306789" y2="619.698051533946" style="stroke:rgb(50,50,50);stroke-width:1.2;fill:none"/>
<line x1="1087.89610306789" y1="831.830085889911" x2="981.830085889911" y2="725.764068711929" style="stroke:rgb(50,50,50);stroke-width:1.2;fill:none"/>
<line x1="981.830085889911" y1="725.764068711929" x2="831.830085889911" y2="725.764068711929" style="stroke:rgb(50,50,50);stroke-width:1.2;fill:none"/>
<line x1="831.830085889911" y1="725.764068711929" x2="725.764068711929" y2="831.830085889911" style="stroke:rgb(50,50,50);stroke-width:1.2;fill:none"/>
<line x1="725.764068711929" y1="831.830085889911" x2="725.764068711929" y2="981.830085889911" style="stroke:rgb(50,50,50);stroke-width:1.2;fill:none"/>
<line x1="725.764068711929" y1="981.830085889911" x2="831.830085889911" y2="1087.89610306789" style="stroke:rgb(50,50,50);stroke-width:1.2;fill:none"/>
<line x1="981.830085889911" y1="1087.89610306789" x2="1087.89610306789" y2="981.830085889911" style="stroke:rgb(50,50,50);stroke-width:1.2;fill:none"/>
<line x1="1087.89610306789" y1="1193.96212024587" x2="981.830085889911" y2="1087.89610306789" style="stroke:rgb(50,50,50);stroke-width:1.2;fill:none"/>
<line x1="981.830085889911" y1="1087.89610306789" x2="831.830085889911" y2="1087.89610306789" style="stroke:rgb(50,50,50);stroke-width:1.2;fill:none"/>
<line x1="831.830085889911" y1="1087.89610306789" x2="725.764068711929" y2="1193.96212024587" style="stroke:rgb(50,50,50);stroke-width:1.2;fill:none"/>
<line x1="725.764068711929" y1="1193.96212024587" x2="725.764068711929" y2="1343.96212024587" style="stroke:rgb(50,50,50);stroke-width:1.2;fill:none"/>
<line x1="725.764068711929" y1="1343.96212024587" x2="831.830085889911" y2="1450.02813742386" style="stroke:rgb(50,50,50);stroke-width:1.2;fill:none"/>
<line x1="981.830085889911" y1="1450.02813742386" x2="1087.89610306789" y2="1343.96212024587" style="stroke:rgb(50,50,50);stroke-width:1.2;fill:none"/>
<line x1="1087.89610306789" y1="1556.09415460184" x2="981.830085889911" y2="1450.02813742386" style="stroke:rgb(50,50,50);stroke-width:1.2;fill:none"/>
<line x1="981.830085889911" y1="1450.02813742386" x2="831.830085889911" y2="1450.02813742386" style="stroke:rgb(50,50,50);stroke-width:1.2;fill:none"/>
<line x1="831.830085889911" y1="1450.02813742386" x2="725.764068711929" y2="1556.09415460184" style="stroke:rgb(50,50,50);stroke-width:1.2;fill:none"/>
<line x1="725.764068711929" y1="1556.09415460184" x2="725.764068711929" y2="1706.09415460184" style="stroke:rgb(50,50,50);stroke-width:1.2;fill:none"/>
<line x1="725.764068711929" y1="1706.09415460184" x2="831.830085889911" y2="1812.16017177982" style="stroke:rgb(50,50,50);stroke-width:1.2;fill:none"/>
<line x1="981.830085889911" y1="1812.16017177982" x2="1087.89610306789" y2="1706.09415460184" style="stroke:rgb(50,50,50);stroke-width:1.2;fill:none"/>
<line x1="981.830085889911" y1="1812.16017177982" x2="831.830085889911" y2="1812.16017177982" style="stroke:rgb(50,50,50);stroke-width:1.2;fill:none"/>
<line x1="1450.02813742386" y1="107.566017177982" x2="1343.96212024587" y2="1.5" style="stroke:rgb(50,50,50);stroke-width:1.2;fill:none"/>
<line x1="1343.96212024587" y1="1.5" x2="1193.96212024587" y2="1.5" style="stroke:rgb(50,50,50);stroke-width:1.2;fill:none"/>
<line x1="1193.96212024587" y1="1.5" x2="1087.89610306789" y2="107.566017177982" style="stroke:rgb(50,50,50);stroke-width:1.2;fill:none"/>
<line x1="1087.89610306789" y1="107.566017177982" x2="1087.89610306789" y2="257.566017177982" style="stroke:rgb(50,50,50);stroke-width:1.2;fill:none"/>
<line x1="1087.89610306789" y1="257.566017177982" x2="1193.96212024587" y2="363.632034355964" style="stroke:rgb(50,50,50);stroke-width:1.2;fill:none"/>
<line x1="1343.96212024587" y1="363.632034355964" x2="1450.02813742386" y2="257.566017177982" style="stroke:rgb(50,50,50);stroke-width:1.2;fill:none"/>
<line x1="1450.02813742386" y1="469.698051533946" x2="1343.96212024587" y2="363.632034355964" style="stroke:rgb(50,50,50);stroke-width:1.2;fill:none"/>
<line x1="1343.96212024587" y1="363.632034355964" x2="1193.96212024587" y2="363.632034355964" style="stroke:rgb(50,50,50);stroke-width:1.2;fill:none"/>
<line x1="1193.96212024587" y1="363.632034355964" x2="1087.89610306789" y2="469.698051533946" style="stroke:rgb(50,50,50);stroke-width:1.2;fill:none"/>
<line x1="1087.89610306789" y1="469.698051533946" x2="1087.89610306789" y2="619.698051533946" style="stroke:rgb(50,50,50);stroke-width:1.2;fill:none"/>
<line x1="1087.89610306789" y1="619.698051533946" x2="1193.96212024587" y2="725.764068711929" style="stroke:rgb(50,50,50);stroke-width:1.2;fill:none"/>
<line x1="1343.96212024587" y1="725.764068711929" x2="1450.02813742386" y2="619.698051533946" style="stroke:rgb(50,50,50);stroke-width:1.2;fill:none"/>
<line x1="1450.02813742386" y1="831.830085889911" x2="1343.96212024587" y2="725.764068711929" style="stroke:rgb(50,50,50);stroke-width:1.2;fill:none"/>
<line x1="1343.96212024587" y1="725.764068711929" x2="1193.96212024587" y2="725.764068711929" style="stroke:rgb(50,50,50);stroke-width:1.2;fill:none"/>
<line x1="1193.96212024587" y1="725.764068711929" x2="1087.89610306789" y2="831.830085889911" style="stroke:rgb(50,50,50);stroke-width:1.2;fill:none"/>
<line x1="1087.89610306789" y1="831.830085889911" x2="1087.89610306789" y2="981.830085889911" style="stroke:rgb(50,50,50);stroke-width:1.2;fill:none"/>
<line x1="1087.89610306789" y1="981.830085889911" x2="1193.96212024587" y2="1087.89610306789" style="stroke:rgb(50,50,50);stroke-width:1.2;fill:none"/>
<line x1="1343.96212024587" y1="1087.89610306789" x2="1450.02813742386" y2="981.830085889911" style="stroke:rgb(50,50,50);stroke-width:1.2;fill:none"/>
<line x1="1450.02813742386" y1="1193.96212024587" x2="1343.96212024587" y2="1087.89610306789" style="stroke:rgb(50,50,50);stroke-width:1.2;fill:none"/>
<line x1="1343.96212024587" y1="1087.89610306789" x2="1193.96212024587" y2="1087.89610306789" style="stroke:rgb(50,50,50);stroke-width:1.2;fill:none"/>
<line x1="1193.96212024587" y1="1087.89610306789" x2="1087.89610306789" y2="1193.96212024587" style="stroke:rgb(50,50,50);stroke-width:1.2;fill:none"/>
<line x1="1087.89610306789" y1="1193.96212024587" x2="1087.89610306789" y2="1343.96212024587" style="stroke:rgb(50,50,50);stroke-width:1.2;fill:none"/>
<line x1="1087.89610306789" y1="1343.96212024587" x2="1193.96212024587" y2="1450.02813742386" style="stroke:rgb(50,50,50);stroke-width:1.2;fill:none"/>
<line x1="1343.96212024587" y1="1450.02813742386" x2="1450.02813742386" y2="1343.96212024587" style="stroke:rgb(50,50,50);stroke-width:1.2;fill:none"/>
<line x1="1450.02813742386" y1="1556.09415460184" x2="1343.96212024587" y2="1450.02813742386" style="stroke:rgb(50,50,50);stroke-width:1.2;fill:none"/>
<line x1="1343.96212024587" y1="1450.02813742386" x2="1193.96212024587" y2="1450.02813742386" style="stroke:rgb(50,50,50);stroke-width:1.2;fill:none"/>
<line x1="1193.96212024587" y1="1450.02813742386" x2="1087.89610306789" y2="1556.09415460184" style="stroke:rgb(50,50,50);stroke-width:1.2;fill:none"/>
<line x1="1087.89610306789" y1="1556.09415460184" x2="1087.89610306789" y2="1706.09415460184" style="stroke:rgb(50,50,50);stroke-width:1.2;fill:none"/>
<line x1="1087.89610306789" y1="1706.09415460184" x2="1193.96212024587" y2="1812.16017177982" style="stroke:rgb(50,50,50);stroke-width:1.2;fill:none"/>
<line x1="1343.96212024587" y1="1812.16017177982" x2="1450.02813742386" y2="1706.09415460184" style="stroke:rgb(50,50,50);stroke-width:1.2;fill:none"/>
<line x1="1343.96212024587" y1="1812.16017177982" x2="1193.96212024587" y2="1812.16017177982" style="stroke:rgb(50,50,50);stroke-width:1.2;fill:none"/>
<line x1="1812.16017177982" y1="107.566017177982" x2="1706.09415460184" y2="1.5" style="stroke:rgb(50,50,50);stroke-width:1.2;fill:none"/>
<line x1="1706.09415460184" y1="1.5" x2="1556.09415460184" y2="1.5" style="stroke:rgb(50,50,50);stroke-width:1.2;fill:none"/>
<line x1="1556.09415460184" y1="1.5" x2="1450.02813742386" y2="107.566017177982" style="stroke:rgb(50,50,50);stroke-width:1.2;fill:none"/>
<line x1="1450.02813742386" y1="107.566017177982" x2="1450.02813742386" y2="257.566017177982" style="stroke:rgb(50,50,50);stroke-width:1.2;fill:none"/>
<line x1="1450.02813742386" y1="257.566017177982" x2="1556.09415460184" y2="363.632034355964" style="stroke:rgb(50,50,50);stroke-width:1.2;fill:none"/>
<line x1="1706.09415460184" y1="363.632034355964" x2="1812.16017177982" y2="257.566017177982" style="stroke:rgb(50,50,50);stroke-width:1.2;fill:none"/>
<line x1="1812.16017177982" y1="469.698051533946" x2="1706.09415460184" y2="363.632034355964" style="stroke:rgb(50,50,50);stroke-width:1.2;fill:none"/>
<line x1="1706.09415460184" y1="363.632034355964" x2="1556.09415460184" y2="363.632034355964" style="stroke:rgb(50,50,50);stroke-width:1.2;fill:none"/>
<line x1="1556.09415460184" y1="363.632034355964" x2="1450.02813742386" y2="469.698051533946" style="stroke:rgb(50,50,50);stroke-width:1.2;fill:none"/>
<line x1="1450.02813742386" y1="469.698051533946" x2="1450.02813742386" y2="619.698051533946" style="stroke:rgb(50,50,50);stroke-width:1.2;fill:none"/>
<line x1="1450.02813742386" y1="619.698051533946" x2="1556.09415460184" y2="725.764068711929" style="stroke:rgb(50,50,50);stroke-width:1.2;fill:none"/>
<line x1="1706.09415460184" y1="725.764068711929" x2="1812.16017177982" y2="619.698051533946" style="stroke:rgb(50,50,50);stroke-width:1.2;fill:none"/>
<line x1="1812.16017177982" y1="831.830085889911" x2="1706.09415460184" y2="725.764068711929" style="stroke:rgb(50,50,50);stroke-width:1.2;fill:none"/>
<line x1="1706.09415460184" y1="725.764068711929" x2="1556.09415460184" y2="725.764068711929" style="stroke:rgb(50,50,50);stroke-width:1.2;fill:none"/>
<line x1="1556.09415460184" y1="725.764068711929" x2="1450.02813742386" y2="831.830085889911" style="stroke:rgb(50,50,50);stroke-width:1.2;fill:none"/>
<line x1="1450.02813742386" y1="831.830085889911" x2="1450.02813742386" y2="981.830085889911" style="stroke:rgb(50,50,50);stroke-width:1.2;fill:none"/>
<line x1="1450.02813742386" y1="981.830085889911" x2="1556.09415460184" y2="1087.89610306789" style="stroke:rgb(50,50,50);stroke-width:1.2;fill:none"/>
<line x1="1706.09415460184" y1="1087.89610306789" x2="1812.16017177982" y2="981.830085889911" style="stroke:rgb(50,50,50);stroke-width:1.2;fill:none"/>
<line x1="1812.16017177982" y1="1193.96212024587" x2="1706.09415460184" y2="1087.89610306789" style="stroke:rgb(50,50,50);stroke-width:1.2;fill:none"/>
<line x1="1706.09415460184" y1="1087.89610306789" x2="1556.09415460184" y2="1087.89610306789" style="stroke:rgb(50,50,50);stroke-width:1.2;fill:none"/>
<line x1="1556.09415460184" y1="1087.89610306789" x2="1450.02813742386" y2="1193.96212024587" style="stroke:rgb(50,50,50);stroke-width:1.2;fill:none"/>
<line x1="1450.02813742386" y1="1193.96212024587" x2="1450.02813742386" y2="1343.96212024587" style="stroke:rgb(50,50,50);stroke-width:1.2;fill:none"/>
<line x1="1450.02813742386" y1="1343.96212024587" x2="1556.09415460184" y2="1450.02813742386" style="stroke:rgb(50,50,50);stroke-width:1.2;fill:none"/>
<line x1="1706.09415460184" y1="1450.02813742386" x2="1812.16017177982" y2="1343.96212024587" style="stroke:rgb(50,50,50);stroke-width:1.2;fill:none"/>
<line x1="1812.16017177982" y1="1556.09415460184" x2="1706.09415460184" y2="1450.02813742386" style="stroke:rgb(50,50,50);stroke-width:1.2;fill:none"/>
<line x1="1706.09415460184" y1="1450.02813742386" x2="1556.09415460184" y2="1450.02813742386" style="stroke:rgb(50,50,50);stroke-width:1.2;fill:none"/>
<line x1="1556.09415460184" y1="1450.02813742386" x2="1450.02813742386" y2="1556.09415460184" style="stroke:rgb(50,50,50);stroke-width:1.2;fill:none"/>
<line x1="1450.02813742386" y1="1556.09415460184" x2="1450.02813742386" y2="1706.09415460184" style="stroke:rgb(50,50,50);stroke-width:1.2;fill:none"/>
<line x1="1450.02813742386" y1="1706.09415460184" x2="1556.09415460184" y2="1812.16017177982" style="stroke:rgb(50,50,50);stroke-width:1.2;fill:none"/>
<line x1="1706.09415460184" y1="1812.16017177982" x2="1812.16017177982" y2="1706.09415460184" style="stroke:rgb(50,50,50);stroke-width:1.2;fill:none"/>
<line x1="1706.09415460184" y1="1812.16017177982" x2="1556.09415460184" y2="1812.16017177982" style="stroke:rgb(50,50,50);stroke-width:1.2;fill:none"/>
<line x1="1812.16017177982" y1="107.566017177982" x2="1812.16017177982" y2="257.566017177982" style="stroke:rgb(50,50,50);stroke-width:1.2;fill:none"/>
<line x1="1812.16017177982" y1="469.698051533946" x2="1812.16017177982" y2="619.698051533946" style="stroke:rgb(50,50,50);stroke-width:1.2;fill:none"/>
<line x1="1812.16017177982" y1="831.830085889911" x2="1812.16017177982" y2="981.830085889911" style="stroke:rgb(50,50,50);stroke-width:1.2;fill:none"/>
<line x1="1812.16017177982" y1="1193.96212024587" x2="1812.16017177982" y2="1343.96212024587" style="stroke:rgb(50,50,50);stroke-width:1.2;fill:none"/>
<line x1="1812.16017177982" y1="1556.09415460184" x2="1812.16017177982" y2="1706.09415460184" style="stroke:rgb(50,50,50);stroke-width:1.2;fill:none"/>
</svg>
