<?xml version="1.0" standalone="no"?> <!DOCTYPE svg PUBLIC "-//W3C//DTD SVG 1.1//EN" "http://www.w3.org/Graphics/SVG/1.1/DTD/svg11.dtd">
<svg width="2000" height="2000" version="1.1" xmlns="http://www.w3.org/2000/svg">
<line x1="232.691108675446" y1="10.8" x2="200.992378864668" y2="29.1012701892219" style="stroke:rgb(50,0,199);stroke-width:1.2"/>
<line x1="232.691108675446" y1="10.8" x2="264.389838486225" y2="29.1012701892219" style="stroke:rgb(50,0,199);stroke-width:1.2"/>
<line x1="200.992378864668" y1="29.1012701892219" x2="200.992378864668" y2="65.7038105676658" style="stroke:rgb(50,0,199);stroke-width:1.2"/>
<line x1="200.992378864668" y1="65.7038105676658" x2="232.691108675446" y2="84.0050807568877" style="stroke:rgb(50,0,199);stroke-width:1.2"/>
<line x1="232.691108675446" y1="84.0050807568877" x2="264.389838486225" y2="65.7038105676658" style="stroke:rgb(50,0,199);stroke-width:1.2"/>
<line x1="232.691108675446" y1="84.0050807568877" x2="232.691108675446" y2="120.607621135332" style="stroke:rgb(50,0,199);stroke-width:1.2"/>
<line x1="232.691108675446" y1="120.607621135332" x2="200.992378864668" y2="138.908891324554" style="stroke:rgb(50,0,199);stroke-width:1.2"/>
<line x1="232.691108675446" y1="120.607621135332" x2="264.389838486225" y2="138.908891324554" style="stroke:rgb(50,0,199);stroke-width:1.2"/>
<line x1="296.088568297003" y1="10.8" x2="264.389838486225" y2="29.1012701892219" style="stroke:rgb(50,0,199);stroke-width:1.2"/>
<line x1="296.088568297003" y1="10.8" x2="327.787298107781" y2="29.1012701892219" style="stroke:rgb(50,0,199);stroke-width:1.2"/>
<line x1="264.389838486225" y1="29.1012701892219" x2="264.389838486225" y2="65.7038105676658" style="stroke:rgb(50,0,199);stroke-width:1.2"/>
<line x1="264.389838486225" y1="65.7038105676658" x2="296.088568297003" y2="84.0050807568877" style="stroke:rgb(50,0,199);stroke-width:1.2"/>
<line x1="296.088568297003" y1="84.0050807568877" x2="327.787298107781" y2="65.7038105676658" style="stroke:rgb(50,0,199);stroke-width:1.2"/>
<line x1="296.088568297003" y1="84.0050807568877" x2="296.088568297003" y2="120.607621135332" style="stroke:rgb(50,0,199);stroke-width:1.2"/>
<line x1="296.088568297003" y1="120.607621135332" x2="264.389838486225" y2="138.908891324554" style="stroke:rgb(50,0,199);stroke-width:1.2"/>
<line x1="296.088568297003" y1="120.607621135332" x2="327.787298107781" y2="138.908891324554" style="stroke:rgb(50,0,199);stroke-width:1.2"/>
<line x1="359.486027918559" y1="10.8" x2="327.787298107781" y2="29.1012701892219" style="stroke:rgb(50,0,199);stroke-width:1.2"/>
<line x1="359.486027918559" y1="10.8" x2="391.184757729337" y2="29.1012701892219" style="stroke:rgb(50,0,199);stroke-width:1.2"/>
<line x1="327.787298107781" y1="29.1012701892219" x2="327.787298107781" y2="65.7038105676658" style="stroke:rgb(50,0,199);stroke-width:1.2"/>
<line x1="327.787298107781" y1="65.7038105676658" x2="359.486027918559" y2="84.0050807568877" style="stroke:rgb(50,0,199);stroke-width:1.2"/>
<line x1="359.486027918559" y1="84.0050807568877" x2="391.184757729337" y2="65.7038105676658" style="stroke:rgb(50,0,199);stroke-width:1.2"/>
<line x1="359.486027918559" y1="84.0050807568877" x2="359.486027918559" y2="120.607621135332" style="stroke:rgb(50,0,199);stroke-width:1.2"/>
<line x1="359.486027918559" y1="120.607621135332" x2="327.787298107781" y2="138.908891324554" style="stroke:rgb(50,0,199);stroke-width:1.2"/>
<line x1="359.486027918559" y1="120.607621135332" x2="391.184757729337" y2="138.908891324554" style="stroke:rgb(50,0,199);stroke-width:1.2"/>
<line x1="422.883487540115" y1="10.8" x2="391.184757729337" y2="29.1012701892219" style="stroke:rgb(50,0,199);stroke-width:1.2"/>
<line x1="422.883487540115" y1="10.8" x2="454.582217350893" y2="29.1012701892219" style="stroke:rgb(50,0,199);stroke-width:1.2"/>
<line x1="391.184757729337" y1="29.1012701892219" x2="391.184757729337" y2="65.7038105676658" style="stroke:rgb(50,0,199);stroke-width:1.2"/>
<line x1="391.184757729337" y1="65.7038105676658" x2="422.883487540115" y2="84.0050807568877" style="stroke:rgb(50,0,199);stroke-width:1.2"/>
<line x1="422.883487540115" y1="84.0050807568877" x2="454.582217350893" y2="65.7038105676658" style="stroke:rgb(50,0,199);stroke-width:1.2"/>
<line x1="422.883487540115" y1="84.0050807568877" x2="422.883487540115" y2="120.607621135332" style="stroke:rgb(50,0,199);stroke-width:1.2"/>
<line x1="422.883487540115" y1="120.607621135332" x2="391.184757729337" y2="138.908891324554" style="stroke:rgb(50,0,199);stroke-width:1.2"/>
<line x1="422.883487540115" y1="120.607621135332" x2="454.582217350893" y2="138.908891324554" style="stroke:rgb(50,0,199);stroke-width:1.2"/>
<line x1="644.774596215561" y1="29.1012701892219" x2="644.774596215561" y2="65.7038105676658" style="stroke:rgb(50,0,199);stroke-width:1.2"/>
<line x1="644.774596215561" y1="65.7038105676658" x2="676.473326026339" y2="84.0050807568877" style="stroke:rgb(50,0,199);stroke-width:1.2"/>
<line x1="676.473326026339" y1="84.0050807568877" x2="676.473326026339" y2="120.607621135332" style="stroke:rgb(50,0,199);stroke-width:1.2"/>
<line x1="676.473326026339" y1="120.607621135332" x2="644.774596215561" y2="138.908891324554" style="stroke:rgb(50,0,199);stroke-width:1.2"/>
</svg>
