<?xml version="1.0" standalone="no"?> <!DOCTYPE svg PUBLIC "-//W3C//DTD SVG 1.1//EN" "http://www.w3.org/Graphics/SVG/1.1/DTD/svg11.dtd">
<svg width="1600" height="1600" version="1.1" xmlns="http://www.w3.org/2000/svg">
<line x1="25" y1="25" x2="48.2937140592269" y2="111.933324366016" style="stroke:rgb(99,99,99);stroke-width:1"/> 
<line x1="25" y1="25" x2="111.933324366016" y2="1.70628594077314" style="stroke:rgb(99,99,99);stroke-width:1"/> 
<line x1="48.2937140592269" y1="111.933324366016" x2="1.70628594077314" y2="158.52075248447" style="stroke:rgb(99,99,99);stroke-width:1"/> 
<line x1="111.933324366016" y1="1.70628594077314" x2="158.52075248447" y2="48.2937140592269" style="stroke:rgb(99,99,99);stroke-width:1"/> 
<line x1="1.70628594077314" y1="158.52075248447" x2="25" y2="245.454076850486" style="stroke:rgb(99,99,99);stroke-width:1"/> 
<line x1="48.2937140592269" y1="111.933324366016" x2="135.227038425243" y2="135.227038425243" style="stroke:rgb(99,99,99);stroke-width:1"/> 
<line x1="158.52075248447" y1="48.2937140592269" x2="135.227038425243" y2="135.227038425243" style="stroke:rgb(99,99,99);stroke-width:1"/> 
<line x1="158.52075248447" y1="48.2937140592269" x2="245.454076850486" y2="25" style="stroke:rgb(99,99,99);stroke-width:1"/> 
<line x1="135.227038425243" y1="135.227038425243" x2="111.933324366016" y2="222.160362791259" style="stroke:rgb(99,99,99);stroke-width:1"/> 
<line x1="135.227038425243" y1="135.227038425243" x2="222.160362791259" y2="158.52075248447" style="stroke:rgb(99,99,99);stroke-width:1"/> 
<line x1="245.454076850486" y1="25" x2="268.747790909713" y2="111.933324366016" style="stroke:rgb(99,99,99);stroke-width:1"/> 
<line x1="245.454076850486" y1="25" x2="332.387401216502" y2="1.70628594077314" style="stroke:rgb(99,99,99);stroke-width:1"/> 
<line x1="268.747790909713" y1="111.933324366016" x2="222.160362791259" y2="158.52075248447" style="stroke:rgb(99,99,99);stroke-width:1"/> 
<line x1="332.387401216502" y1="1.70628594077314" x2="378.974829334956" y2="48.2937140592269" style="stroke:rgb(99,99,99);stroke-width:1"/> 
<line x1="222.160362791259" y1="158.52075248447" x2="245.454076850486" y2="245.454076850486" style="stroke:rgb(99,99,99);stroke-width:1"/> 
<line x1="268.747790909713" y1="111.933324366016" x2="355.681115275729" y2="135.227038425243" style="stroke:rgb(99,99,99);stroke-width:1"/> 
<line x1="378.974829334956" y1="48.2937140592269" x2="355.681115275729" y2="135.227038425243" style="stroke:rgb(99,99,99);stroke-width:1"/> 
<line x1="378.974829334956" y1="48.2937140592269" x2="465.908153700972" y2="25" style="stroke:rgb(99,99,99);stroke-width:1"/> 
<line x1="355.681115275729" y1="135.227038425243" x2="332.387401216502" y2="222.160362791259" style="stroke:rgb(99,99,99);stroke-width:1"/> 
<line x1="355.681115275729" y1="135.227038425243" x2="442.614439641745" y2="158.52075248447" style="stroke:rgb(99,99,99);stroke-width:1"/> 
<line x1="465.908153700972" y1="25" x2="489.201867760199" y2="111.933324366016" style="stroke:rgb(99,99,99);stroke-width:1"/> 
<line x1="465.908153700972" y1="25" x2="552.841478066988" y2="1.70628594077314" style="stroke:rgb(99,99,99);stroke-width:1"/> 
<line x1="489.201867760199" y1="111.933324366016" x2="442.614439641745" y2="158.52075248447" style="stroke:rgb(99,99,99);stroke-width:1"/> 
<line x1="552.841478066988" y1="1.70628594077314" x2="599.428906185442" y2="48.2937140592269" style="stroke:rgb(99,99,99);stroke-width:1"/> 
<line x1="442.614439641745" y1="158.52075248447" x2="465.908153700972" y2="245.454076850486" style="stroke:rgb(99,99,99);stroke-width:1"/> 
<line x1="489.201867760199" y1="111.933324366016" x2="576.135192126215" y2="135.227038425243" style="stroke:rgb(99,99,99);stroke-width:1"/> 
<line x1="599.428906185442" y1="48.2937140592269" x2="576.135192126215" y2="135.227038425243" style="stroke:rgb(99,99,99);stroke-width:1"/> 
<line x1="599.428906185442" y1="48.2937140592269" x2="686.362230551458" y2="25.0000000000001" style="stroke:rgb(99,99,99);stroke-width:1"/> 
<line x1="576.135192126215" y1="135.227038425243" x2="552.841478066988" y2="222.160362791259" style="stroke:rgb(99,99,99);stroke-width:1"/> 
<line x1="576.135192126215" y1="135.227038425243" x2="663.068516492231" y2="158.52075248447" style="stroke:rgb(99,99,99);stroke-width:1"/> 
<line x1="686.362230551458" y1="25.0000000000001" x2="709.655944610685" y2="111.933324366016" style="stroke:rgb(99,99,99);stroke-width:1"/> 
<line x1="686.362230551458" y1="25.0000000000001" x2="773.295554917474" y2="1.70628594077317" style="stroke:rgb(99,99,99);stroke-width:1"/> 
<line x1="709.655944610685" y1="111.933324366016" x2="663.068516492231" y2="158.52075248447" style="stroke:rgb(99,99,99);stroke-width:1"/> 
<line x1="773.295554917474" y1="1.70628594077317" x2="819.882983035928" y2="48.2937140592269" style="stroke:rgb(99,99,99);stroke-width:1"/> 
<line x1="663.068516492231" y1="158.52075248447" x2="686.362230551458" y2="245.454076850486" style="stroke:rgb(99,99,99);stroke-width:1"/> 
<line x1="709.655944610685" y1="111.933324366016" x2="796.589268976701" y2="135.227038425243" style="stroke:rgb(99,99,99);stroke-width:1"/> 
<line x1="819.882983035928" y1="48.2937140592269" x2="796.589268976701" y2="135.227038425243" style="stroke:rgb(99,99,99);stroke-width:1"/> 
<line x1="819.882983035928" y1="48.2937140592269" x2="906.816307401944" y2="25.0000000000001" style="stroke:rgb(99,99,99);stroke-width:1"/> 
<line x1="796.589268976701" y1="135.227038425243" x2="773.295554917474" y2="222.160362791259" style="stroke:rgb(99,99,99);stroke-width:1"/> 
<line x1="796.589268976701" y1="135.227038425243" x2="883.522593342717" y2="158.52075248447" style="stroke:rgb(99,99,99);stroke-width:1"/> 
<line x1="906.816307401944" y1="25.0000000000001" x2="930.110021461171" y2="111.933324366016" style="stroke:rgb(99,99,99);stroke-width:1"/> 
<line x1="906.816307401944" y1="25.0000000000001" x2="993.74963176796" y2="1.70628594077323" style="stroke:rgb(99,99,99);stroke-width:1"/> 
<line x1="930.110021461171" y1="111.933324366016" x2="883.522593342717" y2="158.52075248447" style="stroke:rgb(99,99,99);stroke-width:1"/> 
<line x1="993.74963176796" y1="1.70628594077323" x2="1040.33705988641" y2="48.293714059227" style="stroke:rgb(99,99,99);stroke-width:1"/> 
<line x1="883.522593342717" y1="158.52075248447" x2="906.816307401944" y2="245.454076850486" style="stroke:rgb(99,99,99);stroke-width:1"/> 
<line x1="930.110021461171" y1="111.933324366016" x2="1017.04334582719" y2="135.227038425243" style="stroke:rgb(99,99,99);stroke-width:1"/> 
<line x1="1040.33705988641" y1="48.293714059227" x2="1017.04334582719" y2="135.227038425243" style="stroke:rgb(99,99,99);stroke-width:1"/> 
<line x1="1040.33705988641" y1="48.293714059227" x2="1127.27038425243" y2="25" style="stroke:rgb(99,99,99);stroke-width:1"/> 
<line x1="1017.04334582719" y1="135.227038425243" x2="993.74963176796" y2="222.160362791259" style="stroke:rgb(99,99,99);stroke-width:1"/> 
<line x1="1017.04334582719" y1="135.227038425243" x2="1103.9766701932" y2="158.52075248447" style="stroke:rgb(99,99,99);stroke-width:1"/> 
<line x1="1127.27038425243" y1="25" x2="1150.56409831166" y2="111.933324366016" style="stroke:rgb(99,99,99);stroke-width:1"/> 
<line x1="1150.56409831166" y1="111.933324366016" x2="1103.9766701932" y2="158.52075248447" style="stroke:rgb(99,99,99);stroke-width:1"/> 
<line x1="1103.9766701932" y1="158.52075248447" x2="1127.27038425243" y2="245.454076850486" style="stroke:rgb(99,99,99);stroke-width:1"/> 
<line x1="25" y1="245.454076850486" x2="48.2937140592269" y2="332.387401216502" style="stroke:rgb(99,99,99);stroke-width:1"/> 
<line x1="25" y1="245.454076850486" x2="111.933324366016" y2="222.160362791259" style="stroke:rgb(99,99,99);stroke-width:1"/> 
<line x1="48.2937140592269" y1="332.387401216502" x2="1.70628594077311" y2="378.974829334956" style="stroke:rgb(99,99,99);stroke-width:1"/> 
<line x1="111.933324366016" y1="222.160362791259" x2="158.52075248447" y2="268.747790909713" style="stroke:rgb(99,99,99);stroke-width:1"/> 
<line x1="1.70628594077311" y1="378.974829334956" x2="25" y2="465.908153700972" style="stroke:rgb(99,99,99);stroke-width:1"/> 
<line x1="48.2937140592269" y1="332.387401216502" x2="135.227038425243" y2="355.681115275729" style="stroke:rgb(99,99,99);stroke-width:1"/> 
<line x1="158.52075248447" y1="268.747790909713" x2="135.227038425243" y2="355.681115275729" style="stroke:rgb(99,99,99);stroke-width:1"/> 
<line x1="158.52075248447" y1="268.747790909713" x2="245.454076850486" y2="245.454076850486" style="stroke:rgb(99,99,99);stroke-width:1"/> 
<line x1="135.227038425243" y1="355.681115275729" x2="111.933324366016" y2="442.614439641745" style="stroke:rgb(99,99,99);stroke-width:1"/> 
<line x1="135.227038425243" y1="355.681115275729" x2="222.160362791259" y2="378.974829334956" style="stroke:rgb(99,99,99);stroke-width:1"/> 
<line x1="245.454076850486" y1="245.454076850486" x2="268.747790909713" y2="332.387401216502" style="stroke:rgb(99,99,99);stroke-width:1"/> 
<line x1="245.454076850486" y1="245.454076850486" x2="332.387401216502" y2="222.160362791259" style="stroke:rgb(99,99,99);stroke-width:1"/> 
<line x1="268.747790909713" y1="332.387401216502" x2="222.160362791259" y2="378.974829334956" style="stroke:rgb(99,99,99);stroke-width:1"/> 
<line x1="332.387401216502" y1="222.160362791259" x2="378.974829334956" y2="268.747790909713" style="stroke:rgb(99,99,99);stroke-width:1"/> 
<line x1="222.160362791259" y1="378.974829334956" x2="245.454076850486" y2="465.908153700972" style="stroke:rgb(99,99,99);stroke-width:1"/> 
<line x1="268.747790909713" y1="332.387401216502" x2="355.681115275729" y2="355.681115275729" style="stroke:rgb(99,99,99);stroke-width:1"/> 
<line x1="378.974829334956" y1="268.747790909713" x2="355.681115275729" y2="355.681115275729" style="stroke:rgb(99,99,99);stroke-width:1"/> 
<line x1="378.974829334956" y1="268.747790909713" x2="465.908153700972" y2="245.454076850486" style="stroke:rgb(99,99,99);stroke-width:1"/> 
<line x1="355.681115275729" y1="355.681115275729" x2="332.387401216502" y2="442.614439641745" style="stroke:rgb(99,99,99);stroke-width:1"/> 
<line x1="355.681115275729" y1="355.681115275729" x2="442.614439641745" y2="378.974829334956" style="stroke:rgb(99,99,99);stroke-width:1"/> 
<line x1="465.908153700972" y1="245.454076850486" x2="489.201867760199" y2="332.387401216502" style="stroke:rgb(99,99,99);stroke-width:1"/> 
<line x1="465.908153700972" y1="245.454076850486" x2="552.841478066988" y2="222.160362791259" style="stroke:rgb(99,99,99);stroke-width:1"/> 
<line x1="489.201867760199" y1="332.387401216502" x2="442.614439641745" y2="378.974829334956" style="stroke:rgb(99,99,99);stroke-width:1"/> 
<line x1="552.841478066988" y1="222.160362791259" x2="599.428906185442" y2="268.747790909713" style="stroke:rgb(99,99,99);stroke-width:1"/> 
<line x1="442.614439641745" y1="378.974829334956" x2="465.908153700972" y2="465.908153700972" style="stroke:rgb(99,99,99);stroke-width:1"/> 
<line x1="489.201867760199" y1="332.387401216502" x2="576.135192126215" y2="355.681115275729" style="stroke:rgb(99,99,99);stroke-width:1"/> 
<line x1="599.428906185442" y1="268.747790909713" x2="576.135192126215" y2="355.681115275729" style="stroke:rgb(99,99,99);stroke-width:1"/> 
<line x1="599.428906185442" y1="268.747790909713" x2="686.362230551458" y2="245.454076850486" style="stroke:rgb(99,99,99);stroke-width:1"/> 
<line x1="576.135192126215" y1="355.681115275729" x2="552.841478066988" y2="442.614439641745" style="stroke:rgb(99,99,99);stroke-width:1"/> 
<line x1="576.135192126215" y1="355.681115275729" x2="663.068516492231" y2="378.974829334956" style="stroke:rgb(99,99,99);stroke-width:1"/> 
<line x1="686.362230551458" y1="245.454076850486" x2="709.655944610685" y2="332.387401216502" style="stroke:rgb(99,99,99);stroke-width:1"/> 
<line x1="686.362230551458" y1="245.454076850486" x2="773.295554917474" y2="222.160362791259" style="stroke:rgb(99,99,99);stroke-width:1"/> 
<line x1="709.655944610685" y1="332.387401216502" x2="663.068516492231" y2="378.974829334956" style="stroke:rgb(99,99,99);stroke-width:1"/> 
<line x1="773.295554917474" y1="222.160362791259" x2="819.882983035928" y2="268.747790909713" style="stroke:rgb(99,99,99);stroke-width:1"/> 
<line x1="663.068516492231" y1="378.974829334956" x2="686.362230551458" y2="465.908153700972" style="stroke:rgb(99,99,99);stroke-width:1"/> 
<line x1="709.655944610685" y1="332.387401216502" x2="796.589268976701" y2="355.681115275729" style="stroke:rgb(99,99,99);stroke-width:1"/> 
<line x1="819.882983035928" y1="268.747790909713" x2="796.589268976701" y2="355.681115275729" style="stroke:rgb(99,99,99);stroke-width:1"/> 
<line x1="819.882983035928" y1="268.747790909713" x2="906.816307401944" y2="245.454076850486" style="stroke:rgb(99,99,99);stroke-width:1"/> 
<line x1="796.589268976701" y1="355.681115275729" x2="773.295554917474" y2="442.614439641745" style="stroke:rgb(99,99,99);stroke-width:1"/> 
<line x1="796.589268976701" y1="355.681115275729" x2="883.522593342717" y2="378.974829334956" style="stroke:rgb(99,99,99);stroke-width:1"/> 
<line x1="906.816307401944" y1="245.454076850486" x2="930.110021461171" y2="332.387401216502" style="stroke:rgb(99,99,99);stroke-width:1"/> 
<line x1="906.816307401944" y1="245.454076850486" x2="993.74963176796" y2="222.160362791259" style="stroke:rgb(99,99,99);stroke-width:1"/> 
<line x1="930.110021461171" y1="332.387401216502" x2="883.522593342717" y2="378.974829334956" style="stroke:rgb(99,99,99);stroke-width:1"/> 
<line x1="993.74963176796" y1="222.160362791259" x2="1040.33705988641" y2="268.747790909713" style="stroke:rgb(99,99,99);stroke-width:1"/> 
<line x1="883.522593342717" y1="378.974829334956" x2="906.816307401944" y2="465.908153700972" style="stroke:rgb(99,99,99);stroke-width:1"/> 
<line x1="930.110021461171" y1="332.387401216502" x2="1017.04334582719" y2="355.681115275729" style="stroke:rgb(99,99,99);stroke-width:1"/> 
<line x1="1040.33705988641" y1="268.747790909713" x2="1017.04334582719" y2="355.681115275729" style="stroke:rgb(99,99,99);stroke-width:1"/> 
<line x1="1040.33705988641" y1="268.747790909713" x2="1127.27038425243" y2="245.454076850486" style="stroke:rgb(99,99,99);stroke-width:1"/> 
<line x1="1017.04334582719" y1="355.681115275729" x2="993.74963176796" y2="442.614439641745" style="stroke:rgb(99,99,99);stroke-width:1"/> 
<line x1="1017.04334582719" y1="355.681115275729" x2="1103.9766701932" y2="378.974829334956" style="stroke:rgb(99,99,99);stroke-width:1"/> 
<line x1="1127.27038425243" y1="245.454076850486" x2="1150.56409831166" y2="332.387401216502" style="stroke:rgb(99,99,99);stroke-width:1"/> 
<line x1="1150.56409831166" y1="332.387401216502" x2="1103.9766701932" y2="378.974829334956" style="stroke:rgb(99,99,99);stroke-width:1"/> 
<line x1="1103.9766701932" y1="378.974829334956" x2="1127.27038425243" y2="465.908153700972" style="stroke:rgb(99,99,99);stroke-width:1"/> 
<line x1="25" y1="465.908153700972" x2="48.2937140592269" y2="552.841478066988" style="stroke:rgb(99,99,99);stroke-width:1"/> 
<line x1="25" y1="465.908153700972" x2="111.933324366016" y2="442.614439641745" style="stroke:rgb(99,99,99);stroke-width:1"/> 
<line x1="48.2937140592269" y1="552.841478066988" x2="1.70628594077311" y2="599.428906185442" style="stroke:rgb(99,99,99);stroke-width:1"/> 
<line x1="111.933324366016" y1="442.614439641745" x2="158.52075248447" y2="489.201867760199" style="stroke:rgb(99,99,99);stroke-width:1"/> 
<line x1="1.70628594077311" y1="599.428906185442" x2="24.9999999999999" y2="686.362230551458" style="stroke:rgb(99,99,99);stroke-width:1"/> 
<line x1="48.2937140592269" y1="552.841478066988" x2="135.227038425243" y2="576.135192126215" style="stroke:rgb(99,99,99);stroke-width:1"/> 
<line x1="158.52075248447" y1="489.201867760199" x2="135.227038425243" y2="576.135192126215" style="stroke:rgb(99,99,99);stroke-width:1"/> 
<line x1="158.52075248447" y1="489.201867760199" x2="245.454076850486" y2="465.908153700972" style="stroke:rgb(99,99,99);stroke-width:1"/> 
<line x1="135.227038425243" y1="576.135192126215" x2="111.933324366016" y2="663.068516492231" style="stroke:rgb(99,99,99);stroke-width:1"/> 
<line x1="135.227038425243" y1="576.135192126215" x2="222.160362791259" y2="599.428906185442" style="stroke:rgb(99,99,99);stroke-width:1"/> 
<line x1="245.454076850486" y1="465.908153700972" x2="268.747790909713" y2="552.841478066988" style="stroke:rgb(99,99,99);stroke-width:1"/> 
<line x1="245.454076850486" y1="465.908153700972" x2="332.387401216502" y2="442.614439641745" style="stroke:rgb(99,99,99);stroke-width:1"/> 
<line x1="268.747790909713" y1="552.841478066988" x2="222.160362791259" y2="599.428906185442" style="stroke:rgb(99,99,99);stroke-width:1"/> 
<line x1="332.387401216502" y1="442.614439641745" x2="378.974829334956" y2="489.201867760199" style="stroke:rgb(99,99,99);stroke-width:1"/> 
<line x1="222.160362791259" y1="599.428906185442" x2="245.454076850486" y2="686.362230551458" style="stroke:rgb(99,99,99);stroke-width:1"/> 
<line x1="268.747790909713" y1="552.841478066988" x2="355.681115275729" y2="576.135192126215" style="stroke:rgb(99,99,99);stroke-width:1"/> 
<line x1="378.974829334956" y1="489.201867760199" x2="355.681115275729" y2="576.135192126215" style="stroke:rgb(99,99,99);stroke-width:1"/> 
<line x1="378.974829334956" y1="489.201867760199" x2="465.908153700972" y2="465.908153700972" style="stroke:rgb(99,99,99);stroke-width:1"/> 
<line x1="355.681115275729" y1="576.135192126215" x2="332.387401216502" y2="663.068516492231" style="stroke:rgb(99,99,99);stroke-width:1"/> 
<line x1="355.681115275729" y1="576.135192126215" x2="442.614439641745" y2="599.428906185442" style="stroke:rgb(99,99,99);stroke-width:1"/> 
<line x1="465.908153700972" y1="465.908153700972" x2="489.201867760199" y2="552.841478066988" style="stroke:rgb(99,99,99);stroke-width:1"/> 
<line x1="465.908153700972" y1="465.908153700972" x2="552.841478066988" y2="442.614439641745" style="stroke:rgb(99,99,99);stroke-width:1"/> 
<line x1="489.201867760199" y1="552.841478066988" x2="442.614439641745" y2="599.428906185442" style="stroke:rgb(99,99,99);stroke-width:1"/> 
<line x1="552.841478066988" y1="442.614439641745" x2="599.428906185442" y2="489.201867760199" style="stroke:rgb(99,99,99);stroke-width:1"/> 
<line x1="442.614439641745" y1="599.428906185442" x2="465.908153700972" y2="686.362230551458" style="stroke:rgb(99,99,99);stroke-width:1"/> 
<line x1="489.201867760199" y1="552.841478066988" x2="576.135192126215" y2="576.135192126215" style="stroke:rgb(99,99,99);stroke-width:1"/> 
<line x1="599.428906185442" y1="489.201867760199" x2="576.135192126215" y2="576.135192126215" style="stroke:rgb(99,99,99);stroke-width:1"/> 
<line x1="599.428906185442" y1="489.201867760199" x2="686.362230551458" y2="465.908153700972" style="stroke:rgb(99,99,99);stroke-width:1"/> 
<line x1="576.135192126215" y1="576.135192126215" x2="552.841478066988" y2="663.068516492231" style="stroke:rgb(99,99,99);stroke-width:1"/> 
<line x1="576.135192126215" y1="576.135192126215" x2="663.068516492231" y2="599.428906185442" style="stroke:rgb(99,99,99);stroke-width:1"/> 
<line x1="686.362230551458" y1="465.908153700972" x2="709.655944610685" y2="552.841478066988" style="stroke:rgb(99,99,99);stroke-width:1"/> 
<line x1="686.362230551458" y1="465.908153700972" x2="773.295554917474" y2="442.614439641745" style="stroke:rgb(99,99,99);stroke-width:1"/> 
<line x1="709.655944610685" y1="552.841478066988" x2="663.068516492231" y2="599.428906185442" style="stroke:rgb(99,99,99);stroke-width:1"/> 
<line x1="773.295554917474" y1="442.614439641745" x2="819.882983035928" y2="489.201867760199" style="stroke:rgb(99,99,99);stroke-width:1"/> 
<line x1="663.068516492231" y1="599.428906185442" x2="686.362230551458" y2="686.362230551458" style="stroke:rgb(99,99,99);stroke-width:1"/> 
<line x1="709.655944610685" y1="552.841478066988" x2="796.589268976701" y2="576.135192126215" style="stroke:rgb(99,99,99);stroke-width:1"/> 
<line x1="819.882983035928" y1="489.201867760199" x2="796.589268976701" y2="576.135192126215" style="stroke:rgb(99,99,99);stroke-width:1"/> 
<line x1="819.882983035928" y1="489.201867760199" x2="906.816307401944" y2="465.908153700972" style="stroke:rgb(99,99,99);stroke-width:1"/> 
<line x1="796.589268976701" y1="576.135192126215" x2="773.295554917474" y2="663.068516492231" style="stroke:rgb(99,99,99);stroke-width:1"/> 
<line x1="796.589268976701" y1="576.135192126215" x2="883.522593342717" y2="599.428906185442" style="stroke:rgb(99,99,99);stroke-width:1"/> 
<line x1="906.816307401944" y1="465.908153700972" x2="930.110021461171" y2="552.841478066988" style="stroke:rgb(99,99,99);stroke-width:1"/> 
<line x1="906.816307401944" y1="465.908153700972" x2="993.74963176796" y2="442.614439641745" style="stroke:rgb(99,99,99);stroke-width:1"/> 
<line x1="930.110021461171" y1="552.841478066988" x2="883.522593342717" y2="599.428906185442" style="stroke:rgb(99,99,99);stroke-width:1"/> 
<line x1="993.74963176796" y1="442.614439641745" x2="1040.33705988641" y2="489.201867760199" style="stroke:rgb(99,99,99);stroke-width:1"/> 
<line x1="883.522593342717" y1="599.428906185442" x2="906.816307401944" y2="686.362230551458" style="stroke:rgb(99,99,99);stroke-width:1"/> 
<line x1="930.110021461171" y1="552.841478066988" x2="1017.04334582719" y2="576.135192126215" style="stroke:rgb(99,99,99);stroke-width:1"/> 
<line x1="1040.33705988641" y1="489.201867760199" x2="1017.04334582719" y2="576.135192126215" style="stroke:rgb(99,99,99);stroke-width:1"/> 
<line x1="1040.33705988641" y1="489.201867760199" x2="1127.27038425243" y2="465.908153700972" style="stroke:rgb(99,99,99);stroke-width:1"/> 
<line x1="1017.04334582719" y1="576.135192126215" x2="993.74963176796" y2="663.068516492231" style="stroke:rgb(99,99,99);stroke-width:1"/> 
<line x1="1017.04334582719" y1="576.135192126215" x2="1103.9766701932" y2="599.428906185442" style="stroke:rgb(99,99,99);stroke-width:1"/> 
<line x1="1127.27038425243" y1="465.908153700972" x2="1150.56409831166" y2="552.841478066988" style="stroke:rgb(99,99,99);stroke-width:1"/> 
<line x1="1150.56409831166" y1="552.841478066988" x2="1103.9766701932" y2="599.428906185442" style="stroke:rgb(99,99,99);stroke-width:1"/> 
<line x1="1103.9766701932" y1="599.428906185442" x2="1127.27038425243" y2="686.362230551458" style="stroke:rgb(99,99,99);stroke-width:1"/> 
<line x1="24.9999999999999" y1="686.362230551458" x2="48.2937140592268" y2="773.295554917474" style="stroke:rgb(99,99,99);stroke-width:1"/> 
<line x1="24.9999999999999" y1="686.362230551458" x2="111.933324366016" y2="663.068516492231" style="stroke:rgb(99,99,99);stroke-width:1"/> 
<line x1="48.2937140592268" y1="773.295554917474" x2="1.70628594077306" y2="819.882983035928" style="stroke:rgb(99,99,99);stroke-width:1"/> 
<line x1="111.933324366016" y1="663.068516492231" x2="158.52075248447" y2="709.655944610685" style="stroke:rgb(99,99,99);stroke-width:1"/> 
<line x1="1.70628594077306" y1="819.882983035928" x2="24.9999999999999" y2="906.816307401944" style="stroke:rgb(99,99,99);stroke-width:1"/> 
<line x1="48.2937140592268" y1="773.295554917474" x2="135.227038425243" y2="796.589268976701" style="stroke:rgb(99,99,99);stroke-width:1"/> 
<line x1="158.52075248447" y1="709.655944610685" x2="135.227038425243" y2="796.589268976701" style="stroke:rgb(99,99,99);stroke-width:1"/> 
<line x1="158.52075248447" y1="709.655944610685" x2="245.454076850486" y2="686.362230551458" style="stroke:rgb(99,99,99);stroke-width:1"/> 
<line x1="135.227038425243" y1="796.589268976701" x2="111.933324366016" y2="883.522593342717" style="stroke:rgb(99,99,99);stroke-width:1"/> 
<line x1="135.227038425243" y1="796.589268976701" x2="222.160362791259" y2="819.882983035928" style="stroke:rgb(99,99,99);stroke-width:1"/> 
<line x1="245.454076850486" y1="686.362230551458" x2="268.747790909713" y2="773.295554917474" style="stroke:rgb(99,99,99);stroke-width:1"/> 
<line x1="245.454076850486" y1="686.362230551458" x2="332.387401216502" y2="663.068516492231" style="stroke:rgb(99,99,99);stroke-width:1"/> 
<line x1="268.747790909713" y1="773.295554917474" x2="222.160362791259" y2="819.882983035928" style="stroke:rgb(99,99,99);stroke-width:1"/> 
<line x1="332.387401216502" y1="663.068516492231" x2="378.974829334956" y2="709.655944610685" style="stroke:rgb(99,99,99);stroke-width:1"/> 
<line x1="222.160362791259" y1="819.882983035928" x2="245.454076850486" y2="906.816307401944" style="stroke:rgb(99,99,99);stroke-width:1"/> 
<line x1="268.747790909713" y1="773.295554917474" x2="355.681115275729" y2="796.589268976701" style="stroke:rgb(99,99,99);stroke-width:1"/> 
<line x1="378.974829334956" y1="709.655944610685" x2="355.681115275729" y2="796.589268976701" style="stroke:rgb(99,99,99);stroke-width:1"/> 
<line x1="378.974829334956" y1="709.655944610685" x2="465.908153700972" y2="686.362230551458" style="stroke:rgb(99,99,99);stroke-width:1"/> 
<line x1="355.681115275729" y1="796.589268976701" x2="332.387401216502" y2="883.522593342717" style="stroke:rgb(99,99,99);stroke-width:1"/> 
<line x1="355.681115275729" y1="796.589268976701" x2="442.614439641745" y2="819.882983035928" style="stroke:rgb(99,99,99);stroke-width:1"/> 
<line x1="465.908153700972" y1="686.362230551458" x2="489.201867760199" y2="773.295554917474" style="stroke:rgb(99,99,99);stroke-width:1"/> 
<line x1="465.908153700972" y1="686.362230551458" x2="552.841478066988" y2="663.068516492231" style="stroke:rgb(99,99,99);stroke-width:1"/> 
<line x1="489.201867760199" y1="773.295554917474" x2="442.614439641745" y2="819.882983035928" style="stroke:rgb(99,99,99);stroke-width:1"/> 
<line x1="552.841478066988" y1="663.068516492231" x2="599.428906185442" y2="709.655944610685" style="stroke:rgb(99,99,99);stroke-width:1"/> 
<line x1="442.614439641745" y1="819.882983035928" x2="465.908153700972" y2="906.816307401944" style="stroke:rgb(99,99,99);stroke-width:1"/> 
<line x1="489.201867760199" y1="773.295554917474" x2="576.135192126215" y2="796.589268976701" style="stroke:rgb(99,99,99);stroke-width:1"/> 
<line x1="599.428906185442" y1="709.655944610685" x2="576.135192126215" y2="796.589268976701" style="stroke:rgb(99,99,99);stroke-width:1"/> 
<line x1="599.428906185442" y1="709.655944610685" x2="686.362230551458" y2="686.362230551458" style="stroke:rgb(99,99,99);stroke-width:1"/> 
<line x1="576.135192126215" y1="796.589268976701" x2="552.841478066988" y2="883.522593342717" style="stroke:rgb(99,99,99);stroke-width:1"/> 
<line x1="576.135192126215" y1="796.589268976701" x2="663.068516492231" y2="819.882983035928" style="stroke:rgb(99,99,99);stroke-width:1"/> 
<line x1="686.362230551458" y1="686.362230551458" x2="709.655944610685" y2="773.295554917474" style="stroke:rgb(99,99,99);stroke-width:1"/> 
<line x1="686.362230551458" y1="686.362230551458" x2="773.295554917474" y2="663.068516492231" style="stroke:rgb(99,99,99);stroke-width:1"/> 
<line x1="709.655944610685" y1="773.295554917474" x2="663.068516492231" y2="819.882983035928" style="stroke:rgb(99,99,99);stroke-width:1"/> 
<line x1="773.295554917474" y1="663.068516492231" x2="819.882983035928" y2="709.655944610685" style="stroke:rgb(99,99,99);stroke-width:1"/> 
<line x1="663.068516492231" y1="819.882983035928" x2="686.362230551458" y2="906.816307401944" style="stroke:rgb(99,99,99);stroke-width:1"/> 
<line x1="709.655944610685" y1="773.295554917474" x2="796.589268976701" y2="796.589268976701" style="stroke:rgb(99,99,99);stroke-width:1"/> 
<line x1="819.882983035928" y1="709.655944610685" x2="796.589268976701" y2="796.589268976701" style="stroke:rgb(99,99,99);stroke-width:1"/> 
<line x1="819.882983035928" y1="709.655944610685" x2="906.816307401944" y2="686.362230551458" style="stroke:rgb(99,99,99);stroke-width:1"/> 
<line x1="796.589268976701" y1="796.589268976701" x2="773.295554917474" y2="883.522593342717" style="stroke:rgb(99,99,99);stroke-width:1"/> 
<line x1="796.589268976701" y1="796.589268976701" x2="883.522593342717" y2="819.882983035928" style="stroke:rgb(99,99,99);stroke-width:1"/> 
<line x1="906.816307401944" y1="686.362230551458" x2="930.110021461171" y2="773.295554917474" style="stroke:rgb(99,99,99);stroke-width:1"/> 
<line x1="906.816307401944" y1="686.362230551458" x2="993.74963176796" y2="663.068516492231" style="stroke:rgb(99,99,99);stroke-width:1"/> 
<line x1="930.110021461171" y1="773.295554917474" x2="883.522593342717" y2="819.882983035928" style="stroke:rgb(99,99,99);stroke-width:1"/> 
<line x1="993.74963176796" y1="663.068516492231" x2="1040.33705988641" y2="709.655944610685" style="stroke:rgb(99,99,99);stroke-width:1"/> 
<line x1="883.522593342717" y1="819.882983035928" x2="906.816307401944" y2="906.816307401944" style="stroke:rgb(99,99,99);stroke-width:1"/> 
<line x1="930.110021461171" y1="773.295554917474" x2="1017.04334582719" y2="796.589268976701" style="stroke:rgb(99,99,99);stroke-width:1"/> 
<line x1="1040.33705988641" y1="709.655944610685" x2="1017.04334582719" y2="796.589268976701" style="stroke:rgb(99,99,99);stroke-width:1"/> 
<line x1="1040.33705988641" y1="709.655944610685" x2="1127.27038425243" y2="686.362230551458" style="stroke:rgb(99,99,99);stroke-width:1"/> 
<line x1="1017.04334582719" y1="796.589268976701" x2="993.74963176796" y2="883.522593342717" style="stroke:rgb(99,99,99);stroke-width:1"/> 
<line x1="1017.04334582719" y1="796.589268976701" x2="1103.9766701932" y2="819.882983035928" style="stroke:rgb(99,99,99);stroke-width:1"/> 
<line x1="1127.27038425243" y1="686.362230551458" x2="1150.56409831166" y2="773.295554917474" style="stroke:rgb(99,99,99);stroke-width:1"/> 
<line x1="1150.56409831166" y1="773.295554917474" x2="1103.9766701932" y2="819.882983035928" style="stroke:rgb(99,99,99);stroke-width:1"/> 
<line x1="1103.9766701932" y1="819.882983035928" x2="1127.27038425243" y2="906.816307401944" style="stroke:rgb(99,99,99);stroke-width:1"/> 
<line x1="24.9999999999999" y1="906.816307401944" x2="48.2937140592268" y2="993.74963176796" style="stroke:rgb(99,99,99);stroke-width:1"/> 
<line x1="24.9999999999999" y1="906.816307401944" x2="111.933324366016" y2="883.522593342717" style="stroke:rgb(99,99,99);stroke-width:1"/> 
<line x1="48.2937140592268" y1="993.74963176796" x2="1.706285940773" y2="1040.33705988641" style="stroke:rgb(99,99,99);stroke-width:1"/> 
<line x1="111.933324366016" y1="883.522593342717" x2="158.52075248447" y2="930.110021461171" style="stroke:rgb(99,99,99);stroke-width:1"/> 
<line x1="1.706285940773" y1="1040.33705988641" x2="25" y2="1127.27038425243" style="stroke:rgb(99,99,99);stroke-width:1"/> 
<line x1="48.2937140592268" y1="993.74963176796" x2="135.227038425243" y2="1017.04334582719" style="stroke:rgb(99,99,99);stroke-width:1"/> 
<line x1="158.52075248447" y1="930.110021461171" x2="135.227038425243" y2="1017.04334582719" style="stroke:rgb(99,99,99);stroke-width:1"/> 
<line x1="158.52075248447" y1="930.110021461171" x2="245.454076850486" y2="906.816307401944" style="stroke:rgb(99,99,99);stroke-width:1"/> 
<line x1="135.227038425243" y1="1017.04334582719" x2="111.933324366016" y2="1103.9766701932" style="stroke:rgb(99,99,99);stroke-width:1"/> 
<line x1="135.227038425243" y1="1017.04334582719" x2="222.160362791259" y2="1040.33705988641" style="stroke:rgb(99,99,99);stroke-width:1"/> 
<line x1="245.454076850486" y1="906.816307401944" x2="268.747790909713" y2="993.74963176796" style="stroke:rgb(99,99,99);stroke-width:1"/> 
<line x1="245.454076850486" y1="906.816307401944" x2="332.387401216502" y2="883.522593342717" style="stroke:rgb(99,99,99);stroke-width:1"/> 
<line x1="268.747790909713" y1="993.74963176796" x2="222.160362791259" y2="1040.33705988641" style="stroke:rgb(99,99,99);stroke-width:1"/> 
<line x1="332.387401216502" y1="883.522593342717" x2="378.974829334956" y2="930.110021461171" style="stroke:rgb(99,99,99);stroke-width:1"/> 
<line x1="222.160362791259" y1="1040.33705988641" x2="245.454076850486" y2="1127.27038425243" style="stroke:rgb(99,99,99);stroke-width:1"/> 
<line x1="268.747790909713" y1="993.74963176796" x2="355.681115275729" y2="1017.04334582719" style="stroke:rgb(99,99,99);stroke-width:1"/> 
<line x1="378.974829334956" y1="930.110021461171" x2="355.681115275729" y2="1017.04334582719" style="stroke:rgb(99,99,99);stroke-width:1"/> 
<line x1="378.974829334956" y1="930.110021461171" x2="465.908153700972" y2="906.816307401944" style="stroke:rgb(99,99,99);stroke-width:1"/> 
<line x1="355.681115275729" y1="1017.04334582719" x2="332.387401216502" y2="1103.9766701932" style="stroke:rgb(99,99,99);stroke-width:1"/> 
<line x1="355.681115275729" y1="1017.04334582719" x2="442.614439641745" y2="1040.33705988641" style="stroke:rgb(99,99,99);stroke-width:1"/> 
<line x1="465.908153700972" y1="906.816307401944" x2="489.201867760199" y2="993.74963176796" style="stroke:rgb(99,99,99);stroke-width:1"/> 
<line x1="465.908153700972" y1="906.816307401944" x2="552.841478066988" y2="883.522593342717" style="stroke:rgb(99,99,99);stroke-width:1"/> 
<line x1="489.201867760199" y1="993.74963176796" x2="442.614439641745" y2="1040.33705988641" style="stroke:rgb(99,99,99);stroke-width:1"/> 
<line x1="552.841478066988" y1="883.522593342717" x2="599.428906185442" y2="930.110021461171" style="stroke:rgb(99,99,99);stroke-width:1"/> 
<line x1="442.614439641745" y1="1040.33705988641" x2="465.908153700972" y2="1127.27038425243" style="stroke:rgb(99,99,99);stroke-width:1"/> 
<line x1="489.201867760199" y1="993.74963176796" x2="576.135192126215" y2="1017.04334582719" style="stroke:rgb(99,99,99);stroke-width:1"/> 
<line x1="599.428906185442" y1="930.110021461171" x2="576.135192126215" y2="1017.04334582719" style="stroke:rgb(99,99,99);stroke-width:1"/> 
<line x1="599.428906185442" y1="930.110021461171" x2="686.362230551458" y2="906.816307401944" style="stroke:rgb(99,99,99);stroke-width:1"/> 
<line x1="576.135192126215" y1="1017.04334582719" x2="552.841478066988" y2="1103.9766701932" style="stroke:rgb(99,99,99);stroke-width:1"/> 
<line x1="576.135192126215" y1="1017.04334582719" x2="663.068516492231" y2="1040.33705988641" style="stroke:rgb(99,99,99);stroke-width:1"/> 
<line x1="686.362230551458" y1="906.816307401944" x2="709.655944610685" y2="993.74963176796" style="stroke:rgb(99,99,99);stroke-width:1"/> 
<line x1="686.362230551458" y1="906.816307401944" x2="773.295554917474" y2="883.522593342717" style="stroke:rgb(99,99,99);stroke-width:1"/> 
<line x1="709.655944610685" y1="993.74963176796" x2="663.068516492231" y2="1040.33705988641" style="stroke:rgb(99,99,99);stroke-width:1"/> 
<line x1="773.295554917474" y1="883.522593342717" x2="819.882983035928" y2="930.110021461171" style="stroke:rgb(99,99,99);stroke-width:1"/> 
<line x1="663.068516492231" y1="1040.33705988641" x2="686.362230551458" y2="1127.27038425243" style="stroke:rgb(99,99,99);stroke-width:1"/> 
<line x1="709.655944610685" y1="993.74963176796" x2="796.589268976701" y2="1017.04334582719" style="stroke:rgb(99,99,99);stroke-width:1"/> 
<line x1="819.882983035928" y1="930.110021461171" x2="796.589268976701" y2="1017.04334582719" style="stroke:rgb(99,99,99);stroke-width:1"/> 
<line x1="819.882983035928" y1="930.110021461171" x2="906.816307401944" y2="906.816307401944" style="stroke:rgb(99,99,99);stroke-width:1"/> 
<line x1="796.589268976701" y1="1017.04334582719" x2="773.295554917474" y2="1103.9766701932" style="stroke:rgb(99,99,99);stroke-width:1"/> 
<line x1="796.589268976701" y1="1017.04334582719" x2="883.522593342717" y2="1040.33705988641" style="stroke:rgb(99,99,99);stroke-width:1"/> 
<line x1="906.816307401944" y1="906.816307401944" x2="930.110021461171" y2="993.74963176796" style="stroke:rgb(99,99,99);stroke-width:1"/> 
<line x1="906.816307401944" y1="906.816307401944" x2="993.74963176796" y2="883.522593342717" style="stroke:rgb(99,99,99);stroke-width:1"/> 
<line x1="930.110021461171" y1="993.74963176796" x2="883.522593342717" y2="1040.33705988641" style="stroke:rgb(99,99,99);stroke-width:1"/> 
<line x1="993.74963176796" y1="883.522593342717" x2="1040.33705988641" y2="930.110021461171" style="stroke:rgb(99,99,99);stroke-width:1"/> 
<line x1="883.522593342717" y1="1040.33705988641" x2="906.816307401944" y2="1127.27038425243" style="stroke:rgb(99,99,99);stroke-width:1"/> 
<line x1="930.110021461171" y1="993.74963176796" x2="1017.04334582719" y2="1017.04334582719" style="stroke:rgb(99,99,99);stroke-width:1"/> 
<line x1="1040.33705988641" y1="930.110021461171" x2="1017.04334582719" y2="1017.04334582719" style="stroke:rgb(99,99,99);stroke-width:1"/> 
<line x1="1040.33705988641" y1="930.110021461171" x2="1127.27038425243" y2="906.816307401944" style="stroke:rgb(99,99,99);stroke-width:1"/> 
<line x1="1017.04334582719" y1="1017.04334582719" x2="993.74963176796" y2="1103.9766701932" style="stroke:rgb(99,99,99);stroke-width:1"/> 
<line x1="1017.04334582719" y1="1017.04334582719" x2="1103.9766701932" y2="1040.33705988641" style="stroke:rgb(99,99,99);stroke-width:1"/> 
<line x1="1127.27038425243" y1="906.816307401944" x2="1150.56409831166" y2="993.74963176796" style="stroke:rgb(99,99,99);stroke-width:1"/> 
<line x1="1150.56409831166" y1="993.74963176796" x2="1103.9766701932" y2="1040.33705988641" style="stroke:rgb(99,99,99);stroke-width:1"/> 
<line x1="1103.9766701932" y1="1040.33705988641" x2="1127.27038425243" y2="1127.27038425243" style="stroke:rgb(99,99,99);stroke-width:1"/> 
<line x1="25" y1="1127.27038425243" x2="111.933324366016" y2="1103.9766701932" style="stroke:rgb(99,99,99);stroke-width:1"/> 
<line x1="111.933324366016" y1="1103.9766701932" x2="158.52075248447" y2="1150.56409831166" style="stroke:rgb(99,99,99);stroke-width:1"/> 
<line x1="158.52075248447" y1="1150.56409831166" x2="245.454076850486" y2="1127.27038425243" style="stroke:rgb(99,99,99);stroke-width:1"/> 
<line x1="245.454076850486" y1="1127.27038425243" x2="332.387401216502" y2="1103.9766701932" style="stroke:rgb(99,99,99);stroke-width:1"/> 
<line x1="332.387401216502" y1="1103.9766701932" x2="378.974829334956" y2="1150.56409831166" style="stroke:rgb(99,99,99);stroke-width:1"/> 
<line x1="378.974829334956" y1="1150.56409831166" x2="465.908153700972" y2="1127.27038425243" style="stroke:rgb(99,99,99);stroke-width:1"/> 
<line x1="465.908153700972" y1="1127.27038425243" x2="552.841478066988" y2="1103.9766701932" style="stroke:rgb(99,99,99);stroke-width:1"/> 
<line x1="552.841478066988" y1="1103.9766701932" x2="599.428906185442" y2="1150.56409831166" style="stroke:rgb(99,99,99);stroke-width:1"/> 
<line x1="599.428906185442" y1="1150.56409831166" x2="686.362230551458" y2="1127.27038425243" style="stroke:rgb(99,99,99);stroke-width:1"/> 
<line x1="686.362230551458" y1="1127.27038425243" x2="773.295554917474" y2="1103.9766701932" style="stroke:rgb(99,99,99);stroke-width:1"/> 
<line x1="773.295554917474" y1="1103.9766701932" x2="819.882983035928" y2="1150.56409831166" style="stroke:rgb(99,99,99);stroke-width:1"/> 
<line x1="819.882983035928" y1="1150.56409831166" x2="906.816307401944" y2="1127.27038425243" style="stroke:rgb(99,99,99);stroke-width:1"/> 
<line x1="906.816307401944" y1="1127.27038425243" x2="993.74963176796" y2="1103.9766701932" style="stroke:rgb(99,99,99);stroke-width:1"/> 
<line x1="993.74963176796" y1="1103.9766701932" x2="1040.33705988641" y2="1150.56409831166" style="stroke:rgb(99,99,99);stroke-width:1"/> 
<line x1="1040.33705988641" y1="1150.56409831166" x2="1127.27038425243" y2="1127.27038425243" style="stroke:rgb(99,99,99);stroke-width:1"/> 
</svg>
