<?xml version="1.0" standalone="no"?> <!DOCTYPE svg PUBLIC "-//W3C//DTD SVG 1.1//EN" "http://www.w3.org/Graphics/SVG/1.1/DTD/svg11.dtd">
<svg width="1600" height="1600" version="1.1" xmlns="http://www.w3.org/2000/svg">
<line x1="25" y1="25" x2="47.2584378788168" y2="108.06962106086" style="stroke:rgb(99,99,99);stroke-width:1"/> 
<line x1="25" y1="25" x2="108.06962106086" y2="2.74156212118323" style="stroke:rgb(99,99,99);stroke-width:1"/> 
<line x1="47.2584378788168" y1="108.06962106086" x2="2.74156212118321" y2="152.586496818493" style="stroke:rgb(99,99,99);stroke-width:1"/> 
<line x1="108.06962106086" y1="2.74156212118323" x2="152.586496818493" y2="47.2584378788168" style="stroke:rgb(99,99,99);stroke-width:1"/> 
<line x1="2.74156212118321" y1="152.586496818493" x2="25" y2="235.656117879353" style="stroke:rgb(99,99,99);stroke-width:1"/> 
<line x1="47.2584378788168" y1="108.06962106086" x2="130.328058939677" y2="130.328058939677" style="stroke:rgb(99,99,99);stroke-width:1"/> 
<line x1="152.586496818493" y1="47.2584378788168" x2="130.328058939677" y2="130.328058939677" style="stroke:rgb(99,99,99);stroke-width:1"/> 
<line x1="152.586496818493" y1="47.2584378788168" x2="235.656117879353" y2="25" style="stroke:rgb(99,99,99);stroke-width:1"/> 
<line x1="130.328058939677" y1="130.328058939677" x2="108.06962106086" y2="213.397680000537" style="stroke:rgb(99,99,99);stroke-width:1"/> 
<line x1="130.328058939677" y1="130.328058939677" x2="213.397680000536" y2="152.586496818493" style="stroke:rgb(99,99,99);stroke-width:1"/> 
<line x1="235.656117879353" y1="25" x2="257.91455575817" y2="108.06962106086" style="stroke:rgb(99,99,99);stroke-width:1"/> 
<line x1="235.656117879353" y1="25" x2="318.725738940213" y2="2.74156212118325" style="stroke:rgb(99,99,99);stroke-width:1"/> 
<line x1="257.91455575817" y1="108.06962106086" x2="213.397680000536" y2="152.586496818493" style="stroke:rgb(99,99,99);stroke-width:1"/> 
<line x1="318.725738940213" y1="2.74156212118325" x2="363.242614697847" y2="47.2584378788168" style="stroke:rgb(99,99,99);stroke-width:1"/> 
<line x1="213.397680000536" y1="152.586496818493" x2="235.656117879353" y2="235.656117879353" style="stroke:rgb(99,99,99);stroke-width:1"/> 
<line x1="257.91455575817" y1="108.06962106086" x2="340.98417681903" y2="130.328058939677" style="stroke:rgb(99,99,99);stroke-width:1"/> 
<line x1="363.242614697847" y1="47.2584378788168" x2="340.98417681903" y2="130.328058939677" style="stroke:rgb(99,99,99);stroke-width:1"/> 
<line x1="363.242614697847" y1="47.2584378788168" x2="446.312235758707" y2="25" style="stroke:rgb(99,99,99);stroke-width:1"/> 
<line x1="340.98417681903" y1="130.328058939677" x2="318.725738940213" y2="213.397680000537" style="stroke:rgb(99,99,99);stroke-width:1"/> 
<line x1="340.98417681903" y1="130.328058939677" x2="424.05379787989" y2="152.586496818493" style="stroke:rgb(99,99,99);stroke-width:1"/> 
<line x1="446.312235758707" y1="25" x2="468.570673637523" y2="108.06962106086" style="stroke:rgb(99,99,99);stroke-width:1"/> 
<line x1="446.312235758707" y1="25" x2="529.381856819566" y2="2.74156212118328" style="stroke:rgb(99,99,99);stroke-width:1"/> 
<line x1="468.570673637523" y1="108.06962106086" x2="424.05379787989" y2="152.586496818493" style="stroke:rgb(99,99,99);stroke-width:1"/> 
<line x1="529.381856819566" y1="2.74156212118328" x2="573.8987325772" y2="47.2584378788168" style="stroke:rgb(99,99,99);stroke-width:1"/> 
<line x1="424.05379787989" y1="152.586496818493" x2="446.312235758707" y2="235.656117879353" style="stroke:rgb(99,99,99);stroke-width:1"/> 
<line x1="468.570673637523" y1="108.06962106086" x2="551.640294698383" y2="130.328058939677" style="stroke:rgb(99,99,99);stroke-width:1"/> 
<line x1="573.8987325772" y1="47.2584378788168" x2="551.640294698383" y2="130.328058939677" style="stroke:rgb(99,99,99);stroke-width:1"/> 
<line x1="573.8987325772" y1="47.2584378788168" x2="656.96835363806" y2="25.0000000000001" style="stroke:rgb(99,99,99);stroke-width:1"/> 
<line x1="551.640294698383" y1="130.328058939677" x2="529.381856819566" y2="213.397680000537" style="stroke:rgb(99,99,99);stroke-width:1"/> 
<line x1="551.640294698383" y1="130.328058939677" x2="634.709915759243" y2="152.586496818494" style="stroke:rgb(99,99,99);stroke-width:1"/> 
<line x1="656.96835363806" y1="25.0000000000001" x2="679.226791516877" y2="108.06962106086" style="stroke:rgb(99,99,99);stroke-width:1"/> 
<line x1="656.96835363806" y1="25.0000000000001" x2="740.03797469892" y2="2.74156212118322" style="stroke:rgb(99,99,99);stroke-width:1"/> 
<line x1="679.226791516877" y1="108.06962106086" x2="634.709915759243" y2="152.586496818494" style="stroke:rgb(99,99,99);stroke-width:1"/> 
<line x1="740.03797469892" y1="2.74156212118322" x2="784.554850456553" y2="47.2584378788168" style="stroke:rgb(99,99,99);stroke-width:1"/> 
<line x1="634.709915759243" y1="152.586496818494" x2="656.96835363806" y2="235.656117879353" style="stroke:rgb(99,99,99);stroke-width:1"/> 
<line x1="679.226791516877" y1="108.06962106086" x2="762.296412577737" y2="130.328058939677" style="stroke:rgb(99,99,99);stroke-width:1"/> 
<line x1="784.554850456553" y1="47.2584378788168" x2="762.296412577737" y2="130.328058939677" style="stroke:rgb(99,99,99);stroke-width:1"/> 
<line x1="784.554850456553" y1="47.2584378788168" x2="867.624471517413" y2="25.0000000000001" style="stroke:rgb(99,99,99);stroke-width:1"/> 
<line x1="762.296412577737" y1="130.328058939677" x2="740.03797469892" y2="213.397680000537" style="stroke:rgb(99,99,99);stroke-width:1"/> 
<line x1="762.296412577737" y1="130.328058939677" x2="845.366033638596" y2="152.586496818494" style="stroke:rgb(99,99,99);stroke-width:1"/> 
<line x1="867.624471517413" y1="25.0000000000001" x2="889.88290939623" y2="108.06962106086" style="stroke:rgb(99,99,99);stroke-width:1"/> 
<line x1="867.624471517413" y1="25.0000000000001" x2="950.694092578273" y2="2.74156212118334" style="stroke:rgb(99,99,99);stroke-width:1"/> 
<line x1="889.88290939623" y1="108.06962106086" x2="845.366033638596" y2="152.586496818494" style="stroke:rgb(99,99,99);stroke-width:1"/> 
<line x1="950.694092578273" y1="2.74156212118334" x2="995.210968335907" y2="47.2584378788168" style="stroke:rgb(99,99,99);stroke-width:1"/> 
<line x1="845.366033638596" y1="152.586496818494" x2="867.624471517413" y2="235.656117879353" style="stroke:rgb(99,99,99);stroke-width:1"/> 
<line x1="889.88290939623" y1="108.06962106086" x2="972.95253045709" y2="130.328058939677" style="stroke:rgb(99,99,99);stroke-width:1"/> 
<line x1="995.210968335907" y1="47.2584378788168" x2="972.95253045709" y2="130.328058939677" style="stroke:rgb(99,99,99);stroke-width:1"/> 
<line x1="995.210968335907" y1="47.2584378788168" x2="1078.28058939677" y2="25.0000000000001" style="stroke:rgb(99,99,99);stroke-width:1"/> 
<line x1="972.95253045709" y1="130.328058939677" x2="950.694092578273" y2="213.397680000536" style="stroke:rgb(99,99,99);stroke-width:1"/> 
<line x1="972.95253045709" y1="130.328058939677" x2="1056.02215151795" y2="152.586496818493" style="stroke:rgb(99,99,99);stroke-width:1"/> 
<line x1="1078.28058939677" y1="25.0000000000001" x2="1100.53902727558" y2="108.06962106086" style="stroke:rgb(99,99,99);stroke-width:1"/> 
<line x1="1078.28058939677" y1="25.0000000000001" x2="1161.35021045763" y2="2.74156212118328" style="stroke:rgb(99,99,99);stroke-width:1"/> 
<line x1="1100.53902727558" y1="108.06962106086" x2="1056.02215151795" y2="152.586496818493" style="stroke:rgb(99,99,99);stroke-width:1"/> 
<line x1="1161.35021045763" y1="2.74156212118328" x2="1205.86708621526" y2="47.2584378788168" style="stroke:rgb(99,99,99);stroke-width:1"/> 
<line x1="1056.02215151795" y1="152.586496818493" x2="1078.28058939677" y2="235.656117879353" style="stroke:rgb(99,99,99);stroke-width:1"/> 
<line x1="1100.53902727558" y1="108.06962106086" x2="1183.60864833644" y2="130.328058939677" style="stroke:rgb(99,99,99);stroke-width:1"/> 
<line x1="1205.86708621526" y1="47.2584378788168" x2="1183.60864833644" y2="130.328058939677" style="stroke:rgb(99,99,99);stroke-width:1"/> 
<line x1="1205.86708621526" y1="47.2584378788168" x2="1288.93670727612" y2="25.0000000000001" style="stroke:rgb(99,99,99);stroke-width:1"/> 
<line x1="1183.60864833644" y1="130.328058939677" x2="1161.35021045763" y2="213.397680000537" style="stroke:rgb(99,99,99);stroke-width:1"/> 
<line x1="1183.60864833644" y1="130.328058939677" x2="1266.6782693973" y2="152.586496818494" style="stroke:rgb(99,99,99);stroke-width:1"/> 
<line x1="1288.93670727612" y1="25.0000000000001" x2="1311.19514515494" y2="108.06962106086" style="stroke:rgb(99,99,99);stroke-width:1"/> 
<line x1="1311.19514515494" y1="108.06962106086" x2="1266.6782693973" y2="152.586496818494" style="stroke:rgb(99,99,99);stroke-width:1"/> 
<line x1="1266.6782693973" y1="152.586496818494" x2="1288.93670727612" y2="235.656117879353" style="stroke:rgb(99,99,99);stroke-width:1"/> 
<line x1="25" y1="235.656117879353" x2="47.2584378788167" y2="318.725738940213" style="stroke:rgb(99,99,99);stroke-width:1"/> 
<line x1="25" y1="235.656117879353" x2="108.06962106086" y2="213.397680000537" style="stroke:rgb(99,99,99);stroke-width:1"/> 
<line x1="47.2584378788167" y1="318.725738940213" x2="2.74156212118319" y2="363.242614697847" style="stroke:rgb(99,99,99);stroke-width:1"/> 
<line x1="108.06962106086" y1="213.397680000537" x2="152.586496818493" y2="257.91455575817" style="stroke:rgb(99,99,99);stroke-width:1"/> 
<line x1="2.74156212118319" y1="363.242614697847" x2="25" y2="446.312235758707" style="stroke:rgb(99,99,99);stroke-width:1"/> 
<line x1="47.2584378788167" y1="318.725738940213" x2="130.328058939677" y2="340.98417681903" style="stroke:rgb(99,99,99);stroke-width:1"/> 
<line x1="152.586496818493" y1="257.91455575817" x2="130.328058939677" y2="340.98417681903" style="stroke:rgb(99,99,99);stroke-width:1"/> 
<line x1="152.586496818493" y1="257.91455575817" x2="235.656117879353" y2="235.656117879353" style="stroke:rgb(99,99,99);stroke-width:1"/> 
<line x1="130.328058939677" y1="340.98417681903" x2="108.06962106086" y2="424.05379787989" style="stroke:rgb(99,99,99);stroke-width:1"/> 
<line x1="130.328058939677" y1="340.98417681903" x2="213.397680000536" y2="363.242614697847" style="stroke:rgb(99,99,99);stroke-width:1"/> 
<line x1="235.656117879353" y1="235.656117879353" x2="257.91455575817" y2="318.725738940213" style="stroke:rgb(99,99,99);stroke-width:1"/> 
<line x1="235.656117879353" y1="235.656117879353" x2="318.725738940213" y2="213.397680000537" style="stroke:rgb(99,99,99);stroke-width:1"/> 
<line x1="257.91455575817" y1="318.725738940213" x2="213.397680000536" y2="363.242614697847" style="stroke:rgb(99,99,99);stroke-width:1"/> 
<line x1="318.725738940213" y1="213.397680000537" x2="363.242614697847" y2="257.91455575817" style="stroke:rgb(99,99,99);stroke-width:1"/> 
<line x1="213.397680000536" y1="363.242614697847" x2="235.656117879353" y2="446.312235758707" style="stroke:rgb(99,99,99);stroke-width:1"/> 
<line x1="257.91455575817" y1="318.725738940213" x2="340.98417681903" y2="340.98417681903" style="stroke:rgb(99,99,99);stroke-width:1"/> 
<line x1="363.242614697847" y1="257.91455575817" x2="340.98417681903" y2="340.98417681903" style="stroke:rgb(99,99,99);stroke-width:1"/> 
<line x1="363.242614697847" y1="257.91455575817" x2="446.312235758707" y2="235.656117879353" style="stroke:rgb(99,99,99);stroke-width:1"/> 
<line x1="340.98417681903" y1="340.98417681903" x2="318.725738940213" y2="424.05379787989" style="stroke:rgb(99,99,99);stroke-width:1"/> 
<line x1="340.98417681903" y1="340.98417681903" x2="424.05379787989" y2="363.242614697847" style="stroke:rgb(99,99,99);stroke-width:1"/> 
<line x1="446.312235758707" y1="235.656117879353" x2="468.570673637523" y2="318.725738940213" style="stroke:rgb(99,99,99);stroke-width:1"/> 
<line x1="446.312235758707" y1="235.656117879353" x2="529.381856819566" y2="213.397680000537" style="stroke:rgb(99,99,99);stroke-width:1"/> 
<line x1="468.570673637523" y1="318.725738940213" x2="424.05379787989" y2="363.242614697847" style="stroke:rgb(99,99,99);stroke-width:1"/> 
<line x1="529.381856819566" y1="213.397680000537" x2="573.8987325772" y2="257.91455575817" style="stroke:rgb(99,99,99);stroke-width:1"/> 
<line x1="424.05379787989" y1="363.242614697847" x2="446.312235758707" y2="446.312235758707" style="stroke:rgb(99,99,99);stroke-width:1"/> 
<line x1="468.570673637523" y1="318.725738940213" x2="551.640294698383" y2="340.98417681903" style="stroke:rgb(99,99,99);stroke-width:1"/> 
<line x1="573.8987325772" y1="257.91455575817" x2="551.640294698383" y2="340.98417681903" style="stroke:rgb(99,99,99);stroke-width:1"/> 
<line x1="573.8987325772" y1="257.91455575817" x2="656.96835363806" y2="235.656117879353" style="stroke:rgb(99,99,99);stroke-width:1"/> 
<line x1="551.640294698383" y1="340.98417681903" x2="529.381856819566" y2="424.05379787989" style="stroke:rgb(99,99,99);stroke-width:1"/> 
<line x1="551.640294698383" y1="340.98417681903" x2="634.709915759243" y2="363.242614697847" style="stroke:rgb(99,99,99);stroke-width:1"/> 
<line x1="656.96835363806" y1="235.656117879353" x2="679.226791516877" y2="318.725738940213" style="stroke:rgb(99,99,99);stroke-width:1"/> 
<line x1="656.96835363806" y1="235.656117879353" x2="740.03797469892" y2="213.397680000537" style="stroke:rgb(99,99,99);stroke-width:1"/> 
<line x1="679.226791516877" y1="318.725738940213" x2="634.709915759243" y2="363.242614697847" style="stroke:rgb(99,99,99);stroke-width:1"/> 
<line x1="740.03797469892" y1="213.397680000537" x2="784.554850456553" y2="257.91455575817" style="stroke:rgb(99,99,99);stroke-width:1"/> 
<line x1="634.709915759243" y1="363.242614697847" x2="656.96835363806" y2="446.312235758707" style="stroke:rgb(99,99,99);stroke-width:1"/> 
<line x1="679.226791516877" y1="318.725738940213" x2="762.296412577736" y2="340.98417681903" style="stroke:rgb(99,99,99);stroke-width:1"/> 
<line x1="784.554850456553" y1="257.91455575817" x2="762.296412577736" y2="340.98417681903" style="stroke:rgb(99,99,99);stroke-width:1"/> 
<line x1="784.554850456553" y1="257.91455575817" x2="867.624471517413" y2="235.656117879353" style="stroke:rgb(99,99,99);stroke-width:1"/> 
<line x1="762.296412577736" y1="340.98417681903" x2="740.03797469892" y2="424.05379787989" style="stroke:rgb(99,99,99);stroke-width:1"/> 
<line x1="762.296412577736" y1="340.98417681903" x2="845.366033638596" y2="363.242614697847" style="stroke:rgb(99,99,99);stroke-width:1"/> 
<line x1="867.624471517413" y1="235.656117879353" x2="889.88290939623" y2="318.725738940213" style="stroke:rgb(99,99,99);stroke-width:1"/> 
<line x1="867.624471517413" y1="235.656117879353" x2="950.694092578273" y2="213.397680000536" style="stroke:rgb(99,99,99);stroke-width:1"/> 
<line x1="889.88290939623" y1="318.725738940213" x2="845.366033638596" y2="363.242614697847" style="stroke:rgb(99,99,99);stroke-width:1"/> 
<line x1="950.694092578273" y1="213.397680000536" x2="995.210968335907" y2="257.91455575817" style="stroke:rgb(99,99,99);stroke-width:1"/> 
<line x1="845.366033638596" y1="363.242614697847" x2="867.624471517413" y2="446.312235758707" style="stroke:rgb(99,99,99);stroke-width:1"/> 
<line x1="889.88290939623" y1="318.725738940213" x2="972.95253045709" y2="340.98417681903" style="stroke:rgb(99,99,99);stroke-width:1"/> 
<line x1="995.210968335907" y1="257.91455575817" x2="972.95253045709" y2="340.98417681903" style="stroke:rgb(99,99,99);stroke-width:1"/> 
<line x1="995.210968335907" y1="257.91455575817" x2="1078.28058939677" y2="235.656117879353" style="stroke:rgb(99,99,99);stroke-width:1"/> 
<line x1="972.95253045709" y1="340.98417681903" x2="950.694092578273" y2="424.05379787989" style="stroke:rgb(99,99,99);stroke-width:1"/> 
<line x1="972.95253045709" y1="340.98417681903" x2="1056.02215151795" y2="363.242614697847" style="stroke:rgb(99,99,99);stroke-width:1"/> 
<line x1="1078.28058939677" y1="235.656117879353" x2="1100.53902727558" y2="318.725738940213" style="stroke:rgb(99,99,99);stroke-width:1"/> 
<line x1="1078.28058939677" y1="235.656117879353" x2="1161.35021045763" y2="213.397680000537" style="stroke:rgb(99,99,99);stroke-width:1"/> 
<line x1="1100.53902727558" y1="318.725738940213" x2="1056.02215151795" y2="363.242614697847" style="stroke:rgb(99,99,99);stroke-width:1"/> 
<line x1="1161.35021045763" y1="213.397680000537" x2="1205.86708621526" y2="257.91455575817" style="stroke:rgb(99,99,99);stroke-width:1"/> 
<line x1="1056.02215151795" y1="363.242614697847" x2="1078.28058939677" y2="446.312235758707" style="stroke:rgb(99,99,99);stroke-width:1"/> 
<line x1="1100.53902727558" y1="318.725738940213" x2="1183.60864833644" y2="340.98417681903" style="stroke:rgb(99,99,99);stroke-width:1"/> 
<line x1="1205.86708621526" y1="257.91455575817" x2="1183.60864833644" y2="340.98417681903" style="stroke:rgb(99,99,99);stroke-width:1"/> 
<line x1="1205.86708621526" y1="257.91455575817" x2="1288.93670727612" y2="235.656117879353" style="stroke:rgb(99,99,99);stroke-width:1"/> 
<line x1="1183.60864833644" y1="340.98417681903" x2="1161.35021045763" y2="424.05379787989" style="stroke:rgb(99,99,99);stroke-width:1"/> 
<line x1="1183.60864833644" y1="340.98417681903" x2="1266.6782693973" y2="363.242614697847" style="stroke:rgb(99,99,99);stroke-width:1"/> 
<line x1="1288.93670727612" y1="235.656117879353" x2="1311.19514515494" y2="318.725738940213" style="stroke:rgb(99,99,99);stroke-width:1"/> 
<line x1="1311.19514515494" y1="318.725738940213" x2="1266.6782693973" y2="363.242614697847" style="stroke:rgb(99,99,99);stroke-width:1"/> 
<line x1="1266.6782693973" y1="363.242614697847" x2="1288.93670727612" y2="446.312235758707" style="stroke:rgb(99,99,99);stroke-width:1"/> 
<line x1="25" y1="446.312235758707" x2="47.2584378788167" y2="529.381856819566" style="stroke:rgb(99,99,99);stroke-width:1"/> 
<line x1="25" y1="446.312235758707" x2="108.06962106086" y2="424.05379787989" style="stroke:rgb(99,99,99);stroke-width:1"/> 
<line x1="47.2584378788167" y1="529.381856819566" x2="2.74156212118316" y2="573.8987325772" style="stroke:rgb(99,99,99);stroke-width:1"/> 
<line x1="108.06962106086" y1="424.05379787989" x2="152.586496818493" y2="468.570673637523" style="stroke:rgb(99,99,99);stroke-width:1"/> 
<line x1="2.74156212118316" y1="573.8987325772" x2="24.9999999999999" y2="656.96835363806" style="stroke:rgb(99,99,99);stroke-width:1"/> 
<line x1="47.2584378788167" y1="529.381856819566" x2="130.328058939677" y2="551.640294698383" style="stroke:rgb(99,99,99);stroke-width:1"/> 
<line x1="152.586496818493" y1="468.570673637523" x2="130.328058939677" y2="551.640294698383" style="stroke:rgb(99,99,99);stroke-width:1"/> 
<line x1="152.586496818493" y1="468.570673637523" x2="235.656117879353" y2="446.312235758707" style="stroke:rgb(99,99,99);stroke-width:1"/> 
<line x1="130.328058939677" y1="551.640294698383" x2="108.06962106086" y2="634.709915759243" style="stroke:rgb(99,99,99);stroke-width:1"/> 
<line x1="130.328058939677" y1="551.640294698383" x2="213.397680000536" y2="573.8987325772" style="stroke:rgb(99,99,99);stroke-width:1"/> 
<line x1="235.656117879353" y1="446.312235758707" x2="257.91455575817" y2="529.381856819567" style="stroke:rgb(99,99,99);stroke-width:1"/> 
<line x1="235.656117879353" y1="446.312235758707" x2="318.725738940213" y2="424.05379787989" style="stroke:rgb(99,99,99);stroke-width:1"/> 
<line x1="257.91455575817" y1="529.381856819567" x2="213.397680000536" y2="573.8987325772" style="stroke:rgb(99,99,99);stroke-width:1"/> 
<line x1="318.725738940213" y1="424.05379787989" x2="363.242614697847" y2="468.570673637523" style="stroke:rgb(99,99,99);stroke-width:1"/> 
<line x1="213.397680000536" y1="573.8987325772" x2="235.656117879353" y2="656.96835363806" style="stroke:rgb(99,99,99);stroke-width:1"/> 
<line x1="257.91455575817" y1="529.381856819567" x2="340.98417681903" y2="551.640294698383" style="stroke:rgb(99,99,99);stroke-width:1"/> 
<line x1="363.242614697847" y1="468.570673637523" x2="340.98417681903" y2="551.640294698383" style="stroke:rgb(99,99,99);stroke-width:1"/> 
<line x1="363.242614697847" y1="468.570673637523" x2="446.312235758707" y2="446.312235758707" style="stroke:rgb(99,99,99);stroke-width:1"/> 
<line x1="340.98417681903" y1="551.640294698383" x2="318.725738940213" y2="634.709915759243" style="stroke:rgb(99,99,99);stroke-width:1"/> 
<line x1="340.98417681903" y1="551.640294698383" x2="424.05379787989" y2="573.8987325772" style="stroke:rgb(99,99,99);stroke-width:1"/> 
<line x1="446.312235758707" y1="446.312235758707" x2="468.570673637523" y2="529.381856819567" style="stroke:rgb(99,99,99);stroke-width:1"/> 
<line x1="446.312235758707" y1="446.312235758707" x2="529.381856819566" y2="424.05379787989" style="stroke:rgb(99,99,99);stroke-width:1"/> 
<line x1="468.570673637523" y1="529.381856819567" x2="424.05379787989" y2="573.8987325772" style="stroke:rgb(99,99,99);stroke-width:1"/> 
<line x1="529.381856819566" y1="424.05379787989" x2="573.8987325772" y2="468.570673637523" style="stroke:rgb(99,99,99);stroke-width:1"/> 
<line x1="424.05379787989" y1="573.8987325772" x2="446.312235758706" y2="656.96835363806" style="stroke:rgb(99,99,99);stroke-width:1"/> 
<line x1="468.570673637523" y1="529.381856819567" x2="551.640294698383" y2="551.640294698383" style="stroke:rgb(99,99,99);stroke-width:1"/> 
<line x1="573.8987325772" y1="468.570673637523" x2="551.640294698383" y2="551.640294698383" style="stroke:rgb(99,99,99);stroke-width:1"/> 
<line x1="573.8987325772" y1="468.570673637523" x2="656.96835363806" y2="446.312235758707" style="stroke:rgb(99,99,99);stroke-width:1"/> 
<line x1="551.640294698383" y1="551.640294698383" x2="529.381856819566" y2="634.709915759243" style="stroke:rgb(99,99,99);stroke-width:1"/> 
<line x1="551.640294698383" y1="551.640294698383" x2="634.709915759243" y2="573.8987325772" style="stroke:rgb(99,99,99);stroke-width:1"/> 
<line x1="656.96835363806" y1="446.312235758707" x2="679.226791516877" y2="529.381856819566" style="stroke:rgb(99,99,99);stroke-width:1"/> 
<line x1="656.96835363806" y1="446.312235758707" x2="740.03797469892" y2="424.05379787989" style="stroke:rgb(99,99,99);stroke-width:1"/> 
<line x1="679.226791516877" y1="529.381856819566" x2="634.709915759243" y2="573.8987325772" style="stroke:rgb(99,99,99);stroke-width:1"/> 
<line x1="740.03797469892" y1="424.05379787989" x2="784.554850456553" y2="468.570673637523" style="stroke:rgb(99,99,99);stroke-width:1"/> 
<line x1="634.709915759243" y1="573.8987325772" x2="656.96835363806" y2="656.96835363806" style="stroke:rgb(99,99,99);stroke-width:1"/> 
<line x1="679.226791516877" y1="529.381856819566" x2="762.296412577737" y2="551.640294698383" style="stroke:rgb(99,99,99);stroke-width:1"/> 
<line x1="784.554850456553" y1="468.570673637523" x2="762.296412577737" y2="551.640294698383" style="stroke:rgb(99,99,99);stroke-width:1"/> 
<line x1="784.554850456553" y1="468.570673637523" x2="867.624471517413" y2="446.312235758707" style="stroke:rgb(99,99,99);stroke-width:1"/> 
<line x1="762.296412577737" y1="551.640294698383" x2="740.03797469892" y2="634.709915759243" style="stroke:rgb(99,99,99);stroke-width:1"/> 
<line x1="762.296412577737" y1="551.640294698383" x2="845.366033638596" y2="573.8987325772" style="stroke:rgb(99,99,99);stroke-width:1"/> 
<line x1="867.624471517413" y1="446.312235758707" x2="889.88290939623" y2="529.381856819567" style="stroke:rgb(99,99,99);stroke-width:1"/> 
<line x1="867.624471517413" y1="446.312235758707" x2="950.694092578273" y2="424.05379787989" style="stroke:rgb(99,99,99);stroke-width:1"/> 
<line x1="889.88290939623" y1="529.381856819567" x2="845.366033638596" y2="573.8987325772" style="stroke:rgb(99,99,99);stroke-width:1"/> 
<line x1="950.694092578273" y1="424.05379787989" x2="995.210968335907" y2="468.570673637523" style="stroke:rgb(99,99,99);stroke-width:1"/> 
<line x1="845.366033638596" y1="573.8987325772" x2="867.624471517413" y2="656.96835363806" style="stroke:rgb(99,99,99);stroke-width:1"/> 
<line x1="889.88290939623" y1="529.381856819567" x2="972.95253045709" y2="551.640294698383" style="stroke:rgb(99,99,99);stroke-width:1"/> 
<line x1="995.210968335907" y1="468.570673637523" x2="972.95253045709" y2="551.640294698383" style="stroke:rgb(99,99,99);stroke-width:1"/> 
<line x1="995.210968335907" y1="468.570673637523" x2="1078.28058939677" y2="446.312235758707" style="stroke:rgb(99,99,99);stroke-width:1"/> 
<line x1="972.95253045709" y1="551.640294698383" x2="950.694092578273" y2="634.709915759243" style="stroke:rgb(99,99,99);stroke-width:1"/> 
<line x1="972.95253045709" y1="551.640294698383" x2="1056.02215151795" y2="573.8987325772" style="stroke:rgb(99,99,99);stroke-width:1"/> 
<line x1="1078.28058939677" y1="446.312235758707" x2="1100.53902727558" y2="529.381856819567" style="stroke:rgb(99,99,99);stroke-width:1"/> 
<line x1="1078.28058939677" y1="446.312235758707" x2="1161.35021045763" y2="424.05379787989" style="stroke:rgb(99,99,99);stroke-width:1"/> 
<line x1="1100.53902727558" y1="529.381856819567" x2="1056.02215151795" y2="573.8987325772" style="stroke:rgb(99,99,99);stroke-width:1"/> 
<line x1="1161.35021045763" y1="424.05379787989" x2="1205.86708621526" y2="468.570673637523" style="stroke:rgb(99,99,99);stroke-width:1"/> 
<line x1="1056.02215151795" y1="573.8987325772" x2="1078.28058939677" y2="656.96835363806" style="stroke:rgb(99,99,99);stroke-width:1"/> 
<line x1="1100.53902727558" y1="529.381856819567" x2="1183.60864833644" y2="551.640294698383" style="stroke:rgb(99,99,99);stroke-width:1"/> 
<line x1="1205.86708621526" y1="468.570673637523" x2="1183.60864833644" y2="551.640294698383" style="stroke:rgb(99,99,99);stroke-width:1"/> 
<line x1="1205.86708621526" y1="468.570673637523" x2="1288.93670727612" y2="446.312235758707" style="stroke:rgb(99,99,99);stroke-width:1"/> 
<line x1="1183.60864833644" y1="551.640294698383" x2="1161.35021045763" y2="634.709915759243" style="stroke:rgb(99,99,99);stroke-width:1"/> 
<line x1="1183.60864833644" y1="551.640294698383" x2="1266.6782693973" y2="573.8987325772" style="stroke:rgb(99,99,99);stroke-width:1"/> 
<line x1="1288.93670727612" y1="446.312235758707" x2="1311.19514515494" y2="529.381856819567" style="stroke:rgb(99,99,99);stroke-width:1"/> 
<line x1="1311.19514515494" y1="529.381856819567" x2="1266.6782693973" y2="573.8987325772" style="stroke:rgb(99,99,99);stroke-width:1"/> 
<line x1="1266.6782693973" y1="573.8987325772" x2="1288.93670727612" y2="656.96835363806" style="stroke:rgb(99,99,99);stroke-width:1"/> 
<line x1="24.9999999999999" y1="656.96835363806" x2="47.2584378788168" y2="740.03797469892" style="stroke:rgb(99,99,99);stroke-width:1"/> 
<line x1="24.9999999999999" y1="656.96835363806" x2="108.06962106086" y2="634.709915759243" style="stroke:rgb(99,99,99);stroke-width:1"/> 
<line x1="47.2584378788168" y1="740.03797469892" x2="2.74156212118316" y2="784.554850456553" style="stroke:rgb(99,99,99);stroke-width:1"/> 
<line x1="108.06962106086" y1="634.709915759243" x2="152.586496818493" y2="679.226791516877" style="stroke:rgb(99,99,99);stroke-width:1"/> 
<line x1="2.74156212118316" y1="784.554850456553" x2="24.9999999999999" y2="867.624471517413" style="stroke:rgb(99,99,99);stroke-width:1"/> 
<line x1="47.2584378788168" y1="740.03797469892" x2="130.328058939677" y2="762.296412577737" style="stroke:rgb(99,99,99);stroke-width:1"/> 
<line x1="152.586496818493" y1="679.226791516877" x2="130.328058939677" y2="762.296412577737" style="stroke:rgb(99,99,99);stroke-width:1"/> 
<line x1="152.586496818493" y1="679.226791516877" x2="235.656117879353" y2="656.96835363806" style="stroke:rgb(99,99,99);stroke-width:1"/> 
<line x1="130.328058939677" y1="762.296412577737" x2="108.06962106086" y2="845.366033638596" style="stroke:rgb(99,99,99);stroke-width:1"/> 
<line x1="130.328058939677" y1="762.296412577737" x2="213.397680000536" y2="784.554850456553" style="stroke:rgb(99,99,99);stroke-width:1"/> 
<line x1="235.656117879353" y1="656.96835363806" x2="257.91455575817" y2="740.03797469892" style="stroke:rgb(99,99,99);stroke-width:1"/> 
<line x1="235.656117879353" y1="656.96835363806" x2="318.725738940213" y2="634.709915759243" style="stroke:rgb(99,99,99);stroke-width:1"/> 
<line x1="257.91455575817" y1="740.03797469892" x2="213.397680000536" y2="784.554850456553" style="stroke:rgb(99,99,99);stroke-width:1"/> 
<line x1="318.725738940213" y1="634.709915759243" x2="363.242614697847" y2="679.226791516877" style="stroke:rgb(99,99,99);stroke-width:1"/> 
<line x1="213.397680000536" y1="784.554850456553" x2="235.656117879353" y2="867.624471517413" style="stroke:rgb(99,99,99);stroke-width:1"/> 
<line x1="257.91455575817" y1="740.03797469892" x2="340.98417681903" y2="762.296412577737" style="stroke:rgb(99,99,99);stroke-width:1"/> 
<line x1="363.242614697847" y1="679.226791516877" x2="340.98417681903" y2="762.296412577737" style="stroke:rgb(99,99,99);stroke-width:1"/> 
<line x1="363.242614697847" y1="679.226791516877" x2="446.312235758706" y2="656.96835363806" style="stroke:rgb(99,99,99);stroke-width:1"/> 
<line x1="340.98417681903" y1="762.296412577737" x2="318.725738940213" y2="845.366033638596" style="stroke:rgb(99,99,99);stroke-width:1"/> 
<line x1="340.98417681903" y1="762.296412577737" x2="424.05379787989" y2="784.554850456553" style="stroke:rgb(99,99,99);stroke-width:1"/> 
<line x1="446.312235758706" y1="656.96835363806" x2="468.570673637523" y2="740.03797469892" style="stroke:rgb(99,99,99);stroke-width:1"/> 
<line x1="446.312235758706" y1="656.96835363806" x2="529.381856819566" y2="634.709915759243" style="stroke:rgb(99,99,99);stroke-width:1"/> 
<line x1="468.570673637523" y1="740.03797469892" x2="424.05379787989" y2="784.554850456553" style="stroke:rgb(99,99,99);stroke-width:1"/> 
<line x1="529.381856819566" y1="634.709915759243" x2="573.8987325772" y2="679.226791516877" style="stroke:rgb(99,99,99);stroke-width:1"/> 
<line x1="424.05379787989" y1="784.554850456553" x2="446.312235758707" y2="867.624471517413" style="stroke:rgb(99,99,99);stroke-width:1"/> 
<line x1="468.570673637523" y1="740.03797469892" x2="551.640294698383" y2="762.296412577737" style="stroke:rgb(99,99,99);stroke-width:1"/> 
<line x1="573.8987325772" y1="679.226791516877" x2="551.640294698383" y2="762.296412577737" style="stroke:rgb(99,99,99);stroke-width:1"/> 
<line x1="573.8987325772" y1="679.226791516877" x2="656.96835363806" y2="656.96835363806" style="stroke:rgb(99,99,99);stroke-width:1"/> 
<line x1="551.640294698383" y1="762.296412577737" x2="529.381856819566" y2="845.366033638596" style="stroke:rgb(99,99,99);stroke-width:1"/> 
<line x1="551.640294698383" y1="762.296412577737" x2="634.709915759243" y2="784.554850456553" style="stroke:rgb(99,99,99);stroke-width:1"/> 
<line x1="656.96835363806" y1="656.96835363806" x2="679.226791516877" y2="740.03797469892" style="stroke:rgb(99,99,99);stroke-width:1"/> 
<line x1="656.96835363806" y1="656.96835363806" x2="740.03797469892" y2="634.709915759243" style="stroke:rgb(99,99,99);stroke-width:1"/> 
<line x1="679.226791516877" y1="740.03797469892" x2="634.709915759243" y2="784.554850456553" style="stroke:rgb(99,99,99);stroke-width:1"/> 
<line x1="740.03797469892" y1="634.709915759243" x2="784.554850456553" y2="679.226791516877" style="stroke:rgb(99,99,99);stroke-width:1"/> 
<line x1="634.709915759243" y1="784.554850456553" x2="656.96835363806" y2="867.624471517413" style="stroke:rgb(99,99,99);stroke-width:1"/> 
<line x1="679.226791516877" y1="740.03797469892" x2="762.296412577737" y2="762.296412577737" style="stroke:rgb(99,99,99);stroke-width:1"/> 
<line x1="784.554850456553" y1="679.226791516877" x2="762.296412577737" y2="762.296412577737" style="stroke:rgb(99,99,99);stroke-width:1"/> 
<line x1="784.554850456553" y1="679.226791516877" x2="867.624471517413" y2="656.96835363806" style="stroke:rgb(99,99,99);stroke-width:1"/> 
<line x1="762.296412577737" y1="762.296412577737" x2="740.03797469892" y2="845.366033638596" style="stroke:rgb(99,99,99);stroke-width:1"/> 
<line x1="762.296412577737" y1="762.296412577737" x2="845.366033638596" y2="784.554850456553" style="stroke:rgb(99,99,99);stroke-width:1"/> 
<line x1="867.624471517413" y1="656.96835363806" x2="889.88290939623" y2="740.03797469892" style="stroke:rgb(99,99,99);stroke-width:1"/> 
<line x1="867.624471517413" y1="656.96835363806" x2="950.694092578273" y2="634.709915759243" style="stroke:rgb(99,99,99);stroke-width:1"/> 
<line x1="889.88290939623" y1="740.03797469892" x2="845.366033638596" y2="784.554850456553" style="stroke:rgb(99,99,99);stroke-width:1"/> 
<line x1="950.694092578273" y1="634.709915759243" x2="995.210968335907" y2="679.226791516877" style="stroke:rgb(99,99,99);stroke-width:1"/> 
<line x1="845.366033638596" y1="784.554850456553" x2="867.624471517413" y2="867.624471517413" style="stroke:rgb(99,99,99);stroke-width:1"/> 
<line x1="889.88290939623" y1="740.03797469892" x2="972.95253045709" y2="762.296412577737" style="stroke:rgb(99,99,99);stroke-width:1"/> 
<line x1="995.210968335907" y1="679.226791516877" x2="972.95253045709" y2="762.296412577737" style="stroke:rgb(99,99,99);stroke-width:1"/> 
<line x1="995.210968335907" y1="679.226791516877" x2="1078.28058939677" y2="656.96835363806" style="stroke:rgb(99,99,99);stroke-width:1"/> 
<line x1="972.95253045709" y1="762.296412577737" x2="950.694092578273" y2="845.366033638596" style="stroke:rgb(99,99,99);stroke-width:1"/> 
<line x1="972.95253045709" y1="762.296412577737" x2="1056.02215151795" y2="784.554850456553" style="stroke:rgb(99,99,99);stroke-width:1"/> 
<line x1="1078.28058939677" y1="656.96835363806" x2="1100.53902727558" y2="740.03797469892" style="stroke:rgb(99,99,99);stroke-width:1"/> 
<line x1="1078.28058939677" y1="656.96835363806" x2="1161.35021045763" y2="634.709915759243" style="stroke:rgb(99,99,99);stroke-width:1"/> 
<line x1="1100.53902727558" y1="740.03797469892" x2="1056.02215151795" y2="784.554850456553" style="stroke:rgb(99,99,99);stroke-width:1"/> 
<line x1="1161.35021045763" y1="634.709915759243" x2="1205.86708621526" y2="679.226791516877" style="stroke:rgb(99,99,99);stroke-width:1"/> 
<line x1="1056.02215151795" y1="784.554850456553" x2="1078.28058939677" y2="867.624471517413" style="stroke:rgb(99,99,99);stroke-width:1"/> 
<line x1="1100.53902727558" y1="740.03797469892" x2="1183.60864833644" y2="762.296412577737" style="stroke:rgb(99,99,99);stroke-width:1"/> 
<line x1="1205.86708621526" y1="679.226791516877" x2="1183.60864833644" y2="762.296412577737" style="stroke:rgb(99,99,99);stroke-width:1"/> 
<line x1="1205.86708621526" y1="679.226791516877" x2="1288.93670727612" y2="656.96835363806" style="stroke:rgb(99,99,99);stroke-width:1"/> 
<line x1="1183.60864833644" y1="762.296412577737" x2="1161.35021045763" y2="845.366033638596" style="stroke:rgb(99,99,99);stroke-width:1"/> 
<line x1="1183.60864833644" y1="762.296412577737" x2="1266.6782693973" y2="784.554850456553" style="stroke:rgb(99,99,99);stroke-width:1"/> 
<line x1="1288.93670727612" y1="656.96835363806" x2="1311.19514515494" y2="740.03797469892" style="stroke:rgb(99,99,99);stroke-width:1"/> 
<line x1="1311.19514515494" y1="740.03797469892" x2="1266.6782693973" y2="784.554850456553" style="stroke:rgb(99,99,99);stroke-width:1"/> 
<line x1="1266.6782693973" y1="784.554850456553" x2="1288.93670727612" y2="867.624471517413" style="stroke:rgb(99,99,99);stroke-width:1"/> 
<line x1="24.9999999999999" y1="867.624471517413" x2="47.2584378788167" y2="950.694092578273" style="stroke:rgb(99,99,99);stroke-width:1"/> 
<line x1="24.9999999999999" y1="867.624471517413" x2="108.06962106086" y2="845.366033638596" style="stroke:rgb(99,99,99);stroke-width:1"/> 
<line x1="47.2584378788167" y1="950.694092578273" x2="2.74156212118316" y2="995.210968335907" style="stroke:rgb(99,99,99);stroke-width:1"/> 
<line x1="108.06962106086" y1="845.366033638596" x2="152.586496818493" y2="889.88290939623" style="stroke:rgb(99,99,99);stroke-width:1"/> 
<line x1="2.74156212118316" y1="995.210968335907" x2="24.9999999999999" y2="1078.28058939677" style="stroke:rgb(99,99,99);stroke-width:1"/> 
<line x1="47.2584378788167" y1="950.694092578273" x2="130.328058939677" y2="972.95253045709" style="stroke:rgb(99,99,99);stroke-width:1"/> 
<line x1="152.586496818493" y1="889.88290939623" x2="130.328058939677" y2="972.95253045709" style="stroke:rgb(99,99,99);stroke-width:1"/> 
<line x1="152.586496818493" y1="889.88290939623" x2="235.656117879353" y2="867.624471517413" style="stroke:rgb(99,99,99);stroke-width:1"/> 
<line x1="130.328058939677" y1="972.95253045709" x2="108.06962106086" y2="1056.02215151795" style="stroke:rgb(99,99,99);stroke-width:1"/> 
<line x1="130.328058939677" y1="972.95253045709" x2="213.397680000536" y2="995.210968335907" style="stroke:rgb(99,99,99);stroke-width:1"/> 
<line x1="235.656117879353" y1="867.624471517413" x2="257.91455575817" y2="950.694092578273" style="stroke:rgb(99,99,99);stroke-width:1"/> 
<line x1="235.656117879353" y1="867.624471517413" x2="318.725738940213" y2="845.366033638596" style="stroke:rgb(99,99,99);stroke-width:1"/> 
<line x1="257.91455575817" y1="950.694092578273" x2="213.397680000536" y2="995.210968335907" style="stroke:rgb(99,99,99);stroke-width:1"/> 
<line x1="318.725738940213" y1="845.366033638596" x2="363.242614697847" y2="889.88290939623" style="stroke:rgb(99,99,99);stroke-width:1"/> 
<line x1="213.397680000536" y1="995.210968335907" x2="235.656117879353" y2="1078.28058939677" style="stroke:rgb(99,99,99);stroke-width:1"/> 
<line x1="257.91455575817" y1="950.694092578273" x2="340.98417681903" y2="972.95253045709" style="stroke:rgb(99,99,99);stroke-width:1"/> 
<line x1="363.242614697847" y1="889.88290939623" x2="340.98417681903" y2="972.95253045709" style="stroke:rgb(99,99,99);stroke-width:1"/> 
<line x1="363.242614697847" y1="889.88290939623" x2="446.312235758706" y2="867.624471517413" style="stroke:rgb(99,99,99);stroke-width:1"/> 
<line x1="340.98417681903" y1="972.95253045709" x2="318.725738940213" y2="1056.02215151795" style="stroke:rgb(99,99,99);stroke-width:1"/> 
<line x1="340.98417681903" y1="972.95253045709" x2="424.05379787989" y2="995.210968335907" style="stroke:rgb(99,99,99);stroke-width:1"/> 
<line x1="446.312235758707" y1="867.624471517413" x2="468.570673637523" y2="950.694092578273" style="stroke:rgb(99,99,99);stroke-width:1"/> 
<line x1="446.312235758707" y1="867.624471517413" x2="529.381856819566" y2="845.366033638596" style="stroke:rgb(99,99,99);stroke-width:1"/> 
<line x1="468.570673637523" y1="950.694092578273" x2="424.05379787989" y2="995.210968335907" style="stroke:rgb(99,99,99);stroke-width:1"/> 
<line x1="529.381856819566" y1="845.366033638596" x2="573.8987325772" y2="889.88290939623" style="stroke:rgb(99,99,99);stroke-width:1"/> 
<line x1="424.05379787989" y1="995.210968335907" x2="446.312235758707" y2="1078.28058939677" style="stroke:rgb(99,99,99);stroke-width:1"/> 
<line x1="468.570673637523" y1="950.694092578273" x2="551.640294698383" y2="972.95253045709" style="stroke:rgb(99,99,99);stroke-width:1"/> 
<line x1="573.8987325772" y1="889.88290939623" x2="551.640294698383" y2="972.95253045709" style="stroke:rgb(99,99,99);stroke-width:1"/> 
<line x1="573.8987325772" y1="889.88290939623" x2="656.96835363806" y2="867.624471517413" style="stroke:rgb(99,99,99);stroke-width:1"/> 
<line x1="551.640294698383" y1="972.95253045709" x2="529.381856819566" y2="1056.02215151795" style="stroke:rgb(99,99,99);stroke-width:1"/> 
<line x1="551.640294698383" y1="972.95253045709" x2="634.709915759243" y2="995.210968335907" style="stroke:rgb(99,99,99);stroke-width:1"/> 
<line x1="656.96835363806" y1="867.624471517413" x2="679.226791516877" y2="950.694092578273" style="stroke:rgb(99,99,99);stroke-width:1"/> 
<line x1="656.96835363806" y1="867.624471517413" x2="740.03797469892" y2="845.366033638596" style="stroke:rgb(99,99,99);stroke-width:1"/> 
<line x1="679.226791516877" y1="950.694092578273" x2="634.709915759243" y2="995.210968335907" style="stroke:rgb(99,99,99);stroke-width:1"/> 
<line x1="740.03797469892" y1="845.366033638596" x2="784.554850456553" y2="889.88290939623" style="stroke:rgb(99,99,99);stroke-width:1"/> 
<line x1="634.709915759243" y1="995.210968335907" x2="656.96835363806" y2="1078.28058939677" style="stroke:rgb(99,99,99);stroke-width:1"/> 
<line x1="679.226791516877" y1="950.694092578273" x2="762.296412577736" y2="972.95253045709" style="stroke:rgb(99,99,99);stroke-width:1"/> 
<line x1="784.554850456553" y1="889.88290939623" x2="762.296412577736" y2="972.95253045709" style="stroke:rgb(99,99,99);stroke-width:1"/> 
<line x1="784.554850456553" y1="889.88290939623" x2="867.624471517413" y2="867.624471517413" style="stroke:rgb(99,99,99);stroke-width:1"/> 
<line x1="762.296412577736" y1="972.95253045709" x2="740.03797469892" y2="1056.02215151795" style="stroke:rgb(99,99,99);stroke-width:1"/> 
<line x1="762.296412577736" y1="972.95253045709" x2="845.366033638596" y2="995.210968335907" style="stroke:rgb(99,99,99);stroke-width:1"/> 
<line x1="867.624471517413" y1="867.624471517413" x2="889.88290939623" y2="950.694092578273" style="stroke:rgb(99,99,99);stroke-width:1"/> 
<line x1="867.624471517413" y1="867.624471517413" x2="950.694092578273" y2="845.366033638596" style="stroke:rgb(99,99,99);stroke-width:1"/> 
<line x1="889.88290939623" y1="950.694092578273" x2="845.366033638596" y2="995.210968335907" style="stroke:rgb(99,99,99);stroke-width:1"/> 
<line x1="950.694092578273" y1="845.366033638596" x2="995.210968335907" y2="889.88290939623" style="stroke:rgb(99,99,99);stroke-width:1"/> 
<line x1="845.366033638596" y1="995.210968335907" x2="867.624471517413" y2="1078.28058939677" style="stroke:rgb(99,99,99);stroke-width:1"/> 
<line x1="889.88290939623" y1="950.694092578273" x2="972.95253045709" y2="972.95253045709" style="stroke:rgb(99,99,99);stroke-width:1"/> 
<line x1="995.210968335907" y1="889.88290939623" x2="972.95253045709" y2="972.95253045709" style="stroke:rgb(99,99,99);stroke-width:1"/> 
<line x1="995.210968335907" y1="889.88290939623" x2="1078.28058939677" y2="867.624471517413" style="stroke:rgb(99,99,99);stroke-width:1"/> 
<line x1="972.95253045709" y1="972.95253045709" x2="950.694092578273" y2="1056.02215151795" style="stroke:rgb(99,99,99);stroke-width:1"/> 
<line x1="972.95253045709" y1="972.95253045709" x2="1056.02215151795" y2="995.210968335907" style="stroke:rgb(99,99,99);stroke-width:1"/> 
<line x1="1078.28058939677" y1="867.624471517413" x2="1100.53902727558" y2="950.694092578273" style="stroke:rgb(99,99,99);stroke-width:1"/> 
<line x1="1078.28058939677" y1="867.624471517413" x2="1161.35021045763" y2="845.366033638596" style="stroke:rgb(99,99,99);stroke-width:1"/> 
<line x1="1100.53902727558" y1="950.694092578273" x2="1056.02215151795" y2="995.210968335907" style="stroke:rgb(99,99,99);stroke-width:1"/> 
<line x1="1161.35021045763" y1="845.366033638596" x2="1205.86708621526" y2="889.88290939623" style="stroke:rgb(99,99,99);stroke-width:1"/> 
<line x1="1056.02215151795" y1="995.210968335907" x2="1078.28058939677" y2="1078.28058939677" style="stroke:rgb(99,99,99);stroke-width:1"/> 
<line x1="1100.53902727558" y1="950.694092578273" x2="1183.60864833644" y2="972.95253045709" style="stroke:rgb(99,99,99);stroke-width:1"/> 
<line x1="1205.86708621526" y1="889.88290939623" x2="1183.60864833644" y2="972.95253045709" style="stroke:rgb(99,99,99);stroke-width:1"/> 
<line x1="1205.86708621526" y1="889.88290939623" x2="1288.93670727612" y2="867.624471517413" style="stroke:rgb(99,99,99);stroke-width:1"/> 
<line x1="1183.60864833644" y1="972.95253045709" x2="1161.35021045763" y2="1056.02215151795" style="stroke:rgb(99,99,99);stroke-width:1"/> 
<line x1="1183.60864833644" y1="972.95253045709" x2="1266.6782693973" y2="995.210968335907" style="stroke:rgb(99,99,99);stroke-width:1"/> 
<line x1="1288.93670727612" y1="867.624471517413" x2="1311.19514515494" y2="950.694092578273" style="stroke:rgb(99,99,99);stroke-width:1"/> 
<line x1="1311.19514515494" y1="950.694092578273" x2="1266.6782693973" y2="995.210968335907" style="stroke:rgb(99,99,99);stroke-width:1"/> 
<line x1="1266.6782693973" y1="995.210968335907" x2="1288.93670727612" y2="1078.28058939677" style="stroke:rgb(99,99,99);stroke-width:1"/> 
<line x1="24.9999999999999" y1="1078.28058939677" x2="47.2584378788167" y2="1161.35021045763" style="stroke:rgb(99,99,99);stroke-width:1"/> 
<line x1="24.9999999999999" y1="1078.28058939677" x2="108.06962106086" y2="1056.02215151795" style="stroke:rgb(99,99,99);stroke-width:1"/> 
<line x1="47.2584378788167" y1="1161.35021045763" x2="2.74156212118316" y2="1205.86708621526" style="stroke:rgb(99,99,99);stroke-width:1"/> 
<line x1="108.06962106086" y1="1056.02215151795" x2="152.586496818493" y2="1100.53902727558" style="stroke:rgb(99,99,99);stroke-width:1"/> 
<line x1="2.74156212118316" y1="1205.86708621526" x2="24.9999999999999" y2="1288.93670727612" style="stroke:rgb(99,99,99);stroke-width:1"/> 
<line x1="47.2584378788167" y1="1161.35021045763" x2="130.328058939676" y2="1183.60864833644" style="stroke:rgb(99,99,99);stroke-width:1"/> 
<line x1="152.586496818493" y1="1100.53902727558" x2="130.328058939676" y2="1183.60864833644" style="stroke:rgb(99,99,99);stroke-width:1"/> 
<line x1="152.586496818493" y1="1100.53902727558" x2="235.656117879353" y2="1078.28058939677" style="stroke:rgb(99,99,99);stroke-width:1"/> 
<line x1="130.328058939676" y1="1183.60864833644" x2="108.06962106086" y2="1266.6782693973" style="stroke:rgb(99,99,99);stroke-width:1"/> 
<line x1="130.328058939676" y1="1183.60864833644" x2="213.397680000536" y2="1205.86708621526" style="stroke:rgb(99,99,99);stroke-width:1"/> 
<line x1="235.656117879353" y1="1078.28058939677" x2="257.91455575817" y2="1161.35021045763" style="stroke:rgb(99,99,99);stroke-width:1"/> 
<line x1="235.656117879353" y1="1078.28058939677" x2="318.725738940213" y2="1056.02215151795" style="stroke:rgb(99,99,99);stroke-width:1"/> 
<line x1="257.91455575817" y1="1161.35021045763" x2="213.397680000536" y2="1205.86708621526" style="stroke:rgb(99,99,99);stroke-width:1"/> 
<line x1="318.725738940213" y1="1056.02215151795" x2="363.242614697847" y2="1100.53902727558" style="stroke:rgb(99,99,99);stroke-width:1"/> 
<line x1="213.397680000536" y1="1205.86708621526" x2="235.656117879353" y2="1288.93670727612" style="stroke:rgb(99,99,99);stroke-width:1"/> 
<line x1="257.91455575817" y1="1161.35021045763" x2="340.98417681903" y2="1183.60864833644" style="stroke:rgb(99,99,99);stroke-width:1"/> 
<line x1="363.242614697847" y1="1100.53902727558" x2="340.98417681903" y2="1183.60864833644" style="stroke:rgb(99,99,99);stroke-width:1"/> 
<line x1="363.242614697847" y1="1100.53902727558" x2="446.312235758706" y2="1078.28058939677" style="stroke:rgb(99,99,99);stroke-width:1"/> 
<line x1="340.98417681903" y1="1183.60864833644" x2="318.725738940213" y2="1266.6782693973" style="stroke:rgb(99,99,99);stroke-width:1"/> 
<line x1="340.98417681903" y1="1183.60864833644" x2="424.05379787989" y2="1205.86708621526" style="stroke:rgb(99,99,99);stroke-width:1"/> 
<line x1="446.312235758707" y1="1078.28058939677" x2="468.570673637523" y2="1161.35021045763" style="stroke:rgb(99,99,99);stroke-width:1"/> 
<line x1="446.312235758707" y1="1078.28058939677" x2="529.381856819566" y2="1056.02215151795" style="stroke:rgb(99,99,99);stroke-width:1"/> 
<line x1="468.570673637523" y1="1161.35021045763" x2="424.05379787989" y2="1205.86708621526" style="stroke:rgb(99,99,99);stroke-width:1"/> 
<line x1="529.381856819566" y1="1056.02215151795" x2="573.8987325772" y2="1100.53902727558" style="stroke:rgb(99,99,99);stroke-width:1"/> 
<line x1="424.05379787989" y1="1205.86708621526" x2="446.312235758707" y2="1288.93670727612" style="stroke:rgb(99,99,99);stroke-width:1"/> 
<line x1="468.570673637523" y1="1161.35021045763" x2="551.640294698383" y2="1183.60864833644" style="stroke:rgb(99,99,99);stroke-width:1"/> 
<line x1="573.8987325772" y1="1100.53902727558" x2="551.640294698383" y2="1183.60864833644" style="stroke:rgb(99,99,99);stroke-width:1"/> 
<line x1="573.8987325772" y1="1100.53902727558" x2="656.96835363806" y2="1078.28058939677" style="stroke:rgb(99,99,99);stroke-width:1"/> 
<line x1="551.640294698383" y1="1183.60864833644" x2="529.381856819566" y2="1266.6782693973" style="stroke:rgb(99,99,99);stroke-width:1"/> 
<line x1="551.640294698383" y1="1183.60864833644" x2="634.709915759243" y2="1205.86708621526" style="stroke:rgb(99,99,99);stroke-width:1"/> 
<line x1="656.96835363806" y1="1078.28058939677" x2="679.226791516877" y2="1161.35021045763" style="stroke:rgb(99,99,99);stroke-width:1"/> 
<line x1="656.96835363806" y1="1078.28058939677" x2="740.03797469892" y2="1056.02215151795" style="stroke:rgb(99,99,99);stroke-width:1"/> 
<line x1="679.226791516877" y1="1161.35021045763" x2="634.709915759243" y2="1205.86708621526" style="stroke:rgb(99,99,99);stroke-width:1"/> 
<line x1="740.03797469892" y1="1056.02215151795" x2="784.554850456553" y2="1100.53902727558" style="stroke:rgb(99,99,99);stroke-width:1"/> 
<line x1="634.709915759243" y1="1205.86708621526" x2="656.96835363806" y2="1288.93670727612" style="stroke:rgb(99,99,99);stroke-width:1"/> 
<line x1="679.226791516877" y1="1161.35021045763" x2="762.296412577736" y2="1183.60864833644" style="stroke:rgb(99,99,99);stroke-width:1"/> 
<line x1="784.554850456553" y1="1100.53902727558" x2="762.296412577736" y2="1183.60864833644" style="stroke:rgb(99,99,99);stroke-width:1"/> 
<line x1="784.554850456553" y1="1100.53902727558" x2="867.624471517413" y2="1078.28058939677" style="stroke:rgb(99,99,99);stroke-width:1"/> 
<line x1="762.296412577736" y1="1183.60864833644" x2="740.03797469892" y2="1266.6782693973" style="stroke:rgb(99,99,99);stroke-width:1"/> 
<line x1="762.296412577736" y1="1183.60864833644" x2="845.366033638596" y2="1205.86708621526" style="stroke:rgb(99,99,99);stroke-width:1"/> 
<line x1="867.624471517413" y1="1078.28058939677" x2="889.88290939623" y2="1161.35021045763" style="stroke:rgb(99,99,99);stroke-width:1"/> 
<line x1="867.624471517413" y1="1078.28058939677" x2="950.694092578273" y2="1056.02215151795" style="stroke:rgb(99,99,99);stroke-width:1"/> 
<line x1="889.88290939623" y1="1161.35021045763" x2="845.366033638596" y2="1205.86708621526" style="stroke:rgb(99,99,99);stroke-width:1"/> 
<line x1="950.694092578273" y1="1056.02215151795" x2="995.210968335907" y2="1100.53902727558" style="stroke:rgb(99,99,99);stroke-width:1"/> 
<line x1="845.366033638596" y1="1205.86708621526" x2="867.624471517413" y2="1288.93670727612" style="stroke:rgb(99,99,99);stroke-width:1"/> 
<line x1="889.88290939623" y1="1161.35021045763" x2="972.95253045709" y2="1183.60864833644" style="stroke:rgb(99,99,99);stroke-width:1"/> 
<line x1="995.210968335907" y1="1100.53902727558" x2="972.95253045709" y2="1183.60864833644" style="stroke:rgb(99,99,99);stroke-width:1"/> 
<line x1="995.210968335907" y1="1100.53902727558" x2="1078.28058939677" y2="1078.28058939677" style="stroke:rgb(99,99,99);stroke-width:1"/> 
<line x1="972.95253045709" y1="1183.60864833644" x2="950.694092578273" y2="1266.6782693973" style="stroke:rgb(99,99,99);stroke-width:1"/> 
<line x1="972.95253045709" y1="1183.60864833644" x2="1056.02215151795" y2="1205.86708621526" style="stroke:rgb(99,99,99);stroke-width:1"/> 
<line x1="1078.28058939677" y1="1078.28058939677" x2="1100.53902727558" y2="1161.35021045763" style="stroke:rgb(99,99,99);stroke-width:1"/> 
<line x1="1078.28058939677" y1="1078.28058939677" x2="1161.35021045763" y2="1056.02215151795" style="stroke:rgb(99,99,99);stroke-width:1"/> 
<line x1="1100.53902727558" y1="1161.35021045763" x2="1056.02215151795" y2="1205.86708621526" style="stroke:rgb(99,99,99);stroke-width:1"/> 
<line x1="1161.35021045763" y1="1056.02215151795" x2="1205.86708621526" y2="1100.53902727558" style="stroke:rgb(99,99,99);stroke-width:1"/> 
<line x1="1056.02215151795" y1="1205.86708621526" x2="1078.28058939677" y2="1288.93670727612" style="stroke:rgb(99,99,99);stroke-width:1"/> 
<line x1="1100.53902727558" y1="1161.35021045763" x2="1183.60864833644" y2="1183.60864833644" style="stroke:rgb(99,99,99);stroke-width:1"/> 
<line x1="1205.86708621526" y1="1100.53902727558" x2="1183.60864833644" y2="1183.60864833644" style="stroke:rgb(99,99,99);stroke-width:1"/> 
<line x1="1205.86708621526" y1="1100.53902727558" x2="1288.93670727612" y2="1078.28058939677" style="stroke:rgb(99,99,99);stroke-width:1"/> 
<line x1="1183.60864833644" y1="1183.60864833644" x2="1161.35021045763" y2="1266.6782693973" style="stroke:rgb(99,99,99);stroke-width:1"/> 
<line x1="1183.60864833644" y1="1183.60864833644" x2="1266.6782693973" y2="1205.86708621526" style="stroke:rgb(99,99,99);stroke-width:1"/> 
<line x1="1288.93670727612" y1="1078.28058939677" x2="1311.19514515494" y2="1161.35021045763" style="stroke:rgb(99,99,99);stroke-width:1"/> 
<line x1="1311.19514515494" y1="1161.35021045763" x2="1266.6782693973" y2="1205.86708621526" style="stroke:rgb(99,99,99);stroke-width:1"/> 
<line x1="1266.6782693973" y1="1205.86708621526" x2="1288.93670727612" y2="1288.93670727612" style="stroke:rgb(99,99,99);stroke-width:1"/> 
<line x1="24.9999999999999" y1="1288.93670727612" x2="108.06962106086" y2="1266.6782693973" style="stroke:rgb(99,99,99);stroke-width:1"/> 
<line x1="108.06962106086" y1="1266.6782693973" x2="152.586496818493" y2="1311.19514515494" style="stroke:rgb(99,99,99);stroke-width:1"/> 
<line x1="152.586496818493" y1="1311.19514515494" x2="235.656117879353" y2="1288.93670727612" style="stroke:rgb(99,99,99);stroke-width:1"/> 
<line x1="235.656117879353" y1="1288.93670727612" x2="318.725738940213" y2="1266.6782693973" style="stroke:rgb(99,99,99);stroke-width:1"/> 
<line x1="318.725738940213" y1="1266.6782693973" x2="363.242614697847" y2="1311.19514515494" style="stroke:rgb(99,99,99);stroke-width:1"/> 
<line x1="363.242614697847" y1="1311.19514515494" x2="446.312235758706" y2="1288.93670727612" style="stroke:rgb(99,99,99);stroke-width:1"/> 
<line x1="446.312235758706" y1="1288.93670727612" x2="529.381856819566" y2="1266.6782693973" style="stroke:rgb(99,99,99);stroke-width:1"/> 
<line x1="529.381856819566" y1="1266.6782693973" x2="573.8987325772" y2="1311.19514515494" style="stroke:rgb(99,99,99);stroke-width:1"/> 
<line x1="573.8987325772" y1="1311.19514515494" x2="656.96835363806" y2="1288.93670727612" style="stroke:rgb(99,99,99);stroke-width:1"/> 
<line x1="656.96835363806" y1="1288.93670727612" x2="740.03797469892" y2="1266.6782693973" style="stroke:rgb(99,99,99);stroke-width:1"/> 
<line x1="740.03797469892" y1="1266.6782693973" x2="784.554850456553" y2="1311.19514515494" style="stroke:rgb(99,99,99);stroke-width:1"/> 
<line x1="784.554850456553" y1="1311.19514515494" x2="867.624471517413" y2="1288.93670727612" style="stroke:rgb(99,99,99);stroke-width:1"/> 
<line x1="867.624471517413" y1="1288.93670727612" x2="950.694092578273" y2="1266.6782693973" style="stroke:rgb(99,99,99);stroke-width:1"/> 
<line x1="950.694092578273" y1="1266.6782693973" x2="995.210968335907" y2="1311.19514515494" style="stroke:rgb(99,99,99);stroke-width:1"/> 
<line x1="995.210968335907" y1="1311.19514515494" x2="1078.28058939677" y2="1288.93670727612" style="stroke:rgb(99,99,99);stroke-width:1"/> 
<line x1="1078.28058939677" y1="1288.93670727612" x2="1161.35021045763" y2="1266.6782693973" style="stroke:rgb(99,99,99);stroke-width:1"/> 
<line x1="1161.35021045763" y1="1266.6782693973" x2="1205.86708621526" y2="1311.19514515494" style="stroke:rgb(99,99,99);stroke-width:1"/> 
<line x1="1205.86708621526" y1="1311.19514515494" x2="1288.93670727612" y2="1288.93670727612" style="stroke:rgb(99,99,99);stroke-width:1"/> 
</svg>
