0,0 -12.1259962228164,45.254833995939
0,0 45.254833995939,-12.1259962228164
0,0 33.1288377731226,33.1288377731227
-12.1259962228164,45.254833995939 -1.4210854715202e-14,90.5096679918781
-12.1259962228164,45.254833995939 33.1288377731226,33.1288377731227
45.254833995939,-12.1259962228164 33.1288377731226,33.1288377731227
45.254833995939,-12.1259962228164 90.5096679918781,1.4210854715202e-14
33.1288377731226,33.1288377731227 45.254833995939,78.3836717690617
33.1288377731226,33.1288377731227 78.3836717690617,45.254833995939
45.254833995939,78.3836717690617 78.3836717690617,45.254833995939

<?xml version="1.0" standalone="no"?> <!DOCTYPE svg PUBLIC "-//W3C//DTD SVG 1.1//EN" "http://www.w3.org/Graphics/SVG/1.1/DTD/svg11.dtd">
<svg width="2000" height="2000" version="1.1" xmlns="http://www.w3.org/2000/svg">
<line x1="16" y1="16" x2="12.9685009442959" y2="27.3137084989848" style="stroke:rgb(50,0,199);stroke-width:1.5"/>
<line x1="16" y1="16" x2="27.3137084989848" y2="12.9685009442959" style="stroke:rgb(50,0,199);stroke-width:1.5"/>
<line x1="16" y1="16" x2="24.2822094432807" y2="24.2822094432807" style="stroke:rgb(50,0,199);stroke-width:1.5"/>
<line x1="12.9685009442959" y1="27.3137084989848" x2="16" y2="38.6274169979695" style="stroke:rgb(50,0,199);stroke-width:1.5"/>
<line x1="12.9685009442959" y1="27.3137084989848" x2="24.2822094432807" y2="24.2822094432807" style="stroke:rgb(50,0,199);stroke-width:1.5"/>
<line x1="27.3137084989848" y1="12.9685009442959" x2="24.2822094432807" y2="24.2822094432807" style="stroke:rgb(50,0,199);stroke-width:1.5"/>
<line x1="27.3137084989848" y1="12.9685009442959" x2="38.6274169979695" y2="16" style="stroke:rgb(50,0,199);stroke-width:1.5"/>
<line x1="24.2822094432807" y1="24.2822094432807" x2="27.3137084989848" y2="35.5959179422654" style="stroke:rgb(50,0,199);stroke-width:1.5"/>
<line x1="24.2822094432807" y1="24.2822094432807" x2="35.5959179422654" y2="27.3137084989848" style="stroke:rgb(50,0,199);stroke-width:1.5"/>
<line x1="27.3137084989848" y1="35.5959179422654" x2="35.5959179422654" y2="27.3137084989848" style="stroke:rgb(50,0,199);stroke-width:1.5"/>
<line x1="16" y1="38.6274169979695" x2="12.9685009442959" y2="49.9411254969543" style="stroke:rgb(50,0,199);stroke-width:1.5"/>
<line x1="16" y1="38.6274169979695" x2="27.3137084989848" y2="35.5959179422654" style="stroke:rgb(50,0,199);stroke-width:1.5"/>
<line x1="16" y1="38.6274169979695" x2="24.2822094432807" y2="46.9096264412502" style="stroke:rgb(50,0,199);stroke-width:1.5"/>
<line x1="12.9685009442959" y1="49.9411254969543" x2="16" y2="61.254833995939" style="stroke:rgb(50,0,199);stroke-width:1.5"/>
<line x1="12.9685009442959" y1="49.9411254969543" x2="24.2822094432807" y2="46.9096264412502" style="stroke:rgb(50,0,199);stroke-width:1.5"/>
<line x1="27.3137084989848" y1="35.5959179422654" x2="24.2822094432807" y2="46.9096264412502" style="stroke:rgb(50,0,199);stroke-width:1.5"/>
<line x1="27.3137084989848" y1="35.5959179422654" x2="38.6274169979695" y2="38.6274169979695" style="stroke:rgb(50,0,199);stroke-width:1.5"/>
<line x1="24.2822094432807" y1="46.9096264412502" x2="27.3137084989847" y2="58.2233349402349" style="stroke:rgb(50,0,199);stroke-width:1.5"/>
<line x1="24.2822094432807" y1="46.9096264412502" x2="35.5959179422654" y2="49.9411254969543" style="stroke:rgb(50,0,199);stroke-width:1.5"/>
<line x1="27.3137084989847" y1="58.2233349402349" x2="35.5959179422654" y2="49.9411254969543" style="stroke:rgb(50,0,199);stroke-width:1.5"/>
<line x1="16" y1="61.254833995939" x2="12.9685009442959" y2="72.5685424949238" style="stroke:rgb(50,0,199);stroke-width:1.5"/>
<line x1="16" y1="61.254833995939" x2="27.3137084989848" y2="58.2233349402349" style="stroke:rgb(50,0,199);stroke-width:1.5"/>
<line x1="16" y1="61.254833995939" x2="24.2822094432807" y2="69.5370434392197" style="stroke:rgb(50,0,199);stroke-width:1.5"/>
<line x1="12.9685009442959" y1="72.5685424949238" x2="16" y2="83.8822509939085" style="stroke:rgb(50,0,199);stroke-width:1.5"/>
<line x1="12.9685009442959" y1="72.5685424949238" x2="24.2822094432807" y2="69.5370434392197" style="stroke:rgb(50,0,199);stroke-width:1.5"/>
<line x1="27.3137084989848" y1="58.2233349402349" x2="24.2822094432807" y2="69.5370434392197" style="stroke:rgb(50,0,199);stroke-width:1.5"/>
<line x1="27.3137084989848" y1="58.2233349402349" x2="38.6274169979695" y2="61.254833995939" style="stroke:rgb(50,0,199);stroke-width:1.5"/>
<line x1="24.2822094432807" y1="69.5370434392197" x2="27.3137084989847" y2="80.8507519382045" style="stroke:rgb(50,0,199);stroke-width:1.5"/>
<line x1="24.2822094432807" y1="69.5370434392197" x2="35.5959179422654" y2="72.5685424949238" style="stroke:rgb(50,0,199);stroke-width:1.5"/>
<line x1="27.3137084989847" y1="80.8507519382045" x2="35.5959179422654" y2="72.5685424949238" style="stroke:rgb(50,0,199);stroke-width:1.5"/>
<line x1="16" y1="83.8822509939085" x2="12.9685009442959" y2="95.1959594928933" style="stroke:rgb(50,0,199);stroke-width:1.5"/>
<line x1="16" y1="83.8822509939085" x2="27.3137084989847" y2="80.8507519382045" style="stroke:rgb(50,0,199);stroke-width:1.5"/>
<line x1="16" y1="83.8822509939085" x2="24.2822094432806" y2="92.1644604371892" style="stroke:rgb(50,0,199);stroke-width:1.5"/>
<line x1="12.9685009442959" y1="95.1959594928933" x2="16" y2="106.509667991878" style="stroke:rgb(50,0,199);stroke-width:1.5"/>
<line x1="12.9685009442959" y1="95.1959594928933" x2="24.2822094432806" y2="92.1644604371892" style="stroke:rgb(50,0,199);stroke-width:1.5"/>
<line x1="27.3137084989847" y1="80.8507519382045" x2="24.2822094432806" y2="92.1644604371892" style="stroke:rgb(50,0,199);stroke-width:1.5"/>
<line x1="27.3137084989847" y1="80.8507519382045" x2="38.6274169979695" y2="83.8822509939085" style="stroke:rgb(50,0,199);stroke-width:1.5"/>
<line x1="24.2822094432806" y1="92.1644604371892" x2="27.3137084989847" y2="103.478168936174" style="stroke:rgb(50,0,199);stroke-width:1.5"/>
<line x1="24.2822094432806" y1="92.1644604371892" x2="35.5959179422654" y2="95.1959594928933" style="stroke:rgb(50,0,199);stroke-width:1.5"/>
<line x1="27.3137084989847" y1="103.478168936174" x2="35.5959179422654" y2="95.1959594928933" style="stroke:rgb(50,0,199);stroke-width:1.5"/>
<line x1="16" y1="106.509667991878" x2="27.3137084989847" y2="103.478168936174" style="stroke:rgb(50,0,199);stroke-width:1.5"/>
<line x1="27.3137084989847" y1="103.478168936174" x2="38.6274169979695" y2="106.509667991878" style="stroke:rgb(50,0,199);stroke-width:1.5"/>
<line x1="38.6274169979695" y1="16" x2="35.5959179422654" y2="27.3137084989848" style="stroke:rgb(50,0,199);stroke-width:1.5"/>
<line x1="38.6274169979695" y1="16" x2="49.9411254969543" y2="12.9685009442959" style="stroke:rgb(50,0,199);stroke-width:1.5"/>
<line x1="38.6274169979695" y1="16" x2="46.9096264412502" y2="24.2822094432807" style="stroke:rgb(50,0,199);stroke-width:1.5"/>
<line x1="35.5959179422654" y1="27.3137084989848" x2="38.6274169979695" y2="38.6274169979695" style="stroke:rgb(50,0,199);stroke-width:1.5"/>
<line x1="35.5959179422654" y1="27.3137084989848" x2="46.9096264412502" y2="24.2822094432807" style="stroke:rgb(50,0,199);stroke-width:1.5"/>
<line x1="49.9411254969543" y1="12.9685009442959" x2="46.9096264412502" y2="24.2822094432807" style="stroke:rgb(50,0,199);stroke-width:1.5"/>
<line x1="49.9411254969543" y1="12.9685009442959" x2="61.254833995939" y2="16" style="stroke:rgb(50,0,199);stroke-width:1.5"/>
<line x1="46.9096264412502" y1="24.2822094432807" x2="49.9411254969543" y2="35.5959179422654" style="stroke:rgb(50,0,199);stroke-width:1.5"/>
<line x1="46.9096264412502" y1="24.2822094432807" x2="58.2233349402349" y2="27.3137084989848" style="stroke:rgb(50,0,199);stroke-width:1.5"/>
<line x1="49.9411254969543" y1="35.5959179422654" x2="58.2233349402349" y2="27.3137084989848" style="stroke:rgb(50,0,199);stroke-width:1.5"/>
<line x1="38.6274169979695" y1="38.6274169979695" x2="35.5959179422654" y2="49.9411254969543" style="stroke:rgb(50,0,199);stroke-width:1.5"/>
<line x1="38.6274169979695" y1="38.6274169979695" x2="49.9411254969543" y2="35.5959179422654" style="stroke:rgb(50,0,199);stroke-width:1.5"/>
<line x1="38.6274169979695" y1="38.6274169979695" x2="46.9096264412502" y2="46.9096264412502" style="stroke:rgb(50,0,199);stroke-width:1.5"/>
<line x1="35.5959179422654" y1="49.9411254969543" x2="38.6274169979695" y2="61.254833995939" style="stroke:rgb(50,0,199);stroke-width:1.5"/>
<line x1="35.5959179422654" y1="49.9411254969543" x2="46.9096264412502" y2="46.9096264412502" style="stroke:rgb(50,0,199);stroke-width:1.5"/>
<line x1="49.9411254969543" y1="35.5959179422654" x2="46.9096264412502" y2="46.9096264412502" style="stroke:rgb(50,0,199);stroke-width:1.5"/>
<line x1="49.9411254969543" y1="35.5959179422654" x2="61.254833995939" y2="38.6274169979695" style="stroke:rgb(50,0,199);stroke-width:1.5"/>
<line x1="46.9096264412502" y1="46.9096264412502" x2="49.9411254969543" y2="58.2233349402349" style="stroke:rgb(50,0,199);stroke-width:1.5"/>
<line x1="46.9096264412502" y1="46.9096264412502" x2="58.2233349402349" y2="49.9411254969543" style="stroke:rgb(50,0,199);stroke-width:1.5"/>
<line x1="49.9411254969543" y1="58.2233349402349" x2="58.2233349402349" y2="49.9411254969543" style="stroke:rgb(50,0,199);stroke-width:1.5"/>
<line x1="38.6274169979695" y1="61.254833995939" x2="35.5959179422654" y2="72.5685424949238" style="stroke:rgb(50,0,199);stroke-width:1.5"/>
<line x1="38.6274169979695" y1="61.254833995939" x2="49.9411254969543" y2="58.2233349402349" style="stroke:rgb(50,0,199);stroke-width:1.5"/>
<line x1="38.6274169979695" y1="61.254833995939" x2="46.9096264412502" y2="69.5370434392197" style="stroke:rgb(50,0,199);stroke-width:1.5"/>
<line x1="35.5959179422654" y1="72.5685424949238" x2="38.6274169979695" y2="83.8822509939085" style="stroke:rgb(50,0,199);stroke-width:1.5"/>
<line x1="35.5959179422654" y1="72.5685424949238" x2="46.9096264412502" y2="69.5370434392197" style="stroke:rgb(50,0,199);stroke-width:1.5"/>
<line x1="49.9411254969543" y1="58.2233349402349" x2="46.9096264412502" y2="69.5370434392197" style="stroke:rgb(50,0,199);stroke-width:1.5"/>
<line x1="49.9411254969543" y1="58.2233349402349" x2="61.254833995939" y2="61.254833995939" style="stroke:rgb(50,0,199);stroke-width:1.5"/>
<line x1="46.9096264412502" y1="69.5370434392197" x2="49.9411254969543" y2="80.8507519382045" style="stroke:rgb(50,0,199);stroke-width:1.5"/>
<line x1="46.9096264412502" y1="69.5370434392197" x2="58.2233349402349" y2="72.5685424949238" style="stroke:rgb(50,0,199);stroke-width:1.5"/>
<line x1="49.9411254969543" y1="80.8507519382045" x2="58.2233349402349" y2="72.5685424949238" style="stroke:rgb(50,0,199);stroke-width:1.5"/>
<line x1="38.6274169979695" y1="83.8822509939085" x2="35.5959179422654" y2="95.1959594928933" style="stroke:rgb(50,0,199);stroke-width:1.5"/>
<line x1="38.6274169979695" y1="83.8822509939085" x2="49.9411254969543" y2="80.8507519382045" style="stroke:rgb(50,0,199);stroke-width:1.5"/>
<line x1="38.6274169979695" y1="83.8822509939085" x2="46.9096264412502" y2="92.1644604371892" style="stroke:rgb(50,0,199);stroke-width:1.5"/>
<line x1="35.5959179422654" y1="95.1959594928933" x2="38.6274169979695" y2="106.509667991878" style="stroke:rgb(50,0,199);stroke-width:1.5"/>
<line x1="35.5959179422654" y1="95.1959594928933" x2="46.9096264412502" y2="92.1644604371892" style="stroke:rgb(50,0,199);stroke-width:1.5"/>
<line x1="49.9411254969543" y1="80.8507519382045" x2="46.9096264412502" y2="92.1644604371892" style="stroke:rgb(50,0,199);stroke-width:1.5"/>
<line x1="49.9411254969543" y1="80.8507519382045" x2="61.254833995939" y2="83.8822509939085" style="stroke:rgb(50,0,199);stroke-width:1.5"/>
<line x1="46.9096264412502" y1="92.1644604371892" x2="49.9411254969543" y2="103.478168936174" style="stroke:rgb(50,0,199);stroke-width:1.5"/>
<line x1="46.9096264412502" y1="92.1644604371892" x2="58.2233349402349" y2="95.1959594928933" style="stroke:rgb(50,0,199);stroke-width:1.5"/>
<line x1="49.9411254969543" y1="103.478168936174" x2="58.2233349402349" y2="95.1959594928933" style="stroke:rgb(50,0,199);stroke-width:1.5"/>
<line x1="38.6274169979695" y1="106.509667991878" x2="49.9411254969543" y2="103.478168936174" style="stroke:rgb(50,0,199);stroke-width:1.5"/>
<line x1="49.9411254969543" y1="103.478168936174" x2="61.254833995939" y2="106.509667991878" style="stroke:rgb(50,0,199);stroke-width:1.5"/>
<line x1="61.254833995939" y1="16" x2="58.2233349402349" y2="27.3137084989848" style="stroke:rgb(50,0,199);stroke-width:1.5"/>
<line x1="61.254833995939" y1="16" x2="72.5685424949238" y2="12.9685009442959" style="stroke:rgb(50,0,199);stroke-width:1.5"/>
<line x1="61.254833995939" y1="16" x2="69.5370434392197" y2="24.2822094432807" style="stroke:rgb(50,0,199);stroke-width:1.5"/>
<line x1="58.2233349402349" y1="27.3137084989848" x2="61.254833995939" y2="38.6274169979695" style="stroke:rgb(50,0,199);stroke-width:1.5"/>
<line x1="58.2233349402349" y1="27.3137084989848" x2="69.5370434392197" y2="24.2822094432807" style="stroke:rgb(50,0,199);stroke-width:1.5"/>
<line x1="72.5685424949238" y1="12.9685009442959" x2="69.5370434392197" y2="24.2822094432807" style="stroke:rgb(50,0,199);stroke-width:1.5"/>
<line x1="72.5685424949238" y1="12.9685009442959" x2="83.8822509939085" y2="16" style="stroke:rgb(50,0,199);stroke-width:1.5"/>
<line x1="69.5370434392197" y1="24.2822094432807" x2="72.5685424949238" y2="35.5959179422654" style="stroke:rgb(50,0,199);stroke-width:1.5"/>
<line x1="69.5370434392197" y1="24.2822094432807" x2="80.8507519382045" y2="27.3137084989848" style="stroke:rgb(50,0,199);stroke-width:1.5"/>
<line x1="72.5685424949238" y1="35.5959179422654" x2="80.8507519382045" y2="27.3137084989848" style="stroke:rgb(50,0,199);stroke-width:1.5"/>
<line x1="61.254833995939" y1="38.6274169979695" x2="58.2233349402349" y2="49.9411254969543" style="stroke:rgb(50,0,199);stroke-width:1.5"/>
<line x1="61.254833995939" y1="38.6274169979695" x2="72.5685424949238" y2="35.5959179422654" style="stroke:rgb(50,0,199);stroke-width:1.5"/>
<line x1="61.254833995939" y1="38.6274169979695" x2="69.5370434392197" y2="46.9096264412502" style="stroke:rgb(50,0,199);stroke-width:1.5"/>
<line x1="58.2233349402349" y1="49.9411254969543" x2="61.254833995939" y2="61.254833995939" style="stroke:rgb(50,0,199);stroke-width:1.5"/>
<line x1="58.2233349402349" y1="49.9411254969543" x2="69.5370434392197" y2="46.9096264412502" style="stroke:rgb(50,0,199);stroke-width:1.5"/>
<line x1="72.5685424949238" y1="35.5959179422654" x2="69.5370434392197" y2="46.9096264412502" style="stroke:rgb(50,0,199);stroke-width:1.5"/>
<line x1="72.5685424949238" y1="35.5959179422654" x2="83.8822509939085" y2="38.6274169979695" style="stroke:rgb(50,0,199);stroke-width:1.5"/>
<line x1="69.5370434392197" y1="46.9096264412502" x2="72.5685424949238" y2="58.2233349402349" style="stroke:rgb(50,0,199);stroke-width:1.5"/>
<line x1="69.5370434392197" y1="46.9096264412502" x2="80.8507519382045" y2="49.9411254969543" style="stroke:rgb(50,0,199);stroke-width:1.5"/>
<line x1="72.5685424949238" y1="58.2233349402349" x2="80.8507519382045" y2="49.9411254969543" style="stroke:rgb(50,0,199);stroke-width:1.5"/>
<line x1="61.254833995939" y1="61.254833995939" x2="58.2233349402349" y2="72.5685424949238" style="stroke:rgb(50,0,199);stroke-width:1.5"/>
<line x1="61.254833995939" y1="61.254833995939" x2="72.5685424949238" y2="58.2233349402349" style="stroke:rgb(50,0,199);stroke-width:1.5"/>
<line x1="61.254833995939" y1="61.254833995939" x2="69.5370434392197" y2="69.5370434392197" style="stroke:rgb(50,0,199);stroke-width:1.5"/>
<line x1="58.2233349402349" y1="72.5685424949238" x2="61.254833995939" y2="83.8822509939086" style="stroke:rgb(50,0,199);stroke-width:1.5"/>
<line x1="58.2233349402349" y1="72.5685424949238" x2="69.5370434392197" y2="69.5370434392197" style="stroke:rgb(50,0,199);stroke-width:1.5"/>
<line x1="72.5685424949238" y1="58.2233349402349" x2="69.5370434392197" y2="69.5370434392197" style="stroke:rgb(50,0,199);stroke-width:1.5"/>
<line x1="72.5685424949238" y1="58.2233349402349" x2="83.8822509939085" y2="61.254833995939" style="stroke:rgb(50,0,199);stroke-width:1.5"/>
<line x1="69.5370434392197" y1="69.5370434392197" x2="72.5685424949238" y2="80.8507519382045" style="stroke:rgb(50,0,199);stroke-width:1.5"/>
<line x1="69.5370434392197" y1="69.5370434392197" x2="80.8507519382044" y2="72.5685424949238" style="stroke:rgb(50,0,199);stroke-width:1.5"/>
<line x1="72.5685424949238" y1="80.8507519382045" x2="80.8507519382044" y2="72.5685424949238" style="stroke:rgb(50,0,199);stroke-width:1.5"/>
<line x1="61.254833995939" y1="83.8822509939085" x2="58.2233349402349" y2="95.1959594928933" style="stroke:rgb(50,0,199);stroke-width:1.5"/>
<line x1="61.254833995939" y1="83.8822509939085" x2="72.5685424949238" y2="80.8507519382045" style="stroke:rgb(50,0,199);stroke-width:1.5"/>
<line x1="61.254833995939" y1="83.8822509939085" x2="69.5370434392197" y2="92.1644604371892" style="stroke:rgb(50,0,199);stroke-width:1.5"/>
<line x1="58.2233349402349" y1="95.1959594928933" x2="61.254833995939" y2="106.509667991878" style="stroke:rgb(50,0,199);stroke-width:1.5"/>
<line x1="58.2233349402349" y1="95.1959594928933" x2="69.5370434392197" y2="92.1644604371892" style="stroke:rgb(50,0,199);stroke-width:1.5"/>
<line x1="72.5685424949238" y1="80.8507519382045" x2="69.5370434392197" y2="92.1644604371892" style="stroke:rgb(50,0,199);stroke-width:1.5"/>
<line x1="72.5685424949238" y1="80.8507519382045" x2="83.8822509939085" y2="83.8822509939086" style="stroke:rgb(50,0,199);stroke-width:1.5"/>
<line x1="69.5370434392197" y1="92.1644604371892" x2="72.5685424949238" y2="103.478168936174" style="stroke:rgb(50,0,199);stroke-width:1.5"/>
<line x1="69.5370434392197" y1="92.1644604371892" x2="80.8507519382044" y2="95.1959594928933" style="stroke:rgb(50,0,199);stroke-width:1.5"/>
<line x1="72.5685424949238" y1="103.478168936174" x2="80.8507519382044" y2="95.1959594928933" style="stroke:rgb(50,0,199);stroke-width:1.5"/>
<line x1="61.254833995939" y1="106.509667991878" x2="72.5685424949238" y2="103.478168936174" style="stroke:rgb(50,0,199);stroke-width:1.5"/>
<line x1="72.5685424949238" y1="103.478168936174" x2="83.8822509939085" y2="106.509667991878" style="stroke:rgb(50,0,199);stroke-width:1.5"/>
<line x1="83.8822509939085" y1="16" x2="80.8507519382044" y2="27.3137084989848" style="stroke:rgb(50,0,199);stroke-width:1.5"/>
<line x1="83.8822509939085" y1="16" x2="95.1959594928933" y2="12.9685009442959" style="stroke:rgb(50,0,199);stroke-width:1.5"/>
<line x1="83.8822509939085" y1="16" x2="92.1644604371892" y2="24.2822094432807" style="stroke:rgb(50,0,199);stroke-width:1.5"/>
<line x1="80.8507519382044" y1="27.3137084989848" x2="83.8822509939085" y2="38.6274169979695" style="stroke:rgb(50,0,199);stroke-width:1.5"/>
<line x1="80.8507519382044" y1="27.3137084989848" x2="92.1644604371892" y2="24.2822094432807" style="stroke:rgb(50,0,199);stroke-width:1.5"/>
<line x1="95.1959594928933" y1="12.9685009442959" x2="92.1644604371892" y2="24.2822094432807" style="stroke:rgb(50,0,199);stroke-width:1.5"/>
<line x1="95.1959594928933" y1="12.9685009442959" x2="106.509667991878" y2="16" style="stroke:rgb(50,0,199);stroke-width:1.5"/>
<line x1="92.1644604371892" y1="24.2822094432807" x2="95.1959594928933" y2="35.5959179422654" style="stroke:rgb(50,0,199);stroke-width:1.5"/>
<line x1="92.1644604371892" y1="24.2822094432807" x2="103.478168936174" y2="27.3137084989848" style="stroke:rgb(50,0,199);stroke-width:1.5"/>
<line x1="95.1959594928933" y1="35.5959179422654" x2="103.478168936174" y2="27.3137084989848" style="stroke:rgb(50,0,199);stroke-width:1.5"/>
<line x1="83.8822509939085" y1="38.6274169979695" x2="80.8507519382044" y2="49.9411254969543" style="stroke:rgb(50,0,199);stroke-width:1.5"/>
<line x1="83.8822509939085" y1="38.6274169979695" x2="95.1959594928933" y2="35.5959179422654" style="stroke:rgb(50,0,199);stroke-width:1.5"/>
<line x1="83.8822509939085" y1="38.6274169979695" x2="92.1644604371892" y2="46.9096264412502" style="stroke:rgb(50,0,199);stroke-width:1.5"/>
<line x1="80.8507519382044" y1="49.9411254969543" x2="83.8822509939085" y2="61.254833995939" style="stroke:rgb(50,0,199);stroke-width:1.5"/>
<line x1="80.8507519382044" y1="49.9411254969543" x2="92.1644604371892" y2="46.9096264412502" style="stroke:rgb(50,0,199);stroke-width:1.5"/>
<line x1="95.1959594928933" y1="35.5959179422654" x2="92.1644604371892" y2="46.9096264412502" style="stroke:rgb(50,0,199);stroke-width:1.5"/>
<line x1="95.1959594928933" y1="35.5959179422654" x2="106.509667991878" y2="38.6274169979695" style="stroke:rgb(50,0,199);stroke-width:1.5"/>
<line x1="92.1644604371892" y1="46.9096264412502" x2="95.1959594928933" y2="58.2233349402349" style="stroke:rgb(50,0,199);stroke-width:1.5"/>
<line x1="92.1644604371892" y1="46.9096264412502" x2="103.478168936174" y2="49.9411254969543" style="stroke:rgb(50,0,199);stroke-width:1.5"/>
<line x1="95.1959594928933" y1="58.2233349402349" x2="103.478168936174" y2="49.9411254969543" style="stroke:rgb(50,0,199);stroke-width:1.5"/>
<line x1="83.8822509939085" y1="61.254833995939" x2="80.8507519382044" y2="72.5685424949238" style="stroke:rgb(50,0,199);stroke-width:1.5"/>
<line x1="83.8822509939085" y1="61.254833995939" x2="95.1959594928933" y2="58.2233349402349" style="stroke:rgb(50,0,199);stroke-width:1.5"/>
<line x1="83.8822509939085" y1="61.254833995939" x2="92.1644604371892" y2="69.5370434392197" style="stroke:rgb(50,0,199);stroke-width:1.5"/>
<line x1="80.8507519382044" y1="72.5685424949238" x2="83.8822509939085" y2="83.8822509939086" style="stroke:rgb(50,0,199);stroke-width:1.5"/>
<line x1="80.8507519382044" y1="72.5685424949238" x2="92.1644604371892" y2="69.5370434392197" style="stroke:rgb(50,0,199);stroke-width:1.5"/>
<line x1="95.1959594928933" y1="58.2233349402349" x2="92.1644604371892" y2="69.5370434392197" style="stroke:rgb(50,0,199);stroke-width:1.5"/>
<line x1="95.1959594928933" y1="58.2233349402349" x2="106.509667991878" y2="61.254833995939" style="stroke:rgb(50,0,199);stroke-width:1.5"/>
<line x1="92.1644604371892" y1="69.5370434392197" x2="95.1959594928933" y2="80.8507519382045" style="stroke:rgb(50,0,199);stroke-width:1.5"/>
<line x1="92.1644604371892" y1="69.5370434392197" x2="103.478168936174" y2="72.5685424949238" style="stroke:rgb(50,0,199);stroke-width:1.5"/>
<line x1="95.1959594928933" y1="80.8507519382045" x2="103.478168936174" y2="72.5685424949238" style="stroke:rgb(50,0,199);stroke-width:1.5"/>
<line x1="83.8822509939085" y1="83.8822509939086" x2="80.8507519382044" y2="95.1959594928933" style="stroke:rgb(50,0,199);stroke-width:1.5"/>
<line x1="83.8822509939085" y1="83.8822509939086" x2="95.1959594928933" y2="80.8507519382045" style="stroke:rgb(50,0,199);stroke-width:1.5"/>
<line x1="83.8822509939085" y1="83.8822509939086" x2="92.1644604371892" y2="92.1644604371892" style="stroke:rgb(50,0,199);stroke-width:1.5"/>
<line x1="80.8507519382044" y1="95.1959594928933" x2="83.8822509939085" y2="106.509667991878" style="stroke:rgb(50,0,199);stroke-width:1.5"/>
<line x1="80.8507519382044" y1="95.1959594928933" x2="92.1644604371892" y2="92.1644604371892" style="stroke:rgb(50,0,199);stroke-width:1.5"/>
<line x1="95.1959594928933" y1="80.8507519382045" x2="92.1644604371892" y2="92.1644604371892" style="stroke:rgb(50,0,199);stroke-width:1.5"/>
<line x1="95.1959594928933" y1="80.8507519382045" x2="106.509667991878" y2="83.8822509939086" style="stroke:rgb(50,0,199);stroke-width:1.5"/>
<line x1="92.1644604371892" y1="92.1644604371892" x2="95.1959594928933" y2="103.478168936174" style="stroke:rgb(50,0,199);stroke-width:1.5"/>
<line x1="92.1644604371892" y1="92.1644604371892" x2="103.478168936174" y2="95.1959594928933" style="stroke:rgb(50,0,199);stroke-width:1.5"/>
<line x1="95.1959594928933" y1="103.478168936174" x2="103.478168936174" y2="95.1959594928933" style="stroke:rgb(50,0,199);stroke-width:1.5"/>
<line x1="83.8822509939085" y1="106.509667991878" x2="95.1959594928933" y2="103.478168936174" style="stroke:rgb(50,0,199);stroke-width:1.5"/>
<line x1="95.1959594928933" y1="103.478168936174" x2="106.509667991878" y2="106.509667991878" style="stroke:rgb(50,0,199);stroke-width:1.5"/>
<line x1="106.509667991878" y1="16" x2="103.478168936174" y2="27.3137084989848" style="stroke:rgb(50,0,199);stroke-width:1.5"/>
<line x1="103.478168936174" y1="27.3137084989848" x2="106.509667991878" y2="38.6274169979695" style="stroke:rgb(50,0,199);stroke-width:1.5"/>
<line x1="106.509667991878" y1="38.6274169979695" x2="103.478168936174" y2="49.9411254969543" style="stroke:rgb(50,0,199);stroke-width:1.5"/>
<line x1="103.478168936174" y1="49.9411254969543" x2="106.509667991878" y2="61.254833995939" style="stroke:rgb(50,0,199);stroke-width:1.5"/>
<line x1="106.509667991878" y1="61.254833995939" x2="103.478168936174" y2="72.5685424949238" style="stroke:rgb(50,0,199);stroke-width:1.5"/>
<line x1="103.478168936174" y1="72.5685424949238" x2="106.509667991878" y2="83.8822509939086" style="stroke:rgb(50,0,199);stroke-width:1.5"/>
<line x1="106.509667991878" y1="83.8822509939086" x2="103.478168936174" y2="95.1959594928933" style="stroke:rgb(50,0,199);stroke-width:1.5"/>
<line x1="103.478168936174" y1="95.1959594928933" x2="106.509667991878" y2="106.509667991878" style="stroke:rgb(50,0,199);stroke-width:1.5"/>
</svg>
