<?xml version="1.0" standalone="no"?> <!DOCTYPE svg PUBLIC "-//W3C//DTD SVG 1.1//EN" "http://www.w3.org/Graphics/SVG/1.1/DTD/svg11.dtd">
<svg width="2000" height="2000" version="1.1" xmlns="http://www.w3.org/2000/svg">
<line x1="76.833103968574" y1="54.72" x2="4.56" y2="96.446896031426" style="stroke:rgb(80,80,80);stroke-width:1.2"/>
<line x1="76.833103968574" y1="54.72" x2="149.106207937148" y2="96.446896031426" style="stroke:rgb(80,80,80);stroke-width:1.2"/>
<line x1="4.56" y1="96.446896031426" x2="4.56" y2="179.900688094278" style="stroke:rgb(80,80,80);stroke-width:1.2"/>
<line x1="4.56" y1="179.900688094278" x2="76.833103968574" y2="221.627584125704" style="stroke:rgb(80,80,80);stroke-width:1.2"/>
<line x1="76.833103968574" y1="221.627584125704" x2="149.106207937148" y2="179.900688094278" style="stroke:rgb(80,80,80);stroke-width:1.2"/>
<line x1="76.833103968574" y1="221.627584125704" x2="76.833103968574" y2="305.081376188556" style="stroke:rgb(80,80,80);stroke-width:1.2"/>
<line x1="76.833103968574" y1="305.081376188556" x2="4.56" y2="346.808272219982" style="stroke:rgb(80,80,80);stroke-width:1.2"/>
<line x1="76.833103968574" y1="305.081376188556" x2="149.106207937148" y2="346.808272219982" style="stroke:rgb(80,80,80);stroke-width:1.2"/>
<line x1="4.56" y1="346.808272219982" x2="4.56" y2="430.262064282834" style="stroke:rgb(80,80,80);stroke-width:1.2"/>
<line x1="4.56" y1="430.262064282834" x2="76.833103968574" y2="471.98896031426" style="stroke:rgb(80,80,80);stroke-width:1.2"/>
<line x1="76.833103968574" y1="471.98896031426" x2="149.106207937148" y2="430.262064282834" style="stroke:rgb(80,80,80);stroke-width:1.2"/>
<line x1="76.833103968574" y1="471.98896031426" x2="76.833103968574" y2="555.442752377112" style="stroke:rgb(80,80,80);stroke-width:1.2"/>
<line x1="76.833103968574" y1="555.442752377112" x2="4.56" y2="597.169648408538" style="stroke:rgb(80,80,80);stroke-width:1.2"/>
<line x1="76.833103968574" y1="555.442752377112" x2="149.106207937148" y2="597.169648408538" style="stroke:rgb(80,80,80);stroke-width:1.2"/>
<line x1="4.56" y1="597.169648408538" x2="4.56" y2="680.62344047139" style="stroke:rgb(80,80,80);stroke-width:1.2"/>
<line x1="4.56" y1="680.62344047139" x2="76.833103968574" y2="722.350336502816" style="stroke:rgb(80,80,80);stroke-width:1.2"/>
<line x1="76.833103968574" y1="722.350336502816" x2="149.106207937148" y2="680.62344047139" style="stroke:rgb(80,80,80);stroke-width:1.2"/>
<line x1="76.833103968574" y1="722.350336502816" x2="76.833103968574" y2="805.804128565668" style="stroke:rgb(80,80,80);stroke-width:1.2"/>
<line x1="76.833103968574" y1="805.804128565668" x2="4.56" y2="847.531024597094" style="stroke:rgb(80,80,80);stroke-width:1.2"/>
<line x1="76.833103968574" y1="805.804128565668" x2="149.106207937148" y2="847.531024597094" style="stroke:rgb(80,80,80);stroke-width:1.2"/>
<line x1="4.56" y1="847.531024597094" x2="4.56" y2="930.984816659946" style="stroke:rgb(80,80,80);stroke-width:1.2"/>
<line x1="4.56" y1="930.984816659946" x2="76.833103968574" y2="972.711712691372" style="stroke:rgb(80,80,80);stroke-width:1.2"/>
<line x1="76.833103968574" y1="972.711712691372" x2="149.106207937148" y2="930.984816659946" style="stroke:rgb(80,80,80);stroke-width:1.2"/>
<line x1="76.833103968574" y1="972.711712691372" x2="76.833103968574" y2="1056.16550475422" style="stroke:rgb(80,80,80);stroke-width:1.2"/>
<line x1="76.833103968574" y1="1056.16550475422" x2="4.56" y2="1097.89240078565" style="stroke:rgb(80,80,80);stroke-width:1.2"/>
<line x1="76.833103968574" y1="1056.16550475422" x2="149.106207937148" y2="1097.89240078565" style="stroke:rgb(80,80,80);stroke-width:1.2"/>
<line x1="4.56" y1="1097.89240078565" x2="4.56" y2="1181.3461928485" style="stroke:rgb(80,80,80);stroke-width:1.2"/>
<line x1="4.56" y1="1181.3461928485" x2="76.833103968574" y2="1223.07308887993" style="stroke:rgb(80,80,80);stroke-width:1.2"/>
<line x1="76.833103968574" y1="1223.07308887993" x2="149.106207937148" y2="1181.3461928485" style="stroke:rgb(80,80,80);stroke-width:1.2"/>
<line x1="76.833103968574" y1="1223.07308887993" x2="76.833103968574" y2="1306.52688094278" style="stroke:rgb(80,80,80);stroke-width:1.2"/>
<line x1="76.833103968574" y1="1306.52688094278" x2="4.56" y2="1348.25377697421" style="stroke:rgb(80,80,80);stroke-width:1.2"/>
<line x1="76.833103968574" y1="1306.52688094278" x2="149.106207937148" y2="1348.25377697421" style="stroke:rgb(80,80,80);stroke-width:1.2"/>
<line x1="4.56" y1="1348.25377697421" x2="4.56" y2="1431.70756903706" style="stroke:rgb(80,80,80);stroke-width:1.2"/>
<line x1="4.56" y1="1431.70756903706" x2="76.833103968574" y2="1473.43446506848" style="stroke:rgb(80,80,80);stroke-width:1.2"/>
<line x1="76.833103968574" y1="1473.43446506848" x2="149.106207937148" y2="1431.70756903706" style="stroke:rgb(80,80,80);stroke-width:1.2"/>
<line x1="76.833103968574" y1="1473.43446506848" x2="76.833103968574" y2="1556.88825713134" style="stroke:rgb(80,80,80);stroke-width:1.2"/>
<line x1="76.833103968574" y1="1556.88825713134" x2="4.56" y2="1598.61515316276" style="stroke:rgb(80,80,80);stroke-width:1.2"/>
<line x1="76.833103968574" y1="1556.88825713134" x2="149.106207937148" y2="1598.61515316276" style="stroke:rgb(80,80,80);stroke-width:1.2"/>
<line x1="221.379311905722" y1="54.72" x2="149.106207937148" y2="96.446896031426" style="stroke:rgb(80,80,80);stroke-width:1.2"/>
<line x1="221.379311905722" y1="54.72" x2="293.652415874296" y2="96.446896031426" style="stroke:rgb(80,80,80);stroke-width:1.2"/>
<line x1="149.106207937148" y1="96.446896031426" x2="149.106207937148" y2="179.900688094278" style="stroke:rgb(80,80,80);stroke-width:1.2"/>
<line x1="149.106207937148" y1="179.900688094278" x2="221.379311905722" y2="221.627584125704" style="stroke:rgb(80,80,80);stroke-width:1.2"/>
<line x1="221.379311905722" y1="221.627584125704" x2="293.652415874296" y2="179.900688094278" style="stroke:rgb(80,80,80);stroke-width:1.2"/>
<line x1="221.379311905722" y1="221.627584125704" x2="221.379311905722" y2="305.081376188556" style="stroke:rgb(80,80,80);stroke-width:1.2"/>
<line x1="221.379311905722" y1="305.081376188556" x2="149.106207937148" y2="346.808272219982" style="stroke:rgb(80,80,80);stroke-width:1.2"/>
<line x1="221.379311905722" y1="305.081376188556" x2="293.652415874296" y2="346.808272219982" style="stroke:rgb(80,80,80);stroke-width:1.2"/>
<line x1="149.106207937148" y1="346.808272219982" x2="149.106207937148" y2="430.262064282834" style="stroke:rgb(80,80,80);stroke-width:1.2"/>
<line x1="149.106207937148" y1="430.262064282834" x2="221.379311905722" y2="471.98896031426" style="stroke:rgb(80,80,80);stroke-width:1.2"/>
<line x1="221.379311905722" y1="471.98896031426" x2="293.652415874296" y2="430.262064282834" style="stroke:rgb(80,80,80);stroke-width:1.2"/>
<line x1="221.379311905722" y1="471.98896031426" x2="221.379311905722" y2="555.442752377112" style="stroke:rgb(80,80,80);stroke-width:1.2"/>
<line x1="221.379311905722" y1="555.442752377112" x2="149.106207937148" y2="597.169648408538" style="stroke:rgb(80,80,80);stroke-width:1.2"/>
<line x1="221.379311905722" y1="555.442752377112" x2="293.652415874296" y2="597.169648408538" style="stroke:rgb(80,80,80);stroke-width:1.2"/>
<line x1="149.106207937148" y1="597.169648408538" x2="149.106207937148" y2="680.62344047139" style="stroke:rgb(80,80,80);stroke-width:1.2"/>
<line x1="149.106207937148" y1="680.62344047139" x2="221.379311905722" y2="722.350336502816" style="stroke:rgb(80,80,80);stroke-width:1.2"/>
<line x1="221.379311905722" y1="722.350336502816" x2="293.652415874296" y2="680.62344047139" style="stroke:rgb(80,80,80);stroke-width:1.2"/>
<line x1="221.379311905722" y1="722.350336502816" x2="221.379311905722" y2="805.804128565668" style="stroke:rgb(80,80,80);stroke-width:1.2"/>
<line x1="221.379311905722" y1="805.804128565668" x2="149.106207937148" y2="847.531024597094" style="stroke:rgb(80,80,80);stroke-width:1.2"/>
<line x1="221.379311905722" y1="805.804128565668" x2="293.652415874296" y2="847.531024597094" style="stroke:rgb(80,80,80);stroke-width:1.2"/>
<line x1="149.106207937148" y1="847.531024597094" x2="149.106207937148" y2="930.984816659946" style="stroke:rgb(80,80,80);stroke-width:1.2"/>
<line x1="149.106207937148" y1="930.984816659946" x2="221.379311905722" y2="972.711712691372" style="stroke:rgb(80,80,80);stroke-width:1.2"/>
<line x1="221.379311905722" y1="972.711712691372" x2="293.652415874296" y2="930.984816659946" style="stroke:rgb(80,80,80);stroke-width:1.2"/>
<line x1="221.379311905722" y1="972.711712691372" x2="221.379311905722" y2="1056.16550475422" style="stroke:rgb(80,80,80);stroke-width:1.2"/>
<line x1="221.379311905722" y1="1056.16550475422" x2="149.106207937148" y2="1097.89240078565" style="stroke:rgb(80,80,80);stroke-width:1.2"/>
<line x1="221.379311905722" y1="1056.16550475422" x2="293.652415874296" y2="1097.89240078565" style="stroke:rgb(80,80,80);stroke-width:1.2"/>
<line x1="149.106207937148" y1="1097.89240078565" x2="149.106207937148" y2="1181.3461928485" style="stroke:rgb(80,80,80);stroke-width:1.2"/>
<line x1="149.106207937148" y1="1181.3461928485" x2="221.379311905722" y2="1223.07308887993" style="stroke:rgb(80,80,80);stroke-width:1.2"/>
<line x1="221.379311905722" y1="1223.07308887993" x2="293.652415874296" y2="1181.3461928485" style="stroke:rgb(80,80,80);stroke-width:1.2"/>
<line x1="221.379311905722" y1="1223.07308887993" x2="221.379311905722" y2="1306.52688094278" style="stroke:rgb(80,80,80);stroke-width:1.2"/>
<line x1="221.379311905722" y1="1306.52688094278" x2="149.106207937148" y2="1348.25377697421" style="stroke:rgb(80,80,80);stroke-width:1.2"/>
<line x1="221.379311905722" y1="1306.52688094278" x2="293.652415874296" y2="1348.25377697421" style="stroke:rgb(80,80,80);stroke-width:1.2"/>
<line x1="149.106207937148" y1="1348.25377697421" x2="149.106207937148" y2="1431.70756903706" style="stroke:rgb(80,80,80);stroke-width:1.2"/>
<line x1="149.106207937148" y1="1431.70756903706" x2="221.379311905722" y2="1473.43446506848" style="stroke:rgb(80,80,80);stroke-width:1.2"/>
<line x1="221.379311905722" y1="1473.43446506848" x2="293.652415874296" y2="1431.70756903706" style="stroke:rgb(80,80,80);stroke-width:1.2"/>
<line x1="221.379311905722" y1="1473.43446506848" x2="221.379311905722" y2="1556.88825713134" style="stroke:rgb(80,80,80);stroke-width:1.2"/>
<line x1="221.379311905722" y1="1556.88825713134" x2="149.106207937148" y2="1598.61515316276" style="stroke:rgb(80,80,80);stroke-width:1.2"/>
<line x1="221.379311905722" y1="1556.88825713134" x2="293.652415874296" y2="1598.61515316276" style="stroke:rgb(80,80,80);stroke-width:1.2"/>
<line x1="365.92551984287" y1="54.72" x2="293.652415874296" y2="96.446896031426" style="stroke:rgb(80,80,80);stroke-width:1.2"/>
<line x1="365.92551984287" y1="54.72" x2="438.198623811444" y2="96.446896031426" style="stroke:rgb(80,80,80);stroke-width:1.2"/>
<line x1="293.652415874296" y1="96.446896031426" x2="293.652415874296" y2="179.900688094278" style="stroke:rgb(80,80,80);stroke-width:1.2"/>
<line x1="293.652415874296" y1="179.900688094278" x2="365.92551984287" y2="221.627584125704" style="stroke:rgb(80,80,80);stroke-width:1.2"/>
<line x1="365.92551984287" y1="221.627584125704" x2="438.198623811444" y2="179.900688094278" style="stroke:rgb(80,80,80);stroke-width:1.2"/>
<line x1="365.92551984287" y1="221.627584125704" x2="365.92551984287" y2="305.081376188556" style="stroke:rgb(80,80,80);stroke-width:1.2"/>
<line x1="365.92551984287" y1="305.081376188556" x2="293.652415874296" y2="346.808272219982" style="stroke:rgb(80,80,80);stroke-width:1.2"/>
<line x1="365.92551984287" y1="305.081376188556" x2="438.198623811444" y2="346.808272219982" style="stroke:rgb(80,80,80);stroke-width:1.2"/>
<line x1="293.652415874296" y1="346.808272219982" x2="293.652415874296" y2="430.262064282834" style="stroke:rgb(80,80,80);stroke-width:1.2"/>
<line x1="293.652415874296" y1="430.262064282834" x2="365.92551984287" y2="471.98896031426" style="stroke:rgb(80,80,80);stroke-width:1.2"/>
<line x1="365.92551984287" y1="471.98896031426" x2="438.198623811444" y2="430.262064282834" style="stroke:rgb(80,80,80);stroke-width:1.2"/>
<line x1="365.92551984287" y1="471.98896031426" x2="365.92551984287" y2="555.442752377112" style="stroke:rgb(80,80,80);stroke-width:1.2"/>
<line x1="365.92551984287" y1="555.442752377112" x2="293.652415874296" y2="597.169648408538" style="stroke:rgb(80,80,80);stroke-width:1.2"/>
<line x1="365.92551984287" y1="555.442752377112" x2="438.198623811444" y2="597.169648408538" style="stroke:rgb(80,80,80);stroke-width:1.2"/>
<line x1="293.652415874296" y1="597.169648408538" x2="293.652415874296" y2="680.62344047139" style="stroke:rgb(80,80,80);stroke-width:1.2"/>
<line x1="293.652415874296" y1="680.62344047139" x2="365.92551984287" y2="722.350336502816" style="stroke:rgb(80,80,80);stroke-width:1.2"/>
<line x1="365.92551984287" y1="722.350336502816" x2="438.198623811444" y2="680.62344047139" style="stroke:rgb(80,80,80);stroke-width:1.2"/>
<line x1="365.92551984287" y1="722.350336502816" x2="365.92551984287" y2="805.804128565668" style="stroke:rgb(80,80,80);stroke-width:1.2"/>
<line x1="365.92551984287" y1="805.804128565668" x2="293.652415874296" y2="847.531024597094" style="stroke:rgb(80,80,80);stroke-width:1.2"/>
<line x1="365.92551984287" y1="805.804128565668" x2="438.198623811444" y2="847.531024597094" style="stroke:rgb(80,80,80);stroke-width:1.2"/>
<line x1="293.652415874296" y1="847.531024597094" x2="293.652415874296" y2="930.984816659946" style="stroke:rgb(80,80,80);stroke-width:1.2"/>
<line x1="293.652415874296" y1="930.984816659946" x2="365.92551984287" y2="972.711712691372" style="stroke:rgb(80,80,80);stroke-width:1.2"/>
<line x1="365.92551984287" y1="972.711712691372" x2="438.198623811444" y2="930.984816659946" style="stroke:rgb(80,80,80);stroke-width:1.2"/>
<line x1="365.92551984287" y1="972.711712691372" x2="365.92551984287" y2="1056.16550475422" style="stroke:rgb(80,80,80);stroke-width:1.2"/>
<line x1="365.92551984287" y1="1056.16550475422" x2="293.652415874296" y2="1097.89240078565" style="stroke:rgb(80,80,80);stroke-width:1.2"/>
<line x1="365.92551984287" y1="1056.16550475422" x2="438.198623811444" y2="1097.89240078565" style="stroke:rgb(80,80,80);stroke-width:1.2"/>
<line x1="293.652415874296" y1="1097.89240078565" x2="293.652415874296" y2="1181.3461928485" style="stroke:rgb(80,80,80);stroke-width:1.2"/>
<line x1="293.652415874296" y1="1181.3461928485" x2="365.92551984287" y2="1223.07308887993" style="stroke:rgb(80,80,80);stroke-width:1.2"/>
<line x1="365.92551984287" y1="1223.07308887993" x2="438.198623811444" y2="1181.3461928485" style="stroke:rgb(80,80,80);stroke-width:1.2"/>
<line x1="365.92551984287" y1="1223.07308887993" x2="365.92551984287" y2="1306.52688094278" style="stroke:rgb(80,80,80);stroke-width:1.2"/>
<line x1="365.92551984287" y1="1306.52688094278" x2="293.652415874296" y2="1348.25377697421" style="stroke:rgb(80,80,80);stroke-width:1.2"/>
<line x1="365.92551984287" y1="1306.52688094278" x2="438.198623811444" y2="1348.25377697421" style="stroke:rgb(80,80,80);stroke-width:1.2"/>
<line x1="293.652415874296" y1="1348.25377697421" x2="293.652415874296" y2="1431.70756903706" style="stroke:rgb(80,80,80);stroke-width:1.2"/>
<line x1="293.652415874296" y1="1431.70756903706" x2="365.92551984287" y2="1473.43446506848" style="stroke:rgb(80,80,80);stroke-width:1.2"/>
<line x1="365.92551984287" y1="1473.43446506848" x2="438.198623811444" y2="1431.70756903706" style="stroke:rgb(80,80,80);stroke-width:1.2"/>
<line x1="365.92551984287" y1="1473.43446506848" x2="365.92551984287" y2="1556.88825713134" style="stroke:rgb(80,80,80);stroke-width:1.2"/>
<line x1="365.92551984287" y1="1556.88825713134" x2="293.652415874296" y2="1598.61515316276" style="stroke:rgb(80,80,80);stroke-width:1.2"/>
<line x1="365.92551984287" y1="1556.88825713134" x2="438.198623811444" y2="1598.61515316276" style="stroke:rgb(80,80,80);stroke-width:1.2"/>
<line x1="510.471727780018" y1="54.72" x2="438.198623811444" y2="96.446896031426" style="stroke:rgb(80,80,80);stroke-width:1.2"/>
<line x1="510.471727780018" y1="54.72" x2="582.744831748592" y2="96.446896031426" style="stroke:rgb(80,80,80);stroke-width:1.2"/>
<line x1="438.198623811444" y1="96.446896031426" x2="438.198623811444" y2="179.900688094278" style="stroke:rgb(80,80,80);stroke-width:1.2"/>
<line x1="438.198623811444" y1="179.900688094278" x2="510.471727780018" y2="221.627584125704" style="stroke:rgb(80,80,80);stroke-width:1.2"/>
<line x1="510.471727780018" y1="221.627584125704" x2="582.744831748592" y2="179.900688094278" style="stroke:rgb(80,80,80);stroke-width:1.2"/>
<line x1="510.471727780018" y1="221.627584125704" x2="510.471727780018" y2="305.081376188556" style="stroke:rgb(80,80,80);stroke-width:1.2"/>
<line x1="510.471727780018" y1="305.081376188556" x2="438.198623811444" y2="346.808272219982" style="stroke:rgb(80,80,80);stroke-width:1.2"/>
<line x1="510.471727780018" y1="305.081376188556" x2="582.744831748592" y2="346.808272219982" style="stroke:rgb(80,80,80);stroke-width:1.2"/>
<line x1="438.198623811444" y1="346.808272219982" x2="438.198623811444" y2="430.262064282834" style="stroke:rgb(80,80,80);stroke-width:1.2"/>
<line x1="438.198623811444" y1="430.262064282834" x2="510.471727780018" y2="471.98896031426" style="stroke:rgb(80,80,80);stroke-width:1.2"/>
<line x1="510.471727780018" y1="471.98896031426" x2="582.744831748592" y2="430.262064282834" style="stroke:rgb(80,80,80);stroke-width:1.2"/>
<line x1="510.471727780018" y1="471.98896031426" x2="510.471727780018" y2="555.442752377112" style="stroke:rgb(80,80,80);stroke-width:1.2"/>
<line x1="510.471727780018" y1="555.442752377112" x2="438.198623811444" y2="597.169648408538" style="stroke:rgb(80,80,80);stroke-width:1.2"/>
<line x1="510.471727780018" y1="555.442752377112" x2="582.744831748592" y2="597.169648408538" style="stroke:rgb(80,80,80);stroke-width:1.2"/>
<line x1="438.198623811444" y1="597.169648408538" x2="438.198623811444" y2="680.62344047139" style="stroke:rgb(80,80,80);stroke-width:1.2"/>
<line x1="438.198623811444" y1="680.62344047139" x2="510.471727780018" y2="722.350336502816" style="stroke:rgb(80,80,80);stroke-width:1.2"/>
<line x1="510.471727780018" y1="722.350336502816" x2="582.744831748592" y2="680.62344047139" style="stroke:rgb(80,80,80);stroke-width:1.2"/>
<line x1="510.471727780018" y1="722.350336502816" x2="510.471727780018" y2="805.804128565668" style="stroke:rgb(80,80,80);stroke-width:1.2"/>
<line x1="510.471727780018" y1="805.804128565668" x2="438.198623811444" y2="847.531024597094" style="stroke:rgb(80,80,80);stroke-width:1.2"/>
<line x1="510.471727780018" y1="805.804128565668" x2="582.744831748592" y2="847.531024597094" style="stroke:rgb(80,80,80);stroke-width:1.2"/>
<line x1="438.198623811444" y1="847.531024597094" x2="438.198623811444" y2="930.984816659946" style="stroke:rgb(80,80,80);stroke-width:1.2"/>
<line x1="438.198623811444" y1="930.984816659946" x2="510.471727780018" y2="972.711712691372" style="stroke:rgb(80,80,80);stroke-width:1.2"/>
<line x1="510.471727780018" y1="972.711712691372" x2="582.744831748592" y2="930.984816659946" style="stroke:rgb(80,80,80);stroke-width:1.2"/>
<line x1="510.471727780018" y1="972.711712691372" x2="510.471727780018" y2="1056.16550475422" style="stroke:rgb(80,80,80);stroke-width:1.2"/>
<line x1="510.471727780018" y1="1056.16550475422" x2="438.198623811444" y2="1097.89240078565" style="stroke:rgb(80,80,80);stroke-width:1.2"/>
<line x1="510.471727780018" y1="1056.16550475422" x2="582.744831748592" y2="1097.89240078565" style="stroke:rgb(80,80,80);stroke-width:1.2"/>
<line x1="438.198623811444" y1="1097.89240078565" x2="438.198623811444" y2="1181.3461928485" style="stroke:rgb(80,80,80);stroke-width:1.2"/>
<line x1="438.198623811444" y1="1181.3461928485" x2="510.471727780018" y2="1223.07308887993" style="stroke:rgb(80,80,80);stroke-width:1.2"/>
<line x1="510.471727780018" y1="1223.07308887993" x2="582.744831748592" y2="1181.3461928485" style="stroke:rgb(80,80,80);stroke-width:1.2"/>
<line x1="510.471727780018" y1="1223.07308887993" x2="510.471727780018" y2="1306.52688094278" style="stroke:rgb(80,80,80);stroke-width:1.2"/>
<line x1="510.471727780018" y1="1306.52688094278" x2="438.198623811444" y2="1348.25377697421" style="stroke:rgb(80,80,80);stroke-width:1.2"/>
<line x1="510.471727780018" y1="1306.52688094278" x2="582.744831748592" y2="1348.25377697421" style="stroke:rgb(80,80,80);stroke-width:1.2"/>
<line x1="438.198623811444" y1="1348.25377697421" x2="438.198623811444" y2="1431.70756903706" style="stroke:rgb(80,80,80);stroke-width:1.2"/>
<line x1="438.198623811444" y1="1431.70756903706" x2="510.471727780018" y2="1473.43446506848" style="stroke:rgb(80,80,80);stroke-width:1.2"/>
<line x1="510.471727780018" y1="1473.43446506848" x2="582.744831748592" y2="1431.70756903706" style="stroke:rgb(80,80,80);stroke-width:1.2"/>
<line x1="510.471727780018" y1="1473.43446506848" x2="510.471727780018" y2="1556.88825713134" style="stroke:rgb(80,80,80);stroke-width:1.2"/>
<line x1="510.471727780018" y1="1556.88825713134" x2="438.198623811444" y2="1598.61515316276" style="stroke:rgb(80,80,80);stroke-width:1.2"/>
<line x1="510.471727780018" y1="1556.88825713134" x2="582.744831748592" y2="1598.61515316276" style="stroke:rgb(80,80,80);stroke-width:1.2"/>
<line x1="655.017935717166" y1="54.72" x2="582.744831748592" y2="96.446896031426" style="stroke:rgb(80,80,80);stroke-width:1.2"/>
<line x1="655.017935717166" y1="54.72" x2="727.29103968574" y2="96.446896031426" style="stroke:rgb(80,80,80);stroke-width:1.2"/>
<line x1="582.744831748592" y1="96.446896031426" x2="582.744831748592" y2="179.900688094278" style="stroke:rgb(80,80,80);stroke-width:1.2"/>
<line x1="582.744831748592" y1="179.900688094278" x2="655.017935717166" y2="221.627584125704" style="stroke:rgb(80,80,80);stroke-width:1.2"/>
<line x1="655.017935717166" y1="221.627584125704" x2="727.29103968574" y2="179.900688094278" style="stroke:rgb(80,80,80);stroke-width:1.2"/>
<line x1="655.017935717166" y1="221.627584125704" x2="655.017935717166" y2="305.081376188556" style="stroke:rgb(80,80,80);stroke-width:1.2"/>
<line x1="655.017935717166" y1="305.081376188556" x2="582.744831748592" y2="346.808272219982" style="stroke:rgb(80,80,80);stroke-width:1.2"/>
<line x1="655.017935717166" y1="305.081376188556" x2="727.29103968574" y2="346.808272219982" style="stroke:rgb(80,80,80);stroke-width:1.2"/>
<line x1="582.744831748592" y1="346.808272219982" x2="582.744831748592" y2="430.262064282834" style="stroke:rgb(80,80,80);stroke-width:1.2"/>
<line x1="582.744831748592" y1="430.262064282834" x2="655.017935717166" y2="471.98896031426" style="stroke:rgb(80,80,80);stroke-width:1.2"/>
<line x1="655.017935717166" y1="471.98896031426" x2="727.29103968574" y2="430.262064282834" style="stroke:rgb(80,80,80);stroke-width:1.2"/>
<line x1="655.017935717166" y1="471.98896031426" x2="655.017935717166" y2="555.442752377112" style="stroke:rgb(80,80,80);stroke-width:1.2"/>
<line x1="655.017935717166" y1="555.442752377112" x2="582.744831748592" y2="597.169648408538" style="stroke:rgb(80,80,80);stroke-width:1.2"/>
<line x1="655.017935717166" y1="555.442752377112" x2="727.29103968574" y2="597.169648408538" style="stroke:rgb(80,80,80);stroke-width:1.2"/>
<line x1="582.744831748592" y1="597.169648408538" x2="582.744831748592" y2="680.62344047139" style="stroke:rgb(80,80,80);stroke-width:1.2"/>
<line x1="582.744831748592" y1="680.62344047139" x2="655.017935717166" y2="722.350336502816" style="stroke:rgb(80,80,80);stroke-width:1.2"/>
<line x1="655.017935717166" y1="722.350336502816" x2="727.29103968574" y2="680.62344047139" style="stroke:rgb(80,80,80);stroke-width:1.2"/>
<line x1="655.017935717166" y1="722.350336502816" x2="655.017935717166" y2="805.804128565668" style="stroke:rgb(80,80,80);stroke-width:1.2"/>
<line x1="655.017935717166" y1="805.804128565668" x2="582.744831748592" y2="847.531024597094" style="stroke:rgb(80,80,80);stroke-width:1.2"/>
<line x1="655.017935717166" y1="805.804128565668" x2="727.29103968574" y2="847.531024597094" style="stroke:rgb(80,80,80);stroke-width:1.2"/>
<line x1="582.744831748592" y1="847.531024597094" x2="582.744831748592" y2="930.984816659946" style="stroke:rgb(80,80,80);stroke-width:1.2"/>
<line x1="582.744831748592" y1="930.984816659946" x2="655.017935717166" y2="972.711712691372" style="stroke:rgb(80,80,80);stroke-width:1.2"/>
<line x1="655.017935717166" y1="972.711712691372" x2="727.29103968574" y2="930.984816659946" style="stroke:rgb(80,80,80);stroke-width:1.2"/>
<line x1="655.017935717166" y1="972.711712691372" x2="655.017935717166" y2="1056.16550475422" style="stroke:rgb(80,80,80);stroke-width:1.2"/>
<line x1="655.017935717166" y1="1056.16550475422" x2="582.744831748592" y2="1097.89240078565" style="stroke:rgb(80,80,80);stroke-width:1.2"/>
<line x1="655.017935717166" y1="1056.16550475422" x2="727.29103968574" y2="1097.89240078565" style="stroke:rgb(80,80,80);stroke-width:1.2"/>
<line x1="582.744831748592" y1="1097.89240078565" x2="582.744831748592" y2="1181.3461928485" style="stroke:rgb(80,80,80);stroke-width:1.2"/>
<line x1="582.744831748592" y1="1181.3461928485" x2="655.017935717166" y2="1223.07308887993" style="stroke:rgb(80,80,80);stroke-width:1.2"/>
<line x1="655.017935717166" y1="1223.07308887993" x2="727.29103968574" y2="1181.3461928485" style="stroke:rgb(80,80,80);stroke-width:1.2"/>
<line x1="655.017935717166" y1="1223.07308887993" x2="655.017935717166" y2="1306.52688094278" style="stroke:rgb(80,80,80);stroke-width:1.2"/>
<line x1="655.017935717166" y1="1306.52688094278" x2="582.744831748592" y2="1348.25377697421" style="stroke:rgb(80,80,80);stroke-width:1.2"/>
<line x1="655.017935717166" y1="1306.52688094278" x2="727.29103968574" y2="1348.25377697421" style="stroke:rgb(80,80,80);stroke-width:1.2"/>
<line x1="582.744831748592" y1="1348.25377697421" x2="582.744831748592" y2="1431.70756903706" style="stroke:rgb(80,80,80);stroke-width:1.2"/>
<line x1="582.744831748592" y1="1431.70756903706" x2="655.017935717166" y2="1473.43446506848" style="stroke:rgb(80,80,80);stroke-width:1.2"/>
<line x1="655.017935717166" y1="1473.43446506848" x2="727.29103968574" y2="1431.70756903706" style="stroke:rgb(80,80,80);stroke-width:1.2"/>
<line x1="655.017935717166" y1="1473.43446506848" x2="655.017935717166" y2="1556.88825713134" style="stroke:rgb(80,80,80);stroke-width:1.2"/>
<line x1="655.017935717166" y1="1556.88825713134" x2="582.744831748592" y2="1598.61515316276" style="stroke:rgb(80,80,80);stroke-width:1.2"/>
<line x1="655.017935717166" y1="1556.88825713134" x2="727.29103968574" y2="1598.61515316276" style="stroke:rgb(80,80,80);stroke-width:1.2"/>
<line x1="799.564143654314" y1="54.72" x2="727.29103968574" y2="96.446896031426" style="stroke:rgb(80,80,80);stroke-width:1.2"/>
<line x1="799.564143654314" y1="54.72" x2="871.837247622888" y2="96.446896031426" style="stroke:rgb(80,80,80);stroke-width:1.2"/>
<line x1="727.29103968574" y1="96.446896031426" x2="727.29103968574" y2="179.900688094278" style="stroke:rgb(80,80,80);stroke-width:1.2"/>
<line x1="727.29103968574" y1="179.900688094278" x2="799.564143654314" y2="221.627584125704" style="stroke:rgb(80,80,80);stroke-width:1.2"/>
<line x1="799.564143654314" y1="221.627584125704" x2="871.837247622888" y2="179.900688094278" style="stroke:rgb(80,80,80);stroke-width:1.2"/>
<line x1="799.564143654314" y1="221.627584125704" x2="799.564143654314" y2="305.081376188556" style="stroke:rgb(80,80,80);stroke-width:1.2"/>
<line x1="799.564143654314" y1="305.081376188556" x2="727.29103968574" y2="346.808272219982" style="stroke:rgb(80,80,80);stroke-width:1.2"/>
<line x1="799.564143654314" y1="305.081376188556" x2="871.837247622888" y2="346.808272219982" style="stroke:rgb(80,80,80);stroke-width:1.2"/>
<line x1="727.29103968574" y1="346.808272219982" x2="727.29103968574" y2="430.262064282834" style="stroke:rgb(80,80,80);stroke-width:1.2"/>
<line x1="727.29103968574" y1="430.262064282834" x2="799.564143654314" y2="471.98896031426" style="stroke:rgb(80,80,80);stroke-width:1.2"/>
<line x1="799.564143654314" y1="471.98896031426" x2="871.837247622888" y2="430.262064282834" style="stroke:rgb(80,80,80);stroke-width:1.2"/>
<line x1="799.564143654314" y1="471.98896031426" x2="799.564143654314" y2="555.442752377112" style="stroke:rgb(80,80,80);stroke-width:1.2"/>
<line x1="799.564143654314" y1="555.442752377112" x2="727.29103968574" y2="597.169648408538" style="stroke:rgb(80,80,80);stroke-width:1.2"/>
<line x1="799.564143654314" y1="555.442752377112" x2="871.837247622888" y2="597.169648408538" style="stroke:rgb(80,80,80);stroke-width:1.2"/>
<line x1="727.29103968574" y1="597.169648408538" x2="727.29103968574" y2="680.62344047139" style="stroke:rgb(80,80,80);stroke-width:1.2"/>
<line x1="727.29103968574" y1="680.62344047139" x2="799.564143654314" y2="722.350336502816" style="stroke:rgb(80,80,80);stroke-width:1.2"/>
<line x1="799.564143654314" y1="722.350336502816" x2="871.837247622888" y2="680.62344047139" style="stroke:rgb(80,80,80);stroke-width:1.2"/>
<line x1="799.564143654314" y1="722.350336502816" x2="799.564143654314" y2="805.804128565668" style="stroke:rgb(80,80,80);stroke-width:1.2"/>
<line x1="799.564143654314" y1="805.804128565668" x2="727.29103968574" y2="847.531024597094" style="stroke:rgb(80,80,80);stroke-width:1.2"/>
<line x1="799.564143654314" y1="805.804128565668" x2="871.837247622888" y2="847.531024597094" style="stroke:rgb(80,80,80);stroke-width:1.2"/>
<line x1="727.29103968574" y1="847.531024597094" x2="727.29103968574" y2="930.984816659946" style="stroke:rgb(80,80,80);stroke-width:1.2"/>
<line x1="727.29103968574" y1="930.984816659946" x2="799.564143654314" y2="972.711712691372" style="stroke:rgb(80,80,80);stroke-width:1.2"/>
<line x1="799.564143654314" y1="972.711712691372" x2="871.837247622888" y2="930.984816659946" style="stroke:rgb(80,80,80);stroke-width:1.2"/>
<line x1="799.564143654314" y1="972.711712691372" x2="799.564143654314" y2="1056.16550475422" style="stroke:rgb(80,80,80);stroke-width:1.2"/>
<line x1="799.564143654314" y1="1056.16550475422" x2="727.29103968574" y2="1097.89240078565" style="stroke:rgb(80,80,80);stroke-width:1.2"/>
<line x1="799.564143654314" y1="1056.16550475422" x2="871.837247622888" y2="1097.89240078565" style="stroke:rgb(80,80,80);stroke-width:1.2"/>
<line x1="727.29103968574" y1="1097.89240078565" x2="727.29103968574" y2="1181.3461928485" style="stroke:rgb(80,80,80);stroke-width:1.2"/>
<line x1="727.29103968574" y1="1181.3461928485" x2="799.564143654314" y2="1223.07308887993" style="stroke:rgb(80,80,80);stroke-width:1.2"/>
<line x1="799.564143654314" y1="1223.07308887993" x2="871.837247622888" y2="1181.3461928485" style="stroke:rgb(80,80,80);stroke-width:1.2"/>
<line x1="799.564143654314" y1="1223.07308887993" x2="799.564143654314" y2="1306.52688094278" style="stroke:rgb(80,80,80);stroke-width:1.2"/>
<line x1="799.564143654314" y1="1306.52688094278" x2="727.29103968574" y2="1348.25377697421" style="stroke:rgb(80,80,80);stroke-width:1.2"/>
<line x1="799.564143654314" y1="1306.52688094278" x2="871.837247622888" y2="1348.25377697421" style="stroke:rgb(80,80,80);stroke-width:1.2"/>
<line x1="727.29103968574" y1="1348.25377697421" x2="727.29103968574" y2="1431.70756903706" style="stroke:rgb(80,80,80);stroke-width:1.2"/>
<line x1="727.29103968574" y1="1431.70756903706" x2="799.564143654314" y2="1473.43446506848" style="stroke:rgb(80,80,80);stroke-width:1.2"/>
<line x1="799.564143654314" y1="1473.43446506848" x2="871.837247622888" y2="1431.70756903706" style="stroke:rgb(80,80,80);stroke-width:1.2"/>
<line x1="799.564143654314" y1="1473.43446506848" x2="799.564143654314" y2="1556.88825713134" style="stroke:rgb(80,80,80);stroke-width:1.2"/>
<line x1="799.564143654314" y1="1556.88825713134" x2="727.29103968574" y2="1598.61515316276" style="stroke:rgb(80,80,80);stroke-width:1.2"/>
<line x1="799.564143654314" y1="1556.88825713134" x2="871.837247622888" y2="1598.61515316276" style="stroke:rgb(80,80,80);stroke-width:1.2"/>
<line x1="944.110351591462" y1="54.72" x2="871.837247622888" y2="96.446896031426" style="stroke:rgb(80,80,80);stroke-width:1.2"/>
<line x1="944.110351591462" y1="54.72" x2="1016.38345556004" y2="96.446896031426" style="stroke:rgb(80,80,80);stroke-width:1.2"/>
<line x1="871.837247622888" y1="96.446896031426" x2="871.837247622888" y2="179.900688094278" style="stroke:rgb(80,80,80);stroke-width:1.2"/>
<line x1="871.837247622888" y1="179.900688094278" x2="944.110351591462" y2="221.627584125704" style="stroke:rgb(80,80,80);stroke-width:1.2"/>
<line x1="944.110351591462" y1="221.627584125704" x2="1016.38345556004" y2="179.900688094278" style="stroke:rgb(80,80,80);stroke-width:1.2"/>
<line x1="944.110351591462" y1="221.627584125704" x2="944.110351591462" y2="305.081376188556" style="stroke:rgb(80,80,80);stroke-width:1.2"/>
<line x1="944.110351591462" y1="305.081376188556" x2="871.837247622888" y2="346.808272219982" style="stroke:rgb(80,80,80);stroke-width:1.2"/>
<line x1="944.110351591462" y1="305.081376188556" x2="1016.38345556004" y2="346.808272219982" style="stroke:rgb(80,80,80);stroke-width:1.2"/>
<line x1="871.837247622888" y1="346.808272219982" x2="871.837247622888" y2="430.262064282834" style="stroke:rgb(80,80,80);stroke-width:1.2"/>
<line x1="871.837247622888" y1="430.262064282834" x2="944.110351591462" y2="471.98896031426" style="stroke:rgb(80,80,80);stroke-width:1.2"/>
<line x1="944.110351591462" y1="471.98896031426" x2="1016.38345556004" y2="430.262064282834" style="stroke:rgb(80,80,80);stroke-width:1.2"/>
<line x1="944.110351591462" y1="471.98896031426" x2="944.110351591462" y2="555.442752377112" style="stroke:rgb(80,80,80);stroke-width:1.2"/>
<line x1="944.110351591462" y1="555.442752377112" x2="871.837247622888" y2="597.169648408538" style="stroke:rgb(80,80,80);stroke-width:1.2"/>
<line x1="944.110351591462" y1="555.442752377112" x2="1016.38345556004" y2="597.169648408538" style="stroke:rgb(80,80,80);stroke-width:1.2"/>
<line x1="871.837247622888" y1="597.169648408538" x2="871.837247622888" y2="680.62344047139" style="stroke:rgb(80,80,80);stroke-width:1.2"/>
<line x1="871.837247622888" y1="680.62344047139" x2="944.110351591462" y2="722.350336502816" style="stroke:rgb(80,80,80);stroke-width:1.2"/>
<line x1="944.110351591462" y1="722.350336502816" x2="1016.38345556004" y2="680.62344047139" style="stroke:rgb(80,80,80);stroke-width:1.2"/>
<line x1="944.110351591462" y1="722.350336502816" x2="944.110351591462" y2="805.804128565668" style="stroke:rgb(80,80,80);stroke-width:1.2"/>
<line x1="944.110351591462" y1="805.804128565668" x2="871.837247622888" y2="847.531024597094" style="stroke:rgb(80,80,80);stroke-width:1.2"/>
<line x1="944.110351591462" y1="805.804128565668" x2="1016.38345556004" y2="847.531024597094" style="stroke:rgb(80,80,80);stroke-width:1.2"/>
<line x1="871.837247622888" y1="847.531024597094" x2="871.837247622888" y2="930.984816659946" style="stroke:rgb(80,80,80);stroke-width:1.2"/>
<line x1="871.837247622888" y1="930.984816659946" x2="944.110351591462" y2="972.711712691372" style="stroke:rgb(80,80,80);stroke-width:1.2"/>
<line x1="944.110351591462" y1="972.711712691372" x2="1016.38345556004" y2="930.984816659946" style="stroke:rgb(80,80,80);stroke-width:1.2"/>
<line x1="944.110351591462" y1="972.711712691372" x2="944.110351591462" y2="1056.16550475422" style="stroke:rgb(80,80,80);stroke-width:1.2"/>
<line x1="944.110351591462" y1="1056.16550475422" x2="871.837247622888" y2="1097.89240078565" style="stroke:rgb(80,80,80);stroke-width:1.2"/>
<line x1="944.110351591462" y1="1056.16550475422" x2="1016.38345556004" y2="1097.89240078565" style="stroke:rgb(80,80,80);stroke-width:1.2"/>
<line x1="871.837247622888" y1="1097.89240078565" x2="871.837247622888" y2="1181.3461928485" style="stroke:rgb(80,80,80);stroke-width:1.2"/>
<line x1="871.837247622888" y1="1181.3461928485" x2="944.110351591462" y2="1223.07308887993" style="stroke:rgb(80,80,80);stroke-width:1.2"/>
<line x1="944.110351591462" y1="1223.07308887993" x2="1016.38345556004" y2="1181.3461928485" style="stroke:rgb(80,80,80);stroke-width:1.2"/>
<line x1="944.110351591462" y1="1223.07308887993" x2="944.110351591462" y2="1306.52688094278" style="stroke:rgb(80,80,80);stroke-width:1.2"/>
<line x1="944.110351591462" y1="1306.52688094278" x2="871.837247622888" y2="1348.25377697421" style="stroke:rgb(80,80,80);stroke-width:1.2"/>
<line x1="944.110351591462" y1="1306.52688094278" x2="1016.38345556004" y2="1348.25377697421" style="stroke:rgb(80,80,80);stroke-width:1.2"/>
<line x1="871.837247622888" y1="1348.25377697421" x2="871.837247622888" y2="1431.70756903706" style="stroke:rgb(80,80,80);stroke-width:1.2"/>
<line x1="871.837247622888" y1="1431.70756903706" x2="944.110351591462" y2="1473.43446506848" style="stroke:rgb(80,80,80);stroke-width:1.2"/>
<line x1="944.110351591462" y1="1473.43446506848" x2="1016.38345556004" y2="1431.70756903706" style="stroke:rgb(80,80,80);stroke-width:1.2"/>
<line x1="944.110351591462" y1="1473.43446506848" x2="944.110351591462" y2="1556.88825713134" style="stroke:rgb(80,80,80);stroke-width:1.2"/>
<line x1="944.110351591462" y1="1556.88825713134" x2="871.837247622888" y2="1598.61515316276" style="stroke:rgb(80,80,80);stroke-width:1.2"/>
<line x1="944.110351591462" y1="1556.88825713134" x2="1016.38345556004" y2="1598.61515316276" style="stroke:rgb(80,80,80);stroke-width:1.2"/>
<line x1="1016.38345556004" y1="96.446896031426" x2="1016.38345556004" y2="179.900688094278" style="stroke:rgb(80,80,80);stroke-width:1.2"/>
<line x1="1016.38345556004" y1="179.900688094278" x2="1088.65655952861" y2="221.627584125704" style="stroke:rgb(80,80,80);stroke-width:1.2"/>
<line x1="1088.65655952861" y1="221.627584125704" x2="1088.65655952861" y2="305.081376188556" style="stroke:rgb(80,80,80);stroke-width:1.2"/>
<line x1="1088.65655952861" y1="305.081376188556" x2="1016.38345556004" y2="346.808272219982" style="stroke:rgb(80,80,80);stroke-width:1.2"/>
<line x1="1016.38345556004" y1="346.808272219982" x2="1016.38345556004" y2="430.262064282834" style="stroke:rgb(80,80,80);stroke-width:1.2"/>
<line x1="1016.38345556004" y1="430.262064282834" x2="1088.65655952861" y2="471.98896031426" style="stroke:rgb(80,80,80);stroke-width:1.2"/>
<line x1="1088.65655952861" y1="471.98896031426" x2="1088.65655952861" y2="555.442752377112" style="stroke:rgb(80,80,80);stroke-width:1.2"/>
<line x1="1088.65655952861" y1="555.442752377112" x2="1016.38345556004" y2="597.169648408538" style="stroke:rgb(80,80,80);stroke-width:1.2"/>
<line x1="1016.38345556004" y1="597.169648408538" x2="1016.38345556004" y2="680.62344047139" style="stroke:rgb(80,80,80);stroke-width:1.2"/>
<line x1="1016.38345556004" y1="680.62344047139" x2="1088.65655952861" y2="722.350336502816" style="stroke:rgb(80,80,80);stroke-width:1.2"/>
<line x1="1088.65655952861" y1="722.350336502816" x2="1088.65655952861" y2="805.804128565668" style="stroke:rgb(80,80,80);stroke-width:1.2"/>
<line x1="1088.65655952861" y1="805.804128565668" x2="1016.38345556004" y2="847.531024597094" style="stroke:rgb(80,80,80);stroke-width:1.2"/>
<line x1="1016.38345556004" y1="847.531024597094" x2="1016.38345556004" y2="930.984816659946" style="stroke:rgb(80,80,80);stroke-width:1.2"/>
<line x1="1016.38345556004" y1="930.984816659946" x2="1088.65655952861" y2="972.711712691372" style="stroke:rgb(80,80,80);stroke-width:1.2"/>
<line x1="1088.65655952861" y1="972.711712691372" x2="1088.65655952861" y2="1056.16550475422" style="stroke:rgb(80,80,80);stroke-width:1.2"/>
<line x1="1088.65655952861" y1="1056.16550475422" x2="1016.38345556004" y2="1097.89240078565" style="stroke:rgb(80,80,80);stroke-width:1.2"/>
<line x1="1016.38345556004" y1="1097.89240078565" x2="1016.38345556004" y2="1181.3461928485" style="stroke:rgb(80,80,80);stroke-width:1.2"/>
<line x1="1016.38345556004" y1="1181.3461928485" x2="1088.65655952861" y2="1223.07308887993" style="stroke:rgb(80,80,80);stroke-width:1.2"/>
<line x1="1088.65655952861" y1="1223.07308887993" x2="1088.65655952861" y2="1306.52688094278" style="stroke:rgb(80,80,80);stroke-width:1.2"/>
<line x1="1088.65655952861" y1="1306.52688094278" x2="1016.38345556004" y2="1348.25377697421" style="stroke:rgb(80,80,80);stroke-width:1.2"/>
<line x1="1016.38345556004" y1="1348.25377697421" x2="1016.38345556004" y2="1431.70756903706" style="stroke:rgb(80,80,80);stroke-width:1.2"/>
<line x1="1016.38345556004" y1="1431.70756903706" x2="1088.65655952861" y2="1473.43446506848" style="stroke:rgb(80,80,80);stroke-width:1.2"/>
<line x1="1088.65655952861" y1="1473.43446506848" x2="1088.65655952861" y2="1556.88825713134" style="stroke:rgb(80,80,80);stroke-width:1.2"/>
<line x1="1088.65655952861" y1="1556.88825713134" x2="1016.38345556004" y2="1598.61515316276" style="stroke:rgb(80,80,80);stroke-width:1.2"/>
</svg>
