<?xml version="1.0" standalone="no"?> <!DOCTYPE svg PUBLIC "-//W3C//DTD SVG 1.1//EN" "http://www.w3.org/Graphics/SVG/1.1/DTD/svg11.dtd">
<svg width="2000" height="2000" version="1.1" xmlns="http://www.w3.org/2000/svg">
<line x1="98.151103968574" y1="51.3" x2="25.878" y2="93.026896031426" style="stroke:rgb(80,80,80);stroke-width:1.2"/>
<line x1="98.151103968574" y1="51.3" x2="170.424207937148" y2="93.026896031426" style="stroke:rgb(80,80,80);stroke-width:1.2"/>
<line x1="25.878" y1="93.026896031426" x2="25.878" y2="176.480688094278" style="stroke:rgb(80,80,80);stroke-width:1.2"/>
<line x1="25.878" y1="176.480688094278" x2="98.151103968574" y2="218.207584125704" style="stroke:rgb(80,80,80);stroke-width:1.2"/>
<line x1="98.151103968574" y1="218.207584125704" x2="170.424207937148" y2="176.480688094278" style="stroke:rgb(80,80,80);stroke-width:1.2"/>
<line x1="98.151103968574" y1="218.207584125704" x2="98.151103968574" y2="301.661376188556" style="stroke:rgb(80,80,80);stroke-width:1.2"/>
<line x1="98.151103968574" y1="301.661376188556" x2="25.878" y2="343.388272219982" style="stroke:rgb(80,80,80);stroke-width:1.2"/>
<line x1="98.151103968574" y1="301.661376188556" x2="170.424207937148" y2="343.388272219982" style="stroke:rgb(80,80,80);stroke-width:1.2"/>
<line x1="25.878" y1="343.388272219982" x2="25.878" y2="426.842064282834" style="stroke:rgb(80,80,80);stroke-width:1.2"/>
<line x1="25.878" y1="426.842064282834" x2="98.151103968574" y2="468.56896031426" style="stroke:rgb(80,80,80);stroke-width:1.2"/>
<line x1="98.151103968574" y1="468.56896031426" x2="170.424207937148" y2="426.842064282834" style="stroke:rgb(80,80,80);stroke-width:1.2"/>
<line x1="98.151103968574" y1="468.56896031426" x2="98.151103968574" y2="552.022752377112" style="stroke:rgb(80,80,80);stroke-width:1.2"/>
<line x1="98.151103968574" y1="552.022752377112" x2="25.878" y2="593.749648408538" style="stroke:rgb(80,80,80);stroke-width:1.2"/>
<line x1="98.151103968574" y1="552.022752377112" x2="170.424207937148" y2="593.749648408538" style="stroke:rgb(80,80,80);stroke-width:1.2"/>
<line x1="25.878" y1="593.749648408538" x2="25.878" y2="677.20344047139" style="stroke:rgb(80,80,80);stroke-width:1.2"/>
<line x1="25.878" y1="677.20344047139" x2="98.151103968574" y2="718.930336502816" style="stroke:rgb(80,80,80);stroke-width:1.2"/>
<line x1="98.151103968574" y1="718.930336502816" x2="170.424207937148" y2="677.20344047139" style="stroke:rgb(80,80,80);stroke-width:1.2"/>
<line x1="98.151103968574" y1="718.930336502816" x2="98.151103968574" y2="802.384128565668" style="stroke:rgb(80,80,80);stroke-width:1.2"/>
<line x1="98.151103968574" y1="802.384128565668" x2="25.878" y2="844.111024597094" style="stroke:rgb(80,80,80);stroke-width:1.2"/>
<line x1="98.151103968574" y1="802.384128565668" x2="170.424207937148" y2="844.111024597094" style="stroke:rgb(80,80,80);stroke-width:1.2"/>
<line x1="25.878" y1="844.111024597094" x2="25.878" y2="927.564816659946" style="stroke:rgb(80,80,80);stroke-width:1.2"/>
<line x1="25.878" y1="927.564816659946" x2="98.151103968574" y2="969.291712691372" style="stroke:rgb(80,80,80);stroke-width:1.2"/>
<line x1="98.151103968574" y1="969.291712691372" x2="170.424207937148" y2="927.564816659946" style="stroke:rgb(80,80,80);stroke-width:1.2"/>
<line x1="98.151103968574" y1="969.291712691372" x2="98.151103968574" y2="1052.74550475422" style="stroke:rgb(80,80,80);stroke-width:1.2"/>
<line x1="98.151103968574" y1="1052.74550475422" x2="25.878" y2="1094.47240078565" style="stroke:rgb(80,80,80);stroke-width:1.2"/>
<line x1="98.151103968574" y1="1052.74550475422" x2="170.424207937148" y2="1094.47240078565" style="stroke:rgb(80,80,80);stroke-width:1.2"/>
<line x1="242.697311905722" y1="51.3" x2="170.424207937148" y2="93.026896031426" style="stroke:rgb(80,80,80);stroke-width:1.2"/>
<line x1="242.697311905722" y1="51.3" x2="314.970415874296" y2="93.026896031426" style="stroke:rgb(80,80,80);stroke-width:1.2"/>
<line x1="170.424207937148" y1="93.026896031426" x2="170.424207937148" y2="176.480688094278" style="stroke:rgb(80,80,80);stroke-width:1.2"/>
<line x1="170.424207937148" y1="176.480688094278" x2="242.697311905722" y2="218.207584125704" style="stroke:rgb(80,80,80);stroke-width:1.2"/>
<line x1="242.697311905722" y1="218.207584125704" x2="314.970415874296" y2="176.480688094278" style="stroke:rgb(80,80,80);stroke-width:1.2"/>
<line x1="242.697311905722" y1="218.207584125704" x2="242.697311905722" y2="301.661376188556" style="stroke:rgb(80,80,80);stroke-width:1.2"/>
<line x1="242.697311905722" y1="301.661376188556" x2="170.424207937148" y2="343.388272219982" style="stroke:rgb(80,80,80);stroke-width:1.2"/>
<line x1="242.697311905722" y1="301.661376188556" x2="314.970415874296" y2="343.388272219982" style="stroke:rgb(80,80,80);stroke-width:1.2"/>
<line x1="170.424207937148" y1="343.388272219982" x2="170.424207937148" y2="426.842064282834" style="stroke:rgb(80,80,80);stroke-width:1.2"/>
<line x1="170.424207937148" y1="426.842064282834" x2="242.697311905722" y2="468.56896031426" style="stroke:rgb(80,80,80);stroke-width:1.2"/>
<line x1="242.697311905722" y1="468.56896031426" x2="314.970415874296" y2="426.842064282834" style="stroke:rgb(80,80,80);stroke-width:1.2"/>
<line x1="242.697311905722" y1="468.56896031426" x2="242.697311905722" y2="552.022752377112" style="stroke:rgb(80,80,80);stroke-width:1.2"/>
<line x1="242.697311905722" y1="552.022752377112" x2="170.424207937148" y2="593.749648408538" style="stroke:rgb(80,80,80);stroke-width:1.2"/>
<line x1="242.697311905722" y1="552.022752377112" x2="314.970415874296" y2="593.749648408538" style="stroke:rgb(80,80,80);stroke-width:1.2"/>
<line x1="170.424207937148" y1="593.749648408538" x2="170.424207937148" y2="677.20344047139" style="stroke:rgb(80,80,80);stroke-width:1.2"/>
<line x1="170.424207937148" y1="677.20344047139" x2="242.697311905722" y2="718.930336502816" style="stroke:rgb(80,80,80);stroke-width:1.2"/>
<line x1="242.697311905722" y1="718.930336502816" x2="314.970415874296" y2="677.20344047139" style="stroke:rgb(80,80,80);stroke-width:1.2"/>
<line x1="242.697311905722" y1="718.930336502816" x2="242.697311905722" y2="802.384128565668" style="stroke:rgb(80,80,80);stroke-width:1.2"/>
<line x1="242.697311905722" y1="802.384128565668" x2="170.424207937148" y2="844.111024597094" style="stroke:rgb(80,80,80);stroke-width:1.2"/>
<line x1="242.697311905722" y1="802.384128565668" x2="314.970415874296" y2="844.111024597094" style="stroke:rgb(80,80,80);stroke-width:1.2"/>
<line x1="170.424207937148" y1="844.111024597094" x2="170.424207937148" y2="927.564816659946" style="stroke:rgb(80,80,80);stroke-width:1.2"/>
<line x1="170.424207937148" y1="927.564816659946" x2="242.697311905722" y2="969.291712691372" style="stroke:rgb(80,80,80);stroke-width:1.2"/>
<line x1="242.697311905722" y1="969.291712691372" x2="314.970415874296" y2="927.564816659946" style="stroke:rgb(80,80,80);stroke-width:1.2"/>
<line x1="242.697311905722" y1="969.291712691372" x2="242.697311905722" y2="1052.74550475422" style="stroke:rgb(80,80,80);stroke-width:1.2"/>
<line x1="242.697311905722" y1="1052.74550475422" x2="170.424207937148" y2="1094.47240078565" style="stroke:rgb(80,80,80);stroke-width:1.2"/>
<line x1="242.697311905722" y1="1052.74550475422" x2="314.970415874296" y2="1094.47240078565" style="stroke:rgb(80,80,80);stroke-width:1.2"/>
<line x1="387.24351984287" y1="51.3" x2="314.970415874296" y2="93.026896031426" style="stroke:rgb(80,80,80);stroke-width:1.2"/>
<line x1="387.24351984287" y1="51.3" x2="459.516623811444" y2="93.026896031426" style="stroke:rgb(80,80,80);stroke-width:1.2"/>
<line x1="314.970415874296" y1="93.026896031426" x2="314.970415874296" y2="176.480688094278" style="stroke:rgb(80,80,80);stroke-width:1.2"/>
<line x1="314.970415874296" y1="176.480688094278" x2="387.24351984287" y2="218.207584125704" style="stroke:rgb(80,80,80);stroke-width:1.2"/>
<line x1="387.24351984287" y1="218.207584125704" x2="459.516623811444" y2="176.480688094278" style="stroke:rgb(80,80,80);stroke-width:1.2"/>
<line x1="387.24351984287" y1="218.207584125704" x2="387.24351984287" y2="301.661376188556" style="stroke:rgb(80,80,80);stroke-width:1.2"/>
<line x1="387.24351984287" y1="301.661376188556" x2="314.970415874296" y2="343.388272219982" style="stroke:rgb(80,80,80);stroke-width:1.2"/>
<line x1="387.24351984287" y1="301.661376188556" x2="459.516623811444" y2="343.388272219982" style="stroke:rgb(80,80,80);stroke-width:1.2"/>
<line x1="314.970415874296" y1="343.388272219982" x2="314.970415874296" y2="426.842064282834" style="stroke:rgb(80,80,80);stroke-width:1.2"/>
<line x1="314.970415874296" y1="426.842064282834" x2="387.24351984287" y2="468.56896031426" style="stroke:rgb(80,80,80);stroke-width:1.2"/>
<line x1="387.24351984287" y1="468.56896031426" x2="459.516623811444" y2="426.842064282834" style="stroke:rgb(80,80,80);stroke-width:1.2"/>
<line x1="387.24351984287" y1="468.56896031426" x2="387.24351984287" y2="552.022752377112" style="stroke:rgb(80,80,80);stroke-width:1.2"/>
<line x1="387.24351984287" y1="552.022752377112" x2="314.970415874296" y2="593.749648408538" style="stroke:rgb(80,80,80);stroke-width:1.2"/>
<line x1="387.24351984287" y1="552.022752377112" x2="459.516623811444" y2="593.749648408538" style="stroke:rgb(80,80,80);stroke-width:1.2"/>
<line x1="314.970415874296" y1="593.749648408538" x2="314.970415874296" y2="677.20344047139" style="stroke:rgb(80,80,80);stroke-width:1.2"/>
<line x1="314.970415874296" y1="677.20344047139" x2="387.24351984287" y2="718.930336502816" style="stroke:rgb(80,80,80);stroke-width:1.2"/>
<line x1="387.24351984287" y1="718.930336502816" x2="459.516623811444" y2="677.20344047139" style="stroke:rgb(80,80,80);stroke-width:1.2"/>
<line x1="387.24351984287" y1="718.930336502816" x2="387.24351984287" y2="802.384128565668" style="stroke:rgb(80,80,80);stroke-width:1.2"/>
<line x1="387.24351984287" y1="802.384128565668" x2="314.970415874296" y2="844.111024597094" style="stroke:rgb(80,80,80);stroke-width:1.2"/>
<line x1="387.24351984287" y1="802.384128565668" x2="459.516623811444" y2="844.111024597094" style="stroke:rgb(80,80,80);stroke-width:1.2"/>
<line x1="314.970415874296" y1="844.111024597094" x2="314.970415874296" y2="927.564816659946" style="stroke:rgb(80,80,80);stroke-width:1.2"/>
<line x1="314.970415874296" y1="927.564816659946" x2="387.24351984287" y2="969.291712691372" style="stroke:rgb(80,80,80);stroke-width:1.2"/>
<line x1="387.24351984287" y1="969.291712691372" x2="459.516623811444" y2="927.564816659946" style="stroke:rgb(80,80,80);stroke-width:1.2"/>
<line x1="387.24351984287" y1="969.291712691372" x2="387.24351984287" y2="1052.74550475422" style="stroke:rgb(80,80,80);stroke-width:1.2"/>
<line x1="387.24351984287" y1="1052.74550475422" x2="314.970415874296" y2="1094.47240078565" style="stroke:rgb(80,80,80);stroke-width:1.2"/>
<line x1="387.24351984287" y1="1052.74550475422" x2="459.516623811444" y2="1094.47240078565" style="stroke:rgb(80,80,80);stroke-width:1.2"/>
<line x1="531.789727780018" y1="51.3" x2="459.516623811444" y2="93.026896031426" style="stroke:rgb(80,80,80);stroke-width:1.2"/>
<line x1="531.789727780018" y1="51.3" x2="604.062831748592" y2="93.026896031426" style="stroke:rgb(80,80,80);stroke-width:1.2"/>
<line x1="459.516623811444" y1="93.026896031426" x2="459.516623811444" y2="176.480688094278" style="stroke:rgb(80,80,80);stroke-width:1.2"/>
<line x1="459.516623811444" y1="176.480688094278" x2="531.789727780018" y2="218.207584125704" style="stroke:rgb(80,80,80);stroke-width:1.2"/>
<line x1="531.789727780018" y1="218.207584125704" x2="604.062831748592" y2="176.480688094278" style="stroke:rgb(80,80,80);stroke-width:1.2"/>
<line x1="531.789727780018" y1="218.207584125704" x2="531.789727780018" y2="301.661376188556" style="stroke:rgb(80,80,80);stroke-width:1.2"/>
<line x1="531.789727780018" y1="301.661376188556" x2="459.516623811444" y2="343.388272219982" style="stroke:rgb(80,80,80);stroke-width:1.2"/>
<line x1="531.789727780018" y1="301.661376188556" x2="604.062831748592" y2="343.388272219982" style="stroke:rgb(80,80,80);stroke-width:1.2"/>
<line x1="459.516623811444" y1="343.388272219982" x2="459.516623811444" y2="426.842064282834" style="stroke:rgb(80,80,80);stroke-width:1.2"/>
<line x1="459.516623811444" y1="426.842064282834" x2="531.789727780018" y2="468.56896031426" style="stroke:rgb(80,80,80);stroke-width:1.2"/>
<line x1="531.789727780018" y1="468.56896031426" x2="604.062831748592" y2="426.842064282834" style="stroke:rgb(80,80,80);stroke-width:1.2"/>
<line x1="531.789727780018" y1="468.56896031426" x2="531.789727780018" y2="552.022752377112" style="stroke:rgb(80,80,80);stroke-width:1.2"/>
<line x1="531.789727780018" y1="552.022752377112" x2="459.516623811444" y2="593.749648408538" style="stroke:rgb(80,80,80);stroke-width:1.2"/>
<line x1="531.789727780018" y1="552.022752377112" x2="604.062831748592" y2="593.749648408538" style="stroke:rgb(80,80,80);stroke-width:1.2"/>
<line x1="459.516623811444" y1="593.749648408538" x2="459.516623811444" y2="677.20344047139" style="stroke:rgb(80,80,80);stroke-width:1.2"/>
<line x1="459.516623811444" y1="677.20344047139" x2="531.789727780018" y2="718.930336502816" style="stroke:rgb(80,80,80);stroke-width:1.2"/>
<line x1="531.789727780018" y1="718.930336502816" x2="604.062831748592" y2="677.20344047139" style="stroke:rgb(80,80,80);stroke-width:1.2"/>
<line x1="531.789727780018" y1="718.930336502816" x2="531.789727780018" y2="802.384128565668" style="stroke:rgb(80,80,80);stroke-width:1.2"/>
<line x1="531.789727780018" y1="802.384128565668" x2="459.516623811444" y2="844.111024597094" style="stroke:rgb(80,80,80);stroke-width:1.2"/>
<line x1="531.789727780018" y1="802.384128565668" x2="604.062831748592" y2="844.111024597094" style="stroke:rgb(80,80,80);stroke-width:1.2"/>
<line x1="459.516623811444" y1="844.111024597094" x2="459.516623811444" y2="927.564816659946" style="stroke:rgb(80,80,80);stroke-width:1.2"/>
<line x1="459.516623811444" y1="927.564816659946" x2="531.789727780018" y2="969.291712691372" style="stroke:rgb(80,80,80);stroke-width:1.2"/>
<line x1="531.789727780018" y1="969.291712691372" x2="604.062831748592" y2="927.564816659946" style="stroke:rgb(80,80,80);stroke-width:1.2"/>
<line x1="531.789727780018" y1="969.291712691372" x2="531.789727780018" y2="1052.74550475422" style="stroke:rgb(80,80,80);stroke-width:1.2"/>
<line x1="531.789727780018" y1="1052.74550475422" x2="459.516623811444" y2="1094.47240078565" style="stroke:rgb(80,80,80);stroke-width:1.2"/>
<line x1="531.789727780018" y1="1052.74550475422" x2="604.062831748592" y2="1094.47240078565" style="stroke:rgb(80,80,80);stroke-width:1.2"/>
<line x1="676.335935717166" y1="51.3" x2="604.062831748592" y2="93.026896031426" style="stroke:rgb(80,80,80);stroke-width:1.2"/>
<line x1="676.335935717166" y1="51.3" x2="748.60903968574" y2="93.026896031426" style="stroke:rgb(80,80,80);stroke-width:1.2"/>
<line x1="604.062831748592" y1="93.026896031426" x2="604.062831748592" y2="176.480688094278" style="stroke:rgb(80,80,80);stroke-width:1.2"/>
<line x1="604.062831748592" y1="176.480688094278" x2="676.335935717166" y2="218.207584125704" style="stroke:rgb(80,80,80);stroke-width:1.2"/>
<line x1="676.335935717166" y1="218.207584125704" x2="748.60903968574" y2="176.480688094278" style="stroke:rgb(80,80,80);stroke-width:1.2"/>
<line x1="676.335935717166" y1="218.207584125704" x2="676.335935717166" y2="301.661376188556" style="stroke:rgb(80,80,80);stroke-width:1.2"/>
<line x1="676.335935717166" y1="301.661376188556" x2="604.062831748592" y2="343.388272219982" style="stroke:rgb(80,80,80);stroke-width:1.2"/>
<line x1="676.335935717166" y1="301.661376188556" x2="748.60903968574" y2="343.388272219982" style="stroke:rgb(80,80,80);stroke-width:1.2"/>
<line x1="604.062831748592" y1="343.388272219982" x2="604.062831748592" y2="426.842064282834" style="stroke:rgb(80,80,80);stroke-width:1.2"/>
<line x1="604.062831748592" y1="426.842064282834" x2="676.335935717166" y2="468.56896031426" style="stroke:rgb(80,80,80);stroke-width:1.2"/>
<line x1="676.335935717166" y1="468.56896031426" x2="748.60903968574" y2="426.842064282834" style="stroke:rgb(80,80,80);stroke-width:1.2"/>
<line x1="676.335935717166" y1="468.56896031426" x2="676.335935717166" y2="552.022752377112" style="stroke:rgb(80,80,80);stroke-width:1.2"/>
<line x1="676.335935717166" y1="552.022752377112" x2="604.062831748592" y2="593.749648408538" style="stroke:rgb(80,80,80);stroke-width:1.2"/>
<line x1="676.335935717166" y1="552.022752377112" x2="748.60903968574" y2="593.749648408538" style="stroke:rgb(80,80,80);stroke-width:1.2"/>
<line x1="604.062831748592" y1="593.749648408538" x2="604.062831748592" y2="677.20344047139" style="stroke:rgb(80,80,80);stroke-width:1.2"/>
<line x1="604.062831748592" y1="677.20344047139" x2="676.335935717166" y2="718.930336502816" style="stroke:rgb(80,80,80);stroke-width:1.2"/>
<line x1="676.335935717166" y1="718.930336502816" x2="748.60903968574" y2="677.20344047139" style="stroke:rgb(80,80,80);stroke-width:1.2"/>
<line x1="676.335935717166" y1="718.930336502816" x2="676.335935717166" y2="802.384128565668" style="stroke:rgb(80,80,80);stroke-width:1.2"/>
<line x1="676.335935717166" y1="802.384128565668" x2="604.062831748592" y2="844.111024597094" style="stroke:rgb(80,80,80);stroke-width:1.2"/>
<line x1="676.335935717166" y1="802.384128565668" x2="748.60903968574" y2="844.111024597094" style="stroke:rgb(80,80,80);stroke-width:1.2"/>
<line x1="604.062831748592" y1="844.111024597094" x2="604.062831748592" y2="927.564816659946" style="stroke:rgb(80,80,80);stroke-width:1.2"/>
<line x1="604.062831748592" y1="927.564816659946" x2="676.335935717166" y2="969.291712691372" style="stroke:rgb(80,80,80);stroke-width:1.2"/>
<line x1="676.335935717166" y1="969.291712691372" x2="748.60903968574" y2="927.564816659946" style="stroke:rgb(80,80,80);stroke-width:1.2"/>
<line x1="676.335935717166" y1="969.291712691372" x2="676.335935717166" y2="1052.74550475422" style="stroke:rgb(80,80,80);stroke-width:1.2"/>
<line x1="676.335935717166" y1="1052.74550475422" x2="604.062831748592" y2="1094.47240078565" style="stroke:rgb(80,80,80);stroke-width:1.2"/>
<line x1="676.335935717166" y1="1052.74550475422" x2="748.60903968574" y2="1094.47240078565" style="stroke:rgb(80,80,80);stroke-width:1.2"/>
<line x1="820.882143654314" y1="51.3" x2="748.60903968574" y2="93.026896031426" style="stroke:rgb(80,80,80);stroke-width:1.2"/>
<line x1="820.882143654314" y1="51.3" x2="893.155247622888" y2="93.026896031426" style="stroke:rgb(80,80,80);stroke-width:1.2"/>
<line x1="748.60903968574" y1="93.026896031426" x2="748.60903968574" y2="176.480688094278" style="stroke:rgb(80,80,80);stroke-width:1.2"/>
<line x1="748.60903968574" y1="176.480688094278" x2="820.882143654314" y2="218.207584125704" style="stroke:rgb(80,80,80);stroke-width:1.2"/>
<line x1="820.882143654314" y1="218.207584125704" x2="893.155247622888" y2="176.480688094278" style="stroke:rgb(80,80,80);stroke-width:1.2"/>
<line x1="820.882143654314" y1="218.207584125704" x2="820.882143654314" y2="301.661376188556" style="stroke:rgb(80,80,80);stroke-width:1.2"/>
<line x1="820.882143654314" y1="301.661376188556" x2="748.60903968574" y2="343.388272219982" style="stroke:rgb(80,80,80);stroke-width:1.2"/>
<line x1="820.882143654314" y1="301.661376188556" x2="893.155247622888" y2="343.388272219982" style="stroke:rgb(80,80,80);stroke-width:1.2"/>
<line x1="748.60903968574" y1="343.388272219982" x2="748.60903968574" y2="426.842064282834" style="stroke:rgb(80,80,80);stroke-width:1.2"/>
<line x1="748.60903968574" y1="426.842064282834" x2="820.882143654314" y2="468.56896031426" style="stroke:rgb(80,80,80);stroke-width:1.2"/>
<line x1="820.882143654314" y1="468.56896031426" x2="893.155247622888" y2="426.842064282834" style="stroke:rgb(80,80,80);stroke-width:1.2"/>
<line x1="820.882143654314" y1="468.56896031426" x2="820.882143654314" y2="552.022752377112" style="stroke:rgb(80,80,80);stroke-width:1.2"/>
<line x1="820.882143654314" y1="552.022752377112" x2="748.60903968574" y2="593.749648408538" style="stroke:rgb(80,80,80);stroke-width:1.2"/>
<line x1="820.882143654314" y1="552.022752377112" x2="893.155247622888" y2="593.749648408538" style="stroke:rgb(80,80,80);stroke-width:1.2"/>
<line x1="748.60903968574" y1="593.749648408538" x2="748.60903968574" y2="677.20344047139" style="stroke:rgb(80,80,80);stroke-width:1.2"/>
<line x1="748.60903968574" y1="677.20344047139" x2="820.882143654314" y2="718.930336502816" style="stroke:rgb(80,80,80);stroke-width:1.2"/>
<line x1="820.882143654314" y1="718.930336502816" x2="893.155247622888" y2="677.20344047139" style="stroke:rgb(80,80,80);stroke-width:1.2"/>
<line x1="820.882143654314" y1="718.930336502816" x2="820.882143654314" y2="802.384128565668" style="stroke:rgb(80,80,80);stroke-width:1.2"/>
<line x1="820.882143654314" y1="802.384128565668" x2="748.60903968574" y2="844.111024597094" style="stroke:rgb(80,80,80);stroke-width:1.2"/>
<line x1="820.882143654314" y1="802.384128565668" x2="893.155247622888" y2="844.111024597094" style="stroke:rgb(80,80,80);stroke-width:1.2"/>
<line x1="748.60903968574" y1="844.111024597094" x2="748.60903968574" y2="927.564816659946" style="stroke:rgb(80,80,80);stroke-width:1.2"/>
<line x1="748.60903968574" y1="927.564816659946" x2="820.882143654314" y2="969.291712691372" style="stroke:rgb(80,80,80);stroke-width:1.2"/>
<line x1="820.882143654314" y1="969.291712691372" x2="893.155247622888" y2="927.564816659946" style="stroke:rgb(80,80,80);stroke-width:1.2"/>
<line x1="820.882143654314" y1="969.291712691372" x2="820.882143654314" y2="1052.74550475422" style="stroke:rgb(80,80,80);stroke-width:1.2"/>
<line x1="820.882143654314" y1="1052.74550475422" x2="748.60903968574" y2="1094.47240078565" style="stroke:rgb(80,80,80);stroke-width:1.2"/>
<line x1="820.882143654314" y1="1052.74550475422" x2="893.155247622888" y2="1094.47240078565" style="stroke:rgb(80,80,80);stroke-width:1.2"/>
<line x1="965.428351591462" y1="51.3" x2="893.155247622888" y2="93.026896031426" style="stroke:rgb(80,80,80);stroke-width:1.2"/>
<line x1="965.428351591462" y1="51.3" x2="1037.70145556004" y2="93.026896031426" style="stroke:rgb(80,80,80);stroke-width:1.2"/>
<line x1="893.155247622888" y1="93.026896031426" x2="893.155247622888" y2="176.480688094278" style="stroke:rgb(80,80,80);stroke-width:1.2"/>
<line x1="893.155247622888" y1="176.480688094278" x2="965.428351591462" y2="218.207584125704" style="stroke:rgb(80,80,80);stroke-width:1.2"/>
<line x1="965.428351591462" y1="218.207584125704" x2="1037.70145556004" y2="176.480688094278" style="stroke:rgb(80,80,80);stroke-width:1.2"/>
<line x1="965.428351591462" y1="218.207584125704" x2="965.428351591462" y2="301.661376188556" style="stroke:rgb(80,80,80);stroke-width:1.2"/>
<line x1="965.428351591462" y1="301.661376188556" x2="893.155247622888" y2="343.388272219982" style="stroke:rgb(80,80,80);stroke-width:1.2"/>
<line x1="965.428351591462" y1="301.661376188556" x2="1037.70145556004" y2="343.388272219982" style="stroke:rgb(80,80,80);stroke-width:1.2"/>
<line x1="893.155247622888" y1="343.388272219982" x2="893.155247622888" y2="426.842064282834" style="stroke:rgb(80,80,80);stroke-width:1.2"/>
<line x1="893.155247622888" y1="426.842064282834" x2="965.428351591462" y2="468.56896031426" style="stroke:rgb(80,80,80);stroke-width:1.2"/>
<line x1="965.428351591462" y1="468.56896031426" x2="1037.70145556004" y2="426.842064282834" style="stroke:rgb(80,80,80);stroke-width:1.2"/>
<line x1="965.428351591462" y1="468.56896031426" x2="965.428351591462" y2="552.022752377112" style="stroke:rgb(80,80,80);stroke-width:1.2"/>
<line x1="965.428351591462" y1="552.022752377112" x2="893.155247622888" y2="593.749648408538" style="stroke:rgb(80,80,80);stroke-width:1.2"/>
<line x1="965.428351591462" y1="552.022752377112" x2="1037.70145556004" y2="593.749648408538" style="stroke:rgb(80,80,80);stroke-width:1.2"/>
<line x1="893.155247622888" y1="593.749648408538" x2="893.155247622888" y2="677.20344047139" style="stroke:rgb(80,80,80);stroke-width:1.2"/>
<line x1="893.155247622888" y1="677.20344047139" x2="965.428351591462" y2="718.930336502816" style="stroke:rgb(80,80,80);stroke-width:1.2"/>
<line x1="965.428351591462" y1="718.930336502816" x2="1037.70145556004" y2="677.20344047139" style="stroke:rgb(80,80,80);stroke-width:1.2"/>
<line x1="965.428351591462" y1="718.930336502816" x2="965.428351591462" y2="802.384128565668" style="stroke:rgb(80,80,80);stroke-width:1.2"/>
<line x1="965.428351591462" y1="802.384128565668" x2="893.155247622888" y2="844.111024597094" style="stroke:rgb(80,80,80);stroke-width:1.2"/>
<line x1="965.428351591462" y1="802.384128565668" x2="1037.70145556004" y2="844.111024597094" style="stroke:rgb(80,80,80);stroke-width:1.2"/>
<line x1="893.155247622888" y1="844.111024597094" x2="893.155247622888" y2="927.564816659946" style="stroke:rgb(80,80,80);stroke-width:1.2"/>
<line x1="893.155247622888" y1="927.564816659946" x2="965.428351591462" y2="969.291712691372" style="stroke:rgb(80,80,80);stroke-width:1.2"/>
<line x1="965.428351591462" y1="969.291712691372" x2="1037.70145556004" y2="927.564816659946" style="stroke:rgb(80,80,80);stroke-width:1.2"/>
<line x1="965.428351591462" y1="969.291712691372" x2="965.428351591462" y2="1052.74550475422" style="stroke:rgb(80,80,80);stroke-width:1.2"/>
<line x1="965.428351591462" y1="1052.74550475422" x2="893.155247622888" y2="1094.47240078565" style="stroke:rgb(80,80,80);stroke-width:1.2"/>
<line x1="965.428351591462" y1="1052.74550475422" x2="1037.70145556004" y2="1094.47240078565" style="stroke:rgb(80,80,80);stroke-width:1.2"/>
<line x1="1109.97455952861" y1="51.3" x2="1037.70145556004" y2="93.026896031426" style="stroke:rgb(80,80,80);stroke-width:1.2"/>
<line x1="1109.97455952861" y1="51.3" x2="1182.24766349718" y2="93.026896031426" style="stroke:rgb(80,80,80);stroke-width:1.2"/>
<line x1="1037.70145556004" y1="93.026896031426" x2="1037.70145556004" y2="176.480688094278" style="stroke:rgb(80,80,80);stroke-width:1.2"/>
<line x1="1037.70145556004" y1="176.480688094278" x2="1109.97455952861" y2="218.207584125704" style="stroke:rgb(80,80,80);stroke-width:1.2"/>
<line x1="1109.97455952861" y1="218.207584125704" x2="1182.24766349718" y2="176.480688094278" style="stroke:rgb(80,80,80);stroke-width:1.2"/>
<line x1="1109.97455952861" y1="218.207584125704" x2="1109.97455952861" y2="301.661376188556" style="stroke:rgb(80,80,80);stroke-width:1.2"/>
<line x1="1109.97455952861" y1="301.661376188556" x2="1037.70145556004" y2="343.388272219982" style="stroke:rgb(80,80,80);stroke-width:1.2"/>
<line x1="1109.97455952861" y1="301.661376188556" x2="1182.24766349718" y2="343.388272219982" style="stroke:rgb(80,80,80);stroke-width:1.2"/>
<line x1="1037.70145556004" y1="343.388272219982" x2="1037.70145556004" y2="426.842064282834" style="stroke:rgb(80,80,80);stroke-width:1.2"/>
<line x1="1037.70145556004" y1="426.842064282834" x2="1109.97455952861" y2="468.56896031426" style="stroke:rgb(80,80,80);stroke-width:1.2"/>
<line x1="1109.97455952861" y1="468.56896031426" x2="1182.24766349718" y2="426.842064282834" style="stroke:rgb(80,80,80);stroke-width:1.2"/>
<line x1="1109.97455952861" y1="468.56896031426" x2="1109.97455952861" y2="552.022752377112" style="stroke:rgb(80,80,80);stroke-width:1.2"/>
<line x1="1109.97455952861" y1="552.022752377112" x2="1037.70145556004" y2="593.749648408538" style="stroke:rgb(80,80,80);stroke-width:1.2"/>
<line x1="1109.97455952861" y1="552.022752377112" x2="1182.24766349718" y2="593.749648408538" style="stroke:rgb(80,80,80);stroke-width:1.2"/>
<line x1="1037.70145556004" y1="593.749648408538" x2="1037.70145556004" y2="677.20344047139" style="stroke:rgb(80,80,80);stroke-width:1.2"/>
<line x1="1037.70145556004" y1="677.20344047139" x2="1109.97455952861" y2="718.930336502816" style="stroke:rgb(80,80,80);stroke-width:1.2"/>
<line x1="1109.97455952861" y1="718.930336502816" x2="1182.24766349718" y2="677.20344047139" style="stroke:rgb(80,80,80);stroke-width:1.2"/>
<line x1="1109.97455952861" y1="718.930336502816" x2="1109.97455952861" y2="802.384128565668" style="stroke:rgb(80,80,80);stroke-width:1.2"/>
<line x1="1109.97455952861" y1="802.384128565668" x2="1037.70145556004" y2="844.111024597094" style="stroke:rgb(80,80,80);stroke-width:1.2"/>
<line x1="1109.97455952861" y1="802.384128565668" x2="1182.24766349718" y2="844.111024597094" style="stroke:rgb(80,80,80);stroke-width:1.2"/>
<line x1="1037.70145556004" y1="844.111024597094" x2="1037.70145556004" y2="927.564816659946" style="stroke:rgb(80,80,80);stroke-width:1.2"/>
<line x1="1037.70145556004" y1="927.564816659946" x2="1109.97455952861" y2="969.291712691372" style="stroke:rgb(80,80,80);stroke-width:1.2"/>
<line x1="1109.97455952861" y1="969.291712691372" x2="1182.24766349718" y2="927.564816659946" style="stroke:rgb(80,80,80);stroke-width:1.2"/>
<line x1="1109.97455952861" y1="969.291712691372" x2="1109.97455952861" y2="1052.74550475422" style="stroke:rgb(80,80,80);stroke-width:1.2"/>
<line x1="1109.97455952861" y1="1052.74550475422" x2="1037.70145556004" y2="1094.47240078565" style="stroke:rgb(80,80,80);stroke-width:1.2"/>
<line x1="1109.97455952861" y1="1052.74550475422" x2="1182.24766349718" y2="1094.47240078565" style="stroke:rgb(80,80,80);stroke-width:1.2"/>
<line x1="1254.52076746576" y1="51.3" x2="1182.24766349718" y2="93.026896031426" style="stroke:rgb(80,80,80);stroke-width:1.2"/>
<line x1="1254.52076746576" y1="51.3" x2="1326.79387143433" y2="93.026896031426" style="stroke:rgb(80,80,80);stroke-width:1.2"/>
<line x1="1182.24766349718" y1="93.026896031426" x2="1182.24766349718" y2="176.480688094278" style="stroke:rgb(80,80,80);stroke-width:1.2"/>
<line x1="1182.24766349718" y1="176.480688094278" x2="1254.52076746576" y2="218.207584125704" style="stroke:rgb(80,80,80);stroke-width:1.2"/>
<line x1="1254.52076746576" y1="218.207584125704" x2="1326.79387143433" y2="176.480688094278" style="stroke:rgb(80,80,80);stroke-width:1.2"/>
<line x1="1254.52076746576" y1="218.207584125704" x2="1254.52076746576" y2="301.661376188556" style="stroke:rgb(80,80,80);stroke-width:1.2"/>
<line x1="1254.52076746576" y1="301.661376188556" x2="1182.24766349718" y2="343.388272219982" style="stroke:rgb(80,80,80);stroke-width:1.2"/>
<line x1="1254.52076746576" y1="301.661376188556" x2="1326.79387143433" y2="343.388272219982" style="stroke:rgb(80,80,80);stroke-width:1.2"/>
<line x1="1182.24766349718" y1="343.388272219982" x2="1182.24766349718" y2="426.842064282834" style="stroke:rgb(80,80,80);stroke-width:1.2"/>
<line x1="1182.24766349718" y1="426.842064282834" x2="1254.52076746576" y2="468.56896031426" style="stroke:rgb(80,80,80);stroke-width:1.2"/>
<line x1="1254.52076746576" y1="468.56896031426" x2="1326.79387143433" y2="426.842064282834" style="stroke:rgb(80,80,80);stroke-width:1.2"/>
<line x1="1254.52076746576" y1="468.56896031426" x2="1254.52076746576" y2="552.022752377112" style="stroke:rgb(80,80,80);stroke-width:1.2"/>
<line x1="1254.52076746576" y1="552.022752377112" x2="1182.24766349718" y2="593.749648408538" style="stroke:rgb(80,80,80);stroke-width:1.2"/>
<line x1="1254.52076746576" y1="552.022752377112" x2="1326.79387143433" y2="593.749648408538" style="stroke:rgb(80,80,80);stroke-width:1.2"/>
<line x1="1182.24766349718" y1="593.749648408538" x2="1182.24766349718" y2="677.20344047139" style="stroke:rgb(80,80,80);stroke-width:1.2"/>
<line x1="1182.24766349718" y1="677.20344047139" x2="1254.52076746576" y2="718.930336502816" style="stroke:rgb(80,80,80);stroke-width:1.2"/>
<line x1="1254.52076746576" y1="718.930336502816" x2="1326.79387143433" y2="677.20344047139" style="stroke:rgb(80,80,80);stroke-width:1.2"/>
<line x1="1254.52076746576" y1="718.930336502816" x2="1254.52076746576" y2="802.384128565668" style="stroke:rgb(80,80,80);stroke-width:1.2"/>
<line x1="1254.52076746576" y1="802.384128565668" x2="1182.24766349718" y2="844.111024597094" style="stroke:rgb(80,80,80);stroke-width:1.2"/>
<line x1="1254.52076746576" y1="802.384128565668" x2="1326.79387143433" y2="844.111024597094" style="stroke:rgb(80,80,80);stroke-width:1.2"/>
<line x1="1182.24766349718" y1="844.111024597094" x2="1182.24766349718" y2="927.564816659946" style="stroke:rgb(80,80,80);stroke-width:1.2"/>
<line x1="1182.24766349718" y1="927.564816659946" x2="1254.52076746576" y2="969.291712691372" style="stroke:rgb(80,80,80);stroke-width:1.2"/>
<line x1="1254.52076746576" y1="969.291712691372" x2="1326.79387143433" y2="927.564816659946" style="stroke:rgb(80,80,80);stroke-width:1.2"/>
<line x1="1254.52076746576" y1="969.291712691372" x2="1254.52076746576" y2="1052.74550475422" style="stroke:rgb(80,80,80);stroke-width:1.2"/>
<line x1="1254.52076746576" y1="1052.74550475422" x2="1182.24766349718" y2="1094.47240078565" style="stroke:rgb(80,80,80);stroke-width:1.2"/>
<line x1="1254.52076746576" y1="1052.74550475422" x2="1326.79387143433" y2="1094.47240078565" style="stroke:rgb(80,80,80);stroke-width:1.2"/>
<line x1="1399.06697540291" y1="51.3" x2="1326.79387143433" y2="93.026896031426" style="stroke:rgb(80,80,80);stroke-width:1.2"/>
<line x1="1399.06697540291" y1="51.3" x2="1471.34007937148" y2="93.026896031426" style="stroke:rgb(80,80,80);stroke-width:1.2"/>
<line x1="1326.79387143433" y1="93.026896031426" x2="1326.79387143433" y2="176.480688094278" style="stroke:rgb(80,80,80);stroke-width:1.2"/>
<line x1="1326.79387143433" y1="176.480688094278" x2="1399.06697540291" y2="218.207584125704" style="stroke:rgb(80,80,80);stroke-width:1.2"/>
<line x1="1399.06697540291" y1="218.207584125704" x2="1471.34007937148" y2="176.480688094278" style="stroke:rgb(80,80,80);stroke-width:1.2"/>
<line x1="1399.06697540291" y1="218.207584125704" x2="1399.06697540291" y2="301.661376188556" style="stroke:rgb(80,80,80);stroke-width:1.2"/>
<line x1="1399.06697540291" y1="301.661376188556" x2="1326.79387143433" y2="343.388272219982" style="stroke:rgb(80,80,80);stroke-width:1.2"/>
<line x1="1399.06697540291" y1="301.661376188556" x2="1471.34007937148" y2="343.388272219982" style="stroke:rgb(80,80,80);stroke-width:1.2"/>
<line x1="1326.79387143433" y1="343.388272219982" x2="1326.79387143433" y2="426.842064282834" style="stroke:rgb(80,80,80);stroke-width:1.2"/>
<line x1="1326.79387143433" y1="426.842064282834" x2="1399.06697540291" y2="468.56896031426" style="stroke:rgb(80,80,80);stroke-width:1.2"/>
<line x1="1399.06697540291" y1="468.56896031426" x2="1471.34007937148" y2="426.842064282834" style="stroke:rgb(80,80,80);stroke-width:1.2"/>
<line x1="1399.06697540291" y1="468.56896031426" x2="1399.06697540291" y2="552.022752377112" style="stroke:rgb(80,80,80);stroke-width:1.2"/>
<line x1="1399.06697540291" y1="552.022752377112" x2="1326.79387143433" y2="593.749648408538" style="stroke:rgb(80,80,80);stroke-width:1.2"/>
<line x1="1399.06697540291" y1="552.022752377112" x2="1471.34007937148" y2="593.749648408538" style="stroke:rgb(80,80,80);stroke-width:1.2"/>
<line x1="1326.79387143433" y1="593.749648408538" x2="1326.79387143433" y2="677.20344047139" style="stroke:rgb(80,80,80);stroke-width:1.2"/>
<line x1="1326.79387143433" y1="677.20344047139" x2="1399.06697540291" y2="718.930336502816" style="stroke:rgb(80,80,80);stroke-width:1.2"/>
<line x1="1399.06697540291" y1="718.930336502816" x2="1471.34007937148" y2="677.20344047139" style="stroke:rgb(80,80,80);stroke-width:1.2"/>
<line x1="1399.06697540291" y1="718.930336502816" x2="1399.06697540291" y2="802.384128565668" style="stroke:rgb(80,80,80);stroke-width:1.2"/>
<line x1="1399.06697540291" y1="802.384128565668" x2="1326.79387143433" y2="844.111024597094" style="stroke:rgb(80,80,80);stroke-width:1.2"/>
<line x1="1399.06697540291" y1="802.384128565668" x2="1471.34007937148" y2="844.111024597094" style="stroke:rgb(80,80,80);stroke-width:1.2"/>
<line x1="1326.79387143433" y1="844.111024597094" x2="1326.79387143433" y2="927.564816659946" style="stroke:rgb(80,80,80);stroke-width:1.2"/>
<line x1="1326.79387143433" y1="927.564816659946" x2="1399.06697540291" y2="969.291712691372" style="stroke:rgb(80,80,80);stroke-width:1.2"/>
<line x1="1399.06697540291" y1="969.291712691372" x2="1471.34007937148" y2="927.564816659946" style="stroke:rgb(80,80,80);stroke-width:1.2"/>
<line x1="1399.06697540291" y1="969.291712691372" x2="1399.06697540291" y2="1052.74550475422" style="stroke:rgb(80,80,80);stroke-width:1.2"/>
<line x1="1399.06697540291" y1="1052.74550475422" x2="1326.79387143433" y2="1094.47240078565" style="stroke:rgb(80,80,80);stroke-width:1.2"/>
<line x1="1399.06697540291" y1="1052.74550475422" x2="1471.34007937148" y2="1094.47240078565" style="stroke:rgb(80,80,80);stroke-width:1.2"/>
<line x1="1471.34007937148" y1="93.026896031426" x2="1471.34007937148" y2="176.480688094278" style="stroke:rgb(80,80,80);stroke-width:1.2"/>
<line x1="1471.34007937148" y1="176.480688094278" x2="1543.61318334005" y2="218.207584125704" style="stroke:rgb(80,80,80);stroke-width:1.2"/>
<line x1="1543.61318334005" y1="218.207584125704" x2="1543.61318334005" y2="301.661376188556" style="stroke:rgb(80,80,80);stroke-width:1.2"/>
<line x1="1543.61318334005" y1="301.661376188556" x2="1471.34007937148" y2="343.388272219982" style="stroke:rgb(80,80,80);stroke-width:1.2"/>
<line x1="1471.34007937148" y1="343.388272219982" x2="1471.34007937148" y2="426.842064282834" style="stroke:rgb(80,80,80);stroke-width:1.2"/>
<line x1="1471.34007937148" y1="426.842064282834" x2="1543.61318334005" y2="468.56896031426" style="stroke:rgb(80,80,80);stroke-width:1.2"/>
<line x1="1543.61318334005" y1="468.56896031426" x2="1543.61318334005" y2="552.022752377112" style="stroke:rgb(80,80,80);stroke-width:1.2"/>
<line x1="1543.61318334005" y1="552.022752377112" x2="1471.34007937148" y2="593.749648408538" style="stroke:rgb(80,80,80);stroke-width:1.2"/>
<line x1="1471.34007937148" y1="593.749648408538" x2="1471.34007937148" y2="677.20344047139" style="stroke:rgb(80,80,80);stroke-width:1.2"/>
<line x1="1471.34007937148" y1="677.20344047139" x2="1543.61318334005" y2="718.930336502816" style="stroke:rgb(80,80,80);stroke-width:1.2"/>
<line x1="1543.61318334005" y1="718.930336502816" x2="1543.61318334005" y2="802.384128565668" style="stroke:rgb(80,80,80);stroke-width:1.2"/>
<line x1="1543.61318334005" y1="802.384128565668" x2="1471.34007937148" y2="844.111024597094" style="stroke:rgb(80,80,80);stroke-width:1.2"/>
<line x1="1471.34007937148" y1="844.111024597094" x2="1471.34007937148" y2="927.564816659946" style="stroke:rgb(80,80,80);stroke-width:1.2"/>
<line x1="1471.34007937148" y1="927.564816659946" x2="1543.61318334005" y2="969.291712691372" style="stroke:rgb(80,80,80);stroke-width:1.2"/>
<line x1="1543.61318334005" y1="969.291712691372" x2="1543.61318334005" y2="1052.74550475422" style="stroke:rgb(80,80,80);stroke-width:1.2"/>
<line x1="1543.61318334005" y1="1052.74550475422" x2="1471.34007937148" y2="1094.47240078565" style="stroke:rgb(80,80,80);stroke-width:1.2"/>
</svg>
