<?xml version="1.0" standalone="no"?> <!DOCTYPE svg PUBLIC "-//W3C//DTD SVG 1.1//EN" "http://www.w3.org/Graphics/SVG/1.1/DTD/svg11.dtd">
<svg width="2000" height="2000" version="1.1" xmlns="http://www.w3.org/2000/svg">
<line x1="22.5" y1="22.5" x2="187.211431702997" y2="22.5" style="stroke:rgb(80,80,80);stroke-width:1.2"/>
<line x1="22.5" y1="22.5" x2="104.855715851499" y2="165.144284148501" style="stroke:rgb(80,80,80);stroke-width:1.2"/>
<line x1="187.211431702997" y1="22.5" x2="104.855715851499" y2="165.144284148501" style="stroke:rgb(80,80,80);stroke-width:1.2"/>
<line x1="104.855715851499" y1="165.144284148501" x2="269.567147554496" y2="165.144284148501" style="stroke:rgb(80,80,80);stroke-width:1.2"/>
<line x1="104.855715851499" y1="165.144284148501" x2="187.211431702997" y2="307.788568297003" style="stroke:rgb(80,80,80);stroke-width:1.2"/>
<line x1="104.855715851499" y1="165.144284148501" x2="22.5" y2="307.788568297003" style="stroke:rgb(80,80,80);stroke-width:1.2"/>
<line x1="22.5" y1="307.788568297003" x2="187.211431702997" y2="307.788568297003" style="stroke:rgb(80,80,80);stroke-width:1.2"/>
<line x1="22.5" y1="307.788568297003" x2="104.855715851499" y2="450.432852445504" style="stroke:rgb(80,80,80);stroke-width:1.2"/>
<line x1="187.211431702997" y1="307.788568297003" x2="104.855715851499" y2="450.432852445504" style="stroke:rgb(80,80,80);stroke-width:1.2"/>
<line x1="104.855715851499" y1="450.432852445504" x2="269.567147554496" y2="450.432852445504" style="stroke:rgb(80,80,80);stroke-width:1.2"/>
<line x1="104.855715851499" y1="450.432852445504" x2="187.211431702997" y2="593.077136594005" style="stroke:rgb(80,80,80);stroke-width:1.2"/>
<line x1="104.855715851499" y1="450.432852445504" x2="22.5000000000001" y2="593.077136594005" style="stroke:rgb(80,80,80);stroke-width:1.2"/>
<line x1="22.5000000000001" y1="593.077136594005" x2="187.211431702997" y2="593.077136594005" style="stroke:rgb(80,80,80);stroke-width:1.2"/>
<line x1="22.5000000000001" y1="593.077136594005" x2="104.855715851499" y2="735.721420742506" style="stroke:rgb(80,80,80);stroke-width:1.2"/>
<line x1="187.211431702997" y1="593.077136594005" x2="104.855715851499" y2="735.721420742506" style="stroke:rgb(80,80,80);stroke-width:1.2"/>
<line x1="104.855715851499" y1="735.721420742506" x2="269.567147554496" y2="735.721420742506" style="stroke:rgb(80,80,80);stroke-width:1.2"/>
<line x1="104.855715851499" y1="735.721420742506" x2="187.211431702997" y2="878.365704891008" style="stroke:rgb(80,80,80);stroke-width:1.2"/>
<line x1="104.855715851499" y1="735.721420742506" x2="22.5000000000001" y2="878.365704891008" style="stroke:rgb(80,80,80);stroke-width:1.2"/>
<line x1="22.5000000000001" y1="878.365704891008" x2="187.211431702997" y2="878.365704891008" style="stroke:rgb(80,80,80);stroke-width:1.2"/>
<line x1="22.5000000000001" y1="878.365704891008" x2="104.855715851499" y2="1021.00998903951" style="stroke:rgb(80,80,80);stroke-width:1.2"/>
<line x1="187.211431702997" y1="878.365704891008" x2="104.855715851499" y2="1021.00998903951" style="stroke:rgb(80,80,80);stroke-width:1.2"/>
<line x1="104.855715851499" y1="1021.00998903951" x2="269.567147554496" y2="1021.00998903951" style="stroke:rgb(80,80,80);stroke-width:1.2"/>
<line x1="104.855715851499" y1="1021.00998903951" x2="187.211431702997" y2="1163.65427318801" style="stroke:rgb(80,80,80);stroke-width:1.2"/>
<line x1="104.855715851499" y1="1021.00998903951" x2="22.5000000000001" y2="1163.65427318801" style="stroke:rgb(80,80,80);stroke-width:1.2"/>
<line x1="22.5000000000001" y1="1163.65427318801" x2="187.211431702997" y2="1163.65427318801" style="stroke:rgb(80,80,80);stroke-width:1.2"/>
<line x1="22.5000000000001" y1="1163.65427318801" x2="104.855715851499" y2="1306.29855733651" style="stroke:rgb(80,80,80);stroke-width:1.2"/>
<line x1="187.211431702997" y1="1163.65427318801" x2="104.855715851499" y2="1306.29855733651" style="stroke:rgb(80,80,80);stroke-width:1.2"/>
<line x1="104.855715851499" y1="1306.29855733651" x2="269.567147554496" y2="1306.29855733651" style="stroke:rgb(80,80,80);stroke-width:1.2"/>
<line x1="104.855715851499" y1="1306.29855733651" x2="187.211431702998" y2="1448.94284148501" style="stroke:rgb(80,80,80);stroke-width:1.2"/>
<line x1="104.855715851499" y1="1306.29855733651" x2="22.5000000000001" y2="1448.94284148501" style="stroke:rgb(80,80,80);stroke-width:1.2"/>
<line x1="22.5000000000001" y1="1448.94284148501" x2="187.211431702998" y2="1448.94284148501" style="stroke:rgb(80,80,80);stroke-width:1.2"/>
<line x1="187.211431702997" y1="22.5" x2="351.922863405995" y2="22.5" style="stroke:rgb(80,80,80);stroke-width:1.2"/>
<line x1="187.211431702997" y1="22.5" x2="269.567147554496" y2="165.144284148501" style="stroke:rgb(80,80,80);stroke-width:1.2"/>
<line x1="351.922863405995" y1="22.5" x2="269.567147554496" y2="165.144284148501" style="stroke:rgb(80,80,80);stroke-width:1.2"/>
<line x1="269.567147554496" y1="165.144284148501" x2="434.278579257493" y2="165.144284148501" style="stroke:rgb(80,80,80);stroke-width:1.2"/>
<line x1="269.567147554496" y1="165.144284148501" x2="351.922863405995" y2="307.788568297003" style="stroke:rgb(80,80,80);stroke-width:1.2"/>
<line x1="269.567147554496" y1="165.144284148501" x2="187.211431702997" y2="307.788568297003" style="stroke:rgb(80,80,80);stroke-width:1.2"/>
<line x1="187.211431702997" y1="307.788568297003" x2="351.922863405995" y2="307.788568297003" style="stroke:rgb(80,80,80);stroke-width:1.2"/>
<line x1="187.211431702997" y1="307.788568297003" x2="269.567147554496" y2="450.432852445504" style="stroke:rgb(80,80,80);stroke-width:1.2"/>
<line x1="351.922863405995" y1="307.788568297003" x2="269.567147554496" y2="450.432852445504" style="stroke:rgb(80,80,80);stroke-width:1.2"/>
<line x1="269.567147554496" y1="450.432852445504" x2="434.278579257493" y2="450.432852445504" style="stroke:rgb(80,80,80);stroke-width:1.2"/>
<line x1="269.567147554496" y1="450.432852445504" x2="351.922863405995" y2="593.077136594005" style="stroke:rgb(80,80,80);stroke-width:1.2"/>
<line x1="269.567147554496" y1="450.432852445504" x2="187.211431702997" y2="593.077136594005" style="stroke:rgb(80,80,80);stroke-width:1.2"/>
<line x1="187.211431702997" y1="593.077136594005" x2="351.922863405995" y2="593.077136594005" style="stroke:rgb(80,80,80);stroke-width:1.2"/>
<line x1="187.211431702997" y1="593.077136594005" x2="269.567147554496" y2="735.721420742506" style="stroke:rgb(80,80,80);stroke-width:1.2"/>
<line x1="351.922863405995" y1="593.077136594005" x2="269.567147554496" y2="735.721420742506" style="stroke:rgb(80,80,80);stroke-width:1.2"/>
<line x1="269.567147554496" y1="735.721420742506" x2="434.278579257494" y2="735.721420742506" style="stroke:rgb(80,80,80);stroke-width:1.2"/>
<line x1="269.567147554496" y1="735.721420742506" x2="351.922863405995" y2="878.365704891008" style="stroke:rgb(80,80,80);stroke-width:1.2"/>
<line x1="269.567147554496" y1="735.721420742506" x2="187.211431702997" y2="878.365704891008" style="stroke:rgb(80,80,80);stroke-width:1.2"/>
<line x1="187.211431702997" y1="878.365704891008" x2="351.922863405995" y2="878.365704891008" style="stroke:rgb(80,80,80);stroke-width:1.2"/>
<line x1="187.211431702997" y1="878.365704891008" x2="269.567147554496" y2="1021.00998903951" style="stroke:rgb(80,80,80);stroke-width:1.2"/>
<line x1="351.922863405995" y1="878.365704891008" x2="269.567147554496" y2="1021.00998903951" style="stroke:rgb(80,80,80);stroke-width:1.2"/>
<line x1="269.567147554496" y1="1021.00998903951" x2="434.278579257494" y2="1021.00998903951" style="stroke:rgb(80,80,80);stroke-width:1.2"/>
<line x1="269.567147554496" y1="1021.00998903951" x2="351.922863405995" y2="1163.65427318801" style="stroke:rgb(80,80,80);stroke-width:1.2"/>
<line x1="269.567147554496" y1="1021.00998903951" x2="187.211431702997" y2="1163.65427318801" style="stroke:rgb(80,80,80);stroke-width:1.2"/>
<line x1="187.211431702997" y1="1163.65427318801" x2="351.922863405995" y2="1163.65427318801" style="stroke:rgb(80,80,80);stroke-width:1.2"/>
<line x1="187.211431702997" y1="1163.65427318801" x2="269.567147554496" y2="1306.29855733651" style="stroke:rgb(80,80,80);stroke-width:1.2"/>
<line x1="351.922863405995" y1="1163.65427318801" x2="269.567147554496" y2="1306.29855733651" style="stroke:rgb(80,80,80);stroke-width:1.2"/>
<line x1="269.567147554496" y1="1306.29855733651" x2="434.278579257494" y2="1306.29855733651" style="stroke:rgb(80,80,80);stroke-width:1.2"/>
<line x1="269.567147554496" y1="1306.29855733651" x2="351.922863405995" y2="1448.94284148501" style="stroke:rgb(80,80,80);stroke-width:1.2"/>
<line x1="269.567147554496" y1="1306.29855733651" x2="187.211431702998" y2="1448.94284148501" style="stroke:rgb(80,80,80);stroke-width:1.2"/>
<line x1="187.211431702998" y1="1448.94284148501" x2="351.922863405995" y2="1448.94284148501" style="stroke:rgb(80,80,80);stroke-width:1.2"/>
<line x1="351.922863405995" y1="22.5" x2="516.634295108992" y2="22.5" style="stroke:rgb(80,80,80);stroke-width:1.2"/>
<line x1="351.922863405995" y1="22.5" x2="434.278579257493" y2="165.144284148501" style="stroke:rgb(80,80,80);stroke-width:1.2"/>
<line x1="516.634295108992" y1="22.5" x2="434.278579257493" y2="165.144284148501" style="stroke:rgb(80,80,80);stroke-width:1.2"/>
<line x1="434.278579257493" y1="165.144284148501" x2="598.990010960491" y2="165.144284148501" style="stroke:rgb(80,80,80);stroke-width:1.2"/>
<line x1="434.278579257493" y1="165.144284148501" x2="516.634295108992" y2="307.788568297003" style="stroke:rgb(80,80,80);stroke-width:1.2"/>
<line x1="434.278579257493" y1="165.144284148501" x2="351.922863405995" y2="307.788568297003" style="stroke:rgb(80,80,80);stroke-width:1.2"/>
<line x1="351.922863405995" y1="307.788568297003" x2="516.634295108992" y2="307.788568297003" style="stroke:rgb(80,80,80);stroke-width:1.2"/>
<line x1="351.922863405995" y1="307.788568297003" x2="434.278579257494" y2="450.432852445504" style="stroke:rgb(80,80,80);stroke-width:1.2"/>
<line x1="516.634295108992" y1="307.788568297003" x2="434.278579257494" y2="450.432852445504" style="stroke:rgb(80,80,80);stroke-width:1.2"/>
<line x1="434.278579257494" y1="450.432852445504" x2="598.990010960491" y2="450.432852445504" style="stroke:rgb(80,80,80);stroke-width:1.2"/>
<line x1="434.278579257494" y1="450.432852445504" x2="516.634295108992" y2="593.077136594005" style="stroke:rgb(80,80,80);stroke-width:1.2"/>
<line x1="434.278579257494" y1="450.432852445504" x2="351.922863405995" y2="593.077136594005" style="stroke:rgb(80,80,80);stroke-width:1.2"/>
<line x1="351.922863405995" y1="593.077136594005" x2="516.634295108992" y2="593.077136594005" style="stroke:rgb(80,80,80);stroke-width:1.2"/>
<line x1="351.922863405995" y1="593.077136594005" x2="434.278579257494" y2="735.721420742506" style="stroke:rgb(80,80,80);stroke-width:1.2"/>
<line x1="516.634295108992" y1="593.077136594005" x2="434.278579257494" y2="735.721420742506" style="stroke:rgb(80,80,80);stroke-width:1.2"/>
<line x1="434.278579257494" y1="735.721420742506" x2="598.990010960491" y2="735.721420742506" style="stroke:rgb(80,80,80);stroke-width:1.2"/>
<line x1="434.278579257494" y1="735.721420742506" x2="516.634295108992" y2="878.365704891008" style="stroke:rgb(80,80,80);stroke-width:1.2"/>
<line x1="434.278579257494" y1="735.721420742506" x2="351.922863405995" y2="878.365704891008" style="stroke:rgb(80,80,80);stroke-width:1.2"/>
<line x1="351.922863405995" y1="878.365704891008" x2="516.634295108992" y2="878.365704891008" style="stroke:rgb(80,80,80);stroke-width:1.2"/>
<line x1="351.922863405995" y1="878.365704891008" x2="434.278579257494" y2="1021.00998903951" style="stroke:rgb(80,80,80);stroke-width:1.2"/>
<line x1="516.634295108992" y1="878.365704891008" x2="434.278579257494" y2="1021.00998903951" style="stroke:rgb(80,80,80);stroke-width:1.2"/>
<line x1="434.278579257494" y1="1021.00998903951" x2="598.990010960491" y2="1021.00998903951" style="stroke:rgb(80,80,80);stroke-width:1.2"/>
<line x1="434.278579257494" y1="1021.00998903951" x2="516.634295108992" y2="1163.65427318801" style="stroke:rgb(80,80,80);stroke-width:1.2"/>
<line x1="434.278579257494" y1="1021.00998903951" x2="351.922863405995" y2="1163.65427318801" style="stroke:rgb(80,80,80);stroke-width:1.2"/>
<line x1="351.922863405995" y1="1163.65427318801" x2="516.634295108992" y2="1163.65427318801" style="stroke:rgb(80,80,80);stroke-width:1.2"/>
<line x1="351.922863405995" y1="1163.65427318801" x2="434.278579257494" y2="1306.29855733651" style="stroke:rgb(80,80,80);stroke-width:1.2"/>
<line x1="516.634295108992" y1="1163.65427318801" x2="434.278579257494" y2="1306.29855733651" style="stroke:rgb(80,80,80);stroke-width:1.2"/>
<line x1="434.278579257494" y1="1306.29855733651" x2="598.990010960491" y2="1306.29855733651" style="stroke:rgb(80,80,80);stroke-width:1.2"/>
<line x1="434.278579257494" y1="1306.29855733651" x2="516.634295108992" y2="1448.94284148501" style="stroke:rgb(80,80,80);stroke-width:1.2"/>
<line x1="434.278579257494" y1="1306.29855733651" x2="351.922863405995" y2="1448.94284148501" style="stroke:rgb(80,80,80);stroke-width:1.2"/>
<line x1="351.922863405995" y1="1448.94284148501" x2="516.634295108992" y2="1448.94284148501" style="stroke:rgb(80,80,80);stroke-width:1.2"/>
<line x1="516.634295108992" y1="22.5" x2="681.345726811989" y2="22.5" style="stroke:rgb(80,80,80);stroke-width:1.2"/>
<line x1="516.634295108992" y1="22.5" x2="598.990010960491" y2="165.144284148501" style="stroke:rgb(80,80,80);stroke-width:1.2"/>
<line x1="681.345726811989" y1="22.5" x2="598.990010960491" y2="165.144284148501" style="stroke:rgb(80,80,80);stroke-width:1.2"/>
<line x1="598.990010960491" y1="165.144284148501" x2="763.701442663488" y2="165.144284148501" style="stroke:rgb(80,80,80);stroke-width:1.2"/>
<line x1="598.990010960491" y1="165.144284148501" x2="681.345726811989" y2="307.788568297003" style="stroke:rgb(80,80,80);stroke-width:1.2"/>
<line x1="598.990010960491" y1="165.144284148501" x2="516.634295108992" y2="307.788568297003" style="stroke:rgb(80,80,80);stroke-width:1.2"/>
<line x1="516.634295108992" y1="307.788568297003" x2="681.345726811989" y2="307.788568297003" style="stroke:rgb(80,80,80);stroke-width:1.2"/>
<line x1="516.634295108992" y1="307.788568297003" x2="598.990010960491" y2="450.432852445504" style="stroke:rgb(80,80,80);stroke-width:1.2"/>
<line x1="681.345726811989" y1="307.788568297003" x2="598.990010960491" y2="450.432852445504" style="stroke:rgb(80,80,80);stroke-width:1.2"/>
<line x1="598.990010960491" y1="450.432852445504" x2="763.701442663488" y2="450.432852445504" style="stroke:rgb(80,80,80);stroke-width:1.2"/>
<line x1="598.990010960491" y1="450.432852445504" x2="681.345726811989" y2="593.077136594005" style="stroke:rgb(80,80,80);stroke-width:1.2"/>
<line x1="598.990010960491" y1="450.432852445504" x2="516.634295108992" y2="593.077136594005" style="stroke:rgb(80,80,80);stroke-width:1.2"/>
<line x1="516.634295108992" y1="593.077136594005" x2="681.345726811989" y2="593.077136594005" style="stroke:rgb(80,80,80);stroke-width:1.2"/>
<line x1="516.634295108992" y1="593.077136594005" x2="598.990010960491" y2="735.721420742506" style="stroke:rgb(80,80,80);stroke-width:1.2"/>
<line x1="681.345726811989" y1="593.077136594005" x2="598.990010960491" y2="735.721420742506" style="stroke:rgb(80,80,80);stroke-width:1.2"/>
<line x1="598.990010960491" y1="735.721420742506" x2="763.701442663488" y2="735.721420742506" style="stroke:rgb(80,80,80);stroke-width:1.2"/>
<line x1="598.990010960491" y1="735.721420742506" x2="681.34572681199" y2="878.365704891008" style="stroke:rgb(80,80,80);stroke-width:1.2"/>
<line x1="598.990010960491" y1="735.721420742506" x2="516.634295108992" y2="878.365704891008" style="stroke:rgb(80,80,80);stroke-width:1.2"/>
<line x1="516.634295108992" y1="878.365704891008" x2="681.34572681199" y2="878.365704891008" style="stroke:rgb(80,80,80);stroke-width:1.2"/>
<line x1="516.634295108992" y1="878.365704891008" x2="598.990010960491" y2="1021.00998903951" style="stroke:rgb(80,80,80);stroke-width:1.2"/>
<line x1="681.34572681199" y1="878.365704891008" x2="598.990010960491" y2="1021.00998903951" style="stroke:rgb(80,80,80);stroke-width:1.2"/>
<line x1="598.990010960491" y1="1021.00998903951" x2="763.701442663488" y2="1021.00998903951" style="stroke:rgb(80,80,80);stroke-width:1.2"/>
<line x1="598.990010960491" y1="1021.00998903951" x2="681.34572681199" y2="1163.65427318801" style="stroke:rgb(80,80,80);stroke-width:1.2"/>
<line x1="598.990010960491" y1="1021.00998903951" x2="516.634295108992" y2="1163.65427318801" style="stroke:rgb(80,80,80);stroke-width:1.2"/>
<line x1="516.634295108992" y1="1163.65427318801" x2="681.34572681199" y2="1163.65427318801" style="stroke:rgb(80,80,80);stroke-width:1.2"/>
<line x1="516.634295108992" y1="1163.65427318801" x2="598.990010960491" y2="1306.29855733651" style="stroke:rgb(80,80,80);stroke-width:1.2"/>
<line x1="681.34572681199" y1="1163.65427318801" x2="598.990010960491" y2="1306.29855733651" style="stroke:rgb(80,80,80);stroke-width:1.2"/>
<line x1="598.990010960491" y1="1306.29855733651" x2="763.701442663488" y2="1306.29855733651" style="stroke:rgb(80,80,80);stroke-width:1.2"/>
<line x1="598.990010960491" y1="1306.29855733651" x2="681.34572681199" y2="1448.94284148501" style="stroke:rgb(80,80,80);stroke-width:1.2"/>
<line x1="598.990010960491" y1="1306.29855733651" x2="516.634295108992" y2="1448.94284148501" style="stroke:rgb(80,80,80);stroke-width:1.2"/>
<line x1="516.634295108992" y1="1448.94284148501" x2="681.34572681199" y2="1448.94284148501" style="stroke:rgb(80,80,80);stroke-width:1.2"/>
<line x1="681.345726811989" y1="22.5" x2="846.057158514987" y2="22.5" style="stroke:rgb(80,80,80);stroke-width:1.2"/>
<line x1="681.345726811989" y1="22.5" x2="763.701442663488" y2="165.144284148501" style="stroke:rgb(80,80,80);stroke-width:1.2"/>
<line x1="846.057158514987" y1="22.5" x2="763.701442663488" y2="165.144284148501" style="stroke:rgb(80,80,80);stroke-width:1.2"/>
<line x1="763.701442663488" y1="165.144284148501" x2="928.412874366486" y2="165.144284148501" style="stroke:rgb(80,80,80);stroke-width:1.2"/>
<line x1="763.701442663488" y1="165.144284148501" x2="846.057158514987" y2="307.788568297003" style="stroke:rgb(80,80,80);stroke-width:1.2"/>
<line x1="763.701442663488" y1="165.144284148501" x2="681.345726811989" y2="307.788568297003" style="stroke:rgb(80,80,80);stroke-width:1.2"/>
<line x1="681.345726811989" y1="307.788568297003" x2="846.057158514987" y2="307.788568297003" style="stroke:rgb(80,80,80);stroke-width:1.2"/>
<line x1="681.345726811989" y1="307.788568297003" x2="763.701442663488" y2="450.432852445504" style="stroke:rgb(80,80,80);stroke-width:1.2"/>
<line x1="846.057158514987" y1="307.788568297003" x2="763.701442663488" y2="450.432852445504" style="stroke:rgb(80,80,80);stroke-width:1.2"/>
<line x1="763.701442663488" y1="450.432852445504" x2="928.412874366486" y2="450.432852445504" style="stroke:rgb(80,80,80);stroke-width:1.2"/>
<line x1="763.701442663488" y1="450.432852445504" x2="846.057158514987" y2="593.077136594005" style="stroke:rgb(80,80,80);stroke-width:1.2"/>
<line x1="763.701442663488" y1="450.432852445504" x2="681.345726811989" y2="593.077136594005" style="stroke:rgb(80,80,80);stroke-width:1.2"/>
<line x1="681.34572681199" y1="593.077136594005" x2="846.057158514987" y2="593.077136594005" style="stroke:rgb(80,80,80);stroke-width:1.2"/>
<line x1="681.34572681199" y1="593.077136594005" x2="763.701442663488" y2="735.721420742506" style="stroke:rgb(80,80,80);stroke-width:1.2"/>
<line x1="846.057158514987" y1="593.077136594005" x2="763.701442663488" y2="735.721420742506" style="stroke:rgb(80,80,80);stroke-width:1.2"/>
<line x1="763.701442663488" y1="735.721420742506" x2="928.412874366486" y2="735.721420742506" style="stroke:rgb(80,80,80);stroke-width:1.2"/>
<line x1="763.701442663488" y1="735.721420742506" x2="846.057158514987" y2="878.365704891008" style="stroke:rgb(80,80,80);stroke-width:1.2"/>
<line x1="763.701442663488" y1="735.721420742506" x2="681.34572681199" y2="878.365704891008" style="stroke:rgb(80,80,80);stroke-width:1.2"/>
<line x1="681.34572681199" y1="878.365704891008" x2="846.057158514987" y2="878.365704891008" style="stroke:rgb(80,80,80);stroke-width:1.2"/>
<line x1="681.34572681199" y1="878.365704891008" x2="763.701442663488" y2="1021.00998903951" style="stroke:rgb(80,80,80);stroke-width:1.2"/>
<line x1="846.057158514987" y1="878.365704891008" x2="763.701442663488" y2="1021.00998903951" style="stroke:rgb(80,80,80);stroke-width:1.2"/>
<line x1="763.701442663488" y1="1021.00998903951" x2="928.412874366486" y2="1021.00998903951" style="stroke:rgb(80,80,80);stroke-width:1.2"/>
<line x1="763.701442663488" y1="1021.00998903951" x2="846.057158514987" y2="1163.65427318801" style="stroke:rgb(80,80,80);stroke-width:1.2"/>
<line x1="763.701442663488" y1="1021.00998903951" x2="681.34572681199" y2="1163.65427318801" style="stroke:rgb(80,80,80);stroke-width:1.2"/>
<line x1="681.34572681199" y1="1163.65427318801" x2="846.057158514987" y2="1163.65427318801" style="stroke:rgb(80,80,80);stroke-width:1.2"/>
<line x1="681.34572681199" y1="1163.65427318801" x2="763.701442663488" y2="1306.29855733651" style="stroke:rgb(80,80,80);stroke-width:1.2"/>
<line x1="846.057158514987" y1="1163.65427318801" x2="763.701442663488" y2="1306.29855733651" style="stroke:rgb(80,80,80);stroke-width:1.2"/>
<line x1="763.701442663488" y1="1306.29855733651" x2="928.412874366486" y2="1306.29855733651" style="stroke:rgb(80,80,80);stroke-width:1.2"/>
<line x1="763.701442663488" y1="1306.29855733651" x2="846.057158514987" y2="1448.94284148501" style="stroke:rgb(80,80,80);stroke-width:1.2"/>
<line x1="763.701442663488" y1="1306.29855733651" x2="681.34572681199" y2="1448.94284148501" style="stroke:rgb(80,80,80);stroke-width:1.2"/>
<line x1="681.34572681199" y1="1448.94284148501" x2="846.057158514987" y2="1448.94284148501" style="stroke:rgb(80,80,80);stroke-width:1.2"/>
<line x1="846.057158514987" y1="22.5" x2="1010.76859021798" y2="22.5" style="stroke:rgb(80,80,80);stroke-width:1.2"/>
<line x1="846.057158514987" y1="22.5" x2="928.412874366486" y2="165.144284148501" style="stroke:rgb(80,80,80);stroke-width:1.2"/>
<line x1="1010.76859021798" y1="22.5" x2="928.412874366486" y2="165.144284148501" style="stroke:rgb(80,80,80);stroke-width:1.2"/>
<line x1="928.412874366486" y1="165.144284148501" x2="1093.12430606948" y2="165.144284148501" style="stroke:rgb(80,80,80);stroke-width:1.2"/>
<line x1="928.412874366486" y1="165.144284148501" x2="1010.76859021798" y2="307.788568297003" style="stroke:rgb(80,80,80);stroke-width:1.2"/>
<line x1="928.412874366486" y1="165.144284148501" x2="846.057158514987" y2="307.788568297003" style="stroke:rgb(80,80,80);stroke-width:1.2"/>
<line x1="846.057158514987" y1="307.788568297003" x2="1010.76859021798" y2="307.788568297003" style="stroke:rgb(80,80,80);stroke-width:1.2"/>
<line x1="846.057158514987" y1="307.788568297003" x2="928.412874366486" y2="450.432852445504" style="stroke:rgb(80,80,80);stroke-width:1.2"/>
<line x1="1010.76859021798" y1="307.788568297003" x2="928.412874366486" y2="450.432852445504" style="stroke:rgb(80,80,80);stroke-width:1.2"/>
<line x1="928.412874366486" y1="450.432852445504" x2="1093.12430606948" y2="450.432852445504" style="stroke:rgb(80,80,80);stroke-width:1.2"/>
<line x1="928.412874366486" y1="450.432852445504" x2="1010.76859021798" y2="593.077136594005" style="stroke:rgb(80,80,80);stroke-width:1.2"/>
<line x1="928.412874366486" y1="450.432852445504" x2="846.057158514987" y2="593.077136594005" style="stroke:rgb(80,80,80);stroke-width:1.2"/>
<line x1="846.057158514987" y1="593.077136594005" x2="1010.76859021798" y2="593.077136594005" style="stroke:rgb(80,80,80);stroke-width:1.2"/>
<line x1="846.057158514987" y1="593.077136594005" x2="928.412874366486" y2="735.721420742506" style="stroke:rgb(80,80,80);stroke-width:1.2"/>
<line x1="1010.76859021798" y1="593.077136594005" x2="928.412874366486" y2="735.721420742506" style="stroke:rgb(80,80,80);stroke-width:1.2"/>
<line x1="928.412874366486" y1="735.721420742506" x2="1093.12430606948" y2="735.721420742506" style="stroke:rgb(80,80,80);stroke-width:1.2"/>
<line x1="928.412874366486" y1="735.721420742506" x2="1010.76859021798" y2="878.365704891008" style="stroke:rgb(80,80,80);stroke-width:1.2"/>
<line x1="928.412874366486" y1="735.721420742506" x2="846.057158514987" y2="878.365704891008" style="stroke:rgb(80,80,80);stroke-width:1.2"/>
<line x1="846.057158514987" y1="878.365704891008" x2="1010.76859021798" y2="878.365704891008" style="stroke:rgb(80,80,80);stroke-width:1.2"/>
<line x1="846.057158514987" y1="878.365704891008" x2="928.412874366486" y2="1021.00998903951" style="stroke:rgb(80,80,80);stroke-width:1.2"/>
<line x1="1010.76859021798" y1="878.365704891008" x2="928.412874366486" y2="1021.00998903951" style="stroke:rgb(80,80,80);stroke-width:1.2"/>
<line x1="928.412874366486" y1="1021.00998903951" x2="1093.12430606948" y2="1021.00998903951" style="stroke:rgb(80,80,80);stroke-width:1.2"/>
<line x1="928.412874366486" y1="1021.00998903951" x2="1010.76859021798" y2="1163.65427318801" style="stroke:rgb(80,80,80);stroke-width:1.2"/>
<line x1="928.412874366486" y1="1021.00998903951" x2="846.057158514987" y2="1163.65427318801" style="stroke:rgb(80,80,80);stroke-width:1.2"/>
<line x1="846.057158514987" y1="1163.65427318801" x2="1010.76859021798" y2="1163.65427318801" style="stroke:rgb(80,80,80);stroke-width:1.2"/>
<line x1="846.057158514987" y1="1163.65427318801" x2="928.412874366486" y2="1306.29855733651" style="stroke:rgb(80,80,80);stroke-width:1.2"/>
<line x1="1010.76859021798" y1="1163.65427318801" x2="928.412874366486" y2="1306.29855733651" style="stroke:rgb(80,80,80);stroke-width:1.2"/>
<line x1="928.412874366486" y1="1306.29855733651" x2="1093.12430606948" y2="1306.29855733651" style="stroke:rgb(80,80,80);stroke-width:1.2"/>
<line x1="928.412874366486" y1="1306.29855733651" x2="1010.76859021798" y2="1448.94284148501" style="stroke:rgb(80,80,80);stroke-width:1.2"/>
<line x1="928.412874366486" y1="1306.29855733651" x2="846.057158514987" y2="1448.94284148501" style="stroke:rgb(80,80,80);stroke-width:1.2"/>
<line x1="846.057158514987" y1="1448.94284148501" x2="1010.76859021798" y2="1448.94284148501" style="stroke:rgb(80,80,80);stroke-width:1.2"/>
<line x1="1010.76859021798" y1="22.5" x2="1093.12430606948" y2="165.144284148501" style="stroke:rgb(80,80,80);stroke-width:1.2"/>
<line x1="1093.12430606948" y1="165.144284148501" x2="1010.76859021798" y2="307.788568297003" style="stroke:rgb(80,80,80);stroke-width:1.2"/>
<line x1="1010.76859021798" y1="307.788568297003" x2="1093.12430606948" y2="450.432852445504" style="stroke:rgb(80,80,80);stroke-width:1.2"/>
<line x1="1093.12430606948" y1="450.432852445504" x2="1010.76859021798" y2="593.077136594005" style="stroke:rgb(80,80,80);stroke-width:1.2"/>
<line x1="1010.76859021798" y1="593.077136594005" x2="1093.12430606948" y2="735.721420742506" style="stroke:rgb(80,80,80);stroke-width:1.2"/>
<line x1="1093.12430606948" y1="735.721420742506" x2="1010.76859021798" y2="878.365704891008" style="stroke:rgb(80,80,80);stroke-width:1.2"/>
<line x1="1010.76859021798" y1="878.365704891008" x2="1093.12430606948" y2="1021.00998903951" style="stroke:rgb(80,80,80);stroke-width:1.2"/>
<line x1="1093.12430606948" y1="1021.00998903951" x2="1010.76859021798" y2="1163.65427318801" style="stroke:rgb(80,80,80);stroke-width:1.2"/>
<line x1="1010.76859021798" y1="1163.65427318801" x2="1093.12430606948" y2="1306.29855733651" style="stroke:rgb(80,80,80);stroke-width:1.2"/>
<line x1="1093.12430606948" y1="1306.29855733651" x2="1010.76859021798" y2="1448.94284148501" style="stroke:rgb(80,80,80);stroke-width:1.2"/>
</svg>
